<svg width="26" height="26" viewBox="0 0 26 26" fill="none" xmlns="http://www.w3.org/2000/svg">
<path d="M0 13C0 5.8203 5.8203 0 13 0C20.1797 0 26 5.8203 26 13C26 20.1797 20.1797 26 13 26C5.8203 26 0 20.1797 0 13Z" fill="#313131"/>
<path d="M13.0003 13.0003C12.6013 13.0003 12.2023 12.9295 11.8913 12.7879L7.50715 10.7887C7.3066 10.6975 6.83887 10.4306 6.83887 9.92671C6.83887 9.42283 7.3066 9.15652 7.50774 9.0641L11.9298 7.04771C12.5391 6.76925 13.4586 6.76925 14.0682 7.04771L18.4929 9.0641C18.694 9.15564 19.1618 9.42253 19.1618 9.92671C19.1618 10.4309 18.694 10.6969 18.4929 10.789L14.1088 12.7879C13.7984 12.9295 13.3993 13.0003 13.0003 13.0003Z" fill="#B4B4B4"/>
<path d="M18.4911 12.1353L18.0441 11.9336L16.8957 12.4591L14.1112 13.7329C13.8001 13.875 13.4002 13.9458 13.0021 13.9458C12.604 13.9458 12.2044 13.875 11.8936 13.7329L9.10705 12.4591L7.9583 11.9336L7.50744 12.1362C7.3066 12.2277 6.83887 12.4964 6.83887 13C6.83887 13.5036 7.3066 13.7726 7.50715 13.8641L11.8913 15.8674C12.2005 16.0096 12.6001 16.0807 13.0003 16.0807C13.4005 16.0807 13.7984 16.0096 14.1094 15.8677L18.4897 13.865C18.6914 13.7734 19.1618 13.5062 19.1618 13C19.1618 12.4938 18.6946 12.2277 18.4911 12.1353Z" fill="#B4B4B4"/>
<path d="M18.4911 15.2161L18.0441 15.0146L16.8957 15.5399L14.1112 16.8121C13.8001 16.9537 13.4002 17.0248 13.0021 17.0248C12.604 17.0248 12.2044 16.954 11.8936 16.8121L9.10705 15.5384L7.9583 15.0146L7.50744 15.2173C7.3066 15.3088 6.83887 15.5775 6.83887 16.0811C6.83887 16.5846 7.3066 16.8533 7.50715 16.9445L11.8913 18.9467C12.2005 19.0883 12.6016 19.1618 13.0003 19.1618C13.399 19.1618 13.7966 19.0883 14.1076 18.9464L18.4894 16.9448C18.6914 16.8536 19.1618 16.5864 19.1618 16.0811C19.1618 15.5757 18.6946 15.3088 18.4911 15.2161Z" fill="#B4B4B4"/>
</svg>
