<svg width="64" height="64" viewBox="0 0 64 64" fill="none" xmlns="http://www.w3.org/2000/svg">
<path d="M38.724 29.6887L43.1621 22.1579L55.1248 40.7898L55.1303 44.3655L55.0913 19.7601C55.063 19.1585 54.7436 18.6081 54.2342 18.2835L32.697 5.89546C32.1935 5.64781 31.5542 5.65078 31.0515 5.90327C30.9834 5.93748 30.9199 5.9743 30.8589 6.01483L30.7838 6.06206L9.87835 18.1764L9.79729 18.2136C9.69279 18.2612 9.58756 18.3226 9.48827 18.3932C9.09187 18.6773 8.8286 19.0979 8.74344 19.569C8.7308 19.6404 8.72113 19.7133 8.71704 19.7869L8.74976 39.8378L19.8924 22.5677C21.2951 20.2778 24.3518 19.5396 27.1894 19.5802L30.5194 19.6679L10.8976 51.1356L13.2106 52.4672L33.0673 19.6999L41.8443 19.6679L22.0388 53.2622L30.2922 58.0097L31.2783 58.5764C31.6956 58.746 32.1871 58.7546 32.6077 58.6025L54.4476 45.9459L50.272 48.3656L38.724 29.6887ZM40.4171 54.077L32.0812 40.9932L37.17 32.3579L48.1179 49.6139L40.4171 54.077Z" fill="#2B2B2B"/>
<path d="M32.0792 40.9939L40.4155 54.0774L48.1159 49.6147L37.1681 32.3586L32.0792 40.9939Z" fill="#CFCFCF"/>
<path d="M55.1288 44.3656L55.1233 40.7898L43.1606 22.158L38.7225 29.6888L50.2709 48.3657L54.4465 45.946C54.8559 45.6135 55.1039 45.1253 55.13 44.5987L55.1288 44.3656Z" fill="#CFCFCF"/>
<path d="M5.00006 47.7374L10.8966 51.135L30.5183 19.6674L27.1884 19.5797C24.3511 19.5395 21.2944 20.2773 19.8914 22.5672L8.74874 39.8373L5.00006 45.597V47.7374Z" fill="white"/>
<path d="M41.8431 19.6691L33.0662 19.701L13.2094 52.4683L20.1501 56.4643L22.0373 53.2633L41.8431 19.6691Z" fill="white"/>
<path d="M58.8277 19.6238C58.7544 17.7883 57.7605 16.1082 56.2039 15.1299L34.3845 2.58196C32.8446 1.80663 30.921 1.80552 29.3782 2.58158C29.196 2.67343 8.15929 14.874 8.15929 14.874C7.86813 15.0135 7.58775 15.1797 7.3241 15.3686C5.93448 16.3648 5.08739 17.9125 5 19.6126L5 45.5991L8.74868 39.8394L8.71596 19.7881C8.72042 19.7149 8.72972 19.6424 8.74236 19.5713C8.82715 19.0995 9.09079 18.6789 9.48719 18.3944C9.58648 18.3238 30.982 5.93871 31.05 5.9045C31.5532 5.652 32.192 5.64903 32.6955 5.89669L54.2327 18.2847C54.7421 18.6093 55.0615 19.1597 55.0898 19.7614V44.5995C55.0638 45.1261 54.8555 45.6143 54.4461 45.9468L50.2705 48.3664L48.116 49.6151L40.4156 54.0778L32.6062 58.6033C32.1857 58.7554 31.6937 58.7468 31.2769 58.5773L22.0373 53.263L20.1498 56.464L28.4534 61.2446C28.7278 61.4008 28.9725 61.5391 29.1733 61.6521C29.4841 61.8265 29.6961 61.9429 29.7708 61.9794C30.361 62.2661 31.2099 62.4327 31.9752 62.4327C32.6765 62.4327 33.3607 62.304 34.0081 62.0504L56.691 48.9146C57.9929 47.9057 58.7589 46.3844 58.8277 44.7367V19.6238Z" fill="#717171"/>
</svg>
