<svg width="64" height="64" viewBox="0 0 64 64" fill="none" xmlns="http://www.w3.org/2000/svg">
<g id="container" clip-path="url(#clip0_527_2035)">
<path id="Vector" d="M32 61.584C48.3393 61.584 61.5849 48.3383 61.5849 31.999C61.5849 15.6597 48.3393 2.41406 32 2.41406C15.6607 2.41406 2.4151 15.6597 2.4151 31.999C2.4151 48.3383 15.6607 61.584 32 61.584Z" stroke="white" stroke-width="5.03145"/>
<path id="Vector_2" d="M37.6352 42.6685C37.434 42.4672 37.434 42.0647 37.2327 41.6622C37.2327 41.2597 37.0315 40.8572 37.0315 40.4546C36.6289 40.8572 36.2264 41.0584 35.8239 41.4609C35.4214 41.8634 34.8176 42.0647 34.4151 42.266C33.8113 42.4672 33.4088 42.6685 32.6038 42.8697C32 43.071 31.195 43.071 30.5912 43.071C29.3837 43.071 28.3774 42.8697 27.3711 42.4672C26.3648 42.0647 25.5598 41.6622 24.7547 41.0584C23.9497 40.4546 23.5472 39.6496 23.1447 38.8446C22.7422 38.0395 22.5409 37.0333 22.5409 36.027C22.5409 33.6119 23.5472 31.5993 25.3585 30.3917C27.1698 28.9829 29.9874 28.3791 33.6101 28.3791H37.0315V26.9703C37.0315 25.7628 36.6289 24.9578 36.0252 24.354C35.2201 23.7502 34.2138 23.3477 32.805 23.3477C31.5975 23.3477 30.7925 23.5489 30.1887 24.1527C29.5849 24.7565 29.3837 25.3603 29.3837 26.1653H23.3459C23.3459 25.159 23.5472 24.1527 23.9497 23.3477C24.3522 22.5427 24.956 21.7376 25.9623 20.9326C26.7673 20.3288 27.7736 19.725 28.9811 19.3225C30.1887 18.92 31.5975 18.7188 33.2076 18.7188C34.6164 18.7188 35.8239 18.92 37.0315 19.3225C38.239 19.725 39.2453 20.1276 40.2516 20.9326C41.0566 21.5364 41.8616 22.5427 42.2642 23.5489C42.6667 24.5552 43.0692 25.7628 43.0692 27.1716V37.2345C43.0692 38.4421 43.0692 39.4483 43.2705 40.2534C43.4717 41.0584 43.673 41.8634 43.8742 42.266V42.6685H37.6352ZM31.7988 38.4421C32.4025 38.4421 33.0063 38.4421 33.4088 38.2408C34.0126 38.0395 34.4151 37.8383 34.8176 37.637C35.2201 37.4358 35.6227 37.2345 35.8239 36.832C36.0252 36.6307 36.4277 36.2282 36.6289 36.027V32.0018H33.6101C32.6038 32.0018 31.7988 32.0018 31.195 32.2031C30.5912 32.4043 29.9874 32.6056 29.5849 33.0081C29.1824 33.4106 28.7799 33.6119 28.5786 34.2156C28.3774 34.6182 28.3774 35.2219 28.3774 35.6244C28.3774 36.4295 28.5786 37.0333 29.1824 37.637C29.7862 38.2408 30.7925 38.4421 31.7988 38.4421Z" fill="white"/>
</g>
<defs>
<clipPath id="clip0_527_2035">
<rect width="64" height="64.0001" fill="white"/>
</clipPath>
</defs>
</svg>
