<svg width="32" height="32" viewBox="0 0 32 32" fill="none" xmlns="http://www.w3.org/2000/svg">
<g id="astro">
<path d="M0 16C0 7.16344 7.16344 0 16 0C24.8366 0 32 7.16344 32 16C32 24.8366 24.8366 32 16 32C7.16344 32 0 24.8366 0 16Z" fill="#1B1B1B"/>
<path id="Vector" d="M12.4978 23.5623C11.3673 22.5425 11.0373 20.3999 11.5083 18.8477C12.325 19.8263 13.4565 20.1364 14.6285 20.3114C16.4379 20.5814 18.2148 20.4804 19.8957 19.6643C20.088 19.5709 20.2656 19.4466 20.4758 19.3208C20.6335 19.7723 20.6745 20.2282 20.6194 20.6921C20.4855 21.822 19.9157 22.6949 19.0093 23.3565C18.6469 23.6211 18.2635 23.8577 17.8892 24.1073C16.7393 24.8742 16.4282 25.7735 16.8603 27.0816C16.8705 27.1135 16.8797 27.1454 16.9029 27.2231C16.3158 26.9639 15.887 26.5864 15.5602 26.09C15.2151 25.5661 15.0509 24.9865 15.0422 24.3595C15.0379 24.0543 15.0379 23.7465 14.9963 23.4456C14.8948 22.7122 14.5459 22.3838 13.8886 22.3648C13.214 22.3454 12.6804 22.757 12.5388 23.4051C12.528 23.4548 12.5124 23.5039 12.4967 23.5617L12.4978 23.5623Z" fill="#F1F1F1"/>
<path id="Vector_2" d="M6.8125 19.3227C6.8125 19.3227 9.90356 17.8206 13.0032 17.8206L15.3403 10.6059C15.4278 10.2569 15.6833 10.0198 15.9717 10.0198C16.2601 10.0198 16.5156 10.2569 16.6031 10.6059L18.9401 17.8206C22.6113 17.8206 25.1309 19.3227 25.1309 19.3227C25.1309 19.3227 19.8805 5.05513 19.8702 5.02651C19.7195 4.60468 19.4651 4.33301 19.1221 4.33301H12.8218C12.4788 4.33301 12.2347 4.60468 12.0737 5.02651C12.0624 5.05459 6.8125 19.3227 6.8125 19.3227Z" fill="#F1F1F1"/>
</g>
</svg>
