<svg width="1080" height="720" viewBox="0 0 1080 720" fill="none" xmlns="http://www.w3.org/2000/svg">
<rect width="1080" height="720" fill="url(#paint0_radial_603_301)"/>
<path d="M240.928 440.019C232.706 432.502 230.306 416.71 233.732 405.269C239.671 412.482 247.901 414.768 256.426 416.056C269.586 418.047 282.51 417.303 294.736 411.288C296.134 410.6 297.426 409.683 298.955 408.756C300.102 412.083 300.4 415.443 300 418.863C299.025 427.191 294.881 433.625 288.289 438.501C285.653 440.452 282.864 442.195 280.142 444.035C271.778 449.686 269.515 456.315 272.658 465.957C272.732 466.192 272.799 466.427 272.968 467C268.698 465.089 265.579 462.306 263.202 458.648C260.692 454.786 259.498 450.514 259.435 445.893C259.404 443.644 259.404 441.374 259.101 439.158C258.362 433.752 255.825 431.332 251.044 431.191C246.137 431.05 242.256 434.082 241.227 438.859C241.148 439.225 241.034 439.587 240.92 440.013L240.928 440.019Z" fill="white"/>
<path d="M240.928 440.019C232.706 432.502 230.306 416.71 233.732 405.269C239.671 412.482 247.901 414.768 256.426 416.056C269.586 418.047 282.51 417.303 294.736 411.288C296.134 410.6 297.426 409.683 298.955 408.756C300.102 412.083 300.4 415.443 300 418.863C299.025 427.191 294.881 433.625 288.289 438.501C285.653 440.452 282.864 442.195 280.142 444.035C271.778 449.686 269.515 456.315 272.658 465.957C272.732 466.192 272.799 466.427 272.968 467C268.698 465.089 265.579 462.306 263.202 458.648C260.692 454.786 259.498 450.514 259.435 445.893C259.404 443.644 259.404 441.374 259.101 439.158C258.362 433.752 255.825 431.332 251.044 431.191C246.137 431.05 242.256 434.082 241.227 438.859C241.148 439.225 241.034 439.587 240.92 440.013L240.928 440.019Z" fill="url(#paint1_linear_603_301)"/>
<path d="M194 403.362C194 403.362 218.347 391.502 242.762 391.502L261.17 334.532C261.86 331.777 263.872 329.905 266.144 329.905C268.415 329.905 270.428 331.777 271.117 334.532L289.525 391.502C318.441 391.502 338.288 403.362 338.288 403.362C338.288 403.362 296.932 290.702 296.851 290.476C295.664 287.145 293.66 285 290.959 285H241.333C238.631 285 236.708 287.145 235.441 290.476C235.351 290.698 194 403.362 194 403.362Z" fill="white"/>
<path d="M450.698 367.123C450.698 377.106 438.28 383.069 421.087 383.069C409.896 383.069 405.939 380.295 405.939 374.472C405.939 368.371 410.851 365.459 422.04 365.459C432.14 365.459 440.736 365.598 450.698 366.846V367.123ZM450.835 354.783C444.694 353.397 435.414 352.565 424.361 352.565C392.156 352.565 377.01 360.191 377.01 377.938C377.01 396.379 387.38 403.451 411.397 403.451C431.73 403.451 445.511 398.321 450.562 385.703H451.379C451.242 388.753 451.108 391.804 451.108 394.161C451.108 400.678 452.198 401.232 457.52 401.232H482.628C481.263 397.35 480.446 386.396 480.446 376.968C480.446 366.846 480.854 359.22 480.854 348.96C480.854 328.023 468.301 314.712 429 314.712C412.08 314.712 393.248 317.624 378.921 321.922C380.284 327.607 382.195 339.115 383.151 346.602C395.569 340.779 413.172 338.283 426.818 338.283C445.648 338.283 450.835 342.581 450.835 351.317V354.783Z" fill="white"/>
<path d="M519.727 372.947C516.317 373.363 511.676 373.363 506.9 373.363C501.851 373.363 497.212 373.224 494.073 372.808C494.073 373.917 493.936 375.165 493.936 376.274C493.936 393.606 505.264 403.728 545.109 403.728C582.634 403.728 594.779 393.745 594.779 376.136C594.779 359.497 586.729 351.317 551.113 349.514C523.411 348.266 520.956 345.216 520.956 341.749C520.956 337.729 524.503 335.649 543.061 335.649C562.303 335.649 567.488 338.283 567.488 343.829V345.077C570.218 344.938 575.13 344.8 580.179 344.8C584.954 344.8 590.139 344.938 593.142 345.216C593.142 343.968 593.279 342.859 593.279 341.888C593.279 321.506 576.357 314.85 543.607 314.85C506.763 314.85 494.346 323.863 494.346 341.472C494.346 357.279 504.308 367.123 539.651 368.648C565.713 369.48 568.58 372.392 568.58 376.413C568.58 380.711 564.35 382.653 546.064 382.653C525.049 382.653 519.727 379.741 519.727 373.779V372.947Z" fill="white"/>
<path d="M639.818 299.876C629.857 309.166 611.981 318.455 602.021 320.951C602.157 326.081 602.157 335.51 602.157 340.64L611.299 340.779C611.162 350.623 611.026 362.548 611.026 370.451C611.026 388.892 620.714 402.758 650.871 402.758C663.562 402.758 672.023 401.371 682.53 399.153C681.438 392.358 680.21 381.959 679.8 374.056C673.525 376.136 665.609 377.245 656.875 377.245C644.73 377.245 639.818 373.917 639.818 364.35C639.818 356.031 639.818 348.266 639.955 341.056C655.512 341.195 671.068 341.472 680.21 341.749C680.073 334.539 680.346 324.14 680.756 317.207C667.52 317.485 652.646 317.624 640.364 317.624C640.501 311.523 640.637 305.699 640.774 299.876H639.818Z" fill="white"/>
<path d="M721.32 336.481C721.456 329.27 721.593 323.17 721.729 317.207H694.3C694.71 329.132 694.71 341.334 694.71 359.22C694.71 377.106 694.573 389.447 694.3 401.232H725.686C725.14 392.913 725.004 378.909 725.004 366.985C725.004 348.128 732.646 342.72 749.976 342.72C758.028 342.72 763.759 343.691 768.807 345.493C768.944 338.422 770.309 324.695 771.126 318.594C765.941 317.069 760.21 316.098 753.25 316.098C738.377 315.96 727.461 322.06 722.412 336.619L721.32 336.481Z" fill="white"/>
<path d="M857.951 358.665C857.951 373.779 847.034 380.85 829.841 380.85C812.784 380.85 801.867 374.195 801.867 358.665C801.867 343.136 812.92 337.312 829.841 337.312C846.898 337.312 857.951 343.552 857.951 358.665ZM886.47 357.972C886.47 327.884 862.999 314.434 829.841 314.434C796.546 314.434 773.894 327.884 773.894 357.972C773.894 387.922 795.044 404.006 829.704 404.006C864.637 404.006 886.47 387.922 886.47 357.972Z" fill="white"/>
<defs>
<radialGradient id="paint0_radial_603_301" cx="0" cy="0" r="1" gradientUnits="userSpaceOnUse" gradientTransform="translate(540 360) rotate(90) scale(648 972)">
<stop stop-color="#38276F"/>
<stop offset="0.401042" stop-color="#2C1E46"/>
<stop offset="1" stop-color="#0D0F14"/>
</radialGradient>
<linearGradient id="paint1_linear_603_301" x1="232.221" y1="467" x2="311.612" y2="429.49" gradientUnits="userSpaceOnUse">
<stop stop-color="#D83333"/>
<stop offset="1" stop-color="#F041FF"/>
</linearGradient>
</defs>
</svg>
