<svg width="28" height="28" viewBox="0 0 28 28" fill="none" xmlns="http://www.w3.org/2000/svg">
<g clip-path="url(#clip0_283_5992)">
<path d="M21.875 0H9.625C8.84902 0.000640127 8.09519 0.258693 7.4816 0.733725C6.86802 1.20876 6.42937 1.87392 6.23438 2.625H18.7031C19.7764 2.625 20.8058 3.05137 21.5647 3.8103C22.3236 4.56924 22.75 5.59858 22.75 6.67188V23.3455L23.9531 24.308C24.1023 24.4274 24.2864 24.4947 24.4774 24.4997C24.6683 24.5046 24.8557 24.4469 25.0108 24.3354C25.1254 24.2508 25.2182 24.14 25.2815 24.0124C25.3449 23.8848 25.3769 23.7439 25.375 23.6015V3.5C25.375 2.57174 25.0063 1.6815 24.3499 1.02513C23.6935 0.368749 22.8033 0 21.875 0V0Z" fill="#B4B4B4"/>
<path d="M17.5001 4.375H6.1251C5.19685 4.375 4.30661 4.74375 3.65023 5.40013C2.99385 6.0565 2.6251 6.94674 2.6251 7.875V27.1042C2.62295 27.2461 2.65455 27.3864 2.71731 27.5136C2.78006 27.6408 2.87218 27.7513 2.98604 27.8359C3.14422 27.9508 3.33632 28.0094 3.53168 28.0024C3.72704 27.9953 3.91442 27.9231 4.06393 27.7971L11.8126 21.2691L19.5613 27.7944C19.7098 27.9195 19.8958 27.9917 20.0898 27.9995C20.2839 28.0073 20.475 27.9504 20.6332 27.8376C20.7484 27.7532 20.8419 27.6424 20.9057 27.5146C20.9696 27.3867 21.0019 27.2455 21.0001 27.1026V7.875C21.0001 6.94674 20.6314 6.0565 19.975 5.40013C19.3186 4.74375 18.4284 4.375 17.5001 4.375Z" fill="#B4B4B4"/>
</g>
<defs>
<clipPath id="clip0_283_5992">
<rect width="28" height="28" fill="white"/>
</clipPath>
</defs>
</svg>
