<svg width="64" height="64" viewBox="0 0 64 64" fill="none" xmlns="http://www.w3.org/2000/svg">
<path d="M11.784 32.2177L11.8159 43.9061L21.7475 49.7504V56.5934L6.00354 47.3595V28.7998L11.784 32.2177ZM11.784 20.5293V27.3405L6 23.919V17.1078L11.784 13.6863L17.5963 17.1078L11.784 20.5293ZM25.8951 17.1078L31.6791 13.6863L37.4914 17.1078L31.6791 20.5293L25.8951 17.1078Z" fill="white"/>
<path d="M15.9641 41.4835L15.9641 34.6404L21.748 38.0619V44.8731L15.9641 41.4835ZM25.8957 52.2014L31.6797 55.6229L37.492 52.2014V59.0125L31.6797 62.4341L25.8957 59.0125V52.2014ZM45.7872 17.1078L51.5712 13.6863L57.3836 17.1078V23.919L51.5712 27.3405V20.5293L45.7872 17.1078ZM51.5712 43.9061L51.6031 32.2177L57.3871 28.7962V47.356L41.6431 56.5899V49.7468L51.5712 43.9061Z" fill="white"/>
<path d="M47.4224 41.4832L41.6384 44.8728V38.0617L47.4224 34.6401V41.4832Z" fill="white"/>
<path d="M47.4236 22.9506L47.4555 29.7936L37.4955 35.6378V47.3546L31.7115 50.7442L25.9275 47.3546V35.6378L15.9676 29.7936L15.9676 22.9506L21.7764 19.5291L31.6761 25.4016L41.6361 19.5291L47.4484 22.9506H47.4236ZM15.9641 11.2657L31.6797 2L47.4236 11.2657L41.6396 14.6872L31.6797 8.8147L21.748 14.6872L15.9641 11.2657Z" fill="white"/>
</svg>
