<svg width="40" height="40" viewBox="0 0 40 40" fill="none" xmlns="http://www.w3.org/2000/svg">
<mask id="mask0_54_4086" style="mask-type:alpha" maskUnits="userSpaceOnUse" x="0" y="0" width="40" height="40">
<path d="M19.844 19.9969C19.844 24.5838 18.9322 28.6954 17.4962 31.6292C16.0333 34.6181 14.1703 36.1322 12.3719 36.1322C10.5735 36.1322 8.71054 34.6181 7.2476 31.6292C5.81161 28.6954 4.89986 24.5838 4.89986 19.9969C4.89986 15.4101 5.81161 11.2985 7.2476 8.36467C8.71054 5.37577 10.5735 3.86165 12.3719 3.86165C14.1703 3.86165 16.0333 5.37577 17.4962 8.36467C18.9322 11.2985 19.844 15.4101 19.844 19.9969Z" stroke="#F1F1F1" stroke-width="1.66667"/>
<path d="M27.4734 19.9969C27.4734 24.5838 26.5616 28.6954 25.1256 31.6292C23.6627 34.6181 21.7997 36.1322 20.0013 36.1322C18.2029 36.1322 16.3399 34.6181 14.877 31.6292C13.441 28.6954 12.5293 24.5838 12.5293 19.9969C12.5293 15.4101 13.441 11.2985 14.877 8.36467C16.3399 5.37577 18.2029 3.86165 20.0013 3.86165C21.7997 3.86165 23.6627 5.37577 25.1256 8.36467C26.5616 11.2985 27.4734 15.4101 27.4734 19.9969Z" stroke="#F1F1F1" stroke-width="1.66667"/>
<path d="M35.1003 19.9969C35.1003 24.5838 34.1886 28.6954 32.7526 31.6292C31.2896 34.6181 29.4267 36.1322 27.6283 36.1322C25.8298 36.1322 23.9669 34.6181 22.504 31.6292C21.068 28.6954 20.1562 24.5838 20.1562 19.9969C20.1562 15.4101 21.068 11.2985 22.504 8.36467C23.9669 5.37577 25.8298 3.86165 27.6283 3.86165C29.4267 3.86165 31.2896 5.37577 32.7526 8.36467C34.1886 11.2985 35.1003 15.4101 35.1003 19.9969Z" stroke="#F1F1F1" stroke-width="1.66667"/>
</mask>
<g mask="url(#mask0_54_4086)">
<rect width="40" height="40.0035" fill="url(#paint0_linear_54_4086)"/>
</g>
<defs>
<linearGradient id="paint0_linear_54_4086" x1="40" y1="40.0035" x2="-6.5692" y2="10.2987" gradientUnits="userSpaceOnUse">
<stop offset="0.0727574" stop-color="#FFE702"/>
<stop offset="0.333333" stop-color="#FF3DCF"/>
<stop offset="0.661458" stop-color="#14BCDF"/>
<stop offset="0.854167" stop-color="#49F0A1"/>
<stop offset="1" stop-color="#49E34B"/>
</linearGradient>
</defs>
</svg>
