<svg width="64" height="64" viewBox="0 0 64 64" fill="none" xmlns="http://www.w3.org/2000/svg">
<g clip-path="url(#clip0_612_13)">
<path fill-rule="evenodd" clip-rule="evenodd" d="M24.2561 63.042C41.4031 67.3169 58.7682 56.884 63.0423 39.7409L63.042 39.7413C67.3168 22.5975 56.8834 5.23138 39.7376 0.957549C22.5959 -3.31628 5.23089 7.11741 0.958461 24.2623C-3.31773 41.4039 7.11635 58.7681 24.2561 63.042ZM39.073 19.3659C43.5068 20.893 46.7493 23.1821 46.1123 27.4406L46.1125 27.4403L46.1136 27.441C45.6527 30.5584 43.9243 32.0674 41.6297 32.5966C44.7802 34.2367 46.3834 36.7518 44.8562 41.1123C42.9609 46.5283 38.458 46.9852 32.4695 45.852L31.0165 51.6757L27.5044 50.8007L28.9388 45.0552C28.0283 44.829 27.0983 44.5891 26.1401 44.329L24.7009 50.1017L21.1931 49.2267L22.6463 43.3921C22.3088 43.3058 21.9692 43.2172 21.6271 43.1281C21.1375 43.0005 20.643 42.8716 20.1425 42.7461L15.5724 41.6069L17.316 37.5874C17.316 37.5874 19.9036 38.2753 19.8684 38.2243C20.8627 38.4705 21.3038 37.8222 21.4776 37.3902L23.7742 28.1842C23.8667 28.2063 23.9568 28.2288 24.0434 28.2505C24.078 28.2592 24.112 28.2677 24.1454 28.276C24.0052 28.2197 23.8782 28.1837 23.7803 28.1588L25.4188 21.5871C25.4615 20.841 25.2043 19.8997 23.7822 19.5448C23.8371 19.5081 21.2316 18.9109 21.2316 18.9109L22.1658 15.1604L27.0087 16.3697L27.0046 16.3878C27.7327 16.5689 28.4831 16.7408 29.2471 16.9148L30.6862 11.1481L34.1959 12.0231L32.7855 17.6768C33.7279 17.8919 34.676 18.1088 35.5993 18.3391L36.9995 12.7224L40.5113 13.5974L39.073 19.3659ZM27.9646 40.2807C30.83 41.0374 37.0928 42.6913 38.0885 38.6907H38.0887C39.1087 34.6006 33.0361 33.238 30.0721 32.5729C29.7407 32.4985 29.448 32.4328 29.2086 32.3731L27.2801 40.103C27.4766 40.1518 27.7069 40.2126 27.9646 40.2807ZM30.6667 28.9853C33.0556 29.6228 38.267 31.0134 39.1746 27.3774H39.1749C40.1017 23.6586 35.0371 22.5374 32.5635 21.9899C32.2852 21.9282 32.0398 21.8739 31.8393 21.8239L30.0909 28.8345C30.2559 28.8757 30.4497 28.9274 30.6667 28.9853Z" fill="white"/>
</g>
<defs>
<clipPath id="clip0_612_13">
<rect width="64" height="64" fill="white"/>
</clipPath>
</defs>
</svg>
