<svg width="28" height="28" viewBox="0 0 28 28" fill="none" xmlns="http://www.w3.org/2000/svg">
<path d="M15.75 25.375H12.25C12.0179 25.375 11.7954 25.4672 11.6313 25.6313C11.4672 25.7954 11.375 26.0179 11.375 26.25C11.375 26.4821 11.4672 26.7046 11.6313 26.8687C11.7954 27.0328 12.0179 27.125 12.25 27.125H15.75C15.9821 27.125 16.2046 27.0328 16.3687 26.8687C16.5328 26.7046 16.625 26.4821 16.625 26.25C16.625 26.0179 16.5328 25.7954 16.3687 25.6313C16.2046 25.4672 15.9821 25.375 15.75 25.375Z" fill="#B4B4B4"/>
<path d="M16.625 22.75H11.375C11.1429 22.75 10.9204 22.8422 10.7563 23.0063C10.5922 23.1704 10.5 23.3929 10.5 23.625C10.5 23.8571 10.5922 24.0796 10.7563 24.2437C10.9204 24.4078 11.1429 24.5 11.375 24.5H16.625C16.8571 24.5 17.0796 24.4078 17.2437 24.2437C17.4078 24.0796 17.5 23.8571 17.5 23.625C17.5 23.3929 17.4078 23.1704 17.2437 23.0063C17.0796 22.8422 16.8571 22.75 16.625 22.75Z" fill="#B4B4B4"/>
<path d="M20.2027 3.42838C18.5582 1.78174 16.3554 0.875025 14 0.875025C12.8502 0.872284 11.7111 1.09674 10.6483 1.5355C9.58547 1.97425 8.61979 2.61867 7.80673 3.43173C6.99367 4.24479 6.34925 5.21047 5.9105 6.27331C5.47174 7.33614 5.24728 8.47519 5.25002 9.62503C5.25002 12.1746 6.22729 14.5595 7.92971 16.1678L8.16815 16.3915C9.15307 17.3124 10.5 18.5741 10.5 19.6875V21C10.5 21.2321 10.5922 21.4547 10.7563 21.6187C10.9204 21.7828 11.143 21.875 11.375 21.875H12.6875C12.8036 21.875 12.9148 21.8289 12.9969 21.7469C13.0789 21.6648 13.125 21.5536 13.125 21.4375V15.0292C13.1251 14.9408 13.0983 14.8544 13.0482 14.7814C12.9981 14.7085 12.9271 14.6525 12.8445 14.6207C12.3392 14.4146 11.8592 14.1513 11.4139 13.836C11.3138 13.7721 11.2277 13.6884 11.161 13.5902C11.0943 13.492 11.0482 13.3812 11.0257 13.2646C11.0032 13.148 11.0046 13.0281 11.0299 12.9121C11.0552 12.796 11.1038 12.6864 11.1729 12.5898C11.2419 12.4931 11.3299 12.4116 11.4315 12.3501C11.533 12.2886 11.6461 12.2484 11.7637 12.2319C11.8813 12.2155 12.001 12.2232 12.1155 12.2545C12.2301 12.2858 12.3371 12.3401 12.4299 12.4141C12.8346 12.7007 13.6139 13.125 14 13.125C14.3861 13.125 15.1654 12.6996 15.5712 12.4141C15.7601 12.2953 15.9873 12.2532 16.2063 12.2964C16.4252 12.3396 16.6194 12.4648 16.7491 12.6465C16.8787 12.8281 16.9341 13.0525 16.9038 13.2736C16.8735 13.4947 16.7599 13.6959 16.5862 13.836C16.1408 14.1507 15.6608 14.4135 15.1556 14.6191C15.073 14.6508 15.002 14.7069 14.9519 14.7798C14.9018 14.8527 14.875 14.9391 14.875 15.0276V21.4375C14.875 21.5536 14.9211 21.6648 15.0032 21.7469C15.0852 21.8289 15.1965 21.875 15.3125 21.875H16.625C16.8571 21.875 17.0797 21.7828 17.2437 21.6187C17.4078 21.4547 17.5 21.2321 17.5 21V19.6875C17.5 18.6003 18.8322 17.3398 19.8051 16.4189L20.0736 16.164C21.8247 14.4922 22.75 12.2287 22.75 9.62503C22.7558 8.47508 22.5337 7.33539 22.0965 6.27179C21.6592 5.20819 21.0156 4.24178 20.2027 3.42838V3.42838Z" fill="#B4B4B4"/>
</svg>
