<svg width="64" height="64" viewBox="0 0 64 64" fill="none" xmlns="http://www.w3.org/2000/svg">
<path fill-rule="evenodd" clip-rule="evenodd" d="M59.919 33.0401C59.9133 33.2274 59.6584 33.2768 59.5847 33.1043C59.5532 33.0298 59.5209 32.9551 59.488 32.8804C59.4279 32.7437 59.4448 32.5847 59.5344 32.4651C59.5529 32.4407 59.5907 32.3912 59.6358 32.3322C59.757 32.1738 59.9317 32.1974 59.9317 32.3733C59.9317 32.604 59.9263 32.8037 59.919 33.0401ZM58.5776 29.3769C58.3711 29.749 57.8414 29.7661 57.6121 29.4074C57.5765 29.3519 57.5406 29.2965 57.5045 29.2408C56.6778 27.9715 55.7264 26.7255 54.6639 25.5146C54.403 25.2173 54.6163 24.7507 55.012 24.7504H55.0215C57.5045 24.7504 58.8061 25.3637 59.2034 26.1127C59.535 26.7391 59.4334 27.8345 58.5776 29.3769ZM58.0227 42.3617C57.8895 42.7006 57.7501 43.0373 57.6037 43.3707C57.5808 43.4167 57.5594 43.4631 57.5357 43.5088C56.6218 45.2678 55.0883 46.6529 53.0391 47.6168C52.5793 47.8329 52.0763 47.4122 52.2132 46.923C52.8937 44.4876 53.4086 41.8465 53.7424 39.0776C53.8046 38.5613 54.0592 38.0874 54.4527 37.7471C55.2954 37.018 56.0824 36.29 56.8063 35.5671L56.8142 35.559C57.1705 35.2035 57.7781 35.3565 57.9232 35.8386C58.6385 38.2162 58.6782 40.4307 58.0227 42.3617ZM52.4524 51.1545C52.2439 51.3773 52.0311 51.5974 51.8143 51.8143C51.4366 52.1915 51.0498 52.5564 50.6547 52.9089C50.4055 53.1309 50.0286 52.8532 50.1696 52.5505C50.2099 52.464 50.2498 52.3771 50.2895 52.2893C50.4555 51.9233 50.6159 51.5477 50.7718 51.1651C50.8088 51.0749 50.8865 51.0075 50.9811 50.9833C51.3741 50.8835 51.7572 50.7735 52.1303 50.6531C52.4328 50.5558 52.6698 50.9224 52.4524 51.1545ZM48.3617 48.956C47.5345 49.0759 46.6646 49.1533 45.7545 49.1854C43.5341 49.2631 41.1861 49.0715 38.7743 48.6275C38.4803 48.5734 38.4238 48.1758 38.6904 48.041C39.2165 47.7747 39.7429 47.5024 40.269 47.2236C43.9593 45.2675 47.4027 43.1294 50.4169 40.9372C50.643 40.7728 50.9545 40.9668 50.9085 41.2427C50.4906 43.755 49.9118 46.12 49.1848 48.2669C49.0609 48.6326 48.7441 48.9006 48.3617 48.956ZM47.5087 52.3032C45.5301 56.1946 43.0933 58.3795 40.7312 58.3355C38.164 58.2898 35.6041 55.6163 33.7084 51.0012L33.7062 50.996C33.5858 50.7031 33.7241 50.3678 34.0144 50.2417C34.0345 50.2327 34.0546 50.224 34.0747 50.215C34.1992 50.161 34.3388 50.1512 34.4698 50.1881C38.0159 51.1833 41.5098 51.7026 44.7833 51.7026C45.139 51.7026 45.4923 51.6966 45.8426 51.6844C46.2526 51.6697 46.6562 51.6466 47.0527 51.6151C47.4204 51.586 47.6761 51.9743 47.5087 52.3032ZM35.7919 59.7035C34.6155 59.8546 33.4217 59.932 32.2162 59.932C26.829 59.932 21.6764 58.4053 17.2525 55.5566C16.9482 55.3604 17.0775 54.8881 17.4392 54.8715C17.5142 54.8679 17.5843 54.8641 17.646 54.8603C18.7703 54.7872 20.0029 54.6226 21.3386 54.3652C24.1797 53.8187 27.338 52.8812 30.6449 51.6186C30.9414 51.5056 31.2724 51.6526 31.3931 51.9461C31.3939 51.948 31.3944 51.9496 31.3952 51.9512C32.6768 55.0715 34.254 57.4292 36.025 58.929C36.3177 59.1771 36.1723 59.6546 35.7919 59.7035ZM19.7643 40.2842C22.2065 38.2955 25.0681 36.3112 28.2071 34.4326C28.2745 38.4474 28.7147 42.3019 29.4938 45.7836C28.3296 45.2871 27.169 44.7403 26.0184 44.1428C23.7898 42.9846 21.6929 41.6872 19.7643 40.2842ZM12.1692 51.0417C11.5865 49.9425 12.3396 47.3962 16.165 43.5262L16.1669 43.5243C16.5664 43.1207 16.528 42.4585 16.0821 42.1071C15.9288 41.9867 15.7767 41.865 15.6256 41.7432C15.2446 41.4353 14.6932 41.4636 14.3472 41.8101C14.2714 41.8859 14.2149 41.943 14.1983 41.9601C12.286 43.9229 10.9477 45.7398 10.1979 47.3742C9.98538 47.8372 9.34351 47.8872 9.06252 47.4622C6.09473 42.9759 4.50065 37.7189 4.50065 32.2162C4.50065 30.249 4.705 28.313 5.10257 26.4325C5.16263 26.148 5.56401 26.1298 5.64825 26.4081C6.22327 28.3065 7.15918 30.2702 8.45244 32.2559C10.1933 34.9293 12.489 37.4993 15.2095 39.8567C16.1381 40.6614 17.1188 41.4397 18.1417 42.1905C20.2152 43.712 22.4682 45.1162 24.8653 46.3616C25.9279 46.9138 26.9627 47.4407 28.0225 47.9179C28.6125 48.1834 29.284 48.2041 29.8862 47.9677C30.386 47.772 30.8892 47.5685 31.3955 47.3568C31.9461 47.1271 32.2447 46.5268 32.0988 45.9483C32.0806 45.876 32.0662 45.8178 32.058 45.7836C31.2235 42.2715 30.7596 38.3178 30.705 34.1766L30.7034 34.1774C30.7028 34.1282 30.7031 34.0782 30.7025 34.0285C30.7001 33.8021 30.7015 33.5741 30.6974 33.3483C30.696 33.2763 30.6982 33.1543 30.699 33.082C30.6996 33.0532 30.699 33.0246 30.699 32.9961L30.7001 32.9958C30.7015 32.7366 30.7034 32.4776 30.708 32.2176C30.7207 31.5072 30.7463 30.802 30.783 30.1025L30.7816 30.1033C31.039 25.1061 31.8863 20.4105 33.2344 16.4607C33.3592 16.0951 33.1643 15.6984 32.7988 15.5737C32.4426 15.4519 32.0866 15.3356 31.7311 15.2242C31.3716 15.1114 30.9873 15.3054 30.8659 15.6622C29.4047 19.9518 28.503 25.0409 28.2625 30.4262C28.2318 31.1094 27.86 31.7311 27.2717 32.0798C24.0822 33.9701 21.153 35.974 18.6224 37.9939C18.0952 38.4148 17.3422 38.3988 16.8324 37.9566C14.2962 35.7576 12.1616 33.3692 10.5479 30.8911C7.37685 26.0219 6.62329 21.4348 8.42662 17.977C8.43152 17.9689 8.43586 17.9604 8.44048 17.9526C8.67038 17.571 8.90952 17.1946 9.15845 16.8234C11.2305 14.0807 15.0872 12.4912 20.2021 12.3116C20.5258 12.3002 20.8516 12.2944 21.1804 12.2944C24.3178 12.2944 27.6848 12.8121 31.1091 13.8002L31.1099 13.7994C31.1849 13.8211 31.2599 13.8437 31.3349 13.8657C31.3928 13.8828 31.4507 13.8989 31.5086 13.9163L31.5083 13.9168C32.2996 14.1532 33.0934 14.4149 33.888 14.7008L33.8883 14.7003C33.9067 14.7068 33.9252 14.7141 33.9437 14.7206C34.1508 14.7954 34.3576 14.872 34.5644 14.95C34.6291 14.9744 34.694 14.9992 34.7587 15.0242C34.8209 15.0481 34.8832 15.0712 34.9457 15.0954L34.9448 15.0965C36.6172 15.7438 38.2882 16.4965 39.9383 17.3542C43.1321 19.0135 46.0556 20.9587 48.5997 23.0927C43.7444 24.205 38.1007 26.3507 32.4263 29.2438C32.1646 29.3775 31.9923 29.6405 31.9757 29.934C31.9559 30.2857 31.9298 30.9928 31.911 31.5548C31.8993 31.9075 32.2724 32.1412 32.585 31.9771L32.5882 31.9752C38.2064 29.025 43.8134 26.82 48.6286 25.6548C49.5286 25.4371 50.1112 24.5727 49.9849 23.6555C49.8963 23.0147 49.7965 22.384 49.6862 21.7644C49.5476 20.9861 49.1215 20.2902 48.4927 19.8113C46.2374 18.0933 43.752 16.5174 41.0913 15.1348C39.2983 14.2032 37.4789 13.3869 35.6557 12.6907C35.2658 12.5417 35.0986 12.0809 35.3022 11.7164C37.1805 8.35624 39.4146 6.47437 41.591 6.47437C41.6136 6.47437 41.6361 6.47437 41.6587 6.47491C44.2259 6.52084 46.7858 9.19405 48.6816 13.8092C49.6411 16.1454 50.3846 18.8396 50.8928 21.7674C50.8901 21.7649 50.8873 21.7628 50.8849 21.7603C51.1018 23.0098 51.2765 24.3012 51.4061 25.626C51.395 25.633 51.383 25.6393 51.3719 25.6464C51.3871 25.6618 51.4031 25.6773 51.4186 25.6931C51.6336 27.916 51.7243 30.2308 51.6819 32.5928C51.6553 34.0869 51.5757 35.5604 51.4469 37.002C48.0122 39.7776 43.7656 42.54 39.0977 45.0137C37.5637 45.8268 36.0299 46.5836 34.5111 47.2804C34.4875 47.2913 34.4641 47.3019 34.4405 47.3127C34.3244 47.3657 34.2081 47.4195 34.0921 47.472C34.091 47.4717 34.0894 47.4712 34.0894 47.4712C32.8309 48.0405 31.5844 48.5671 30.3585 49.0481L30.3591 49.0492C30.2898 49.0764 30.221 49.1025 30.152 49.1294C30.0658 49.1631 29.9797 49.1962 29.8938 49.2294C29.6881 49.3082 29.4832 49.3859 29.2788 49.4623C29.2226 49.4832 29.1661 49.5052 29.1098 49.5259C28.8617 49.618 28.615 49.7074 28.369 49.7954C28.3383 49.8063 28.3076 49.818 28.2772 49.8289L28.2761 49.8283C25.6491 50.764 23.1465 51.4708 20.866 51.9097C15.3552 52.9706 12.7602 52.1567 12.1692 51.0417ZM16.1272 9.64298C20.7915 6.30289 26.3651 4.50065 32.2162 4.50065C33.7605 4.50065 35.2851 4.62701 36.7789 4.87349C37.1789 4.93952 37.3131 5.45014 36.9941 5.70042C35.5465 6.83525 34.2016 8.5144 33.0113 10.6919C32.7208 11.2232 32.1048 11.483 31.5221 11.3189C27.5788 10.2088 23.699 9.68646 20.1143 9.81228C18.792 9.85875 17.5398 9.99272 16.3634 10.2096C16.0329 10.2704 15.8541 9.83837 16.1272 9.64298ZM54.1717 29.8422C54.1636 29.5245 54.5712 29.3889 54.7554 29.6476C54.9818 29.9653 55.2 30.2846 55.409 30.6055C55.6867 31.0322 55.9452 31.4564 56.1854 31.8779C56.3351 32.1406 56.2993 32.4703 56.0954 32.6937C55.7718 33.0491 55.4207 33.4165 55.0394 33.7975C54.9003 33.9364 54.7584 34.0755 54.6139 34.2149C54.4345 34.3883 54.1337 34.2562 54.1435 34.0068C54.1611 33.5521 54.1742 33.0958 54.1823 32.6374C54.1992 31.6982 54.1951 30.7659 54.1717 29.8422ZM51.2974 12.1148C51.4716 12.28 51.6439 12.448 51.8143 12.6184C54.485 15.2891 56.5422 18.4099 57.9178 21.8087C58.0567 22.1514 57.7656 22.5101 57.4017 22.4446C56.6058 22.3017 55.7101 22.2378 54.7185 22.2544C54.0312 22.2658 53.4339 21.7842 53.3133 21.1076C52.7744 18.086 51.9953 15.2948 50.9947 12.8589C50.9376 12.72 50.88 12.5828 50.8216 12.4469C50.6944 12.1504 51.0634 11.8925 51.2974 12.1148ZM61.7799 25.9317C60.5858 20.2584 57.7781 15.0456 53.5823 10.8498C47.8753 5.14279 40.2874 2 32.2162 2C24.1452 2 16.5571 5.14279 10.8501 10.8498C9.46199 12.2379 8.22743 13.7377 7.15103 15.328C6.83091 15.7541 6.54421 16.2041 6.28931 16.6751C3.49327 21.3212 2 26.654 2 32.2162C2 40.2874 5.14306 47.8753 10.8501 53.5823C16.5571 59.2893 24.1452 62.4327 32.2162 62.4327C40.2874 62.4327 47.8753 59.2893 53.5823 53.5823C56.2759 50.889 58.3974 47.7763 59.8877 44.392C60.0698 44.017 60.2288 43.633 60.3655 43.2414C61.722 39.7749 62.4327 36.0503 62.4327 32.2162C62.4327 30.1058 62.2158 28.0293 61.7965 26.01C61.7908 25.9839 61.7856 25.9578 61.7799 25.9317Z" fill="white"/>
</svg>
