<svg width="28" height="28" viewBox="0 0 28 28" fill="none" xmlns="http://www.w3.org/2000/svg">
<path d="M8.75025 21.2735C8.47212 21.2738 8.20343 21.1727 7.99447 20.9891L0.994468 14.8641C0.871354 14.7563 0.772695 14.6235 0.705101 14.4745C0.637507 14.3254 0.602539 14.1637 0.602539 14.0001C0.602539 13.8364 0.637507 13.6747 0.705101 13.5257C0.772695 13.3766 0.871354 13.2438 0.994468 13.136L7.99447 7.01099C8.2237 6.8104 8.52324 6.70909 8.82717 6.72934C9.1311 6.7496 9.41454 6.88976 9.61513 7.119C9.81572 7.34823 9.91703 7.64776 9.89678 7.9517C9.87652 8.25563 9.73636 8.53907 9.50712 8.73966L3.49423 14.0001L9.50658 19.2604C9.68255 19.4143 9.80738 19.6182 9.86442 19.8448C9.92145 20.0715 9.90796 20.3102 9.82576 20.529C9.74355 20.7478 9.59654 20.9363 9.40436 21.0693C9.21218 21.2023 8.98398 21.2736 8.75025 21.2735Z" fill="#B4B4B4"/>
<path d="M19.2501 21.2735C19.0163 21.2737 18.788 21.2025 18.5957 21.0695C18.4035 20.9366 18.2564 20.748 18.1741 20.5292C18.0918 20.3104 18.0783 20.0717 18.1353 19.845C18.1923 19.6182 18.3172 19.4143 18.4932 19.2604L24.5061 14.0001L18.4937 8.73966C18.2645 8.53907 18.1243 8.25563 18.1041 7.9517C18.0838 7.64776 18.1851 7.34823 18.3857 7.119C18.5863 6.88976 18.8698 6.7496 19.1737 6.72934C19.4776 6.70909 19.7772 6.8104 20.0064 7.01099L27.0064 13.136C27.1295 13.2438 27.2282 13.3766 27.2958 13.5257C27.3634 13.6747 27.3983 13.8364 27.3983 14.0001C27.3983 14.1637 27.3634 14.3254 27.2958 14.4744C27.2282 14.6235 27.1295 14.7563 27.0064 14.8641L20.0064 20.9891C19.7973 21.1729 19.5284 21.274 19.2501 21.2735Z" fill="#B4B4B4"/>
<path d="M11.3751 23.8988C11.1962 23.8988 11.0199 23.857 10.86 23.7767C10.7002 23.6965 10.5613 23.58 10.4545 23.4366C10.3476 23.2932 10.2757 23.1268 10.2445 22.9507C10.2133 22.7746 10.2237 22.5936 10.2748 22.4222L15.5248 4.92224C15.5643 4.77374 15.6333 4.63468 15.7275 4.51331C15.8218 4.39194 15.9395 4.29073 16.0736 4.21566C16.2077 4.1406 16.3555 4.09321 16.5082 4.0763C16.661 4.0594 16.8155 4.07332 16.9628 4.11725C17.1101 4.16118 17.247 4.23422 17.3656 4.33204C17.4841 4.42986 17.5818 4.55047 17.6528 4.68673C17.7239 4.82299 17.7669 4.97213 17.7793 5.12531C17.7916 5.27849 17.7731 5.43259 17.7249 5.57849L12.4749 23.0785C12.4042 23.3154 12.2591 23.5231 12.0609 23.6709C11.8628 23.8187 11.6223 23.8986 11.3751 23.8988Z" fill="#B4B4B4"/>
</svg>
