<svg width="26" height="26" viewBox="0 0 26 26" fill="none" xmlns="http://www.w3.org/2000/svg">
<path d="M21.6621 4.33772C20.5266 3.19101 19.1758 2.27995 17.6871 1.65689C16.1985 1.03383 14.6014 0.71104 12.9877 0.707068C11.3739 0.703096 9.77526 1.01802 8.28358 1.63375C6.79189 2.24947 5.43657 3.15387 4.29546 4.29497C3.15436 5.43608 2.24996 6.79141 1.63423 8.28309C1.01851 9.77477 0.703585 11.3734 0.707557 12.9872C0.711529 14.6009 1.03432 16.198 1.65738 17.6867C2.28044 19.1753 3.1915 20.5262 4.33821 21.6616C5.47368 22.8083 6.82454 23.7194 8.31317 24.3425C9.80181 24.9655 11.3989 25.2883 13.0126 25.2923C14.6264 25.2962 16.2251 24.9813 17.7167 24.3656C19.2084 23.7499 20.5638 22.8455 21.7049 21.7044C22.846 20.5633 23.7504 19.2079 24.3661 17.7163C24.9818 16.2246 25.2967 14.6259 25.2928 13.0122C25.2888 11.3984 24.966 9.80132 24.3429 8.31269C23.7199 6.82405 22.8088 5.47319 21.6621 4.33772V4.33772ZM9.06266 10.3747C9.32225 10.3747 9.576 10.4516 9.79184 10.5959C10.0077 10.7401 10.1759 10.9451 10.2753 11.1849C10.3746 11.4247 10.4006 11.6886 10.3499 11.9432C10.2993 12.1978 10.1743 12.4317 9.99074 12.6152C9.80718 12.7988 9.57331 12.9238 9.31871 12.9745C9.06411 13.0251 8.80021 12.9991 8.56039 12.8998C8.32056 12.8004 8.11557 12.6322 7.97135 12.4164C7.82713 12.2005 7.75016 11.9468 7.75016 11.6872C7.74973 11.5147 7.78338 11.3438 7.84918 11.1844C7.91499 11.025 8.01165 10.8801 8.13362 10.7581C8.25558 10.6362 8.40044 10.5395 8.55987 10.4737C8.71931 10.4079 8.89018 10.3742 9.06266 10.3747V10.3747ZM18.2321 16.1808C17.5759 18.3847 15.4868 19.9997 13.0029 19.9997C10.519 19.9997 8.42992 18.3847 7.76821 16.1808C7.7497 16.1152 7.74679 16.0462 7.75971 15.9792C7.77263 15.9123 7.80103 15.8492 7.84263 15.7952C7.88423 15.7412 7.93788 15.6976 7.99931 15.668C8.06073 15.6384 8.12823 15.6236 8.19641 15.6247H17.8045C17.8726 15.6236 17.94 15.6386 18.0014 15.6682C18.0627 15.6978 18.1163 15.7414 18.1579 15.7954C18.1994 15.8495 18.2277 15.9124 18.2406 15.9793C18.2535 16.0463 18.2506 16.1153 18.2321 16.1808ZM16.9377 12.9997C16.6781 12.9997 16.4243 12.9227 16.2085 12.7785C15.9926 12.6343 15.8244 12.4293 15.7251 12.1894C15.6257 11.9496 15.5997 11.6857 15.6504 11.4311C15.701 11.1765 15.826 10.9426 16.0096 10.7591C16.1931 10.5755 16.427 10.4505 16.6816 10.3999C16.9362 10.3492 17.2001 10.3752 17.4399 10.4746C17.6798 10.5739 17.8847 10.7421 18.029 10.958C18.1732 11.1738 18.2502 11.4276 18.2502 11.6872C18.2506 11.8597 18.2169 12.0305 18.1511 12.19C18.0853 12.3494 17.9887 12.4942 17.8667 12.6162C17.7447 12.7382 17.5999 12.8348 17.4404 12.9006C17.281 12.9664 17.1101 13.0001 16.9377 12.9997V12.9997Z" fill="#CCCCCC"/>
</svg>
