<svg width="41" height="40" viewBox="0 0 41 40" fill="none" xmlns="http://www.w3.org/2000/svg">
<mask id="mask0_264_43821" style="mask-type:alpha" maskUnits="userSpaceOnUse" x="0" y="-1" width="41" height="41">
<rect x="35.2695" y="4.34961" width="30.482" height="29.0174" rx="3.26619" transform="rotate(90 35.2695 4.34961)" stroke="#F1F1F1" stroke-width="1.6331"/>
<path d="M35.6113 9.7002H39.7454" stroke="#F1F1F1" stroke-width="1.6331"/>
<path d="M35.6113 16.2061H39.7454" stroke="#F1F1F1" stroke-width="1.6331"/>
<path d="M35.6113 22.709H39.7454" stroke="#F1F1F1" stroke-width="1.6331"/>
<path d="M35.6113 29.2148H39.7454" stroke="#F1F1F1" stroke-width="1.6331"/>
<path d="M1.77539 9.7002H5.90948" stroke="#F1F1F1" stroke-width="1.6331"/>
<path d="M1.77539 16.2061H5.90948" stroke="#F1F1F1" stroke-width="1.6331"/>
<path d="M1.77539 22.71H5.90948" stroke="#F1F1F1" stroke-width="1.6331"/>
<path d="M1.77539 29.2148H5.90948" stroke="#F1F1F1" stroke-width="1.6331"/>
<path d="M30.6035 35.4551L30.6035 39.5892" stroke="#F1F1F1" stroke-width="1.6331"/>
<path d="M24.0981 35.4551L24.0981 39.5892" stroke="#F1F1F1" stroke-width="1.6331"/>
<path d="M17.5947 35.4551L17.5947 39.5892" stroke="#F1F1F1" stroke-width="1.6331"/>
<path d="M11.0894 35.4551L11.0894 39.5892" stroke="#F1F1F1" stroke-width="1.6331"/>
<path d="M30.6035 -0.40918L30.6035 3.72491" stroke="#F1F1F1" stroke-width="1.6331"/>
<path d="M24.0981 -0.40918L24.0981 3.72491" stroke="#F1F1F1" stroke-width="1.6331"/>
<path d="M17.5947 -0.40918L17.5947 3.72491" stroke="#F1F1F1" stroke-width="1.6331"/>
<path d="M11.0894 -0.40918L11.0894 3.72491" stroke="#F1F1F1" stroke-width="1.6331"/>
</mask>
<g mask="url(#mask0_264_43821)">
<rect x="0.5" y="0.000976562" width="40" height="40.0035" fill="#FFE629"/>
</g>
</svg>
