<svg width="32" height="32" viewBox="0 0 32 32" fill="none" xmlns="http://www.w3.org/2000/svg">
<mask id="mask0_53_1375" style="mask-type:alpha" maskUnits="userSpaceOnUse" x="0" y="-1" width="32" height="33">
<rect x="27.8152" y="3.47839" width="24.3856" height="23.2139" rx="2.61295" transform="rotate(90 27.8152 3.47839)" stroke="white" stroke-width="1.30648"/>
<path d="M28.0887 7.75989H31.396" stroke="white" stroke-width="1.30648"/>
<path d="M28.0887 12.964H31.396" stroke="white" stroke-width="1.30648"/>
<path d="M28.0887 18.167H31.396" stroke="white" stroke-width="1.30648"/>
<path d="M28.0887 23.3712H31.396" stroke="white" stroke-width="1.30648"/>
<path d="M1.02063 7.75964H4.3279" stroke="white" stroke-width="1.30648"/>
<path d="M1.02045 12.964H4.32772" stroke="white" stroke-width="1.30648"/>
<path d="M1.02045 18.167H4.32772" stroke="white" stroke-width="1.30648"/>
<path d="M1.02045 23.3711H4.32772" stroke="white" stroke-width="1.30648"/>
<path d="M24.0828 28.3633L24.0828 31.6706" stroke="white" stroke-width="1.30648"/>
<path d="M18.8787 28.3633L18.8787 31.6706" stroke="white" stroke-width="1.30648"/>
<path d="M13.6756 28.3633L13.6756 31.6706" stroke="white" stroke-width="1.30648"/>
<path d="M8.4715 28.3633L8.4715 31.6706" stroke="white" stroke-width="1.30648"/>
<path d="M24.0828 -0.328125L24.0828 2.97915" stroke="white" stroke-width="1.30648"/>
<path d="M18.8787 -0.328125L18.8787 2.97915" stroke="white" stroke-width="1.30648"/>
<path d="M13.6756 -0.328125L13.6756 2.97915" stroke="white" stroke-width="1.30648"/>
<path d="M8.4715 -0.328125L8.4715 2.97915" stroke="white" stroke-width="1.30648"/>
</mask>
<g mask="url(#mask0_53_1375)">
<rect width="32" height="32" fill="url(#paint0_linear_53_1375)"/>
</g>
<defs>
<linearGradient id="paint0_linear_53_1375" x1="32" y1="32" x2="-5.25345" y2="8.23528" gradientUnits="userSpaceOnUse">
<stop offset="0.0727574" stop-color="#FFE702"/>
<stop offset="0.333333" stop-color="#FF3DCF"/>
<stop offset="0.661458" stop-color="#14BCDF"/>
<stop offset="0.854167" stop-color="#49F0A1"/>
<stop offset="1" stop-color="#49E34B"/>
</linearGradient>
</defs>
</svg>
