<svg width="16" height="16" viewBox="0 0 16 16" fill="none" xmlns="http://www.w3.org/2000/svg">
<g id="u:copy-alt">
<path id="Vector" d="M10.6667 13.3334H5.33333C4.8029 13.3334 4.29419 13.1227 3.91912 12.7476C3.54405 12.3725 3.33333 11.8638 3.33333 11.3334V4.66671C3.33333 4.4899 3.2631 4.32033 3.13807 4.1953C3.01305 4.07028 2.84348 4.00004 2.66667 4.00004C2.48986 4.00004 2.32029 4.07028 2.19526 4.1953C2.07024 4.32033 2 4.4899 2 4.66671V11.3334C2 12.2174 2.35119 13.0653 2.97631 13.6904C3.60143 14.3155 4.44928 14.6667 5.33333 14.6667H10.6667C10.8435 14.6667 11.013 14.5965 11.1381 14.4714C11.2631 14.3464 11.3333 14.1769 11.3333 14C11.3333 13.8232 11.2631 13.6537 11.1381 13.5286C11.013 13.4036 10.8435 13.3334 10.6667 13.3334ZM14 5.96004C13.9931 5.8988 13.9796 5.83846 13.96 5.78004V5.72004C13.9279 5.65149 13.8852 5.58848 13.8333 5.53337L9.83333 1.53337C9.77822 1.48152 9.71521 1.43876 9.64667 1.40671H9.58667L9.37333 1.33337H6.66667C6.13623 1.33337 5.62753 1.54409 5.25245 1.91916C4.87738 2.29423 4.66667 2.80294 4.66667 3.33337V10C4.66667 10.5305 4.87738 11.0392 5.25245 11.4143C5.62753 11.7893 6.13623 12 6.66667 12H12C12.5304 12 13.0391 11.7893 13.4142 11.4143C13.7893 11.0392 14 10.5305 14 10V6.00004C14 6.00004 14 6.00004 14 5.96004ZM10 3.60671L11.7267 5.33337H10.6667C10.4899 5.33337 10.3203 5.26314 10.1953 5.13811C10.0702 5.01309 10 4.84352 10 4.66671V3.60671ZM12.6667 10C12.6667 10.1769 12.5964 10.3464 12.4714 10.4714C12.3464 10.5965 12.1768 10.6667 12 10.6667H6.66667C6.48986 10.6667 6.32029 10.5965 6.19526 10.4714C6.07024 10.3464 6 10.1769 6 10V3.33337C6 3.15656 6.07024 2.98699 6.19526 2.86197C6.32029 2.73695 6.48986 2.66671 6.66667 2.66671H8.66667V4.66671C8.66667 5.19714 8.87738 5.70585 9.25245 6.08092C9.62753 6.45599 10.1362 6.66671 10.6667 6.66671H12.6667V10Z" fill="#CCCCCC"/>
</g>
</svg>
