<svg width="64" height="64" viewBox="0 0 64 64" fill="none" xmlns="http://www.w3.org/2000/svg">
<path d="M32.2163 62.4327C48.9044 62.4327 62.4327 48.9044 62.4327 32.2163C62.4327 15.5283 48.9044 2 32.2163 2C15.5283 2 2 15.5283 2 32.2163C2 48.9044 15.5283 62.4327 32.2163 62.4327Z" fill="#565656"/>
<path d="M32.2166 49.7496C41.8998 49.7496 49.7496 41.8999 49.7496 32.2167C49.7496 22.5335 41.8998 14.6837 32.2166 14.6837C22.5334 14.6837 14.6837 22.5335 14.6837 32.2167C14.6837 41.8999 22.5334 49.7496 32.2166 49.7496Z" fill="#171717"/>
<path d="M32.2789 5.85425C29.0172 5.85425 26.3724 17.6845 26.3724 32.2781C26.3724 46.8716 29.0172 58.7019 32.2789 58.7019C35.5406 58.7019 38.1853 46.8716 38.1853 32.2781C38.1853 17.6845 35.5406 5.85425 32.2789 5.85425ZM32.6867 57.2106C32.3137 57.7081 31.9407 57.3349 31.9407 57.3349C30.4386 55.5944 29.6875 52.361 29.6875 52.361C27.0602 43.9055 27.6855 25.7509 27.6855 25.7509C28.9203 11.3379 31.1664 7.93313 31.9308 7.17724C32.0088 7.10009 32.1116 7.05295 32.221 7.04411C32.3304 7.03526 32.4394 7.06529 32.5288 7.12889C33.6379 7.91476 34.5681 11.2013 34.5681 11.2013C37.3149 21.3978 37.0661 30.9725 37.0661 30.9725C37.3149 39.3037 35.6897 48.6297 35.6897 48.6297C34.4387 55.7172 32.6867 57.2106 32.6867 57.2106Z" fill="#C3C3C3"/>
<path d="M55.198 19.1283C53.574 16.2982 41.9973 19.8917 29.3328 27.1538C16.6683 34.4159 7.73487 42.5977 9.35761 45.4267C10.9803 48.2557 22.5583 44.6633 35.2228 37.4012C47.8873 30.1392 56.8207 21.9573 55.198 19.1283ZM10.8559 45.0385C10.2341 44.9602 10.3746 44.4491 10.3746 44.4491C11.1372 42.2806 13.5642 40.0199 13.5642 40.0199C19.5937 33.5328 35.6533 25.0411 35.6533 25.0411C48.7682 18.9393 52.8418 19.1967 53.8752 19.4813C53.9813 19.5109 54.0734 19.5771 54.1354 19.6681C54.1973 19.7592 54.225 19.8692 54.2136 19.9787C54.0894 21.3324 51.6955 23.7739 51.6955 23.7739C44.2231 31.2335 35.7938 35.7833 35.7938 35.7833C28.691 40.1466 19.7929 43.3758 19.7929 43.3758C13.0222 45.8156 10.8561 45.0385 10.8561 45.0385H10.8559Z" fill="#C3C3C3"/>
<path d="M55.1404 45.5213C56.777 42.6986 47.866 34.4793 35.246 27.1626C22.626 19.8459 11.0507 16.2078 9.41563 19.0354C7.78056 21.8629 16.69 30.0774 29.3173 37.3941C41.9446 44.7108 53.5054 48.3491 55.1404 45.5213ZM10.5 20.126C10.2583 19.5529 10.7686 19.4149 10.7686 19.4149C13.0278 18.9882 16.2013 19.9605 16.2013 19.9605C24.8347 21.9265 40.2293 31.5696 40.2293 31.5696C52.0821 39.8636 53.8999 43.5169 54.1723 44.5539C54.2 44.6603 54.1892 44.773 54.1419 44.8722C54.0946 44.9714 54.0138 45.0507 53.9137 45.0961C52.6777 45.662 49.3674 44.8188 49.3674 44.8188C39.1647 42.0832 31.0051 37.0709 31.0051 37.0709C23.6736 33.1166 16.4241 27.0323 16.4241 27.0323C10.9156 22.3942 10.5017 20.1323 10.5017 20.1323L10.5 20.126Z" fill="#C3C3C3"/>
<path d="M32.2164 35.3245C33.9334 35.3245 35.3254 33.9325 35.3254 32.2155C35.3254 30.4985 33.9334 29.1066 32.2164 29.1066C30.4994 29.1066 29.1075 30.4985 29.1075 32.2155C29.1075 33.9325 30.4994 35.3245 32.2164 35.3245Z" fill="white"/>
<path d="M44.9623 22.1443C45.9582 22.1443 46.7655 21.3092 46.7655 20.2789C46.7655 19.2487 45.9582 18.4136 44.9623 18.4136C43.9664 18.4136 43.1591 19.2487 43.1591 20.2789C43.1591 21.3092 43.9664 22.1443 44.9623 22.1443Z" fill="white"/>
<path d="M15.3668 28.4856C16.3627 28.4856 17.1701 27.6505 17.1701 26.6202C17.1701 25.59 16.3627 24.7549 15.3668 24.7549C14.3709 24.7549 13.5636 25.59 13.5636 26.6202C13.5636 27.6505 14.3709 28.4856 15.3668 28.4856Z" fill="white"/>
<path d="M28.5479 51.3659C29.5438 51.3659 30.3512 50.5307 30.3512 49.5005C30.3512 48.4703 29.5438 47.6351 28.5479 47.6351C27.552 47.6351 26.7447 48.4703 26.7447 49.5005C26.7447 50.5307 27.552 51.3659 28.5479 51.3659Z" fill="white"/>
</svg>
