<svg width="64" height="64" viewBox="0 0 64 64" fill="none" xmlns="http://www.w3.org/2000/svg">
<g id="container" clip-path="url(#clip0_527_2030)">
<path id="Subtract" fill-rule="evenodd" clip-rule="evenodd" d="M64 32C64 14.3281 49.6747 0 32 0C14.3281 0 0 14.3281 0 32C0 49.6733 14.3281 64 32 64C49.6747 64 64 49.6747 64 32ZM45.3388 34.2594H33.1794H21.2589C21.0157 34.2594 20.8959 34.2594 20.8368 34.1995C20.7794 34.1412 20.7794 34.0264 20.7794 33.8V30.2403C20.7794 29.9595 20.86 29.8602 21.1596 29.8602H45.359C45.6196 29.8602 45.7392 29.9595 45.7392 30.2C45.8385 31.4384 45.8385 32.6826 45.7392 33.9196C45.7205 34.2594 45.598 34.2594 45.3388 34.2594ZM44.3812 25.4206C44.4158 25.5099 44.4158 25.6092 44.3812 25.7H44.4777C44.4374 25.8195 44.2372 25.8598 44.2372 25.8598H21.1581C20.778 25.8598 20.778 25.7792 20.778 25.4796V18.3804C20.778 18.1197 20.8183 18.0002 21.1178 18.0002H31.8574C33.0008 17.9901 34.1413 18.1096 35.2573 18.3602C37.4692 18.8844 39.5269 19.9269 41.2578 21.4001C41.6035 21.6578 41.9116 21.9617 42.178 22.3001C42.7425 22.8602 43.2379 23.4838 43.6583 24.1606C43.9377 24.5566 44.1782 24.9785 44.3812 25.4206ZM43.3588 38.4196C43.6987 38.3822 44.0414 38.3822 44.3812 38.4196V38.4225C44.5382 38.5017 44.3985 38.8041 44.3985 38.8041C43.1687 41.2118 41.219 43.1731 38.8185 44.4216H38.6788C38.2165 44.6966 37.7269 44.9256 37.22 45.1013C35.8261 45.6326 34.3645 45.9552 32.8784 46.0618C32.3989 46.164 31.9093 46.1986 31.4197 46.1611H21.1797C20.7794 46.1611 20.7794 46.0805 20.7794 45.7608V38.8199C20.7794 38.4196 20.8802 38.4196 21.1797 38.4196H43.3588ZM16.7603 49.6402V49.7597L16.7546 49.764V49.7842H30.6349C32.2059 49.8058 33.7712 49.6805 35.3149 49.404C36.9407 49.0858 38.5247 48.5847 40.0353 47.905C40.6903 47.6016 41.3186 47.235 41.9526 46.8651C42.1132 46.7714 42.274 46.6776 42.4358 46.5845C43.1817 46.0531 43.896 45.4771 44.5756 44.8651C46.4361 43.1832 47.8761 41.0851 48.7762 38.745C48.8366 38.483 49.093 38.3145 49.3565 38.3649H53.1365C53.4375 38.3649 53.5368 38.2641 53.5368 37.9242V35.5036C53.557 35.2717 53.557 35.037 53.5368 34.8052C53.5368 34.7446 53.5524 34.6842 53.568 34.6238C53.599 34.5035 53.6299 34.3836 53.5368 34.2637H50.3789C49.9973 34.2637 49.9973 34.2234 49.9973 33.8836C50.1067 32.6653 50.1067 31.4427 49.9973 30.2245C49.9771 29.8645 50.0578 29.8645 50.3371 29.8645H53.0976C53.4188 29.8645 53.5383 29.7838 53.5383 29.4642V26.1838C53.5181 25.7432 53.5181 25.7432 53.0588 25.7432H49.4789C49.1995 25.7907 48.9317 25.602 48.8813 25.3227C48.4709 24.2499 47.9482 23.2231 47.3189 22.2626C46.6853 21.3151 45.971 20.4252 45.179 19.6029C44.1264 18.5517 42.9441 17.6388 41.6596 16.8827C39.7228 15.7581 37.6045 14.9704 35.3999 14.5629C34.3299 14.3656 33.2485 14.2461 32.1598 14.2029H17.1606C16.7603 14.2029 16.7603 14.2835 16.7603 14.6032V25.3832C16.7603 25.7633 16.6797 25.7633 16.3802 25.7633H12.0803C11.7606 25.7633 11.7606 25.8224 11.7606 26.0427V29.5621C11.7606 29.8818 11.86 29.8818 12.1004 29.8818H16.4406C16.7603 29.8818 16.7603 29.9408 16.7603 30.1813V33.9412C16.7603 34.281 16.6595 34.281 16.4003 34.281H11.7606V38.0812C11.7606 38.4009 11.86 38.4009 12.1004 38.4009H16.4406C16.7603 38.4009 16.7603 38.4398 16.7603 38.7004V43.4006V44.9803V49.6402Z" fill="white"/>
</g>
<defs>
<clipPath id="clip0_527_2030">
<rect width="64" height="64" fill="white"/>
</clipPath>
</defs>
</svg>
