<svg width="63" height="62" viewBox="0 0 63 62" fill="none" xmlns="http://www.w3.org/2000/svg">
<path d="M31.4999 0C14.1297 0 0 13.9054 0 31C0 48.0946 14.1297 62 31.4999 62C48.8702 62 63 48.0946 63 31C63 13.9054 48.8702 0 31.4999 0ZM31.4999 2.24033C47.3515 2.24033 60.2946 14.7273 60.7106 30.2289C51.0049 20.068 40.7671 15.1335 30.2553 15.5587C21.2687 15.9236 13.8265 20.233 9.16395 23.7871C5.93947 26.2464 3.59211 28.6486 2.29587 30.0988C2.77954 14.6543 15.6935 2.23716 31.4999 2.23716V2.24033ZM19.0761 30.9968C19.0761 24.2567 24.648 18.7733 31.4968 18.7733C38.3456 18.7733 43.9175 24.2567 43.9175 30.9968C43.9175 37.7369 38.3456 43.2204 31.4968 43.2204C24.648 43.2204 19.0761 37.7369 19.0761 30.9968ZM16.7996 30.9968C16.7996 36.3882 19.8145 41.0943 24.2675 43.5853C17.0479 42.1573 10.112 38.3081 3.57275 32.0821C5.71058 29.626 13.0785 21.8958 23.3904 18.9414C19.4211 21.534 16.7996 25.9703 16.7996 31V30.9968ZM46.2004 30.9968C46.2004 25.9798 43.5885 21.5499 39.6353 18.9541C46.3648 20.9152 52.975 25.3134 59.3821 32.1106C57.0604 34.2368 49.6377 40.4406 39.6257 43.0459C43.5853 40.4501 46.2004 36.0201 46.2004 30.9968ZM31.4999 59.7565C16.4609 59.7565 4.04039 48.5166 2.45394 34.1257C11.2245 42.3128 20.7174 46.4603 30.7036 46.4603C30.8358 46.4603 30.9711 46.4603 31.1033 46.4603C40.2866 46.3588 48.1382 42.6904 53.1104 39.6282C56.5864 37.4894 59.1434 35.3728 60.5525 34.1098C58.9725 48.5103 46.5487 59.7565 31.5032 59.7565H31.4999Z" fill="#FFE629"/>
</svg>
