<svg width="40" height="40" viewBox="0 0 40 40" fill="none" xmlns="http://www.w3.org/2000/svg">
<mask id="mask0_169_2517" style="mask-type:alpha" maskUnits="userSpaceOnUse" x="0" y="0" width="40" height="40">
<path d="M12.372 36.9666C7.78503 36.9666 4.06659 29.3694 4.06659 19.9979C4.06659 10.6264 7.78503 3.0293 12.372 3.0293" stroke="#F1F1F1" stroke-width="1.66667"/>
<path d="M27.5 20C27.5 23.3102 26.604 26.2693 25.1992 28.3766C23.7905 30.4897 21.9359 31.6667 20 31.6667C18.0642 31.6667 16.2096 30.4897 14.8008 28.3766C13.396 26.2693 12.5 23.3102 12.5 20C12.5 16.6898 13.396 13.7307 14.8008 11.6234C16.2096 9.51035 18.0642 8.33333 20 8.33333C21.9359 8.33333 23.7905 9.51035 25.1992 11.6234C26.604 13.7307 27.5 16.6898 27.5 20Z" stroke="#F1F1F1" stroke-width="1.66667"/>
<path d="M27.6283 36.9666C32.2152 36.9666 35.9337 29.3694 35.9337 19.9979C35.9337 10.6264 32.2152 3.0293 27.6283 3.0293" stroke="#F1F1F1" stroke-width="1.66667"/>
</mask>
<g mask="url(#mask0_169_2517)">
<rect width="40" height="40.0035" fill="url(#paint0_linear_169_2517)"/>
</g>
<defs>
<linearGradient id="paint0_linear_169_2517" x1="40" y1="40.0035" x2="-6.5692" y2="10.2987" gradientUnits="userSpaceOnUse">
<stop offset="0.0727574" stop-color="#FFE702"/>
<stop offset="0.333333" stop-color="#FF3DCF"/>
<stop offset="0.661458" stop-color="#14BCDF"/>
<stop offset="0.854167" stop-color="#49F0A1"/>
<stop offset="1" stop-color="#49E34B"/>
</linearGradient>
</defs>
</svg>
