<svg width="517" height="432" viewBox="0 0 517 432" fill="none" xmlns="http://www.w3.org/2000/svg">
<rect width="517" height="149.463" rx="24.8657" fill="#222222"/>
<path d="M218.791 35.7761C217.851 35.7761 217.05 35.5993 216.387 35.2456C215.724 34.8809 215.16 34.3836 214.696 33.7537L215.724 32.8916C216.133 33.4332 216.586 33.8476 217.083 34.1349C217.581 34.4112 218.166 34.5494 218.841 34.5494C219.669 34.5494 220.299 34.3504 220.73 33.9526C221.172 33.5547 221.393 33.0243 221.393 32.3612C221.393 31.8086 221.228 31.3831 220.896 31.0847C220.565 30.7864 220.018 30.5487 219.255 30.3719L218.31 30.1564C217.249 29.9133 216.437 29.5486 215.873 29.0623C215.321 28.565 215.044 27.8688 215.044 26.9736C215.044 26.4652 215.138 26.0121 215.326 25.6143C215.514 25.2164 215.774 24.8849 216.105 24.6196C216.448 24.3544 216.851 24.1555 217.315 24.0229C217.791 23.8792 218.31 23.8074 218.874 23.8074C219.747 23.8074 220.493 23.9676 221.112 24.2881C221.742 24.6086 222.272 25.0783 222.703 25.6972L221.659 26.4597C221.338 26.0177 220.951 25.6695 220.498 25.4154C220.045 25.1612 219.482 25.0341 218.807 25.0341C218.067 25.0341 217.481 25.1943 217.05 25.5148C216.63 25.8243 216.42 26.2939 216.42 26.9239C216.42 27.4764 216.597 27.8964 216.951 28.1837C217.315 28.46 217.862 28.6811 218.592 28.8468L219.537 29.0623C220.675 29.3165 221.498 29.7033 222.007 30.2227C222.515 30.7421 222.769 31.4329 222.769 32.2949C222.769 32.8253 222.675 33.3061 222.488 33.7371C222.311 34.1681 222.051 34.5328 221.708 34.8312C221.366 35.1296 220.946 35.3616 220.449 35.5274C219.962 35.6932 219.41 35.7761 218.791 35.7761ZM228.257 35.7761C227.672 35.7761 227.141 35.6711 226.666 35.4611C226.202 35.2511 225.798 34.9527 225.456 34.5659C225.124 34.1681 224.864 33.6984 224.677 33.1569C224.5 32.6043 224.411 31.9854 224.411 31.3002C224.411 30.6261 224.5 30.0128 224.677 29.4602C224.864 28.9076 225.124 28.4379 225.456 28.0511C225.798 27.6533 226.202 27.3494 226.666 27.1394C227.141 26.9294 227.672 26.8244 228.257 26.8244C228.832 26.8244 229.346 26.9294 229.799 27.1394C230.252 27.3494 230.639 27.6422 230.959 28.018C231.28 28.3827 231.523 28.8192 231.689 29.3276C231.866 29.8359 231.954 30.394 231.954 31.0019V31.6318H225.804V32.0296C225.804 32.3943 225.859 32.7369 225.97 33.0574C226.091 33.3669 226.257 33.6376 226.467 33.8697C226.688 34.1018 226.953 34.2841 227.263 34.4167C227.583 34.5494 227.942 34.6157 228.34 34.6157C228.882 34.6157 229.351 34.4886 229.749 34.2344C230.158 33.9802 230.473 33.6155 230.694 33.1403L231.639 33.82C231.363 34.4057 230.932 34.8809 230.346 35.2456C229.76 35.5993 229.064 35.7761 228.257 35.7761ZM228.257 27.9351C227.893 27.9351 227.561 28.0014 227.263 28.134C226.964 28.2556 226.705 28.4324 226.484 28.6645C226.274 28.8966 226.108 29.1728 225.986 29.4933C225.865 29.8028 225.804 30.1454 225.804 30.5211V30.6372H230.528V30.4548C230.528 29.6923 230.318 29.0844 229.898 28.6313C229.489 28.1672 228.942 27.9351 228.257 27.9351ZM235.548 35.5771C235.084 35.5771 234.731 35.4501 234.487 35.1959C234.255 34.9306 234.139 34.5991 234.139 34.2012V23.3101H235.465V34.4167H236.725V35.5771H235.548ZM241.872 35.7761C241.286 35.7761 240.756 35.6711 240.28 35.4611C239.816 35.2511 239.413 34.9527 239.07 34.5659C238.739 34.1681 238.479 33.6984 238.291 33.1569C238.114 32.6043 238.026 31.9854 238.026 31.3002C238.026 30.6261 238.114 30.0128 238.291 29.4602C238.479 28.9076 238.739 28.4379 239.07 28.0511C239.413 27.6533 239.816 27.3494 240.28 27.1394C240.756 26.9294 241.286 26.8244 241.872 26.8244C242.447 26.8244 242.96 26.9294 243.414 27.1394C243.867 27.3494 244.253 27.6422 244.574 28.018C244.894 28.3827 245.138 28.8192 245.303 29.3276C245.48 29.8359 245.569 30.394 245.569 31.0019V31.6318H239.418V32.0296C239.418 32.3943 239.474 32.7369 239.584 33.0574C239.706 33.3669 239.872 33.6376 240.082 33.8697C240.303 34.1018 240.568 34.2841 240.877 34.4167C241.198 34.5494 241.557 34.6157 241.955 34.6157C242.496 34.6157 242.966 34.4886 243.364 34.2344C243.773 33.9802 244.088 33.6155 244.309 33.1403L245.254 33.82C244.977 34.4057 244.546 34.8809 243.961 35.2456C243.375 35.5993 242.679 35.7761 241.872 35.7761ZM241.872 27.9351C241.507 27.9351 241.176 28.0014 240.877 28.134C240.579 28.2556 240.319 28.4324 240.098 28.6645C239.888 28.8966 239.722 29.1728 239.601 29.4933C239.479 29.8028 239.418 30.1454 239.418 30.5211V30.6372H244.143V30.4548C244.143 29.6923 243.933 29.0844 243.513 28.6313C243.104 28.1672 242.557 27.9351 241.872 27.9351ZM250.937 35.7761C250.34 35.7761 249.804 35.6711 249.329 35.4611C248.854 35.2511 248.45 34.9527 248.119 34.5659C247.798 34.1791 247.549 33.7095 247.373 33.1569C247.207 32.6043 247.124 31.9854 247.124 31.3002C247.124 30.6151 247.207 29.9962 247.373 29.4436C247.549 28.891 247.798 28.4213 248.119 28.0345C248.45 27.6477 248.854 27.3494 249.329 27.1394C249.804 26.9294 250.34 26.8244 250.937 26.8244C251.788 26.8244 252.467 27.0123 252.976 27.388C253.495 27.7527 253.882 28.2335 254.136 28.8302L253.025 29.3939C252.871 28.9518 252.617 28.6092 252.263 28.3661C251.909 28.123 251.467 28.0014 250.937 28.0014C250.539 28.0014 250.191 28.0677 249.892 28.2003C249.594 28.3219 249.345 28.4987 249.146 28.7308C248.947 28.9518 248.798 29.2226 248.699 29.5431C248.599 29.8525 248.55 30.1951 248.55 30.5708V32.0296C248.55 32.7811 248.749 33.4 249.146 33.8863C249.555 34.3615 250.152 34.5991 250.937 34.5991C252.009 34.5991 252.782 34.1018 253.258 33.1072L254.219 33.7537C253.943 34.3725 253.528 34.8643 252.976 35.229C252.434 35.5937 251.755 35.7761 250.937 35.7761ZM257.981 35.5771C257.517 35.5771 257.163 35.4501 256.92 35.1959C256.688 34.9306 256.572 34.588 256.572 34.1681V28.1837H255.163V27.0233H255.958C256.246 27.0233 256.439 26.9681 256.539 26.8576C256.649 26.736 256.704 26.5315 256.704 26.2442V24.6528H257.898V27.0233H259.771V28.1837H257.898V34.4167H259.639V35.5771H257.981ZM267.346 35.5771H265.953V24.0063H270.562C271.578 24.0063 272.368 24.2881 272.932 24.8517C273.507 25.4154 273.794 26.2276 273.794 27.2886C273.794 28.1395 273.595 28.8413 273.197 29.3939C272.81 29.9354 272.236 30.2946 271.473 30.4714L274.126 35.5771H272.551L270.048 30.604H267.346V35.5771ZM270.562 29.4104C271.114 29.4104 271.54 29.2668 271.838 28.9794C272.147 28.6921 272.302 28.2832 272.302 27.7527V26.8907C272.302 26.3603 272.147 25.9513 271.838 25.664C271.54 25.3767 271.114 25.233 270.562 25.233H267.346V29.4104H270.562ZM279.397 35.7761C278.811 35.7761 278.281 35.6711 277.806 35.4611C277.342 35.2511 276.938 34.9527 276.596 34.5659C276.264 34.1681 276.004 33.6984 275.816 33.1569C275.64 32.6043 275.551 31.9854 275.551 31.3002C275.551 30.6261 275.64 30.0128 275.816 29.4602C276.004 28.9076 276.264 28.4379 276.596 28.0511C276.938 27.6533 277.342 27.3494 277.806 27.1394C278.281 26.9294 278.811 26.8244 279.397 26.8244C279.972 26.8244 280.486 26.9294 280.939 27.1394C281.392 27.3494 281.779 27.6422 282.099 28.018C282.42 28.3827 282.663 28.8192 282.829 29.3276C283.005 29.8359 283.094 30.394 283.094 31.0019V31.6318H276.944V32.0296C276.944 32.3943 276.999 32.7369 277.109 33.0574C277.231 33.3669 277.397 33.6376 277.607 33.8697C277.828 34.1018 278.093 34.2841 278.403 34.4167C278.723 34.5494 279.082 34.6157 279.48 34.6157C280.022 34.6157 280.491 34.4886 280.889 34.2344C281.298 33.9802 281.613 33.6155 281.834 33.1403L282.779 33.82C282.503 34.4057 282.072 34.8809 281.486 35.2456C280.9 35.5993 280.204 35.7761 279.397 35.7761ZM279.397 27.9351C279.032 27.9351 278.701 28.0014 278.403 28.134C278.104 28.2556 277.844 28.4324 277.623 28.6645C277.413 28.8966 277.248 29.1728 277.126 29.4933C277.004 29.8028 276.944 30.1454 276.944 30.5211V30.6372H281.668V30.4548C281.668 29.6923 281.458 29.0844 281.038 28.6313C280.629 28.1672 280.082 27.9351 279.397 27.9351ZM285.279 27.0233H286.605V28.4158H286.672C286.893 27.8743 287.213 27.4764 287.633 27.2223C288.064 26.957 288.578 26.8244 289.175 26.8244C289.705 26.8244 290.186 26.9294 290.617 27.1394C291.048 27.3494 291.413 27.6477 291.711 28.0345C292.021 28.4213 292.253 28.891 292.407 29.4436C292.573 29.9962 292.656 30.6151 292.656 31.3002C292.656 31.9854 292.573 32.6043 292.407 33.1569C292.253 33.7095 292.021 34.1791 291.711 34.5659C291.413 34.9527 291.048 35.2511 290.617 35.4611C290.186 35.6711 289.705 35.7761 289.175 35.7761C288.014 35.7761 287.18 35.2456 286.672 34.1847H286.605V38.8926H285.279V27.0233ZM288.81 34.5825C289.562 34.5825 290.153 34.3504 290.584 33.8863C291.015 33.4111 291.23 32.7922 291.23 32.0296V30.5708C291.23 29.8083 291.015 29.1949 290.584 28.7308C290.153 28.2556 289.562 28.018 288.81 28.018C288.512 28.018 288.224 28.0622 287.948 28.1506C287.683 28.2279 287.451 28.3385 287.252 28.4821C287.053 28.6258 286.893 28.8026 286.771 29.0126C286.661 29.2115 286.605 29.427 286.605 29.6591V32.8419C286.605 33.1182 286.661 33.3669 286.771 33.5879C286.893 33.7979 287.053 33.9802 287.252 34.1349C287.451 34.2786 287.683 34.3891 287.948 34.4665C288.224 34.5438 288.512 34.5825 288.81 34.5825ZM298.128 35.7761C297.553 35.7761 297.028 35.6711 296.553 35.4611C296.078 35.2511 295.669 34.9527 295.326 34.5659C294.995 34.1681 294.735 33.6984 294.547 33.1569C294.359 32.6043 294.265 31.9854 294.265 31.3002C294.265 30.6261 294.359 30.0128 294.547 29.4602C294.735 28.9076 294.995 28.4379 295.326 28.0511C295.669 27.6533 296.078 27.3494 296.553 27.1394C297.028 26.9294 297.553 26.8244 298.128 26.8244C298.702 26.8244 299.222 26.9294 299.686 27.1394C300.161 27.3494 300.57 27.6533 300.913 28.0511C301.255 28.4379 301.521 28.9076 301.708 29.4602C301.896 30.0128 301.99 30.6261 301.99 31.3002C301.99 31.9854 301.896 32.6043 301.708 33.1569C301.521 33.6984 301.255 34.1681 300.913 34.5659C300.57 34.9527 300.161 35.2511 299.686 35.4611C299.222 35.6711 298.702 35.7761 298.128 35.7761ZM298.128 34.5991C298.846 34.5991 299.432 34.3781 299.885 33.936C300.338 33.494 300.565 32.8198 300.565 31.9136V30.6869C300.565 29.7807 300.338 29.1065 299.885 28.6645C299.432 28.2224 298.846 28.0014 298.128 28.0014C297.409 28.0014 296.824 28.2224 296.371 28.6645C295.917 29.1065 295.691 29.7807 295.691 30.6869V31.9136C295.691 32.8198 295.917 33.494 296.371 33.936C296.824 34.3781 297.409 34.5991 298.128 34.5991Z" fill="#EEEEEE"/>
<circle cx="31.0836" cy="22.7946" r="6.21643" fill="#FF5F56"/>
<circle cx="53.8771" cy="22.7946" r="6.21643" fill="#FFBD2E"/>
<circle cx="76.671" cy="22.7946" r="6.21643" fill="#27C93F"/>
<rect x="16.5771" y="58.1543" width="483.846" height="74.7315" rx="24.8657" fill="#111111"/>
<path d="M62.931 91.5472H62.8274L61.6048 93.9716L58.1444 100.271L54.6839 93.9716L53.4613 91.5472H53.3577V103.731H51.6585V89.2679H53.9793L58.1236 97.0591H58.2272L62.3922 89.2679H64.6302V103.731H62.931V91.5472ZM74.8981 93.0392H76.5351L71.7485 106.218C71.6241 106.536 71.4998 106.798 71.3755 107.005C71.2512 107.226 71.0992 107.399 70.9196 107.523C70.74 107.648 70.5121 107.738 70.2358 107.793C69.9733 107.848 69.6487 107.876 69.2619 107.876H68.4123V106.425H70.0907L70.8989 104.146L66.8996 93.0392H68.5574L71.1268 100.312L71.6241 102.053H71.7277L72.3079 100.312L74.8981 93.0392ZM92.7673 103.731L91.3168 99.4628H85.4733L84.0228 103.731H82.2615L87.3176 89.2679H89.5347L94.5908 103.731H92.7673ZM88.4365 90.8842H88.3329L85.8878 97.9294H90.8816L88.4365 90.8842ZM96.8209 93.0392H98.4786V94.7798H98.5615C98.8378 94.1029 99.2384 93.6056 99.7634 93.2878C100.302 92.9563 100.944 92.7905 101.69 92.7905C102.354 92.7905 102.954 92.9218 103.493 93.1842C104.032 93.4467 104.488 93.8197 104.861 94.3032C105.248 94.7867 105.538 95.3738 105.731 96.0645C105.938 96.7552 106.042 97.5288 106.042 98.3853C106.042 99.2418 105.938 100.015 105.731 100.706C105.538 101.397 105.248 101.984 104.861 102.467C104.488 102.951 104.032 103.324 103.493 103.586C102.954 103.849 102.354 103.98 101.69 103.98C100.24 103.98 99.197 103.317 98.5615 101.991H98.4786V107.876H96.8209V93.0392ZM101.235 102.488C102.174 102.488 102.913 102.198 103.452 101.618C103.991 101.024 104.26 100.25 104.26 99.2971V97.4736C104.26 96.5204 103.991 95.7537 103.452 95.1735C102.913 94.5795 102.174 94.2825 101.235 94.2825C100.862 94.2825 100.502 94.3377 100.157 94.4482C99.8255 94.5449 99.5354 94.6831 99.2868 94.8627C99.0381 95.0423 98.8378 95.2633 98.6859 95.5258C98.5477 95.7744 98.4786 96.0438 98.4786 96.3339V100.312C98.4786 100.658 98.5477 100.969 98.6859 101.245C98.8378 101.507 99.0381 101.735 99.2868 101.929C99.5354 102.108 99.8255 102.246 100.157 102.343C100.502 102.44 100.862 102.488 101.235 102.488ZM108.841 93.0392H110.499V94.7798H110.582C110.858 94.1029 111.258 93.6056 111.783 93.2878C112.322 92.9563 112.965 92.7905 113.711 92.7905C114.374 92.7905 114.975 92.9218 115.513 93.1842C116.052 93.4467 116.508 93.8197 116.881 94.3032C117.268 94.7867 117.558 95.3738 117.751 96.0645C117.958 96.7552 118.062 97.5288 118.062 98.3853C118.062 99.2418 117.958 100.015 117.751 100.706C117.558 101.397 117.268 101.984 116.881 102.467C116.508 102.951 116.052 103.324 115.513 103.586C114.975 103.849 114.374 103.98 113.711 103.98C112.26 103.98 111.217 103.317 110.582 101.991H110.499V107.876H108.841V93.0392ZM113.255 102.488C114.194 102.488 114.933 102.198 115.472 101.618C116.011 101.024 116.28 100.25 116.28 99.2971V97.4736C116.28 96.5204 116.011 95.7537 115.472 95.1735C114.933 94.5795 114.194 94.2825 113.255 94.2825C112.882 94.2825 112.522 94.3377 112.177 94.4482C111.846 94.5449 111.555 94.6831 111.307 94.8627C111.058 95.0423 110.858 95.2633 110.706 95.5258C110.568 95.7744 110.499 96.0438 110.499 96.3339V100.312C110.499 100.658 110.568 100.969 110.706 101.245C110.858 101.507 111.058 101.735 111.307 101.929C111.555 102.108 111.846 102.246 112.177 102.343C112.522 102.44 112.882 102.488 113.255 102.488Z" fill="#EEEEEE"/>
<rect x="367.114" y="74.7314" width="100.154" height="41.5772" rx="8" fill="#222222"/>
<path d="M385.117 102.02V90.4487H386.99V100.362H391.698V102.02H385.117ZM393.782 102.02V100.494H395.357V91.9738H393.782V90.4487H398.821V91.9738H397.23V100.494H398.821V102.02H393.782ZM404.508 102.02L400.711 90.4487H402.651L404.491 96.1678L405.602 100.196H405.668L406.795 96.1678L408.635 90.4487H410.525L406.679 102.02H404.508ZM412.911 102.02V90.4487H420.321V92.1064H414.784V95.3224H419.807V96.9801H414.784V100.362H420.321V102.02H412.911ZM423.003 97.8918V96.0518H427.595V97.8918H423.003ZM432.965 102.02L429.169 90.4487H431.109L432.949 96.1678L434.059 100.196H434.126L435.253 96.1678L437.093 90.4487H438.983L435.137 102.02H432.965ZM448.911 102.02H441.054V100.229L444.75 96.9303C445.336 96.3999 445.784 95.897 446.093 95.4218C446.414 94.9356 446.574 94.4272 446.574 93.8967V93.6812C446.574 93.1176 446.403 92.6755 446.06 92.3551C445.728 92.0346 445.275 91.8743 444.701 91.8743C444.38 91.8743 444.098 91.924 443.855 92.0235C443.623 92.1119 443.419 92.239 443.242 92.4048C443.065 92.5706 442.916 92.764 442.794 92.985C442.684 93.206 442.595 93.4436 442.529 93.6978L440.888 93.0679C441.009 92.7032 441.175 92.355 441.385 92.0235C441.595 91.6809 441.86 91.377 442.181 91.1118C442.501 90.8465 442.877 90.6366 443.308 90.4818C443.75 90.3271 444.264 90.2498 444.85 90.2498C445.436 90.2498 445.961 90.3382 446.425 90.515C446.889 90.6808 447.276 90.9184 447.585 91.2278C447.906 91.5262 448.149 91.8854 448.314 92.3053C448.48 92.7253 448.563 93.1839 448.563 93.6812C448.563 94.1454 448.491 94.5764 448.348 94.9742C448.204 95.3721 448.005 95.7478 447.751 96.1015C447.497 96.4551 447.198 96.7922 446.856 97.1127C446.524 97.4332 446.17 97.7592 445.795 98.0907L443.076 100.428H448.911V102.02Z" fill="#EEEEEE"/>
<rect x="293.826" y="199.194" width="214.886" height="66.3086" rx="16.5772" fill="#222222"/>
<path d="M320.806 242.067C320.806 242.212 320.633 242.329 320.415 242.329C320.167 242.351 319.994 242.234 319.994 242.067C319.994 241.921 320.167 241.804 320.385 241.804C320.611 241.782 320.806 241.899 320.806 242.067ZM318.467 241.739C318.415 241.884 318.565 242.052 318.791 242.096C318.986 242.169 319.212 242.096 319.257 241.95C319.302 241.804 319.159 241.637 318.934 241.571C318.738 241.52 318.52 241.593 318.467 241.739ZM321.791 241.615C321.573 241.666 321.423 241.804 321.445 241.972C321.468 242.118 321.663 242.212 321.889 242.161C322.107 242.11 322.257 241.972 322.235 241.826C322.212 241.688 322.009 241.593 321.791 241.615ZM326.739 213.699C316.309 213.699 308.331 221.37 308.331 231.474C308.331 239.553 313.579 246.467 321.077 248.9C322.039 249.067 322.378 248.492 322.378 248.018C322.378 247.567 322.355 245.075 322.355 243.545C322.355 243.545 317.091 244.638 315.986 241.374C315.986 241.374 315.129 239.255 313.895 238.708C313.895 238.708 312.173 237.564 314.016 237.586C314.016 237.586 315.888 237.732 316.918 239.466C318.565 242.278 321.325 241.469 322.4 240.988C322.573 239.823 323.062 239.014 323.603 238.533C319.4 238.082 315.159 237.492 315.159 230.484C315.159 228.48 315.73 227.475 316.933 226.193C316.738 225.719 316.099 223.767 317.129 221.246C318.7 220.773 322.318 223.213 322.318 223.213C323.822 222.805 325.438 222.594 327.04 222.594C328.642 222.594 330.259 222.805 331.763 223.213C331.763 223.213 335.38 220.766 336.951 221.246C337.981 223.774 337.342 225.719 337.147 226.193C338.35 227.482 339.087 228.488 339.087 230.484C339.087 237.513 334.658 238.074 330.454 238.533C331.146 239.109 331.732 240.202 331.732 241.914C331.732 244.369 331.71 247.406 331.71 248.004C331.71 248.477 332.056 249.053 333.011 248.885C340.531 246.467 345.629 239.553 345.629 231.474C345.629 221.37 337.169 213.699 326.739 213.699ZM315.64 238.825C315.542 238.898 315.565 239.065 315.693 239.204C315.813 239.32 315.986 239.371 316.084 239.276C316.181 239.204 316.159 239.036 316.031 238.898C315.911 238.781 315.738 238.73 315.64 238.825ZM314.828 238.235C314.775 238.329 314.85 238.446 315.001 238.519C315.121 238.592 315.271 238.57 315.324 238.468C315.377 238.373 315.301 238.257 315.151 238.184C315.001 238.14 314.88 238.162 314.828 238.235ZM317.264 240.828C317.144 240.923 317.189 241.141 317.362 241.28C317.535 241.447 317.753 241.469 317.851 241.353C317.948 241.258 317.903 241.039 317.753 240.901C317.588 240.733 317.362 240.712 317.264 240.828ZM316.407 239.757C316.287 239.83 316.287 240.02 316.407 240.187C316.527 240.355 316.73 240.427 316.828 240.355C316.948 240.26 316.948 240.07 316.828 239.903C316.723 239.735 316.527 239.663 316.407 239.757Z" fill="#B4B4B4"/>
<path d="M369.848 238.849V227.278H377.076V228.935H371.722V232.151H376.479V233.809H371.722V238.849H369.848ZM382.618 238.849V227.278H384.491V237.191H389.199V238.849H382.618ZM394.433 238.849V227.278H401.843V228.935H396.306V232.151H401.329V233.809H396.306V237.191H401.843V238.849H394.433ZM407.574 238.849V227.278H414.984V228.935H409.448V232.151H414.471V233.809H409.448V237.191H414.984V238.849H407.574ZM424.181 233.444L422.59 235.268V238.849H420.716V227.278H422.59V233.146H422.656L424.314 231.041L427.43 227.278H429.618L425.491 232.151L429.95 238.849H427.695L424.181 233.444ZM446.552 239.048C445.038 239.048 443.85 238.539 442.988 237.522C442.126 236.495 441.695 235.008 441.695 233.063C441.695 232.091 441.805 231.234 442.026 230.494C442.247 229.753 442.568 229.129 442.988 228.621C443.407 228.112 443.916 227.731 444.513 227.477C445.12 227.211 445.8 227.079 446.552 227.079C447.557 227.079 448.397 227.3 449.071 227.742C449.757 228.184 450.293 228.836 450.679 229.698L449.105 230.56C448.906 230.007 448.596 229.571 448.176 229.25C447.767 228.919 447.226 228.753 446.552 228.753C445.656 228.753 444.955 229.057 444.446 229.665C443.938 230.273 443.684 231.113 443.684 232.185V233.942C443.684 235.014 443.938 235.854 444.446 236.462C444.955 237.069 445.656 237.373 446.552 237.373C447.248 237.373 447.811 237.196 448.242 236.843C448.685 236.478 449.011 236.014 449.221 235.45L450.729 236.362C450.342 237.202 449.801 237.86 449.105 238.335C448.408 238.81 447.557 239.048 446.552 239.048ZM455.533 238.849V237.324H457.108V228.803H455.533V227.278H460.572V228.803H458.981V237.324H460.572V238.849H455.533ZM464.932 241.352L469.524 226.582H471.083L466.491 241.352H464.932ZM480.522 239.048C479.008 239.048 477.82 238.539 476.958 237.522C476.096 236.495 475.665 235.008 475.665 233.063C475.665 232.091 475.775 231.234 475.996 230.494C476.217 229.753 476.538 229.129 476.958 228.621C477.378 228.112 477.886 227.731 478.483 227.477C479.091 227.211 479.77 227.079 480.522 227.079C481.528 227.079 482.367 227.3 483.042 227.742C483.727 228.184 484.263 228.836 484.65 229.698L483.075 230.56C482.876 230.007 482.566 229.571 482.146 229.25C481.737 228.919 481.196 228.753 480.522 228.753C479.627 228.753 478.925 229.057 478.417 229.665C477.908 230.273 477.654 231.113 477.654 232.185V233.942C477.654 235.014 477.908 235.854 478.417 236.462C478.925 237.069 479.627 237.373 480.522 237.373C481.218 237.373 481.782 237.196 482.213 236.843C482.655 236.478 482.981 236.014 483.191 235.45L484.699 236.362C484.312 237.202 483.771 237.86 483.075 238.335C482.378 238.81 481.528 239.048 480.522 239.048ZM490 227.278H494.095C494.835 227.278 495.504 227.399 496.101 227.642C496.709 227.886 497.223 228.25 497.643 228.737C498.074 229.212 498.405 229.814 498.637 230.543C498.869 231.262 498.985 232.102 498.985 233.063C498.985 234.025 498.869 234.87 498.637 235.6C498.405 236.318 498.074 236.92 497.643 237.406C497.223 237.882 496.709 238.241 496.101 238.484C495.504 238.727 494.835 238.849 494.095 238.849H490V227.278ZM494.095 237.191C494.957 237.191 495.653 236.92 496.184 236.379C496.714 235.837 496.979 235.041 496.979 233.992V232.135C496.979 231.085 496.714 230.289 496.184 229.748C495.653 229.206 494.957 228.935 494.095 228.935H491.874V237.191H494.095Z" fill="#EEEEEE"/>
<rect x="244.826" y="282.08" width="263.886" height="66.3086" rx="16.5772" fill="#222222"/>
<path d="M271.806 324.953C271.806 325.099 271.633 325.216 271.415 325.216C271.167 325.237 270.994 325.121 270.994 324.953C270.994 324.808 271.167 324.691 271.385 324.691C271.611 324.669 271.806 324.786 271.806 324.953ZM269.467 324.625C269.415 324.771 269.565 324.939 269.791 324.982C269.986 325.055 270.212 324.982 270.257 324.837C270.302 324.691 270.159 324.523 269.934 324.458C269.738 324.407 269.52 324.48 269.467 324.625ZM272.791 324.502C272.573 324.553 272.423 324.691 272.445 324.859C272.468 325.004 272.663 325.099 272.889 325.048C273.107 324.997 273.257 324.859 273.235 324.713C273.212 324.574 273.009 324.48 272.791 324.502ZM277.739 296.586C267.309 296.586 259.331 304.257 259.331 314.361C259.331 322.44 264.579 329.353 272.077 331.786C273.039 331.954 273.378 331.379 273.378 330.905C273.378 330.453 273.355 327.962 273.355 326.432C273.355 326.432 268.091 327.525 266.986 324.261C266.986 324.261 266.129 322.141 264.895 321.595C264.895 321.595 263.173 320.451 265.016 320.473C265.016 320.473 266.888 320.619 267.918 322.353C269.565 325.165 272.325 324.356 273.4 323.875C273.573 322.71 274.062 321.901 274.603 321.42C270.4 320.968 266.159 320.378 266.159 313.37C266.159 311.367 266.73 310.362 267.933 309.08C267.738 308.606 267.099 306.654 268.129 304.133C269.7 303.66 273.318 306.1 273.318 306.1C274.822 305.692 276.438 305.481 278.04 305.481C279.642 305.481 281.259 305.692 282.763 306.1C282.763 306.1 286.38 303.652 287.951 304.133C288.981 306.661 288.342 308.606 288.147 309.08C289.35 310.369 290.087 311.374 290.087 313.37C290.087 320.4 285.658 320.961 281.454 321.42C282.146 321.996 282.732 323.088 282.732 324.8C282.732 327.255 282.71 330.293 282.71 330.89C282.71 331.364 283.056 331.939 284.011 331.772C291.531 329.353 296.629 322.44 296.629 314.361C296.629 304.257 288.169 296.586 277.739 296.586ZM266.64 321.711C266.542 321.784 266.565 321.952 266.693 322.09C266.813 322.207 266.986 322.258 267.084 322.163C267.181 322.09 267.159 321.923 267.031 321.784C266.911 321.668 266.738 321.617 266.64 321.711ZM265.828 321.121C265.775 321.216 265.85 321.333 266.001 321.406C266.121 321.478 266.271 321.457 266.324 321.355C266.377 321.26 266.301 321.143 266.151 321.07C266.001 321.027 265.88 321.049 265.828 321.121ZM268.264 323.715C268.144 323.81 268.189 324.028 268.362 324.167C268.535 324.334 268.753 324.356 268.851 324.239C268.948 324.145 268.903 323.926 268.753 323.788C268.588 323.62 268.362 323.598 268.264 323.715ZM267.407 322.644C267.287 322.717 267.287 322.906 267.407 323.074C267.527 323.241 267.73 323.314 267.828 323.241C267.948 323.147 267.948 322.957 267.828 322.79C267.723 322.622 267.527 322.549 267.407 322.644Z" fill="#B4B4B4"/>
<path d="M328.292 319.977H328.225C328.104 320.541 327.772 321.011 327.231 321.386C326.7 321.751 325.993 321.933 325.109 321.933C324.424 321.933 323.788 321.806 323.202 321.552C322.617 321.287 322.108 320.906 321.677 320.408C321.257 319.9 320.926 319.275 320.683 318.535C320.451 317.783 320.335 316.921 320.335 315.949C320.335 314.987 320.456 314.137 320.699 313.396C320.942 312.645 321.285 312.015 321.727 311.506C322.169 310.998 322.7 310.617 323.318 310.362C323.937 310.097 324.628 309.965 325.391 309.965C326.429 309.965 327.308 310.197 328.026 310.661C328.745 311.114 329.303 311.749 329.701 312.567L328.176 313.462C327.955 312.921 327.612 312.484 327.148 312.153C326.684 311.81 326.098 311.639 325.391 311.639C324.473 311.639 323.733 311.932 323.169 312.517C322.617 313.103 322.34 313.932 322.34 315.004V316.894C322.34 317.966 322.617 318.795 323.169 319.38C323.733 319.966 324.473 320.259 325.391 320.259C325.755 320.259 326.103 320.215 326.435 320.126C326.767 320.027 327.054 319.889 327.297 319.712C327.551 319.524 327.75 319.298 327.894 319.032C328.048 318.756 328.126 318.436 328.126 318.071V317.176H325.739V315.568H329.933V321.734H328.292V319.977ZM335.355 321.734V320.209H336.93V311.689H335.355V310.164H340.394V311.689H338.803V320.209H340.394V321.734H335.355ZM350.26 311.821V321.734H348.387V311.821H344.939V310.164H353.708V311.821H350.26ZM365.961 316.695H360.723V321.734H358.85V310.164H360.723V315.037H365.961V310.164H367.834V321.734H365.961V316.695ZM375.773 310.164V317.292C375.773 318.275 375.961 319.016 376.336 319.513C376.712 320.01 377.353 320.259 378.259 320.259C379.166 320.259 379.807 320.01 380.182 319.513C380.558 319.016 380.746 318.275 380.746 317.292V310.164H382.586V316.993C382.586 317.844 382.509 318.579 382.354 319.198C382.199 319.817 381.95 320.331 381.608 320.74C381.265 321.138 380.818 321.436 380.265 321.635C379.724 321.834 379.055 321.933 378.259 321.933C377.464 321.933 376.789 321.834 376.237 321.635C375.695 321.436 375.253 321.138 374.911 320.74C374.568 320.331 374.319 319.817 374.165 319.198C374.01 318.579 373.933 317.844 373.933 316.993V310.164H375.773ZM388.679 310.164H393.801C394.763 310.164 395.514 310.434 396.056 310.976C396.608 311.517 396.885 312.241 396.885 313.147C396.885 313.578 396.824 313.949 396.702 314.258C396.581 314.556 396.426 314.805 396.238 315.004C396.05 315.192 395.835 315.336 395.592 315.435C395.348 315.523 395.111 315.579 394.879 315.601V315.7C395.111 315.711 395.365 315.767 395.641 315.866C395.929 315.966 396.194 316.126 396.437 316.347C396.68 316.557 396.885 316.833 397.05 317.176C397.216 317.507 397.299 317.916 397.299 318.402C397.299 318.867 397.222 319.303 397.067 319.712C396.923 320.121 396.719 320.475 396.454 320.773C396.188 321.071 395.873 321.309 395.509 321.486C395.144 321.651 394.746 321.734 394.315 321.734H388.679V310.164ZM390.552 320.126H393.768C394.254 320.126 394.636 319.999 394.912 319.745C395.188 319.491 395.326 319.126 395.326 318.651V318.087C395.326 317.612 395.188 317.247 394.912 316.993C394.636 316.739 394.254 316.612 393.768 316.612H390.552V320.126ZM390.552 315.054H393.453C393.917 315.054 394.276 314.938 394.531 314.706C394.785 314.463 394.912 314.12 394.912 313.678V313.147C394.912 312.705 394.785 312.368 394.531 312.136C394.276 311.893 393.917 311.772 393.453 311.772H390.552V315.054ZM417.382 321.734L416.338 318.601H412.011L411 321.734H409.094L413.039 310.164H415.393L419.338 321.734H417.382ZM414.216 311.888H414.133L412.459 316.993H415.874L414.216 311.888ZM428.433 321.933C426.919 321.933 425.731 321.425 424.869 320.408C424.007 319.38 423.576 317.894 423.576 315.949C423.576 314.976 423.686 314.12 423.907 313.379C424.129 312.639 424.449 312.015 424.869 311.506C425.289 310.998 425.797 310.617 426.394 310.362C427.002 310.097 427.682 309.965 428.433 309.965C429.439 309.965 430.279 310.186 430.953 310.628C431.638 311.07 432.174 311.722 432.561 312.584L430.986 313.446C430.787 312.893 430.478 312.457 430.058 312.136C429.649 311.805 429.107 311.639 428.433 311.639C427.538 311.639 426.836 311.943 426.328 312.551C425.819 313.158 425.565 313.998 425.565 315.07V316.828C425.565 317.9 425.819 318.739 426.328 319.347C426.836 319.955 427.538 320.259 428.433 320.259C429.129 320.259 429.693 320.082 430.124 319.729C430.566 319.364 430.892 318.9 431.102 318.336L432.61 319.248C432.224 320.088 431.682 320.745 430.986 321.22C430.29 321.696 429.439 321.933 428.433 321.933ZM442.205 311.821V321.734H440.332V311.821H436.884V310.164H445.653V311.821H442.205ZM450.2 321.734V320.209H451.775V311.689H450.2V310.164H455.24V311.689H453.648V320.209H455.24V321.734H450.2ZM465.385 321.933C464.634 321.933 463.948 321.806 463.33 321.552C462.722 321.287 462.197 320.906 461.755 320.408C461.324 319.9 460.987 319.275 460.743 318.535C460.511 317.783 460.395 316.921 460.395 315.949C460.395 314.976 460.511 314.12 460.743 313.379C460.987 312.628 461.324 312.004 461.755 311.506C462.197 310.998 462.722 310.617 463.33 310.362C463.948 310.097 464.634 309.965 465.385 309.965C466.137 309.965 466.816 310.097 467.424 310.362C468.043 310.617 468.568 310.998 468.999 311.506C469.441 312.004 469.778 312.628 470.01 313.379C470.253 314.12 470.375 314.976 470.375 315.949C470.375 316.921 470.253 317.783 470.01 318.535C469.778 319.275 469.441 319.9 468.999 320.408C468.568 320.906 468.043 321.287 467.424 321.552C466.816 321.806 466.137 321.933 465.385 321.933ZM465.385 320.259C465.827 320.259 466.231 320.182 466.595 320.027C466.971 319.872 467.286 319.651 467.54 319.364C467.805 319.065 468.01 318.706 468.153 318.286C468.297 317.866 468.369 317.391 468.369 316.861V315.037C468.369 314.507 468.297 314.032 468.153 313.612C468.01 313.192 467.805 312.838 467.54 312.551C467.286 312.252 466.971 312.026 466.595 311.871C466.231 311.716 465.827 311.639 465.385 311.639C464.932 311.639 464.523 311.716 464.158 311.871C463.794 312.026 463.479 312.252 463.213 312.551C462.959 312.838 462.76 313.192 462.617 313.612C462.473 314.032 462.401 314.507 462.401 315.037V316.861C462.401 317.391 462.473 317.866 462.617 318.286C462.76 318.706 462.959 319.065 463.213 319.364C463.479 319.651 463.794 319.872 464.158 320.027C464.523 320.182 464.932 320.259 465.385 320.259ZM479.143 315.336L477.866 312.882H477.817V321.734H476.026V310.164H478.115L481.895 316.562L483.171 319.016H483.221V310.164H485.011V321.734H482.922L479.143 315.336ZM494.64 321.933C493.668 321.933 492.839 321.756 492.154 321.403C491.479 321.049 490.899 320.574 490.413 319.977L491.706 318.767C492.115 319.264 492.562 319.64 493.049 319.894C493.546 320.148 494.11 320.276 494.74 320.276C495.48 320.276 496.038 320.11 496.414 319.778C496.79 319.447 496.978 318.999 496.978 318.436C496.978 317.982 496.845 317.623 496.58 317.358C496.314 317.093 495.845 316.894 495.171 316.761L494.143 316.579C493.016 316.369 492.17 315.999 491.607 315.468C491.043 314.938 490.761 314.208 490.761 313.28C490.761 312.772 490.855 312.313 491.043 311.904C491.242 311.484 491.513 311.136 491.855 310.86C492.209 310.572 492.634 310.351 493.132 310.197C493.629 310.042 494.187 309.965 494.806 309.965C495.679 309.965 496.436 310.119 497.077 310.429C497.718 310.727 498.265 311.164 498.718 311.738L497.409 312.899C497.11 312.512 496.745 312.203 496.314 311.97C495.883 311.738 495.347 311.622 494.706 311.622C494.043 311.622 493.529 311.755 493.165 312.02C492.8 312.285 492.618 312.672 492.618 313.181C492.618 313.667 492.767 314.032 493.065 314.275C493.364 314.507 493.828 314.684 494.458 314.805L495.486 315.021C496.646 315.242 497.491 315.617 498.022 316.148C498.563 316.678 498.834 317.408 498.834 318.336C498.834 318.878 498.74 319.369 498.552 319.811C498.364 320.253 498.088 320.635 497.723 320.955C497.37 321.265 496.933 321.508 496.414 321.685C495.894 321.85 495.303 321.933 494.64 321.933Z" fill="#EEEEEE"/>
<rect x="340.826" y="364.966" width="167.886" height="66.3086" rx="16.5772" fill="#222222"/>
<path d="M367.806 407.839C367.806 407.985 367.633 408.101 367.415 408.101C367.167 408.123 366.994 408.007 366.994 407.839C366.994 407.693 367.167 407.577 367.385 407.577C367.611 407.555 367.806 407.671 367.806 407.839ZM365.467 407.511C365.415 407.657 365.565 407.824 365.791 407.868C365.986 407.941 366.212 407.868 366.257 407.722C366.302 407.577 366.159 407.409 365.934 407.344C365.738 407.293 365.52 407.365 365.467 407.511ZM368.791 407.387C368.573 407.438 368.423 407.577 368.445 407.744C368.468 407.89 368.663 407.985 368.889 407.934C369.107 407.883 369.257 407.744 369.235 407.599C369.212 407.46 369.009 407.365 368.791 407.387ZM373.739 379.472C363.309 379.472 355.331 387.143 355.331 397.247C355.331 405.326 360.579 412.239 368.077 414.672C369.039 414.84 369.378 414.264 369.378 413.791C369.378 413.339 369.355 410.848 369.355 409.318C369.355 409.318 364.091 410.411 362.986 407.147C362.986 407.147 362.129 405.027 360.895 404.481C360.895 404.481 359.173 403.337 361.016 403.359C361.016 403.359 362.888 403.505 363.918 405.238C365.565 408.05 368.325 407.242 369.4 406.761C369.573 405.595 370.062 404.787 370.603 404.306C366.4 403.854 362.159 403.264 362.159 396.256C362.159 394.253 362.73 393.247 363.933 391.965C363.738 391.492 363.099 389.539 364.129 387.019C365.7 386.545 369.318 388.986 369.318 388.986C370.822 388.578 372.438 388.367 374.04 388.367C375.642 388.367 377.259 388.578 378.763 388.986C378.763 388.986 382.38 386.538 383.951 387.019C384.981 389.547 384.342 391.492 384.147 391.965C385.35 393.255 386.087 394.26 386.087 396.256C386.087 403.286 381.658 403.847 377.454 404.306C378.146 404.881 378.732 405.974 378.732 407.686C378.732 410.141 378.71 413.179 378.71 413.776C378.71 414.25 379.056 414.825 380.011 414.658C387.531 412.239 392.629 405.326 392.629 397.247C392.629 387.143 384.169 379.472 373.739 379.472ZM362.64 404.597C362.542 404.67 362.565 404.838 362.693 404.976C362.813 405.093 362.986 405.144 363.084 405.049C363.181 404.976 363.159 404.809 363.031 404.67C362.911 404.554 362.738 404.503 362.64 404.597ZM361.828 404.007C361.775 404.102 361.85 404.218 362.001 404.291C362.121 404.364 362.271 404.342 362.324 404.24C362.377 404.146 362.301 404.029 362.151 403.956C362.001 403.912 361.88 403.934 361.828 404.007ZM364.264 406.601C364.144 406.695 364.189 406.914 364.362 407.052C364.535 407.22 364.753 407.242 364.851 407.125C364.948 407.03 364.903 406.812 364.753 406.673C364.588 406.506 364.362 406.484 364.264 406.601ZM363.407 405.53C363.287 405.603 363.287 405.792 363.407 405.96C363.527 406.127 363.73 406.2 363.828 406.127C363.948 406.032 363.948 405.843 363.828 405.675C363.723 405.508 363.527 405.435 363.407 405.53Z" fill="#B4B4B4"/>
<path d="M421.192 404.819C419.678 404.819 418.49 404.311 417.628 403.294C416.766 402.266 416.335 400.78 416.335 398.835C416.335 397.862 416.445 397.006 416.666 396.265C416.887 395.525 417.208 394.9 417.628 394.392C418.048 393.884 418.556 393.502 419.153 393.248C419.761 392.983 420.44 392.85 421.192 392.85C422.197 392.85 423.037 393.071 423.711 393.513C424.397 393.955 424.933 394.608 425.319 395.47L423.745 396.332C423.546 395.779 423.236 395.342 422.816 395.022C422.407 394.69 421.866 394.525 421.192 394.525C420.297 394.525 419.595 394.829 419.086 395.436C418.578 396.044 418.324 396.884 418.324 397.956V399.713C418.324 400.785 418.578 401.625 419.086 402.233C419.595 402.841 420.297 403.145 421.192 403.145C421.888 403.145 422.452 402.968 422.883 402.614C423.325 402.25 423.651 401.785 423.861 401.222L425.369 402.134C424.982 402.973 424.441 403.631 423.745 404.106C423.048 404.581 422.197 404.819 421.192 404.819ZM430.67 404.62V393.049H432.544V402.962H437.251V404.62H430.67ZM441.987 404.62V403.095H443.562V394.574H441.987V393.049H447.027V394.574H445.436V403.095H447.027V404.62H441.987ZM451.387 407.123L455.979 392.353H457.537L452.945 407.123H451.387ZM466.114 404.819C465.141 404.819 464.313 404.642 463.627 404.289C462.953 403.935 462.373 403.46 461.887 402.863L463.18 401.653C463.589 402.15 464.036 402.526 464.523 402.78C465.02 403.034 465.584 403.161 466.213 403.161C466.954 403.161 467.512 402.996 467.888 402.664C468.263 402.332 468.451 401.885 468.451 401.321C468.451 400.868 468.319 400.509 468.054 400.244C467.788 399.979 467.319 399.78 466.644 399.647L465.617 399.465C464.489 399.255 463.644 398.884 463.08 398.354C462.517 397.823 462.235 397.094 462.235 396.166C462.235 395.657 462.329 395.199 462.517 394.79C462.716 394.37 462.986 394.022 463.329 393.746C463.683 393.458 464.108 393.237 464.605 393.082C465.103 392.928 465.661 392.85 466.28 392.85C467.153 392.85 467.91 393.005 468.551 393.314C469.192 393.613 469.739 394.049 470.192 394.624L468.882 395.784C468.584 395.398 468.219 395.088 467.788 394.856C467.357 394.624 466.821 394.508 466.18 394.508C465.517 394.508 465.003 394.641 464.639 394.906C464.274 395.171 464.092 395.558 464.092 396.066C464.092 396.553 464.241 396.917 464.539 397.16C464.838 397.392 465.302 397.569 465.932 397.691L466.959 397.906C468.12 398.127 468.965 398.503 469.496 399.034C470.037 399.564 470.308 400.293 470.308 401.222C470.308 401.763 470.214 402.255 470.026 402.697C469.838 403.139 469.562 403.52 469.197 403.841C468.844 404.15 468.407 404.394 467.888 404.57C467.368 404.736 466.777 404.819 466.114 404.819ZM475.872 393.049H479.967C480.707 393.049 481.376 393.171 481.973 393.414C482.58 393.657 483.094 394.022 483.514 394.508C483.945 394.983 484.277 395.586 484.509 396.315C484.741 397.033 484.857 397.873 484.857 398.835C484.857 399.796 484.741 400.642 484.509 401.371C484.277 402.089 483.945 402.692 483.514 403.178C483.094 403.653 482.58 404.012 481.973 404.255C481.376 404.499 480.707 404.62 479.967 404.62H475.872V393.049ZM479.967 402.962C480.829 402.962 481.525 402.692 482.056 402.15C482.586 401.609 482.851 400.813 482.851 399.763V397.906C482.851 396.856 482.586 396.061 482.056 395.519C481.525 394.978 480.829 394.707 479.967 394.707H477.745V402.962H479.967ZM493.968 399.216L492.377 401.039V404.62H490.504V393.049H492.377V398.918H492.443L494.101 396.812L497.217 393.049H499.405L495.278 397.923L499.737 404.62H497.482L493.968 399.216Z" fill="#EEEEEE"/>
<path d="M53.876 150.23C53.876 187.011 91.1746 232.08 294.245 232.08" stroke="#3A3A3A" stroke-width="2" stroke-dasharray="4.14 4.14"/>
<path d="M41.4434 150.23C41.4434 207.732 101.323 316.002 245.55 316.002" stroke="#3A3A3A" stroke-width="2" stroke-dasharray="4.14 4.14"/>
<path d="M27.9741 150.23C27.9741 231.044 110.578 397.852 340.868 397.852" stroke="#3A3A3A" stroke-width="2" stroke-dasharray="4.14 4.14"/>
</svg>
