<svg width="32" height="32" viewBox="0 0 32 32" fill="none" xmlns="http://www.w3.org/2000/svg">
<mask id="mask0_53_1400" style="mask-type:alpha" maskUnits="userSpaceOnUse" x="0" y="0" width="32" height="32">
<path d="M1.17903 27.59V27.59C4.32473 27.59 7.16853 25.7176 8.41157 22.8279L9.51496 20.2629C10.6276 17.6763 13.173 16.0002 15.9887 16V16" stroke="#F1F1F1" stroke-width="1.33333"/>
<path d="M30.7988 27.59V27.59C27.6531 27.59 24.8093 25.7176 23.5663 22.8279L22.4629 20.2629C21.3503 17.6763 18.8049 16.0002 15.9892 16V16" stroke="#F1F1F1" stroke-width="1.33333"/>
<path d="M1.17903 4.40996V4.40996C4.32473 4.40996 7.16853 6.28241 8.41157 9.17209L9.51496 11.7371C10.6276 14.3237 13.173 15.9998 15.9887 16V16" stroke="#F1F1F1" stroke-width="1.33333"/>
<path d="M30.7988 4.40996V4.40996C27.6531 4.40996 24.8093 6.28241 23.5663 9.17209L22.4629 11.7371C21.3503 14.3237 18.8049 15.9998 15.9892 16V16" stroke="#F1F1F1" stroke-width="1.33333"/>
<path d="M1.17903 21.6927H2.57946C4.98401 21.6927 7.27165 20.6553 8.85586 18.8464V18.8464C10.44 17.0376 12.7275 16.0001 15.132 16L15.9887 16" stroke="#F1F1F1" stroke-width="1.33333"/>
<path d="M30.7988 21.6927H29.3984C26.9938 21.6927 24.7062 20.6553 23.122 18.8464V18.8464C21.5379 17.0376 19.2503 16.0001 16.8459 16L15.9892 16" stroke="#F1F1F1" stroke-width="1.33333"/>
<path d="M1.17903 10.3073H2.57946C4.98401 10.3073 7.27165 11.3447 8.85586 13.1536V13.1536C10.44 14.9624 12.7275 15.9999 15.132 16L15.9887 16" stroke="#F1F1F1" stroke-width="1.33333"/>
<path d="M30.7988 10.3073H29.3984C26.9938 10.3073 24.7062 11.3447 23.122 13.1536V13.1536C21.5379 14.9624 19.2503 15.9999 16.8459 16L15.9892 16" stroke="#F1F1F1" stroke-width="1.33333"/>
<path d="M1.12695 16H30.8733" stroke="#F1F1F1" stroke-width="1.33333"/>
</mask>
<g mask="url(#mask0_53_1400)">
<rect width="32" height="32" fill="url(#paint0_linear_53_1400)"/>
</g>
<defs>
<linearGradient id="paint0_linear_53_1400" x1="32" y1="32" x2="-5.25345" y2="8.23528" gradientUnits="userSpaceOnUse">
<stop offset="0.0727574" stop-color="#FFE629"/>
<stop offset="0.333333" stop-color="#FFE629"/>
<stop offset="0.661458" stop-color="#FFE629"/>
<stop offset="0.854167" stop-color="#FFE629"/>
<stop offset="1" stop-color="#FFE629"/>
</linearGradient>
</defs>
</svg>
