<svg width="877" height="332" viewBox="0 0 877 332" fill="none" xmlns="http://www.w3.org/2000/svg">
<g opacity="0.4">
<path d="M876.715 159.963C876.841 161.299 876.926 162.638 876.968 163.982L876.469 163.998C876.49 164.664 876.5 165.332 876.5 166C876.5 166.668 876.49 167.335 876.469 168.002L876.968 168.018C876.926 169.361 876.842 170.701 876.715 172.036L876.218 171.989C876.093 173.312 875.927 174.632 875.72 175.947L876.214 176.025C876.006 177.346 875.757 178.664 875.468 179.977L874.979 179.869C874.694 181.167 874.368 182.46 874.003 183.75L874.484 183.886C874.122 185.166 873.722 186.441 873.283 187.712L872.81 187.549C872.376 188.809 871.903 190.065 871.393 191.316L871.857 191.504C871.358 192.728 870.825 193.947 870.256 195.161L869.803 194.949C869.238 196.156 868.639 197.358 868.005 198.556L868.447 198.79C867.829 199.957 867.179 201.119 866.498 202.277L866.067 202.023C865.394 203.166 864.69 204.305 863.954 205.439L864.374 205.711C863.65 206.826 862.897 207.937 862.115 209.044L861.706 208.755C860.946 209.83 860.158 210.901 859.342 211.967L859.739 212.271C858.921 213.341 858.075 214.406 857.201 215.466L856.815 215.148C855.986 216.155 855.132 217.158 854.253 218.157L854.629 218.487C853.746 219.49 852.84 220.489 851.909 221.483L851.544 221.141C850.637 222.109 849.708 223.072 848.755 224.032L849.11 224.384C848.181 225.321 847.229 226.254 846.256 227.182L845.911 226.821C844.941 227.746 843.949 228.668 842.937 229.585L843.272 229.956C842.295 230.841 841.298 231.723 840.281 232.6L839.955 232.222C838.954 233.086 837.933 233.947 836.894 234.803L837.213 235.189C836.171 236.048 835.11 236.903 834.031 237.754L833.721 237.361C832.693 238.172 831.648 238.979 830.586 239.783L830.887 240.182C829.827 240.984 828.75 241.782 827.657 242.577L827.363 242.172C826.273 242.965 825.165 243.754 824.042 244.539L824.328 244.949C823.252 245.701 822.16 246.45 821.054 247.196L820.774 246.781C819.674 247.522 818.56 248.26 817.431 248.994L817.703 249.413C816.572 250.148 815.426 250.88 814.266 251.609L814 251.185C812.884 251.886 811.754 252.583 810.611 253.277L810.87 253.705C809.737 254.393 808.59 255.078 807.431 255.759L807.177 255.328C806.02 256.009 804.85 256.686 803.667 257.359L803.915 257.794C802.755 258.454 801.584 259.11 800.401 259.764L800.159 259.326C799.004 259.963 797.838 260.598 796.66 261.229L796.896 261.67C795.716 262.302 794.525 262.931 793.323 263.556L793.092 263.113C791.894 263.736 790.685 264.356 789.465 264.973L789.691 265.419C788.517 266.012 787.333 266.602 786.139 267.189L785.918 266.741C784.726 267.327 783.523 267.91 782.31 268.49L782.526 268.941C781.311 269.522 780.087 270.1 778.853 270.674L778.642 270.221C777.431 270.784 776.212 271.345 774.982 271.902L775.189 272.357C773.984 272.903 772.77 273.446 771.548 273.986L771.346 273.528C770.125 274.068 768.895 274.604 767.655 275.137L767.853 275.596C766.613 276.13 765.363 276.661 764.105 277.189L763.911 276.728C762.689 277.24 761.458 277.75 760.218 278.257L760.408 278.72C759.18 279.222 757.944 279.722 756.7 280.218L756.514 279.754C755.272 280.25 754.021 280.743 752.762 281.233L752.944 281.699C751.684 282.19 750.416 282.677 749.14 283.162L748.962 282.695C747.726 283.165 746.482 283.632 745.231 284.096L745.404 284.565C744.159 285.027 742.906 285.486 741.646 285.943L741.475 285.473C740.216 285.929 738.95 286.382 737.677 286.833L737.844 287.304C736.569 287.755 735.288 288.203 733.999 288.648L733.836 288.175C732.584 288.608 731.325 289.038 730.06 289.465L730.22 289.939C728.961 290.364 727.695 290.786 726.423 291.206L726.266 290.731C724.995 291.15 723.718 291.566 722.434 291.98L722.587 292.456C721.302 292.87 720.011 293.282 718.714 293.69L718.563 293.213C717.294 293.613 716.018 294.01 714.737 294.404L714.884 294.882C713.615 295.273 712.339 295.661 711.059 296.046L710.915 295.567C709.635 295.952 708.349 296.334 707.058 296.714L707.199 297.194C705.906 297.573 704.608 297.951 703.304 298.325L703.166 297.845C701.877 298.215 700.583 298.582 699.284 298.947L699.419 299.428C698.142 299.787 696.86 300.143 695.573 300.496L695.441 300.014C694.154 300.367 692.863 300.717 691.566 301.065L691.695 301.548C690.398 301.896 689.095 302.241 687.787 302.584L687.66 302.1C686.353 302.443 685.04 302.783 683.723 303.12L683.847 303.604C682.563 303.933 681.275 304.259 679.981 304.583L679.86 304.098C678.569 304.421 677.273 304.741 675.973 305.059L676.092 305.545C674.791 305.863 673.485 306.179 672.174 306.492L672.058 306.005C670.748 306.318 669.434 306.629 668.114 306.936L668.228 307.423C666.922 307.728 665.611 308.03 664.296 308.33L664.185 307.842C662.891 308.137 661.593 308.429 660.29 308.719L660.399 309.207C659.095 309.497 657.788 309.785 656.476 310.07L656.369 309.582C655.058 309.866 653.743 310.149 652.423 310.429L652.527 310.918C651.206 311.198 649.881 311.476 648.553 311.751L648.451 311.261C647.147 311.531 645.839 311.799 644.526 312.064L644.625 312.554C643.32 312.817 642.012 313.078 640.699 313.337L640.603 312.846C639.291 313.105 637.975 313.361 636.656 313.615L636.75 314.106C635.43 314.359 634.106 314.611 632.778 314.86L632.686 314.368C631.359 314.617 630.028 314.863 628.693 315.107L628.783 315.599C627.476 315.837 626.166 316.073 624.852 316.307L624.765 315.815C623.453 316.048 622.138 316.28 620.819 316.508L620.905 317.001C619.585 317.23 618.262 317.456 616.936 317.68L616.853 317.187C615.527 317.411 614.198 317.632 612.865 317.851L612.946 318.345C611.615 318.563 610.28 318.78 608.941 318.994L608.862 318.5C607.551 318.71 606.237 318.917 604.92 319.122L604.996 319.616C603.678 319.821 602.357 320.023 601.032 320.224L600.957 319.729C599.633 319.929 598.306 320.127 596.976 320.322L597.049 320.817C595.718 321.013 594.384 321.206 593.047 321.396L592.976 320.901C591.641 321.092 590.303 321.28 588.962 321.465L589.031 321.96C587.714 322.143 586.394 322.323 585.072 322.5L585.005 322.004C583.683 322.182 582.358 322.357 581.03 322.53L581.095 323.026C579.767 323.198 578.435 323.369 577.101 323.537L577.039 323.041C575.705 323.209 574.369 323.375 573.03 323.538L573.09 324.034C571.75 324.198 570.408 324.359 569.062 324.517L569.004 324.021C567.683 324.177 566.359 324.33 565.033 324.481L565.09 324.978C563.764 325.129 562.435 325.278 561.104 325.424L561.05 324.927C559.719 325.074 558.386 325.218 557.051 325.359L557.103 325.857C555.767 325.998 554.428 326.138 553.087 326.275L553.036 325.778C551.695 325.915 550.352 326.049 549.006 326.182L549.055 326.679C547.726 326.81 546.395 326.938 545.061 327.064L545.014 326.567C543.687 326.692 542.357 326.815 541.025 326.936L541.07 327.434C539.737 327.555 538.402 327.673 537.064 327.79L537.021 327.292C535.684 327.408 534.345 327.522 533.003 327.633L533.045 328.132C531.703 328.243 530.358 328.353 529.011 328.46L528.972 327.961C527.636 328.067 526.298 328.171 524.957 328.273L524.995 328.771C523.665 328.872 522.334 328.97 521 329.067L520.964 328.568C519.63 328.664 518.295 328.758 516.958 328.849L516.992 329.348C515.654 329.44 514.313 329.529 512.971 329.616L512.939 329.117C511.597 329.204 510.253 329.288 508.907 329.371L508.938 329.87C507.593 329.952 506.247 330.032 504.898 330.109L504.869 329.61C503.54 329.687 502.208 329.761 500.874 329.833L500.901 330.332C499.567 330.404 498.23 330.474 496.892 330.541L496.867 330.042C496.26 330.072 495.653 330.102 495.046 330.132C494.314 330.168 493.582 330.203 492.849 330.237L492.872 330.736C491.53 330.799 490.186 330.86 488.841 330.918L488.819 330.418C487.474 330.477 486.127 330.533 484.778 330.586L484.798 331.086C483.461 331.139 482.122 331.19 480.781 331.238L480.763 330.739C480.227 330.758 479.69 330.777 479.154 330.796C478.355 330.824 477.556 330.851 476.756 330.877L476.773 331.376C475.435 331.42 474.096 331.462 472.755 331.501L472.74 331.001C471.399 331.04 470.057 331.077 468.713 331.112L468.726 331.612C467.382 331.646 466.036 331.679 464.688 331.709L464.677 331.209C463.331 331.239 461.984 331.267 460.636 331.292L460.645 331.792C459.311 331.817 457.976 331.84 456.639 331.861L456.631 331.361C455.295 331.381 453.957 331.4 452.618 331.416L452.624 331.916C451.284 331.932 449.943 331.945 448.6 331.957L448.595 331.457C447.253 331.468 445.909 331.478 444.564 331.484L444.566 331.984C443.22 331.991 441.873 331.996 440.524 331.998L440.523 331.498C439.849 331.499 439.175 331.5 438.5 331.5C437.825 331.5 437.151 331.499 436.477 331.498L436.476 331.998C435.128 331.996 433.78 331.991 432.434 331.984L432.437 331.484C431.091 331.478 429.748 331.468 428.405 331.457L428.401 331.957C427.058 331.945 425.717 331.932 424.377 331.916L424.383 331.416C423.935 331.41 423.488 331.405 423.04 331.399C422.149 331.387 421.259 331.374 420.369 331.361L420.361 331.861C419.025 331.84 417.689 331.817 416.355 331.792L416.365 331.292C415.016 331.267 413.669 331.239 412.324 331.209L412.313 331.709C410.965 331.679 409.619 331.646 408.274 331.612L408.287 331.112C406.943 331.077 405.601 331.04 404.261 331.001L404.246 331.501C402.905 331.462 401.565 331.42 400.228 331.376L400.244 330.877C398.907 330.833 397.572 330.787 396.238 330.739L396.22 331.238C394.879 331.19 393.54 331.139 392.202 331.086L392.222 330.586C390.873 330.533 389.526 330.477 388.181 330.418L388.16 330.918C386.814 330.86 385.47 330.799 384.128 330.736L384.152 330.237C382.81 330.174 381.471 330.109 380.133 330.042L380.108 330.541C378.77 330.474 377.434 330.404 376.099 330.332L376.126 329.833C374.793 329.761 373.461 329.687 372.131 329.61L372.102 330.109C370.754 330.032 369.407 329.952 368.063 329.87L368.093 329.371C366.747 329.288 365.403 329.204 364.062 329.117L364.029 329.616C362.687 329.529 361.347 329.44 360.009 329.348L360.043 328.849C358.705 328.758 357.37 328.664 356.037 328.568L356.001 329.067C354.667 328.97 353.335 328.872 352.005 328.771L352.043 328.273C350.703 328.171 349.365 328.067 348.029 327.961L347.989 328.46C346.642 328.353 345.298 328.243 343.956 328.132L343.997 327.633C342.655 327.522 341.316 327.408 339.979 327.292L339.936 327.79C338.598 327.674 337.263 327.555 335.93 327.434L335.975 326.936C334.643 326.815 333.313 326.692 331.986 326.567L331.939 327.064C330.605 326.938 329.274 326.81 327.945 326.679L327.994 326.182C326.648 326.049 325.305 325.915 323.964 325.778L323.913 326.275C322.572 326.138 321.233 325.998 319.897 325.857L319.95 325.359C318.614 325.218 317.281 325.074 315.95 324.927L315.896 325.424C314.565 325.278 313.236 325.129 311.91 324.978L311.967 324.481C310.641 324.33 309.317 324.177 307.996 324.021L307.938 324.517C306.592 324.359 305.25 324.198 303.91 324.034L303.97 323.538C302.631 323.375 301.295 323.209 299.961 323.041L299.899 323.537C298.565 323.369 297.234 323.198 295.905 323.026L295.97 322.53C294.642 322.357 293.317 322.182 291.995 322.004L291.929 322.5C290.606 322.323 289.286 322.143 287.97 321.96L288.038 321.465C286.697 321.28 285.359 321.092 284.024 320.901L283.953 321.396C282.616 321.206 281.282 321.013 279.951 320.817L280.024 320.322C278.694 320.127 277.367 319.929 276.043 319.729L275.968 320.224C274.643 320.023 273.322 319.821 272.004 319.616L272.08 319.122C270.763 318.917 269.449 318.71 268.138 318.5L268.059 318.994C266.72 318.78 265.385 318.563 264.054 318.345L264.135 317.851C262.802 317.632 261.473 317.411 260.147 317.187L260.064 317.68C258.738 317.456 257.415 317.23 256.095 317.001L256.181 316.508C254.862 316.28 253.547 316.048 252.235 315.815L252.147 316.307C250.834 316.073 249.524 315.837 248.217 315.599L248.307 315.107C246.972 314.863 245.641 314.617 244.314 314.368L244.222 314.86C242.894 314.611 241.57 314.359 240.25 314.106L240.344 313.615C239.025 313.361 237.709 313.105 236.397 312.846L236.301 313.337C234.988 313.078 233.679 312.817 232.375 312.554L232.474 312.064C231.161 311.798 229.853 311.531 228.549 311.261L228.447 311.751C227.118 311.476 225.794 311.198 224.473 310.918L224.577 310.429C223.257 310.149 221.942 309.866 220.63 309.582L220.524 310.07C219.212 309.785 217.904 309.497 216.601 309.207L216.71 308.719C215.407 308.429 214.109 308.137 212.815 307.842L212.704 308.33C211.388 308.03 210.078 307.728 208.772 307.423L208.885 306.936C207.566 306.629 206.252 306.318 204.942 306.005L204.826 306.492C203.515 306.179 202.209 305.863 200.908 305.545L201.027 305.059C199.726 304.741 198.431 304.421 197.14 304.098L197.018 304.583C195.725 304.259 194.436 303.933 193.153 303.604L193.277 303.12C191.959 302.783 190.647 302.443 189.34 302.1L189.213 302.584C187.905 302.241 186.602 301.896 185.304 301.548L185.434 301.065C184.137 300.717 182.845 300.366 181.559 300.014L181.427 300.496C180.14 300.142 178.858 299.787 177.581 299.428L177.716 298.947C176.416 298.582 175.122 298.215 173.834 297.845L173.696 298.325C172.392 297.951 171.094 297.573 169.801 297.193L169.942 296.714C168.651 296.334 167.365 295.952 166.085 295.567L165.941 296.046C164.66 295.66 163.385 295.273 162.116 294.882L162.263 294.404C160.982 294.01 159.706 293.613 158.436 293.213L158.286 293.69C156.989 293.281 155.697 292.87 154.412 292.456L154.566 291.98C153.282 291.566 152.004 291.15 150.733 290.731L150.577 291.206C149.305 290.786 148.039 290.364 146.78 289.939L146.94 289.465C145.675 289.038 144.416 288.608 143.164 288.175L143.001 288.648C141.712 288.203 140.43 287.755 139.156 287.304L139.323 286.833C138.05 286.382 136.783 285.929 135.525 285.473L135.354 285.943C134.094 285.486 132.841 285.027 131.595 284.565L131.769 284.096C130.518 283.632 129.274 283.165 128.038 282.695L127.86 283.162C126.584 282.677 125.316 282.19 124.056 281.699L124.238 281.233C122.979 280.743 121.728 280.25 120.486 279.754L120.3 280.218C119.056 279.722 117.82 279.222 116.592 278.72L116.782 278.257C115.542 277.75 114.311 277.24 113.088 276.728L112.895 277.189C111.637 276.661 110.387 276.13 109.147 275.596L109.345 275.137C108.105 274.604 106.875 274.068 105.654 273.528L105.452 273.986C104.23 273.446 103.016 272.903 101.811 272.357L102.018 271.902C100.788 271.345 99.5687 270.784 98.3584 270.221L98.1475 270.674C96.9131 270.1 95.6886 269.522 94.4742 268.941L94.69 268.49C93.4772 267.91 92.2744 267.327 91.0818 266.741L90.8612 267.19C89.667 266.602 88.483 266.012 87.3091 265.419L87.5347 264.973C86.3146 264.356 85.1056 263.736 83.9079 263.113L83.6771 263.556C82.4748 262.931 81.2838 262.302 80.1042 261.67L80.3404 261.229C79.1625 260.598 77.9961 259.963 76.8412 259.326L76.5995 259.764C75.4162 259.11 74.2448 258.454 73.0856 257.794L73.333 257.359C72.1501 256.686 70.98 256.009 69.8227 255.328L69.5694 255.76C68.41 255.078 67.2635 254.393 66.13 253.705L66.3895 253.278C65.2464 252.583 64.1165 251.886 63 251.185L62.7342 251.609C61.574 250.88 60.4282 250.149 59.2968 249.413L59.5693 248.994C58.4403 248.26 57.3257 247.522 56.2258 246.781L55.9464 247.196C54.8401 246.451 53.7486 245.702 52.672 244.949L52.9584 244.539C51.8349 243.754 50.7276 242.965 49.6369 242.172L49.343 242.577C48.2497 241.782 47.1729 240.984 46.1128 240.182L46.4145 239.783C45.3524 238.98 44.3072 238.172 43.279 237.362L42.9694 237.754C41.8901 236.903 40.8295 236.048 39.7877 235.189L40.1058 234.803C39.0668 233.947 38.0467 233.086 37.0456 232.222L36.7188 232.6C35.7023 231.723 34.7052 230.841 33.7278 229.956L34.0635 229.585C33.0508 228.668 32.0594 227.746 31.0896 226.821L30.7444 227.182C29.7713 226.254 28.8197 225.321 27.8899 224.384L28.2448 224.032C27.2923 223.073 26.3628 222.109 25.4566 221.141L25.0916 221.483C24.1605 220.489 23.2538 219.49 22.3716 218.488L22.747 218.157C21.8683 217.159 21.0143 216.156 20.185 215.149L19.7991 215.467C18.9257 214.406 18.0796 213.341 17.2612 212.271L17.6583 211.968C16.8423 210.901 16.054 209.83 15.2938 208.755L14.8856 209.044C14.103 207.938 13.3499 206.827 12.6266 205.711L13.0461 205.439C12.3107 204.305 11.6063 203.166 10.9334 202.024L10.5026 202.277C9.82084 201.12 9.17106 199.957 8.55359 198.791L8.99552 198.557C8.36144 197.359 7.76175 196.156 7.19681 194.95L6.74398 195.161C6.17551 193.947 5.64192 192.728 5.14361 191.505L5.60667 191.316C5.09702 190.065 4.62461 188.809 4.18985 187.55L3.7172 187.713C3.27861 186.442 2.87799 185.166 2.51579 183.886L2.9969 183.75C2.63206 182.461 2.30655 181.168 2.02078 179.87L1.53248 179.977C1.24329 178.664 0.994466 177.347 0.786496 176.025L1.28042 175.947C1.07347 174.632 0.907303 173.313 0.782363 171.99L0.284577 172.037C0.158457 170.701 0.0740181 169.362 0.0317391 168.018L0.531492 168.002C0.510517 167.336 0.5 166.668 0.5 166C0.5 165.332 0.510511 164.665 0.531473 163.998L0.0317206 163.982C0.0739874 162.639 0.158414 161.299 0.284523 159.964L0.782309 160.011C0.907238 158.688 1.0734 157.368 1.28033 156.053L0.786409 155.975C0.994368 154.654 1.24318 153.336 1.53237 152.023L2.02067 152.131C2.30642 150.833 2.63193 149.54 2.99676 148.25L2.51565 148.114C2.87784 146.834 3.27845 145.559 3.71703 144.288L4.18968 144.451C4.62444 143.191 5.09684 141.935 5.60648 140.684L5.14342 140.496C5.64172 139.272 6.1753 138.053 6.74376 136.839L7.1966 137.051C7.76153 135.844 8.36122 134.642 8.99529 133.444L8.55337 133.21C9.17083 132.043 9.82061 130.881 10.5023 129.723L10.9332 129.977C11.6061 128.834 12.3104 127.695 13.0458 126.561L12.6263 126.289C13.3496 125.174 14.1028 124.063 14.8853 122.956L15.2936 123.245C16.0538 122.17 16.8421 121.099 17.6581 120.033L17.261 119.729C18.0794 118.659 18.9254 117.594 19.7988 116.534L20.1848 116.852C21.014 115.845 21.8681 114.842 22.7467 113.843L22.3713 113.513C23.2535 112.51 24.1603 111.511 25.0913 110.517L25.4563 110.859C26.3625 109.891 27.292 108.928 28.2445 107.968L27.8896 107.616C28.8195 106.679 29.771 105.746 30.7441 104.818L31.0893 105.179C32.0592 104.254 33.0505 103.332 34.0632 102.415L33.7275 102.044C34.7049 101.159 35.702 100.277 36.7186 99.3997L37.0453 99.7782C38.0464 98.9139 39.0666 98.0534 40.1055 97.1968L39.7875 96.811C40.8293 95.9521 41.8899 95.097 42.9691 94.246L43.2787 94.6386C44.307 93.8278 45.3522 93.0206 46.4143 92.2171L46.1126 91.8183C47.1727 91.0163 48.2495 90.2179 49.3427 89.4233L49.6367 89.8278C50.7274 89.0351 51.8346 88.246 52.9582 87.4608L52.6718 87.051C53.7484 86.2985 54.8399 85.5496 55.9463 84.8042L56.2256 85.2189C57.3255 84.4778 58.4401 83.7402 59.5692 83.0062L59.2966 82.587C60.428 81.8515 61.5738 81.1196 62.734 80.3914L62.9999 80.8149C64.1164 80.1141 65.2462 79.4166 66.3893 78.7225L66.1298 78.2952C67.2634 77.6069 68.4099 76.922 69.5692 76.2405L69.8226 76.6716C70.9799 75.9913 72.15 75.3144 73.3328 74.641L73.0855 74.2065C74.2447 73.5465 75.416 72.8898 76.5994 72.2365L76.8411 72.6742C77.996 72.0366 79.1624 71.4022 80.3402 70.771L80.1041 70.3303C81.2837 69.6981 82.4747 69.0692 83.677 68.4436L83.9078 68.8872C85.1055 68.264 86.3145 67.644 87.5346 67.0273L87.3091 66.5811C88.4829 65.9878 89.667 65.3976 90.8612 64.8105L91.0818 65.2592C92.2744 64.6729 93.4771 64.0897 94.6899 63.5097L94.4742 63.0586C95.6886 62.4778 96.9131 61.9001 98.1475 61.3256L98.3584 61.7789C99.5686 61.2156 100.788 60.6554 102.018 60.0983L101.811 59.6429C103.016 59.0971 104.23 58.5542 105.452 58.0143L105.654 58.4717C106.875 57.9324 108.105 57.3962 109.345 56.863L109.147 56.4037C110.387 55.8699 111.637 55.3391 112.895 54.8113L113.089 55.2724C114.311 54.7596 115.542 54.2497 116.782 53.7427L116.592 53.2799C117.82 52.7776 119.056 52.2782 120.3 51.7817L120.486 52.2461C121.728 51.7501 122.979 51.257 124.238 50.7668L124.056 50.3009C125.316 49.8103 126.584 49.3225 127.86 48.8378L128.038 49.3052C129.274 48.8353 130.518 48.3683 131.769 47.9041L131.596 47.4353C132.841 46.9731 134.094 46.5138 135.354 46.0572L135.525 46.5273C136.784 46.0712 138.05 45.6179 139.323 45.1674L139.156 44.6961C140.431 44.2452 141.712 43.7971 143.001 43.352L143.164 43.8246C144.416 43.392 145.675 42.9621 146.94 42.535L146.78 42.0613C148.039 41.6362 149.305 41.2139 150.577 40.7944L150.734 41.2692C152.005 40.85 153.282 40.4335 154.566 40.0198L154.413 39.5439C155.698 39.1298 156.989 38.7184 158.286 38.3099L158.437 38.7868C159.706 38.3871 160.982 37.9901 162.263 37.5957L162.116 37.1179C163.385 36.7273 164.661 36.3394 165.941 35.9542L166.085 36.433C167.365 36.0481 168.651 35.6658 169.942 35.2862L169.801 34.8065C171.094 34.4266 172.392 34.0493 173.696 33.6748L173.834 34.1554C175.123 33.7853 176.417 33.4178 177.716 33.053L177.581 32.5716C178.858 32.2132 180.14 31.8574 181.427 31.5042L181.559 31.9864C182.846 31.6334 184.137 31.2831 185.434 30.9353L185.305 30.4523C186.602 30.1043 187.905 29.7589 189.213 29.4161L189.34 29.8998C190.647 29.5572 191.96 29.2173 193.277 28.88L193.153 28.3956C194.437 28.0669 195.725 27.7408 197.019 27.4172L197.14 27.9022C198.431 27.5792 199.727 27.2587 201.027 26.9408L200.908 26.4551C202.209 26.1369 203.515 25.8213 204.826 25.5082L204.942 25.9945C206.252 25.6817 207.566 25.3714 208.886 25.0636L208.772 24.5767C210.078 24.272 211.389 23.9698 212.704 23.6702L212.815 24.1577C214.109 23.8629 215.407 23.5705 216.71 23.2806L216.601 22.7926C217.905 22.5025 219.212 22.2149 220.525 21.9298L220.631 22.4184C221.942 22.1335 223.257 21.8511 224.577 21.5712L224.473 21.082C225.794 20.802 227.119 20.5244 228.447 20.2493L228.549 20.7389C229.853 20.469 231.161 20.2015 232.474 19.9364L232.375 19.4463C233.68 19.1828 234.988 18.9217 236.301 18.663L236.397 19.1536C237.709 18.895 239.025 18.639 240.344 18.3853L240.25 17.8943C241.57 17.6406 242.894 17.3893 244.222 17.1404L244.314 17.6319C245.641 17.3832 246.972 17.1369 248.307 16.8932L248.217 16.4013C249.524 16.1627 250.834 15.9265 252.148 15.6927L252.235 16.185C253.547 15.9515 254.862 15.7205 256.181 15.4918L256.095 14.9991C257.415 14.7704 258.738 14.544 260.064 14.32L260.147 14.813C261.473 14.5892 262.802 14.3678 264.135 14.1488L264.054 13.6554C265.385 13.4366 266.72 13.2202 268.059 13.0063L268.138 13.5C269.449 13.2904 270.763 13.0832 272.08 12.8784L272.004 12.3843C273.322 12.1793 274.643 11.9767 275.968 11.7765L276.043 12.2709C277.367 12.0707 278.694 11.873 280.024 11.6776L279.951 11.1829C281.282 10.9874 282.616 10.7944 283.953 10.6037L284.024 11.0987C285.359 10.9083 286.697 10.7204 288.038 10.5348L287.969 10.0395C289.286 9.85735 290.606 9.67749 291.928 9.49997L291.995 9.99552C293.317 9.81809 294.642 9.64299 295.97 9.47023L295.905 8.97441C297.233 8.80157 298.565 8.63108 299.899 8.46294L299.961 8.95902C301.295 8.79097 302.631 8.62528 303.97 8.46196L303.91 7.96564C305.25 7.80224 306.592 7.64121 307.938 7.48258L307.996 7.97914C309.317 7.82339 310.641 7.66995 311.967 7.51882L311.91 7.02203C313.236 6.87095 314.564 6.72217 315.896 6.57572L315.95 7.07272C317.281 6.92634 318.614 6.78229 319.949 6.64057L319.897 6.14336C321.233 6.00157 322.572 5.86211 323.913 5.72501L323.964 6.22242C325.305 6.08538 326.648 5.95069 327.994 5.81836L327.945 5.32076C329.274 5.1901 330.605 5.06175 331.939 4.9357L331.986 5.43349C333.313 5.30803 334.643 5.18486 335.975 5.064L335.93 4.56604C337.263 4.44512 338.598 4.3265 339.936 4.2102L339.979 4.70832C341.316 4.59208 342.655 4.47814 343.997 4.36654L343.955 3.86826C345.297 3.7566 346.642 3.64727 347.989 3.54028L348.028 4.03871C349.364 3.93258 350.702 3.82875 352.043 3.72724L352.005 3.22866C353.335 3.12797 354.666 3.02955 356 2.93342L356.036 3.43213C357.37 3.33604 358.705 3.24225 360.042 3.15074L360.008 2.65191C361.346 2.56037 362.687 2.47112 364.029 2.38419L364.061 2.88314C365.403 2.79624 366.747 2.71166 368.093 2.62939L368.062 2.13032C369.407 2.04813 370.753 1.96826 372.102 1.89071L372.131 2.38989C373.46 2.31342 374.792 2.23922 376.126 2.16728L376.099 1.66801C377.433 1.59605 378.77 1.52636 380.108 1.45895L380.133 1.95832C381.47 1.89094 382.81 1.82585 384.151 1.76305L384.128 1.2636C385.47 1.20077 386.814 1.14024 388.159 1.08201L388.181 1.58155C389.526 1.52335 390.873 1.46745 392.222 1.41387L392.202 0.914269C393.539 0.861139 394.878 0.810285 396.219 0.761718L396.237 1.26139C397.571 1.21309 398.906 1.16705 400.244 1.12328L400.227 0.623549C401.565 0.579763 402.904 0.538251 404.245 0.499023L404.26 0.998809C405.601 0.959598 406.943 0.922669 408.287 0.888034L408.274 0.3882C409.618 0.35355 410.964 0.321194 412.312 0.291142L412.323 0.791018C413.669 0.761019 415.016 0.733318 416.364 0.707924L416.355 0.208013C417.689 0.182899 419.024 0.16004 420.361 0.139448L420.369 0.639389C421.705 0.618805 423.043 0.600486 424.382 0.584442L424.376 0.0844783C425.716 0.0684275 427.057 0.0546525 428.4 0.0431629L428.405 0.543145C429.747 0.53166 431.091 0.52246 432.436 0.515554L432.434 0.0155609C433.78 0.00865231 435.127 0.00403921 436.476 0.00173144L436.477 0.501731C437.151 0.500577 437.825 0.5 438.5 0.5C439.175 0.5 439.849 0.500577 440.523 0.50173L440.524 0.0017305C441.872 0.00403765 443.22 0.00865012 444.566 0.015558L444.563 0.515551C445.909 0.522456 447.252 0.531656 448.595 0.54314L448.599 0.0431584C449.942 0.0546473 451.283 0.0684218 452.623 0.0844719L452.617 0.584436C453.957 0.600479 455.295 0.618798 456.631 0.639381L456.639 0.13944C457.975 0.160032 459.311 0.18289 460.645 0.208003L460.635 0.707915C461.984 0.733308 463.331 0.761008 464.676 0.791006L464.687 0.29113C466.035 0.321181 467.381 0.353537 468.726 0.388187L468.713 0.888021C470.057 0.922656 471.399 0.959584 472.739 0.998795L472.754 0.499009C474.095 0.538237 475.435 0.579749 476.772 0.623535L476.756 1.12327C478.093 1.16703 479.428 1.21307 480.762 1.26137L480.78 0.761703C482.121 0.810269 483.46 0.861123 484.798 0.914252L484.778 1.41386C486.127 1.46744 487.474 1.52333 488.819 1.58153L488.84 1.082C490.186 1.14022 491.53 1.20075 492.872 1.26358L492.848 1.76303C494.19 1.82583 495.529 1.89092 496.867 1.9583L496.892 1.45893C498.23 1.52634 499.566 1.59603 500.901 1.66799L500.874 2.16726C502.207 2.2392 503.539 2.3134 504.869 2.38987L504.898 1.89069C506.246 1.96824 507.593 2.04811 508.938 2.1303L508.907 2.62937C510.253 2.71164 511.597 2.79622 512.938 2.88312L512.971 2.38416C514.313 2.4711 515.653 2.56034 516.991 2.65189L516.957 3.15072C518.295 3.24222 519.63 3.33602 520.964 3.43211L520.999 2.9334C522.333 3.02953 523.665 3.12795 524.995 3.22864L524.957 3.72722C526.297 3.82873 527.635 3.93256 528.971 4.03869L529.011 3.54026C530.358 3.64725 531.702 3.75658 533.044 3.86824L533.003 4.36652C534.345 4.47812 535.684 4.59206 537.021 4.7083L537.064 4.21018C538.402 4.32649 539.737 4.4451 541.07 4.56602L541.025 5.06398C542.357 5.18484 543.687 5.30801 545.014 5.43347L545.061 4.93569C546.395 5.06173 547.726 5.19009 549.055 5.32074L549.006 5.81834C550.352 5.95068 551.695 6.08536 553.036 6.2224L553.087 5.72499C554.428 5.8621 555.767 6.00155 557.103 6.14334L557.05 6.64055C558.386 6.78227 559.719 6.92633 561.05 7.07271L561.104 6.57571C562.435 6.72216 563.764 6.87093 565.09 7.02202L565.033 7.5188C566.359 7.66993 567.683 7.82338 569.004 7.97912L569.062 7.48256C570.408 7.6412 571.75 7.80223 573.09 7.96562L573.03 8.46195C574.369 8.62527 575.705 8.79096 577.039 8.95901L577.101 8.46293C578.435 8.63107 579.766 8.80156 581.095 8.9744L581.03 9.47022C582.358 9.64298 583.683 9.81808 585.005 9.99552L585.071 9.49996C586.394 9.67749 587.714 9.85735 589.03 10.0395L588.962 10.5348C590.303 10.7204 591.641 10.9083 592.976 11.0987L593.047 10.6037C594.384 10.7944 595.718 10.9874 597.049 11.1829L596.976 11.6776C598.306 11.873 599.633 12.0707 600.957 12.2709L601.032 11.7765C602.357 11.9767 603.678 12.1793 604.996 12.3843L604.92 12.8784C606.237 13.0832 607.551 13.2904 608.862 13.5L608.941 13.0063C610.28 13.2202 611.615 13.4366 612.946 13.6554L612.865 14.1488C614.198 14.3678 615.527 14.5892 616.853 14.8131L616.936 14.32C618.263 14.544 619.585 14.7704 620.905 14.9992L620.819 15.4918C622.138 15.7205 623.453 15.9515 624.765 16.185L624.853 15.6927C626.166 15.9265 627.476 16.1628 628.783 16.4014L628.693 16.8932C630.028 17.137 631.359 17.3832 632.686 17.6319L632.778 17.1404C634.106 17.3893 635.43 17.6406 636.75 17.8944L636.656 18.3854C637.975 18.639 639.291 18.8951 640.603 19.1536L640.7 18.663C642.012 18.9217 643.321 19.1828 644.625 19.4463L644.526 19.9364C645.839 20.2015 647.147 20.469 648.451 20.739L648.553 20.2494C649.882 20.5244 651.206 20.802 652.527 21.0821L652.423 21.5712C653.743 21.8511 655.058 22.1336 656.37 22.4185L656.476 21.9299C657.788 22.215 659.096 22.5026 660.399 22.7927L660.29 23.2807C661.593 23.5706 662.891 23.863 664.185 24.1578L664.296 23.6703C665.612 23.9699 666.922 24.2721 668.228 24.5768L668.115 25.0637C669.434 25.3714 670.748 25.6818 672.058 25.9946L672.174 25.5083C673.485 25.8214 674.791 26.137 676.092 26.4552L675.973 26.9409C677.274 27.2588 678.569 27.5793 679.86 27.9023L679.982 27.4172C681.275 27.7409 682.564 28.067 683.847 28.3957L683.723 28.8801C685.041 29.2174 686.353 29.5573 687.66 29.8999L687.787 29.4162C689.095 29.759 690.398 30.1044 691.696 30.4524L691.566 30.9354C692.863 31.2831 694.155 31.6335 695.441 31.9865L695.573 31.5043C696.86 31.8575 698.142 32.2133 699.419 32.5717L699.284 33.0531C700.584 33.4179 701.878 33.7854 703.166 34.1555L703.304 33.6749C704.608 34.0494 705.906 34.4267 707.199 34.8066L707.058 35.2863C708.349 35.6659 709.635 36.0482 710.915 36.4331L711.059 35.9543C712.34 36.3395 713.615 36.7274 714.884 37.1179L714.737 37.5958C716.018 37.9902 717.294 38.3872 718.564 38.7869L718.714 38.31C720.011 38.7185 721.303 39.1298 722.588 39.5439L722.434 40.0198C723.718 40.4336 724.996 40.8501 726.267 41.2693L726.423 40.7944C727.695 41.214 728.961 41.6363 730.22 42.0613L730.06 42.5351C731.325 42.9622 732.584 43.3921 733.836 43.8246L734 43.352C735.288 43.7972 736.57 44.2452 737.844 44.6961L737.677 45.1675C738.95 45.618 740.217 46.0713 741.475 46.5274L741.646 46.0573C742.906 46.5138 744.159 46.9732 745.405 47.4354L745.231 47.9041C746.482 48.3683 747.726 48.8354 748.962 49.3052L749.14 48.8378C750.416 49.3225 751.684 49.8103 752.944 50.3009L752.762 50.7669C754.021 51.257 755.272 51.7501 756.514 52.2461L756.7 51.7817C757.944 52.2782 759.18 52.7777 760.408 53.28L760.218 53.7427C761.458 54.2497 762.689 54.7596 763.912 55.2724L764.105 54.8114C765.363 55.3391 766.613 55.8699 767.853 56.4037L767.656 56.863C768.895 57.3962 770.125 57.9324 771.346 58.4717L771.548 58.0143C772.77 58.5542 773.984 59.0971 775.189 59.6429L774.982 60.0983C776.212 60.6554 777.431 61.2156 778.642 61.7789L778.853 61.3256C780.087 61.9001 781.311 62.4778 782.526 63.0586L782.31 63.5097C783.523 64.0897 784.726 64.6729 785.918 65.2592L786.139 64.8105C787.333 65.3976 788.517 65.9878 789.691 66.5811L789.465 67.0273C790.685 67.644 791.894 68.2639 793.092 68.8872L793.323 68.4436C794.525 69.0692 795.716 69.6981 796.896 70.3302L796.66 70.7709C797.837 71.4021 799.004 72.0365 800.159 72.6741L800.4 72.2364C801.584 72.8897 802.755 73.5464 803.914 74.2064L803.667 74.6409C804.85 75.3143 806.02 75.9912 807.177 76.6715L807.431 76.2405C808.59 76.9219 809.736 77.6068 810.87 78.2951L810.611 78.7225C811.754 79.4165 812.883 80.114 814 80.8148L814.266 80.3913C815.426 81.1195 816.572 81.8514 817.703 82.5869L817.431 83.0061C818.56 83.7401 819.674 84.4777 820.774 85.2187L821.054 84.8041C822.16 85.5494 823.251 86.2984 824.328 87.0508L824.042 87.4606C825.165 88.2459 826.272 89.0349 827.363 89.8277L827.657 89.4232C828.75 90.2178 829.827 91.0161 830.887 91.8182L830.586 92.2169C831.648 93.0204 832.693 93.8276 833.721 94.6385L834.031 94.2458C835.11 95.0968 836.17 95.9519 837.212 96.8108L836.894 97.1966C837.933 98.0532 838.953 98.9137 839.954 99.778L840.281 99.3995C841.298 100.277 842.295 101.159 843.272 102.044L842.937 102.415C843.949 103.332 844.941 104.254 845.91 105.179L846.256 104.818C847.229 105.746 848.18 106.679 849.11 107.616L848.755 107.968C849.708 108.927 850.637 109.891 851.543 110.859L851.908 110.517C852.839 111.511 853.746 112.51 854.628 113.512L854.253 113.843C855.132 114.841 855.986 115.844 856.815 116.851L857.201 116.533C858.074 117.594 858.92 118.659 859.739 119.729L859.342 120.032C860.158 121.099 860.946 122.17 861.706 123.245L862.114 122.956C862.897 124.062 863.65 125.173 864.373 126.289L863.954 126.561C864.689 127.695 865.394 128.834 866.067 129.976L866.497 129.723C867.179 130.88 867.829 132.043 868.446 133.209L868.004 133.443C868.639 134.641 869.238 135.844 869.803 137.05L870.256 136.838C870.825 138.053 871.358 139.272 871.856 140.495L871.393 140.684C871.903 141.935 872.375 143.191 872.81 144.45L873.283 144.287C873.721 145.558 874.122 146.834 874.484 148.114L874.003 148.25C874.368 149.539 874.693 150.832 874.979 152.13L875.468 152.023C875.757 153.336 876.006 154.653 876.214 155.975L875.72 156.053C875.927 157.368 876.093 158.687 876.218 160.01L876.715 159.963Z" stroke="#CCCCCC" stroke-dasharray="4 4"/>
<path d="M876.204 160.06C876.555 161.364 876.791 162.676 876.91 163.994L876.412 164.039C876.471 164.688 876.5 165.339 876.5 165.992C876.5 166.644 876.471 167.295 876.412 167.945L876.91 167.99C876.791 169.308 876.555 170.619 876.204 171.924L875.721 171.794C875.386 173.037 874.944 174.276 874.397 175.51L874.854 175.713C874.331 176.888 873.716 178.058 873.008 179.221L872.581 178.961C871.919 180.049 871.174 181.132 870.348 182.211L870.745 182.515C869.945 183.56 869.071 184.599 868.123 185.632L867.754 185.294C866.903 186.222 865.991 187.146 865.02 188.065L865.364 188.429C864.412 189.329 863.405 190.225 862.342 191.116L862.021 190.733C861.038 191.557 860.007 192.377 858.928 193.194L859.23 193.592C858.186 194.382 857.098 195.168 855.967 195.95L855.683 195.539C854.619 196.274 853.516 197.006 852.376 197.734L852.645 198.155C851.534 198.864 850.388 199.57 849.206 200.271L848.951 199.841C847.839 200.501 846.697 201.157 845.523 201.81L845.766 202.247C844.598 202.897 843.4 203.543 842.172 204.185L841.94 203.742C840.802 204.338 839.638 204.93 838.449 205.519L838.671 205.967C837.478 206.558 836.26 207.146 835.016 207.73L834.804 207.278C833.623 207.833 832.42 208.385 831.194 208.934L831.398 209.39C830.201 209.926 828.982 210.46 827.742 210.99L827.546 210.531C826.311 211.059 825.054 211.585 823.777 212.107L823.967 212.57C822.771 213.06 821.557 213.547 820.325 214.031L820.142 213.565C818.912 214.049 817.664 214.53 816.398 215.008L816.575 215.476C815.323 215.949 814.054 216.419 812.768 216.887L812.597 216.417C811.377 216.861 810.142 217.303 808.891 217.742L809.056 218.213C807.803 218.653 806.535 219.09 805.252 219.525L805.092 219.052C803.824 219.481 802.542 219.908 801.245 220.333L801.401 220.808C800.163 221.214 798.912 221.617 797.648 222.018L797.497 221.541C796.234 221.941 794.958 222.34 793.669 222.736L793.816 223.214C792.526 223.61 791.222 224.004 789.906 224.396L789.763 223.917C788.518 224.288 787.261 224.657 785.992 225.023L786.131 225.504C784.861 225.871 783.581 226.236 782.288 226.599L782.153 226.117C780.862 226.48 779.56 226.84 778.246 227.198L778.378 227.681C777.103 228.029 775.817 228.374 774.522 228.718L774.393 228.235C773.124 228.571 771.844 228.906 770.555 229.239L770.68 229.723C769.389 230.056 768.088 230.388 766.778 230.717L766.656 230.232C765.351 230.56 764.035 230.886 762.71 231.21L762.829 231.695C761.56 232.006 760.282 232.314 758.995 232.621L758.879 232.135C757.593 232.441 756.298 232.746 754.994 233.049L755.107 233.536C753.803 233.839 752.49 234.14 751.168 234.439L751.058 233.951C749.756 234.246 748.446 234.539 747.128 234.83L747.236 235.318C745.954 235.601 744.664 235.882 743.367 236.162L743.261 235.673C741.965 235.952 740.66 236.23 739.348 236.505L739.451 236.995C738.138 237.271 736.817 237.545 735.489 237.817L735.389 237.327C734.085 237.595 732.775 237.86 731.457 238.124L731.555 238.614C730.265 238.872 728.968 239.129 727.664 239.384L727.568 238.893C726.264 239.148 724.954 239.401 723.637 239.652L723.731 240.143C722.414 240.395 721.089 240.645 719.758 240.893L719.666 240.401C718.356 240.645 717.039 240.888 715.716 241.128L715.806 241.62C714.511 241.856 713.209 242.09 711.902 242.322L711.814 241.83C710.507 242.063 709.194 242.293 707.875 242.522L707.961 243.015C706.641 243.244 705.315 243.472 703.983 243.697L703.9 243.205C702.579 243.429 701.252 243.651 699.919 243.872L700 244.365C698.702 244.58 697.399 244.794 696.09 245.005L696.01 244.512C694.701 244.724 693.388 244.934 692.068 245.143L692.146 245.636C690.826 245.845 689.501 246.052 688.17 246.258L688.094 245.764C686.764 245.969 685.428 246.173 684.088 246.375L684.162 246.87C682.858 247.066 681.549 247.262 680.234 247.455L680.161 246.961C678.853 247.154 677.539 247.345 676.221 247.535L676.292 248.03C674.973 248.219 673.65 248.408 672.321 248.595L672.251 248.099C670.923 248.286 669.591 248.471 668.253 248.655L668.321 249.15C666.998 249.332 665.671 249.512 664.339 249.69L664.272 249.195C662.965 249.37 661.653 249.544 660.336 249.716L660.401 250.212C659.084 250.384 657.763 250.555 656.437 250.725L656.374 250.229C655.048 250.398 653.719 250.566 652.385 250.732L652.447 251.228C651.112 251.395 649.774 251.559 648.431 251.723L648.37 251.227C647.056 251.386 645.738 251.545 644.415 251.702L644.474 252.198C643.16 252.354 641.841 252.509 640.519 252.662L640.461 252.165C639.139 252.318 637.813 252.47 636.483 252.62L636.539 253.117C635.209 253.267 633.875 253.416 632.537 253.563L632.482 253.066C631.145 253.213 629.804 253.359 628.46 253.503L628.513 254C627.201 254.141 625.886 254.28 624.567 254.418L624.515 253.92C623.196 254.058 621.874 254.194 620.548 254.329L620.599 254.827C619.273 254.962 617.943 255.095 616.61 255.227L616.561 254.73C615.228 254.862 613.891 254.992 612.552 255.122L612.6 255.619C611.264 255.748 609.925 255.875 608.583 256.001L608.536 255.503C607.221 255.627 605.903 255.749 604.581 255.869L604.626 256.367C603.304 256.488 601.979 256.607 600.651 256.725L600.606 256.227C599.278 256.344 597.947 256.461 596.612 256.576L596.655 257.074C595.321 257.189 593.982 257.302 592.641 257.415L592.6 256.916C591.264 257.028 589.925 257.138 588.583 257.247L588.623 257.746C587.305 257.852 585.984 257.958 584.66 258.062L584.62 257.564C583.297 257.668 581.97 257.771 580.641 257.872L580.679 258.371C579.349 258.472 578.016 258.572 576.681 258.671L576.644 258.172C575.309 258.271 573.971 258.368 572.63 258.464L572.666 258.962C571.326 259.058 569.984 259.153 568.639 259.245L568.604 258.747C567.285 258.838 565.963 258.928 564.638 259.016L564.671 259.515C563.346 259.603 562.018 259.691 560.688 259.776L560.656 259.277C559.326 259.363 557.993 259.447 556.658 259.531L556.689 260.03C555.354 260.113 554.016 260.194 552.675 260.274L552.645 259.775C551.305 259.856 549.962 259.934 548.617 260.012L548.645 260.511C547.321 260.587 545.994 260.662 544.665 260.736L544.638 260.237C543.312 260.31 541.985 260.382 540.655 260.453L540.681 260.952C539.351 261.023 538.018 261.092 536.683 261.16L536.658 260.661C535.323 260.729 533.986 260.795 532.647 260.861L532.671 261.36C531.332 261.425 529.99 261.489 528.645 261.552L528.622 261.052C527.291 261.114 525.958 261.175 524.623 261.234L524.645 261.733C523.319 261.792 521.991 261.85 520.661 261.906L520.64 261.406C519.311 261.462 517.979 261.517 516.645 261.571L516.665 262.07C515.331 262.124 513.995 262.176 512.656 262.226L512.637 261.727C511.299 261.778 509.959 261.827 508.617 261.875L508.635 262.375C507.296 262.423 505.955 262.469 504.612 262.514L504.595 262.015C503.965 262.036 503.334 262.057 502.703 262.077C502.007 262.1 501.311 262.123 500.614 262.145L500.63 262.644C499.301 262.686 497.969 262.727 496.636 262.766L496.622 262.266C495.289 262.306 493.954 262.344 492.618 262.38L492.631 262.88C491.294 262.917 489.956 262.952 488.615 262.986L488.602 262.486C487.262 262.52 485.92 262.553 484.576 262.584L484.588 263.084C483.257 263.115 481.924 263.144 480.59 263.173L480.579 262.673C479.251 262.701 477.921 262.728 476.589 262.753L476.599 263.253C475.267 263.279 473.933 263.303 472.598 263.326L472.59 262.826C471.255 262.849 469.918 262.87 468.58 262.891L468.587 263.39C467.249 263.411 465.908 263.43 464.566 263.447L464.56 262.947C463.22 262.965 461.88 262.981 460.537 262.995L460.543 263.495C459.215 263.51 457.886 263.523 456.555 263.535L456.551 263.035C455.22 263.047 453.888 263.058 452.555 263.067L452.558 263.567C451.225 263.577 449.889 263.585 448.553 263.592L448.55 263.092C447.214 263.098 445.876 263.104 444.537 263.108L444.538 263.608C443.198 263.612 441.857 263.614 440.515 263.616L440.514 263.116C439.843 263.116 439.172 263.117 438.5 263.117C437.828 263.117 437.157 263.116 436.486 263.116L436.486 263.616C435.143 263.614 433.802 263.612 432.462 263.608L432.464 263.108C431.125 263.104 429.787 263.098 428.45 263.092L428.448 263.592C427.111 263.585 425.776 263.577 424.442 263.567L424.446 263.067C423.112 263.058 421.78 263.047 420.45 263.035L420.445 263.535C419.115 263.523 417.786 263.51 416.458 263.495L416.463 262.995C415.121 262.981 413.78 262.965 412.441 262.947L412.434 263.447C411.092 263.43 409.752 263.411 408.413 263.39L408.421 262.891C407.083 262.87 405.746 262.849 404.411 262.826L404.402 263.326C403.067 263.303 401.733 263.279 400.402 263.253L400.411 262.753C399.079 262.728 397.75 262.701 396.421 262.673L396.411 263.173C395.076 263.144 393.744 263.115 392.413 263.084L392.424 262.584C391.08 262.553 389.738 262.52 388.398 262.486L388.385 262.986C387.045 262.952 385.706 262.917 384.369 262.88L384.383 262.38C383.046 262.344 381.712 262.306 380.379 262.266L380.364 262.766C379.031 262.727 377.7 262.686 376.37 262.644L376.386 262.145C375.774 262.125 375.163 262.106 374.552 262.086C373.836 262.062 373.12 262.039 372.405 262.015L372.388 262.514C371.045 262.469 369.704 262.423 368.365 262.375L368.383 261.875C367.041 261.827 365.701 261.778 364.363 261.727L364.344 262.226C363.006 262.176 361.67 262.124 360.335 262.07L360.355 261.571C359.022 261.517 357.69 261.462 356.36 261.406L356.339 261.906C355.009 261.85 353.681 261.792 352.356 261.733L352.378 261.234C351.042 261.175 349.709 261.114 348.378 261.052L348.355 261.552C347.011 261.489 345.669 261.425 344.329 261.36L344.353 260.861C343.014 260.795 341.677 260.729 340.342 260.661L340.317 261.16C338.982 261.092 337.649 261.023 336.319 260.952L336.345 260.453C335.015 260.382 333.688 260.31 332.362 260.237L332.335 260.736C331.006 260.662 329.679 260.587 328.355 260.511L328.384 260.012C327.038 259.935 325.695 259.856 324.355 259.775L324.325 260.274C322.985 260.194 321.646 260.113 320.311 260.03L320.342 259.531C319.007 259.448 317.674 259.363 316.344 259.277L316.312 259.776C314.982 259.691 313.654 259.603 312.329 259.515L312.362 259.016C311.037 258.928 309.715 258.838 308.396 258.747L308.361 259.245C307.016 259.153 305.674 259.058 304.335 258.962L304.37 258.464C303.029 258.368 301.691 258.271 300.356 258.172L300.319 258.671C298.984 258.572 297.651 258.472 296.321 258.371L296.359 257.872C295.03 257.771 293.703 257.668 292.38 257.564L292.34 258.062C291.016 257.958 289.695 257.852 288.377 257.746L288.418 257.247C287.075 257.138 285.736 257.028 284.4 256.916L284.359 257.415C283.018 257.302 281.68 257.189 280.345 257.074L280.388 256.576C279.053 256.461 277.722 256.344 276.394 256.227L276.35 256.725C275.021 256.607 273.696 256.488 272.374 256.367L272.419 255.869C271.097 255.749 269.779 255.627 268.464 255.503L268.417 256.001C267.075 255.875 265.736 255.748 264.4 255.619L264.448 255.122C263.109 254.992 261.772 254.862 260.439 254.73L260.39 255.227C259.057 255.095 257.727 254.962 256.401 254.827L256.452 254.329C255.126 254.194 253.804 254.058 252.485 253.92L252.433 254.418C251.114 254.28 249.799 254.141 248.487 254L248.54 253.503C247.196 253.359 245.855 253.213 244.518 253.066L244.463 253.563C243.125 253.416 241.791 253.267 240.461 253.117L240.517 252.62C239.187 252.47 237.861 252.318 236.539 252.165L236.481 252.662C235.159 252.509 233.84 252.354 232.526 252.198L232.585 251.702C231.262 251.545 229.944 251.386 228.63 251.226L228.569 251.723C227.226 251.559 225.888 251.395 224.553 251.228L224.615 250.732C223.281 250.566 221.952 250.398 220.626 250.229L220.563 250.725C219.237 250.555 217.916 250.384 216.599 250.212L216.664 249.716C215.347 249.544 214.035 249.37 212.728 249.195L212.661 249.69C211.329 249.512 210.002 249.332 208.679 249.15L208.747 248.655C207.409 248.471 206.076 248.286 204.748 248.099L204.679 248.595C203.35 248.408 202.026 248.219 200.708 248.03L200.779 247.535C199.461 247.345 198.147 247.154 196.839 246.961L196.766 247.455C195.451 247.262 194.142 247.066 192.838 246.87L192.912 246.375C191.572 246.173 190.236 245.969 188.906 245.764L188.83 246.258C187.499 246.052 186.174 245.845 184.854 245.636L184.932 245.143C183.612 244.934 182.298 244.724 180.99 244.512L180.91 245.005C179.601 244.794 178.297 244.58 176.999 244.365L177.081 243.872C175.748 243.651 174.421 243.429 173.1 243.204L173.017 243.697C171.685 243.472 170.359 243.244 169.039 243.015L169.125 242.522C167.806 242.293 166.493 242.063 165.186 241.83L165.098 242.322C163.791 242.09 162.489 241.856 161.194 241.62L161.284 241.128C159.96 240.888 158.644 240.645 157.334 240.401L157.242 240.893C155.911 240.645 154.586 240.395 153.269 240.143L153.363 239.652C152.046 239.401 150.735 239.148 149.432 238.893L149.336 239.384C148.032 239.129 146.735 238.872 145.445 238.614L145.543 238.124C144.225 237.86 142.915 237.595 141.611 237.327L141.511 237.817C140.183 237.545 138.862 237.271 137.549 236.995L137.652 236.505C136.34 236.23 135.035 235.952 133.739 235.673L133.633 236.162C132.336 235.882 131.046 235.601 129.764 235.318L129.872 234.83C128.554 234.539 127.244 234.246 125.942 233.951L125.832 234.439C124.51 234.14 123.197 233.839 121.893 233.536L122.006 233.049C120.702 232.746 119.407 232.441 118.121 232.135L118.005 232.621C116.718 232.314 115.44 232.006 114.171 231.695L114.29 231.21C112.965 230.886 111.65 230.56 110.344 230.232L110.222 230.717C108.912 230.388 107.611 230.056 106.321 229.723L106.446 229.239C105.156 228.906 103.876 228.571 102.607 228.235L102.478 228.718C101.183 228.374 99.8974 228.029 98.6226 227.681L98.7541 227.198C97.4405 226.84 96.1381 226.48 94.8471 226.117L94.7119 226.599C93.4197 226.236 92.1388 225.871 90.8693 225.504L91.0082 225.024C89.7397 224.657 88.4826 224.288 87.2372 223.917L87.0945 224.396C85.7781 224.004 84.4746 223.61 83.1842 223.214L83.3311 222.736C82.0421 222.34 80.7662 221.942 79.5035 221.541L79.3524 222.018C78.0882 221.617 76.8373 221.214 75.5997 220.808L75.7553 220.333C74.4583 219.908 73.176 219.481 71.9086 219.052L71.7481 219.525C70.4649 219.09 69.1968 218.653 67.9441 218.213L68.1097 217.742C66.8587 217.303 65.6232 216.861 64.4031 216.417L64.2322 216.887C62.9459 216.42 61.6768 215.949 60.4251 215.476L60.6018 215.008C59.336 214.53 58.088 214.049 56.8581 213.566L56.6752 214.031C55.4432 213.547 54.2293 213.06 53.0336 212.57L53.223 212.108C51.9459 211.585 50.6897 211.059 49.4548 210.531L49.2581 210.991C48.0181 210.46 46.7994 209.927 45.6022 209.39L45.8065 208.934C44.5805 208.385 43.3771 207.833 42.1968 207.278L41.9841 207.731C40.7405 207.146 39.5222 206.558 38.3295 205.967L38.5514 205.519C37.3619 204.93 36.1982 204.338 35.0604 203.743L34.8287 204.186C33.6004 203.543 32.4023 202.897 31.2345 202.247L31.4776 201.81C30.3038 201.157 29.161 200.501 28.0498 199.841L27.7946 200.271C26.6129 199.57 25.4664 198.865 24.3556 198.156L24.6246 197.734C23.4839 197.006 22.3814 196.274 21.3176 195.539L21.0333 195.95C19.9024 195.169 18.8147 194.383 17.7706 193.593L18.0723 193.194C16.9937 192.378 15.9624 191.557 14.9793 190.733L14.6581 191.116C13.5954 190.225 12.588 189.33 11.6366 188.429L11.9803 188.066C11.0089 187.146 10.0972 186.223 9.24601 185.295L8.87758 185.633C7.92969 184.6 7.05511 183.56 6.25508 182.516L6.65206 182.212C5.82595 181.133 5.08143 180.049 4.41949 178.962L3.99236 179.222C3.28458 178.058 2.6688 176.889 2.14672 175.713L2.60369 175.51C2.05586 174.276 1.61389 173.038 1.27913 171.794L0.796319 171.924C0.445068 170.62 0.208898 169.308 0.0900366 167.99L0.588016 167.945C0.529428 167.296 0.5 166.645 0.5 165.992C0.5 165.339 0.529411 164.689 0.587966 164.039L0.0899863 163.994C0.208815 162.676 0.444957 161.365 0.796181 160.06L1.27899 160.19C1.61372 158.947 2.05567 157.708 2.60348 156.474L2.1465 156.271C2.66856 155.095 3.28432 153.926 3.99208 152.763L4.41922 153.023C5.08114 151.935 5.82566 150.851 6.65176 149.772L6.25478 149.469C7.05478 148.424 7.92935 147.385 8.87723 146.351L9.24566 146.689C10.0969 145.762 11.0086 144.838 11.9799 143.918L11.6362 143.555C12.5876 142.655 13.5951 141.759 14.6577 140.868L14.9789 141.251C15.9621 140.427 16.9933 139.606 18.072 138.79L17.7703 138.392C18.8143 137.601 19.9021 136.815 21.0329 136.034L21.3172 136.445C22.3811 135.71 23.4836 134.978 24.6242 134.25L24.3552 133.828C25.466 133.119 26.6125 132.414 27.7942 131.713L28.0494 132.143C29.1607 131.483 30.3034 130.827 31.4773 130.174L31.2342 129.737C32.4019 129.087 33.6001 128.441 34.8283 127.798L35.0601 128.241C36.1979 127.646 37.3616 127.054 38.5511 126.465L38.3292 126.017C39.5218 125.426 40.7401 124.838 41.9837 124.253L42.1964 124.706C43.3768 124.151 44.5802 123.599 45.8063 123.05L45.6019 122.594C46.7991 122.057 48.0178 121.524 49.2578 120.993L49.4545 121.453C50.6894 120.925 51.9456 120.399 53.2227 119.876L53.0333 119.414C54.229 118.924 55.4429 118.437 56.6749 117.953L56.8578 118.418C58.0877 117.935 59.3357 117.454 60.6016 116.976L60.4248 116.508C61.6765 116.035 62.9457 115.564 64.232 115.097L64.4029 115.566C65.6229 115.123 66.8585 114.681 68.1094 114.242L67.9439 113.77C69.1966 113.331 70.4646 112.894 71.7478 112.459L71.9083 112.932C73.1758 112.503 74.4581 112.076 75.7551 111.651L75.5995 111.176C76.8371 110.77 78.088 110.367 79.3522 109.966L79.5033 110.443C80.766 110.042 82.0419 109.644 83.3309 109.248L83.184 108.77C84.4744 108.374 85.7779 107.979 87.0943 107.587L87.2369 108.067C88.4824 107.696 89.7395 107.327 91.008 106.96L90.8691 106.48C92.1386 106.113 93.4195 105.748 94.7118 105.385L94.8469 105.867C96.1379 105.504 97.4403 105.144 98.754 104.785L98.6224 104.303C99.8972 103.955 101.183 103.61 102.478 103.266L102.607 103.749C103.876 103.412 105.156 103.078 106.445 102.745L106.32 102.261C107.611 101.927 108.912 101.596 110.222 101.267L110.344 101.752C111.649 101.424 112.965 101.098 114.29 100.774L114.171 100.288C115.44 99.9781 116.718 99.6695 118.005 99.3628L118.121 99.8492C119.407 99.5427 120.702 99.2381 122.006 98.9353L121.893 98.4483C123.197 98.1453 124.51 97.8442 125.832 97.5449L125.942 98.0326C127.244 97.7379 128.554 97.4451 129.872 97.1541L129.764 96.6659C131.046 96.3829 132.336 96.1016 133.633 95.8222L133.739 96.311C135.035 96.0316 136.34 95.7541 137.652 95.4783L137.549 94.989C138.862 94.7131 140.183 94.439 141.511 94.1666L141.611 94.6564C142.915 94.3892 144.225 94.1237 145.543 93.8599L145.445 93.3696C146.735 93.1114 148.032 92.8548 149.336 92.6L149.432 93.0907C150.736 92.836 152.046 92.5829 153.363 92.3316L153.269 91.8405C154.587 91.589 155.911 91.3393 157.242 91.0913L157.334 91.5828C158.644 91.3387 159.961 91.0962 161.284 90.8555L161.194 90.3636C162.489 90.1279 163.791 89.8938 165.098 89.6614L165.186 90.1536C166.493 89.9213 167.806 89.6906 169.125 89.4616L169.039 88.9689C170.359 88.7398 171.685 88.5122 173.017 88.2864L173.1 88.7793C174.421 88.5553 175.748 88.3328 177.081 88.112L177 87.6188C178.298 87.4037 179.601 87.1903 180.91 86.9784L180.99 87.4719C182.299 87.2602 183.613 87.0499 184.932 86.8413L184.854 86.3474C186.174 86.1387 187.499 85.9316 188.83 85.726L188.906 86.2201C190.236 86.0147 191.572 85.8108 192.912 85.6086L192.838 85.1142C194.142 84.9174 195.451 84.7222 196.766 84.5285L196.839 85.0231C198.147 84.8303 199.461 84.639 200.779 84.4492L200.708 83.9543C202.027 83.7644 203.35 83.5761 204.679 83.3893L204.749 83.8844C206.077 83.6977 207.409 83.5125 208.747 83.3289L208.679 82.8335C210.002 82.6519 211.329 82.4719 212.661 82.2933L212.728 82.7889C214.035 82.6137 215.347 82.4399 216.664 82.2676L216.599 81.7718C217.916 81.5995 219.237 81.4286 220.563 81.2592L220.626 81.7552C221.952 81.5859 223.281 81.418 224.615 81.2517L224.553 80.7556C225.888 80.5892 227.226 80.4243 228.569 80.261L228.63 80.7573C229.944 80.5975 231.262 80.4391 232.585 80.2822L232.526 79.7856C233.84 79.6296 235.159 79.4751 236.481 79.322L236.539 79.8187C237.861 79.6656 239.187 79.514 240.517 79.3639L240.461 78.867C241.791 78.7169 243.125 78.5681 244.463 78.4209L244.518 78.9179C245.855 78.7708 247.196 78.6252 248.54 78.481L248.487 77.9839C249.799 77.8433 251.114 77.704 252.433 77.5662L252.485 78.0635C253.804 77.9257 255.126 77.7894 256.452 77.6545L256.401 77.157C257.727 77.0221 259.057 76.8885 260.39 76.7565L260.439 77.254C261.772 77.122 263.109 76.9913 264.448 76.8622L264.4 76.3645C265.736 76.2357 267.075 76.1084 268.417 75.9825L268.464 76.4804C269.779 76.357 271.097 76.2351 272.419 76.1146L272.374 75.6166C273.696 75.496 275.021 75.3768 276.349 75.2591L276.394 75.7571C277.722 75.6394 279.053 75.523 280.387 75.4081L280.345 74.9099C281.679 74.795 283.017 74.6814 284.359 74.5693L284.4 75.0676C285.736 74.9559 287.075 74.8456 288.418 74.7367L288.377 74.2383C289.695 74.1314 291.016 74.0258 292.34 73.9217L292.38 74.4201C293.703 74.316 295.03 74.2132 296.359 74.1118L296.321 73.6133C297.651 73.5118 298.984 73.4118 300.319 73.3132L300.356 73.8118C301.691 73.7132 303.029 73.6159 304.37 73.5201L304.334 73.0214C305.674 72.9257 307.016 72.8313 308.361 72.7384L308.396 73.2372C309.715 73.146 311.037 73.0562 312.362 72.9677L312.329 72.4689C313.654 72.3804 314.982 72.2932 316.312 72.2075L316.344 72.7065C317.674 72.6207 319.007 72.5363 320.342 72.4533L320.311 71.9543C321.646 71.8713 322.984 71.7896 324.325 71.7094L324.355 72.2085C325.695 72.1282 327.038 72.0493 328.383 71.9719L328.355 71.4727C329.679 71.3964 331.006 71.3215 332.335 71.2479L332.362 71.7471C333.688 71.6738 335.015 71.6018 336.345 71.5311L336.319 71.0318C337.649 70.9611 338.982 70.8918 340.317 70.8238L340.342 71.3231C341.677 71.2551 343.014 71.1885 344.353 71.1233L344.329 70.6239C345.668 70.5586 347.01 70.4947 348.355 70.4322L348.378 70.9316C349.709 70.8697 351.042 70.8091 352.377 70.7499L352.355 70.2504C353.681 70.1916 355.009 70.1341 356.339 70.078L356.36 70.5776C357.689 70.5215 359.021 70.4667 360.355 70.4133L360.335 69.9137C361.669 69.8602 363.005 69.8081 364.344 69.7574L364.363 70.257C365.701 70.2063 367.041 70.1569 368.383 70.1088L368.365 69.6092C369.704 69.5612 371.045 69.5147 372.388 69.4695L372.405 69.9692C373.73 69.9246 375.057 69.8813 376.386 69.8393L376.37 69.3396C377.699 69.2976 379.031 69.2569 380.364 69.2176L380.378 69.7174C381.711 69.6781 383.046 69.6401 384.382 69.6035L384.369 69.1037C385.706 69.067 387.044 69.0317 388.385 68.9978L388.398 69.4976C389.738 69.4637 391.08 69.4311 392.424 69.3998L392.412 68.9C393.743 68.869 395.076 68.8394 396.41 68.8111L396.421 69.311C397.749 69.2828 399.079 69.256 400.411 69.2305L400.401 68.7306C401.733 68.705 403.067 68.6808 404.402 68.658L404.41 69.1579C405.745 69.135 407.082 69.1135 408.42 69.0933L408.413 68.5934C409.752 68.5732 411.092 68.5543 412.434 68.5368L412.44 69.0368C413.78 69.0193 415.12 69.0032 416.463 68.9884L416.457 68.4884C417.785 68.4738 419.114 68.4604 420.445 68.4484L420.449 68.9484C421.78 68.9364 423.112 68.9257 424.445 68.9164L424.442 68.4164C425.775 68.4071 427.111 68.399 428.447 68.3923L428.45 68.8923C429.786 68.8856 431.124 68.8803 432.463 68.8763L432.462 68.3763C433.802 68.3722 435.143 68.3695 436.485 68.3682L436.486 68.8682C437.157 68.8675 437.828 68.8672 438.5 68.8672C439.172 68.8672 439.843 68.8675 440.514 68.8682L440.514 68.3682C441.857 68.3695 443.198 68.3722 444.537 68.3763L444.536 68.8762C445.875 68.8803 447.213 68.8856 448.55 68.8923L448.552 68.3923C449.889 68.399 451.224 68.4071 452.558 68.4164L452.554 68.9164C453.888 68.9257 455.22 68.9364 456.55 68.9484L456.554 68.4484C457.885 68.4604 459.214 68.4737 460.542 68.4884L460.537 68.9884C461.879 69.0031 463.22 69.0193 464.559 69.0368L464.566 68.5368C465.908 68.5543 467.248 68.5732 468.587 68.5934L468.579 69.0933C469.917 69.1135 471.254 69.135 472.589 69.1579L472.598 68.658C473.933 68.6808 475.267 68.705 476.598 68.7305L476.589 69.2305C477.92 69.256 479.25 69.2828 480.579 69.311L480.589 68.8111C481.924 68.8394 483.256 68.869 484.587 68.9L484.576 69.3998C485.92 69.4311 487.262 69.4637 488.602 69.4976L488.615 68.9978C489.955 69.0317 491.294 69.067 492.631 69.1037L492.617 69.6035C493.954 69.6401 495.288 69.6781 496.621 69.7174L496.636 69.2176C497.969 69.2569 499.3 69.2976 500.63 69.3396L500.614 69.8393C501.943 69.8813 503.27 69.9246 504.595 69.9692L504.612 69.4695C505.955 69.5147 507.296 69.5612 508.635 69.6092L508.617 70.1088C509.959 70.1569 511.299 70.2063 512.637 70.257L512.656 69.7574C513.994 69.8081 515.331 69.8602 516.665 69.9136L516.645 70.4132C517.978 70.4667 519.31 70.5215 520.64 70.5776L520.661 70.078C521.991 70.1341 523.319 70.1916 524.644 70.2504L524.622 70.7499C525.958 70.8091 527.291 70.8697 528.622 70.9316L528.645 70.4322C529.989 70.4947 531.331 70.5586 532.671 70.6239L532.647 71.1233C533.986 71.1885 535.323 71.2551 536.658 71.3231L536.683 70.8238C538.018 70.8917 539.351 70.9611 540.681 71.0318L540.655 71.5311C541.985 71.6017 543.312 71.6738 544.638 71.7471L544.665 71.2479C545.994 71.3215 547.321 71.3964 548.645 71.4727L548.616 71.9718C549.962 72.0493 551.305 72.1282 552.645 72.2085L552.675 71.7093C554.015 71.7896 555.353 71.8713 556.689 71.9543L556.658 72.4533C557.993 72.5363 559.326 72.6207 560.656 72.7064L560.688 72.2075C562.018 72.2932 563.346 72.3804 564.671 72.4688L564.638 72.9677C565.963 73.0562 567.285 73.146 568.604 73.2372L568.639 72.7384C569.984 72.8313 571.326 72.9256 572.665 73.0214L572.63 73.5201C573.971 73.6159 575.309 73.7132 576.644 73.8118L576.681 73.3131C578.016 73.4118 579.349 73.5118 580.679 73.6133L580.641 74.1118C581.97 74.2132 583.297 74.316 584.62 74.4201L584.66 73.9217C585.984 74.0258 587.305 74.1314 588.623 74.2383L588.582 74.7367C589.925 74.8456 591.264 74.9558 592.6 75.0675L592.641 74.5693C593.982 74.6814 595.32 74.795 596.655 74.9099L596.612 75.4081C597.947 75.523 599.278 75.6394 600.606 75.7571L600.65 75.2591C601.979 75.3768 603.304 75.496 604.626 75.6166L604.581 76.1145C605.903 76.2351 607.221 76.357 608.536 76.4804L608.583 75.9825C609.925 76.1084 611.264 76.2357 612.6 76.3645L612.552 76.8622C613.891 76.9913 615.228 77.122 616.561 77.254L616.61 76.7565C617.943 76.8885 619.273 77.0221 620.599 77.157L620.548 77.6545C621.874 77.7894 623.196 77.9257 624.515 78.0635L624.567 77.5662C625.886 77.704 627.201 77.8433 628.513 77.9839L628.46 78.4811C629.805 78.6252 631.145 78.7708 632.482 78.9179L632.537 78.4209C633.875 78.5682 635.209 78.7169 636.539 78.8671L636.483 79.3639C637.813 79.514 639.139 79.6656 640.461 79.8187L640.519 79.322C641.841 79.4751 643.16 79.6296 644.474 79.7857L644.415 80.2822C645.738 80.4391 647.056 80.5975 648.37 80.7574L648.431 80.261C649.774 80.4244 651.112 80.5892 652.447 80.7556L652.385 81.2517C653.719 81.4181 655.048 81.5859 656.374 81.7552L656.437 81.2592C657.763 81.4286 659.084 81.5995 660.401 81.7718L660.336 82.2676C661.653 82.4399 662.965 82.6137 664.272 82.7889L664.339 82.2934C665.671 82.4719 666.998 82.652 668.321 82.8335L668.253 83.3289C669.591 83.5125 670.924 83.6977 672.252 83.8844L672.321 83.3893C673.65 83.5761 674.974 83.7644 676.292 83.9543L676.221 84.4492C677.539 84.639 678.853 84.8303 680.161 85.0232L680.234 84.5285C681.549 84.7222 682.858 84.9174 684.162 85.1142L684.088 85.6086C685.428 85.8108 686.764 86.0147 688.094 86.2202L688.17 85.726C689.501 85.9316 690.826 86.1387 692.146 86.3475L692.068 86.8413C693.388 87.05 694.702 87.2602 696.01 87.472L696.09 86.9784C697.399 87.1903 698.703 87.4038 700.001 87.6188L699.919 88.1121C701.252 88.3328 702.579 88.5553 703.9 88.7793L703.983 88.2864C705.315 88.5123 706.641 88.7398 707.961 88.9689L707.875 89.4616C709.194 89.6906 710.507 89.9213 711.814 90.1537L711.902 89.6614C713.209 89.8938 714.511 90.1279 715.806 90.3636L715.716 90.8555C717.04 91.0963 718.356 91.3387 719.666 91.5828L719.758 91.0913C721.089 91.3393 722.414 91.589 723.731 91.8405L723.637 92.3316C724.954 92.5829 726.265 92.836 727.568 93.0907L727.664 92.6C728.968 92.8548 730.265 93.1114 731.555 93.3696L731.457 93.8599C732.775 94.1237 734.085 94.3892 735.389 94.6564L735.489 94.1666C736.817 94.439 738.138 94.7131 739.451 94.989L739.348 95.4783C740.66 95.7541 741.965 96.0316 743.261 96.3109L743.367 95.8222C744.664 96.1016 745.954 96.3829 747.236 96.6659L747.128 97.1541C748.446 97.4451 749.756 97.7379 751.058 98.0326L751.168 97.5449C752.49 97.8441 753.803 98.1453 755.107 98.4483L754.994 98.9353C756.298 99.2381 757.593 99.5427 758.879 99.8492L758.995 99.3628C760.282 99.6695 761.56 99.9781 762.829 100.288L762.71 100.774C764.035 101.098 765.35 101.424 766.656 101.752L766.778 101.267C768.088 101.596 769.389 101.927 770.679 102.261L770.554 102.745C771.844 103.078 773.124 103.412 774.393 103.749L774.521 103.266C775.817 103.61 777.103 103.955 778.377 104.303L778.246 104.785C779.56 105.144 780.862 105.504 782.153 105.867L782.288 105.385C783.58 105.748 784.861 106.113 786.131 106.48L785.992 106.96C787.26 107.327 788.517 107.696 789.763 108.067L789.906 107.587C791.222 107.979 792.525 108.374 793.816 108.77L793.669 109.248C794.958 109.644 796.234 110.042 797.496 110.443L797.648 109.966C798.912 110.367 800.163 110.77 801.4 111.175L801.245 111.651C802.542 112.075 803.824 112.503 805.091 112.932L805.252 112.459C806.535 112.893 807.803 113.331 809.056 113.77L808.89 114.242C810.141 114.681 811.377 115.123 812.597 115.566L812.768 115.096C814.054 115.564 815.323 116.035 816.575 116.508L816.398 116.975C817.664 117.454 818.912 117.935 820.142 118.418L820.325 117.953C821.557 118.437 822.771 118.924 823.966 119.414L823.777 119.876C825.054 120.399 826.31 120.925 827.545 121.453L827.742 120.993C828.982 121.524 830.201 122.057 831.398 122.593L831.193 123.05C832.419 123.599 833.623 124.151 834.803 124.706L835.016 124.253C836.26 124.838 837.478 125.426 838.671 126.016L838.449 126.464C839.638 127.054 840.802 127.646 841.94 128.241L842.171 127.798C843.4 128.441 844.598 129.087 845.765 129.737L845.522 130.174C846.696 130.827 847.839 131.483 848.95 132.142L849.205 131.712C850.387 132.414 851.534 133.119 852.644 133.828L852.375 134.25C853.516 134.978 854.619 135.709 855.682 136.445L855.967 136.034C857.098 136.815 858.185 137.601 859.229 138.391L858.928 138.79C860.006 139.606 861.038 140.427 862.021 141.251L862.342 140.868C863.405 141.758 864.412 142.654 865.363 143.555L865.02 143.918C865.991 144.838 866.903 145.761 867.754 146.689L868.122 146.351C869.07 147.384 869.945 148.423 870.745 149.468L870.348 149.772C871.174 150.851 871.919 151.934 872.581 153.022L873.008 152.762C873.715 153.925 874.331 155.095 874.853 156.271L874.396 156.474C874.944 157.707 875.386 158.946 875.721 160.19L876.204 160.06Z" stroke="#CCCCCC" stroke-dasharray="4 4"/>
<path d="M873.458 161.503C874.821 162.365 875.799 163.237 876.378 164.116L875.96 164.391C876.33 164.954 876.5 165.493 876.5 166.015C876.5 166.536 876.33 167.075 875.96 167.638L876.378 167.913C875.8 168.793 874.822 169.664 873.458 170.526L873.191 170.103C872.228 170.712 871.059 171.321 869.686 171.928L869.888 172.386C868.766 172.882 867.515 173.375 866.139 173.864L865.971 173.392C864.782 173.815 863.496 174.235 862.115 174.653L862.26 175.131C861.04 175.5 859.747 175.867 858.384 176.231L858.255 175.748C857.029 176.076 855.745 176.401 854.404 176.725L854.521 177.211C853.229 177.523 851.885 177.832 850.489 178.14L850.381 177.652C849.145 177.924 847.869 178.195 846.552 178.465L846.652 178.954C845.337 179.223 843.982 179.491 842.588 179.757L842.495 179.265C841.242 179.504 839.958 179.742 838.643 179.978L838.731 180.47C837.416 180.706 836.069 180.94 834.692 181.174L834.608 180.681C833.329 180.897 832.022 181.113 830.689 181.327L830.769 181.821C829.464 182.031 828.133 182.239 826.778 182.447L826.702 181.952C825.386 182.154 824.046 182.354 822.682 182.553L822.755 183.048C821.465 183.237 820.154 183.424 818.822 183.611L818.753 183.115C817.422 183.302 816.072 183.487 814.7 183.671L814.767 184.166C813.464 184.341 812.143 184.515 810.804 184.688L810.74 184.192C809.433 184.361 808.108 184.529 806.767 184.696L806.828 185.192C805.486 185.359 804.127 185.525 802.75 185.69L802.691 185.194C801.392 185.349 800.078 185.504 798.749 185.658L798.806 186.155C797.491 186.307 796.161 186.459 794.817 186.61L794.761 186.113C793.418 186.263 792.06 186.413 790.688 186.562L790.742 187.059C789.434 187.201 788.113 187.342 786.78 187.482L786.728 186.985C785.412 187.123 784.084 187.261 782.744 187.397L782.795 187.895C781.454 188.031 780.101 188.167 778.736 188.303L778.687 187.805C777.363 187.936 776.027 188.066 774.681 188.196L774.728 188.693C773.416 188.82 772.092 188.945 770.758 189.07L770.712 188.572C769.378 188.696 768.034 188.82 766.679 188.943L766.724 189.441C765.376 189.564 764.018 189.686 762.65 189.807L762.606 189.308C761.299 189.424 759.983 189.539 758.657 189.653L758.7 190.151C757.374 190.265 756.039 190.379 754.695 190.491L754.653 189.993C753.309 190.106 751.956 190.218 750.594 190.329L750.634 190.827C749.303 190.936 747.962 191.044 746.614 191.151L746.574 190.653C745.257 190.758 743.933 190.862 742.6 190.965L742.639 191.464C741.305 191.567 739.964 191.67 738.615 191.772L738.577 191.273C737.228 191.375 735.871 191.477 734.506 191.577L734.543 192.076C733.219 192.174 731.887 192.271 730.548 192.367L730.512 191.868C729.19 191.964 727.861 192.058 726.525 192.152L726.56 192.651C725.224 192.745 723.88 192.838 722.53 192.93L722.495 192.432C721.145 192.524 719.788 192.616 718.423 192.707L718.457 193.206C717.132 193.295 715.801 193.383 714.463 193.47L714.431 192.971C713.107 193.058 711.776 193.144 710.44 193.229L710.471 193.728C709.135 193.813 707.791 193.898 706.442 193.982L706.411 193.483C705.061 193.567 703.706 193.65 702.344 193.733L702.375 194.232C701.044 194.313 699.707 194.393 698.364 194.473L698.335 193.974C697.01 194.053 695.681 194.131 694.345 194.208L694.374 194.707C693.039 194.785 691.697 194.861 690.351 194.938L690.322 194.438C688.976 194.515 687.623 194.59 686.266 194.665L686.293 195.165C684.952 195.239 683.605 195.312 682.252 195.385L682.225 194.886C680.902 194.958 679.575 195.028 678.242 195.099L678.268 195.598C676.935 195.668 675.597 195.738 674.253 195.807L674.228 195.308C672.885 195.377 671.537 195.445 670.184 195.513L670.209 196.013C668.856 196.081 667.498 196.148 666.135 196.215L666.11 195.716C664.787 195.78 663.459 195.845 662.127 195.909L662.151 196.408C660.821 196.472 659.486 196.535 658.147 196.597L658.124 196.098C656.785 196.16 655.442 196.222 654.094 196.284L654.117 196.783C652.769 196.845 651.416 196.906 650.06 196.966L650.037 196.466C648.695 196.526 647.349 196.585 645.999 196.644L646.02 197.143C644.694 197.201 643.363 197.258 642.029 197.314L642.008 196.815C640.673 196.871 639.335 196.927 637.993 196.982L638.013 197.482C636.671 197.537 635.324 197.592 633.973 197.646L633.953 197.147C633.49 197.165 633.027 197.184 632.563 197.202C631.674 197.238 630.783 197.273 629.89 197.308L629.91 197.808C628.576 197.86 627.238 197.911 625.897 197.963L625.878 197.463C624.548 197.514 623.214 197.564 621.877 197.614L621.896 198.113C620.558 198.163 619.217 198.212 617.873 198.261L617.855 197.761C616.51 197.81 615.162 197.858 613.811 197.905L613.828 198.405C612.477 198.452 611.121 198.5 609.763 198.546L609.745 198.046C608.415 198.092 607.082 198.137 605.745 198.181L605.762 198.681C604.429 198.725 603.094 198.769 601.755 198.812L601.739 198.313C600.4 198.356 599.058 198.399 597.713 198.441L597.729 198.941C596.383 198.983 595.035 199.025 593.683 199.066L593.668 198.566C592.316 198.607 590.961 198.648 589.604 198.688L589.618 199.188C588.288 199.227 586.955 199.266 585.619 199.305L585.605 198.805C584.271 198.843 582.935 198.881 581.596 198.918L581.61 199.418C580.27 199.455 578.928 199.492 577.583 199.528L577.569 199.028C576.224 199.064 574.876 199.1 573.525 199.135L573.538 199.635C572.187 199.67 570.833 199.705 569.477 199.739L569.464 199.239C568.132 199.273 566.796 199.306 565.458 199.338L565.471 199.838C564.137 199.871 562.8 199.903 561.461 199.934L561.449 199.434C560.11 199.466 558.768 199.497 557.424 199.527L557.435 200.027C556.09 200.058 554.743 200.087 553.393 200.117L553.382 199.617C552.033 199.646 550.68 199.675 549.326 199.704L549.336 200.204C547.999 200.232 546.66 200.259 545.318 200.286L545.308 199.786C543.974 199.813 542.638 199.84 541.299 199.866L541.308 200.366C539.97 200.392 538.629 200.417 537.285 200.442L537.276 199.942C535.932 199.967 534.586 199.991 533.238 200.015L533.247 200.515C531.899 200.539 530.548 200.562 529.196 200.585L529.187 200.085C527.845 200.108 526.5 200.13 525.153 200.152L525.161 200.652C523.827 200.674 522.491 200.695 521.153 200.715L521.145 200.215C519.808 200.236 518.468 200.256 517.125 200.276L517.133 200.776C515.79 200.795 514.446 200.814 513.099 200.833L513.093 200.333C511.746 200.351 510.398 200.37 509.047 200.387L509.054 200.887C507.704 200.905 506.353 200.922 505 200.938L504.994 200.438C503.661 200.455 502.326 200.471 500.989 200.486L500.995 200.986C499.658 201.001 498.319 201.016 496.978 201.031L496.972 200.531C495.631 200.545 494.289 200.559 492.944 200.572L492.949 201.072C491.604 201.086 490.258 201.099 488.909 201.111L488.905 200.611C487.556 200.624 486.206 200.635 484.854 200.647L484.858 201.147C483.518 201.158 482.177 201.169 480.833 201.179L480.829 200.679C479.493 200.69 478.156 200.7 476.816 200.709L476.82 201.209C475.48 201.218 474.139 201.227 472.796 201.235L472.793 200.736C471.45 200.744 470.105 200.752 468.759 200.759L468.762 201.259C467.415 201.267 466.067 201.273 464.718 201.28L464.715 200.78C463.367 200.786 462.018 200.792 460.667 200.798L460.669 201.298C459.334 201.303 457.997 201.308 456.659 201.312L456.657 200.812C455.319 200.817 453.979 200.821 452.638 200.824L452.639 201.324C451.298 201.327 449.955 201.33 448.61 201.333L448.61 200.833C447.265 200.835 445.92 200.837 444.572 200.839L444.573 201.339C443.226 201.34 441.877 201.341 440.526 201.342L440.526 200.842C439.851 200.842 439.176 200.842 438.5 200.842C437.824 200.842 437.149 200.842 436.474 200.842L436.474 201.342C435.124 201.341 433.775 201.34 432.427 201.339L432.428 200.839C431.081 200.837 429.735 200.835 428.391 200.833L428.39 201.333C427.045 201.33 425.703 201.327 424.361 201.324L424.362 200.824C423.021 200.821 421.681 200.817 420.343 200.812L420.342 201.312C419.003 201.308 417.667 201.303 416.331 201.298L416.333 200.798C414.982 200.792 413.633 200.786 412.285 200.78L412.283 201.28C410.933 201.273 409.585 201.267 408.239 201.259L408.241 200.759C406.895 200.752 405.551 200.744 404.208 200.736L404.205 201.235C402.862 201.227 401.52 201.218 400.181 201.209L400.184 200.709C398.845 200.7 397.507 200.69 396.171 200.679L396.167 201.179C394.824 201.169 393.482 201.158 392.142 201.147L392.146 200.647C390.794 200.635 389.444 200.624 388.096 200.611L388.091 201.111C386.743 201.099 385.396 201.086 384.051 201.072L384.056 200.572C382.712 200.559 381.369 200.545 380.028 200.531L380.023 201.031C378.682 201.016 377.343 201.001 376.006 200.986L376.011 200.486C374.674 200.471 373.339 200.455 372.006 200.438L372 200.938C370.647 200.922 369.296 200.905 367.947 200.887L367.953 200.387C366.603 200.37 365.254 200.351 363.908 200.333L363.901 200.833C362.554 200.814 361.21 200.795 359.868 200.776L359.875 200.276C358.533 200.256 357.193 200.236 355.855 200.215L355.847 200.715C354.509 200.695 353.173 200.674 351.84 200.652L351.848 200.152C350.501 200.13 349.156 200.108 347.813 200.085L347.805 200.585C346.452 200.562 345.101 200.539 343.753 200.515L343.762 200.015C342.414 199.991 341.068 199.967 339.724 199.942L339.715 200.442C338.372 200.417 337.03 200.392 335.692 200.366L335.701 199.866C334.363 199.84 333.026 199.813 331.693 199.786L331.682 200.286C330.341 200.259 329.001 200.232 327.664 200.204L327.675 199.704C326.32 199.675 324.967 199.646 323.618 199.617L323.607 200.117C322.257 200.087 320.91 200.058 319.565 200.027L319.577 199.527C318.232 199.497 316.89 199.466 315.551 199.434L315.539 199.934C314.2 199.903 312.863 199.871 311.529 199.838L311.542 199.338C310.204 199.306 308.869 199.273 307.536 199.239L307.524 199.739C306.167 199.705 304.813 199.67 303.462 199.635L303.475 199.135C302.124 199.1 300.776 199.064 299.431 199.028L299.417 199.528C298.072 199.492 296.73 199.455 295.39 199.418L295.404 198.918C294.065 198.881 292.729 198.843 291.395 198.805L291.381 199.305C290.045 199.266 288.712 199.227 287.382 199.188L287.397 198.688C286.039 198.648 284.684 198.607 283.332 198.566L283.317 199.066C281.965 199.025 280.617 198.983 279.271 198.941L279.287 198.441C277.942 198.399 276.6 198.356 275.261 198.313L275.245 198.812C273.906 198.769 272.571 198.725 271.238 198.681L271.255 198.181C269.918 198.137 268.585 198.092 267.255 198.046L267.238 198.546C265.879 198.5 264.524 198.452 263.172 198.405L263.189 197.905C261.838 197.858 260.49 197.81 259.145 197.761L259.127 198.261C257.783 198.212 256.442 198.163 255.105 198.113L255.123 197.614C253.786 197.564 252.452 197.514 251.123 197.463L251.104 197.963C249.762 197.911 248.424 197.86 247.09 197.808L247.11 197.308C245.751 197.255 244.397 197.201 243.047 197.147L243.027 197.646C241.676 197.592 240.329 197.537 238.987 197.482L239.007 196.982C237.665 196.927 236.327 196.871 234.992 196.815L234.971 197.314C233.637 197.258 232.306 197.201 230.98 197.143L231.001 196.644C229.651 196.585 228.305 196.526 226.963 196.466L226.94 196.966C225.584 196.906 224.231 196.845 222.883 196.783L222.906 196.284C221.558 196.222 220.215 196.16 218.876 196.098L218.853 196.597C217.514 196.535 216.179 196.472 214.85 196.408L214.873 195.909C213.541 195.845 212.213 195.78 210.89 195.716L210.865 196.215C209.502 196.148 208.144 196.081 206.791 196.013L206.816 195.513C205.463 195.445 204.115 195.377 202.772 195.308L202.747 195.807C201.404 195.738 200.065 195.668 198.732 195.598L198.759 195.099C197.426 195.028 196.098 194.958 194.775 194.886L194.748 195.385C193.396 195.312 192.048 195.239 190.707 195.165L190.734 194.665C189.377 194.59 188.024 194.515 186.678 194.439L186.65 194.938C185.303 194.861 183.962 194.785 182.626 194.707L182.655 194.208C181.319 194.131 179.99 194.053 178.666 193.974L178.636 194.473C177.293 194.393 175.956 194.313 174.625 194.232L174.656 193.733C173.294 193.65 171.939 193.567 170.589 193.483L170.558 193.982C169.209 193.898 167.866 193.813 166.529 193.728L166.561 193.229C165.224 193.144 163.894 193.058 162.57 192.971L162.537 193.47C161.199 193.383 159.868 193.295 158.543 193.206L158.577 192.707C157.212 192.616 155.855 192.524 154.505 192.432L154.471 192.93C153.12 192.838 151.776 192.745 150.44 192.651L150.475 192.152C149.139 192.058 147.81 191.964 146.488 191.868L146.452 192.367C145.113 192.271 143.781 192.174 142.457 192.076L142.494 191.577C141.129 191.477 139.772 191.375 138.423 191.273L138.385 191.772C137.036 191.67 135.695 191.567 134.362 191.464L134.4 190.965C133.067 190.862 131.743 190.758 130.426 190.653L130.387 191.151C129.038 191.044 127.698 190.936 126.366 190.827L126.407 190.329C125.044 190.218 123.691 190.106 122.347 189.993L122.305 190.491C120.961 190.379 119.626 190.265 118.3 190.151L118.343 189.653C117.017 189.539 115.701 189.424 114.394 189.308L114.35 189.807C112.982 189.686 111.624 189.564 110.276 189.441L110.322 188.943C108.967 188.82 107.622 188.697 106.289 188.572L106.242 189.07C104.908 188.945 103.585 188.82 102.272 188.693L102.32 188.196C100.973 188.066 99.6375 187.936 98.3135 187.805L98.2643 188.303C96.8991 188.167 95.5461 188.032 94.2054 187.895L94.2562 187.397C92.916 187.261 91.5881 187.123 90.2726 186.985L90.2203 187.482C88.887 187.342 87.5664 187.201 86.2587 187.059L86.3126 186.562C84.9404 186.413 83.5825 186.263 82.2389 186.113L82.1832 186.61C80.839 186.459 79.5092 186.307 78.1939 186.155L78.2514 185.658C76.9225 185.504 75.6084 185.349 74.3093 185.194L74.2498 185.69C72.8736 185.525 71.5142 185.359 70.1719 185.192L70.2336 184.696C68.8921 184.529 67.5675 184.361 66.2602 184.192L66.1962 184.688C64.8572 184.515 63.5362 184.341 62.2335 184.166L62.3 183.671C60.9287 183.487 59.5778 183.302 58.2473 183.115L58.178 183.611C56.8466 183.424 55.5357 183.237 54.2455 183.048L54.3178 182.553C52.9545 182.354 51.6144 182.154 50.2978 181.952L50.2222 182.447C48.867 182.239 47.5367 182.031 46.2316 181.821L46.3109 181.327C44.9781 181.113 43.6716 180.897 42.3919 180.681L42.3084 181.174C40.931 180.94 39.5843 180.706 38.2689 180.47L38.3573 179.978C37.0418 179.742 35.7578 179.504 34.5056 179.265L34.412 179.757C33.018 179.491 31.6631 179.223 30.348 178.954L30.4483 178.465C29.1316 178.195 27.8551 177.924 26.6194 177.652L26.5117 178.14C25.1156 177.832 23.7711 177.523 22.479 177.211L22.5963 176.725C21.2553 176.401 19.9714 176.076 18.7457 175.748L18.6167 176.231C17.253 175.867 15.9604 175.5 14.7401 175.131L14.8849 174.653C13.5045 174.235 12.2186 173.815 11.0289 173.393L10.8616 173.864C9.48503 173.375 8.2343 172.882 7.11229 172.386L7.31456 171.929C5.94112 171.321 4.77205 170.712 3.80889 170.103L3.54175 170.526C2.1785 169.664 1.20055 168.793 0.622253 167.913L1.04009 167.638C0.669963 167.075 0.5 166.536 0.5 166.015C0.5 165.493 0.66992 164.954 1.03995 164.391L0.622095 164.117C1.20033 163.237 2.17824 162.365 3.54147 161.504L3.80862 161.926C4.77176 161.318 5.94082 160.709 7.31426 160.101L7.11199 159.644C8.234 159.147 9.48473 158.655 10.8613 158.166L11.0286 158.637C12.2183 158.215 13.5042 157.794 14.8846 157.377L14.7398 156.898C15.9601 156.529 17.2527 156.162 18.6164 155.798L18.7454 156.281C19.9711 155.954 21.255 155.628 22.596 155.305L22.4788 154.819C23.7708 154.507 25.1153 154.197 26.5114 153.889L26.6191 154.378C27.8548 154.105 29.1313 153.834 30.448 153.565L30.3478 153.075C31.6628 152.806 33.0177 152.539 34.4117 152.273L34.5053 152.764C35.7575 152.525 37.0415 152.288 38.357 152.052L38.2687 151.56C39.584 151.324 40.9307 151.089 42.3081 150.856L42.3916 151.349C43.6713 151.132 44.9778 150.917 46.3107 150.702L46.2313 150.209C47.5364 149.999 48.8667 149.79 50.2219 149.583L50.2975 150.077C51.6141 149.876 52.9542 149.675 54.3175 149.476L54.2452 148.981C55.5354 148.793 56.8463 148.605 58.1777 148.419L58.247 148.914C59.5775 148.728 60.9284 148.543 62.2997 148.359L62.2332 147.863C63.5359 147.688 64.8569 147.514 66.1959 147.341L66.2599 147.837C67.5672 147.668 68.8918 147.501 70.2334 147.334L70.1717 146.837C71.514 146.67 72.8733 146.504 74.2495 146.339L74.309 146.836C75.6081 146.68 76.9222 146.525 78.2512 146.371L78.1936 145.874C79.5089 145.722 80.8387 145.57 82.1829 145.42L82.2386 145.917C83.5822 145.766 84.9402 145.616 86.3123 145.467L86.2584 144.97C87.5662 144.829 88.8868 144.688 90.2201 144.547L90.2724 145.045C91.5879 144.906 92.9157 144.769 94.2559 144.632L94.2052 144.135C95.5459 143.998 96.8989 143.862 98.264 143.727L98.3132 144.225C99.6372 144.093 100.973 143.963 102.319 143.834L102.272 143.336C103.584 143.21 104.908 143.084 106.242 142.96L106.288 143.458C107.622 143.333 108.966 143.209 110.321 143.086L110.276 142.588C111.624 142.466 112.982 142.344 114.35 142.223L114.394 142.721C115.701 142.605 117.017 142.491 118.343 142.377L118.3 141.878C119.626 141.764 120.961 141.651 122.305 141.538L122.347 142.036C123.691 141.924 125.044 141.812 126.406 141.701L126.366 141.202C127.697 141.094 129.038 140.986 130.386 140.878L130.426 141.377C131.743 141.272 133.067 141.168 134.4 141.064L134.361 140.566C135.695 140.463 137.036 140.36 138.385 140.258L138.423 140.756C139.772 140.654 141.129 140.553 142.494 140.452L142.457 139.953C143.781 139.856 145.113 139.759 146.452 139.662L146.488 140.161C147.81 140.066 149.139 139.971 150.475 139.878L150.44 139.379C151.776 139.285 153.12 139.192 154.47 139.099L154.505 139.598C155.855 139.505 157.212 139.413 158.577 139.322L158.543 138.823C159.868 138.735 161.199 138.647 162.537 138.559L162.569 139.058C163.893 138.972 165.224 138.886 166.56 138.801L166.529 138.302C167.865 138.216 169.209 138.132 170.558 138.048L170.589 138.547C171.939 138.463 173.294 138.379 174.656 138.296L174.625 137.797C175.956 137.716 177.293 137.636 178.636 137.556L178.665 138.056C179.989 137.977 181.319 137.899 182.655 137.821L182.626 137.322C183.961 137.245 185.303 137.168 186.649 137.092L186.678 137.591C188.024 137.515 189.376 137.439 190.734 137.364L190.707 136.865C192.048 136.791 193.395 136.717 194.748 136.644L194.775 137.143C196.098 137.072 197.425 137.001 198.758 136.931L198.732 136.431C200.065 136.361 201.403 136.292 202.747 136.222L202.772 136.722C204.115 136.653 205.463 136.584 206.816 136.516L206.791 136.017C208.144 135.949 209.502 135.881 210.865 135.815L210.89 136.314C212.213 136.249 213.541 136.185 214.873 136.121L214.849 135.622C216.179 135.558 217.514 135.495 218.853 135.432L218.876 135.932C220.215 135.869 221.558 135.807 222.906 135.746L222.883 135.246C224.231 135.185 225.584 135.124 226.94 135.064L226.963 135.563C228.304 135.503 229.651 135.444 231.001 135.386L230.98 134.886C232.306 134.829 233.637 134.772 234.971 134.715L234.992 135.215C236.327 135.158 237.665 135.102 239.007 135.047L238.987 134.548C240.329 134.492 241.676 134.437 243.027 134.383L243.047 134.883C244.397 134.828 245.751 134.775 247.11 134.722L247.09 134.222C248.424 134.17 249.762 134.118 251.103 134.067L251.122 134.566C252.452 134.516 253.786 134.466 255.123 134.416L255.104 133.916C256.442 133.867 257.783 133.817 259.127 133.769L259.145 134.268C260.49 134.22 261.838 134.172 263.189 134.124L263.172 133.625C264.523 133.577 265.879 133.53 267.237 133.483L267.254 133.983C268.585 133.938 269.918 133.893 271.255 133.848L271.238 133.348C272.571 133.304 273.906 133.26 275.245 133.217L275.261 133.717C276.6 133.673 277.942 133.631 279.287 133.588L279.271 133.089C280.617 133.046 281.965 133.005 283.317 132.963L283.332 133.463C284.684 133.422 286.038 133.381 287.396 133.341L287.382 132.841C288.712 132.802 290.045 132.763 291.381 132.725L291.395 133.225C292.729 133.186 294.065 133.149 295.404 133.111L295.39 132.612C296.73 132.574 298.072 132.538 299.417 132.501L299.431 133.001C300.776 132.965 302.124 132.929 303.475 132.894L303.462 132.394C304.813 132.359 306.167 132.324 307.523 132.29L307.536 132.79C308.868 132.757 310.204 132.724 311.541 132.691L311.529 132.191C312.863 132.159 314.2 132.127 315.539 132.095L315.551 132.595C316.89 132.564 318.232 132.533 319.577 132.502L319.565 132.002C320.91 131.972 322.257 131.942 323.607 131.913L323.618 132.412C324.967 132.383 326.32 132.354 327.674 132.326L327.664 131.826C329.001 131.798 330.34 131.77 331.682 131.743L331.692 132.243C333.026 132.216 334.362 132.19 335.701 132.164L335.691 131.664C337.03 131.638 338.371 131.613 339.715 131.588L339.724 132.087C341.068 132.063 342.413 132.038 343.762 132.014L343.753 131.514C345.101 131.49 346.452 131.467 347.804 131.444L347.813 131.944C349.155 131.921 350.5 131.899 351.847 131.877L351.839 131.377C353.173 131.356 354.509 131.335 355.847 131.314L355.855 131.814C357.192 131.794 358.532 131.773 359.875 131.754L359.867 131.254C361.21 131.234 362.554 131.215 363.901 131.197L363.907 131.697C365.254 131.678 366.602 131.66 367.953 131.642L367.946 131.142C369.296 131.125 370.647 131.108 372 131.091L372.006 131.591C373.339 131.575 374.674 131.559 376.011 131.544L376.005 131.044C377.342 131.028 378.681 131.013 380.022 130.999L380.028 131.499C381.369 131.484 382.711 131.471 384.056 131.457L384.051 130.957C385.396 130.944 386.742 130.931 388.091 130.918L388.095 131.418C389.444 131.406 390.794 131.394 392.146 131.383L392.142 130.883C393.482 130.871 394.823 130.86 396.167 130.85L396.171 131.35C397.507 131.34 398.844 131.33 400.184 131.321L400.18 130.821C401.52 130.811 402.861 130.802 404.204 130.794L404.207 131.294C405.55 131.286 406.895 131.278 408.241 131.27L408.238 130.77C409.585 130.763 410.933 130.756 412.282 130.75L412.285 131.25C413.633 131.243 414.982 131.237 416.333 131.232L416.331 130.732C417.666 130.727 419.003 130.722 420.341 130.717L420.343 131.217C421.681 131.213 423.021 131.209 424.362 131.206L424.361 130.706C425.702 130.702 427.045 130.699 428.389 130.697L428.39 131.197C429.735 131.194 431.08 131.192 432.428 131.191L432.427 130.691C433.774 130.689 435.123 130.688 436.474 130.688L436.474 131.188C437.149 131.188 437.824 131.188 438.5 131.188C439.176 131.188 439.851 131.188 440.526 131.188L440.526 130.688C441.876 130.688 443.225 130.689 444.573 130.691L444.572 131.191C445.919 131.192 447.265 131.194 448.609 131.197L448.61 130.697C449.955 130.699 451.297 130.702 452.639 130.706L452.638 131.206C453.979 131.209 455.319 131.213 456.657 131.217L456.658 130.717C457.997 130.722 459.333 130.727 460.669 130.732L460.667 131.232C462.018 131.237 463.367 131.243 464.715 131.25L464.717 130.75C466.067 130.756 467.415 130.763 468.761 130.77L468.759 131.27C470.105 131.278 471.449 131.286 472.792 131.294L472.795 130.794C474.138 130.802 475.48 130.811 476.819 130.821L476.816 131.321C478.155 131.33 479.493 131.34 480.829 131.35L480.833 130.85C482.176 130.86 483.518 130.871 484.858 130.883L484.854 131.383C486.206 131.394 487.556 131.406 488.904 131.418L488.909 130.918C490.258 130.931 491.604 130.944 492.949 130.957L492.944 131.457C494.288 131.471 495.631 131.484 496.972 131.499L496.977 130.999C498.318 131.013 499.657 131.028 500.994 131.044L500.989 131.544C502.326 131.559 503.661 131.575 504.994 131.591L505 131.091C506.353 131.108 507.704 131.125 509.053 131.142L509.047 131.642C510.397 131.66 511.746 131.678 513.092 131.697L513.099 131.197C514.446 131.215 515.79 131.234 517.133 131.254L517.125 131.754C518.467 131.773 519.807 131.794 521.145 131.814L521.153 131.314C522.491 131.335 523.827 131.356 525.16 131.377L525.152 131.877C526.5 131.899 527.844 131.921 529.187 131.944L529.195 131.444C530.548 131.467 531.899 131.49 533.247 131.514L533.238 132.014C534.586 132.038 535.932 132.063 537.276 132.087L537.285 131.588C538.628 131.612 539.97 131.638 541.308 131.664L541.299 132.164C542.637 132.19 543.974 132.216 545.307 132.243L545.318 131.743C546.659 131.77 547.999 131.798 549.336 131.826L549.326 132.326C550.68 132.354 552.033 132.383 553.382 132.412L553.393 131.913C554.743 131.942 556.09 131.972 557.435 132.002L557.423 132.502C558.768 132.533 560.11 132.564 561.449 132.595L561.461 132.095C562.8 132.127 564.137 132.159 565.471 132.191L565.458 132.691C566.796 132.724 568.131 132.757 569.464 132.79L569.476 132.29C570.833 132.324 572.187 132.359 573.538 132.394L573.525 132.894C574.876 132.929 576.224 132.965 577.569 133.001L577.583 132.501C578.928 132.538 580.27 132.574 581.61 132.612L581.596 133.111C582.935 133.149 584.271 133.186 585.605 133.225L585.619 132.725C586.955 132.763 588.288 132.802 589.618 132.841L589.603 133.341C590.961 133.381 592.316 133.422 593.668 133.463L593.683 132.963C595.035 133.005 596.383 133.046 597.729 133.089L597.713 133.588C599.058 133.631 600.4 133.673 601.739 133.717L601.755 133.217C603.094 133.26 604.429 133.304 605.762 133.348L605.745 133.848C607.082 133.893 608.415 133.938 609.745 133.983L609.762 133.483C611.121 133.53 612.477 133.577 613.828 133.625L613.811 134.124C615.162 134.172 616.51 134.22 617.855 134.268L617.873 133.769C619.217 133.817 620.558 133.867 621.895 133.916L621.877 134.416C623.214 134.466 624.548 134.516 625.877 134.566L625.896 134.067C627.238 134.118 628.576 134.17 629.91 134.222L629.89 134.722C631.249 134.775 632.603 134.828 633.953 134.883L633.973 134.383C635.324 134.437 636.671 134.492 638.013 134.548L637.993 135.047C639.335 135.102 640.673 135.158 642.008 135.215L642.029 134.715C643.363 134.772 644.694 134.829 646.02 134.886L645.999 135.386C647.349 135.444 648.695 135.503 650.037 135.563L650.06 135.064C651.416 135.124 652.769 135.185 654.117 135.246L654.094 135.746C655.442 135.807 656.785 135.869 658.124 135.932L658.147 135.432C659.486 135.495 660.82 135.558 662.15 135.621L662.127 136.121C663.459 136.185 664.787 136.249 666.11 136.314L666.135 135.815C667.498 135.881 668.856 135.949 670.209 136.017L670.184 136.516C671.537 136.584 672.885 136.653 674.228 136.722L674.253 136.222C675.596 136.292 676.935 136.361 678.268 136.431L678.241 136.931C679.574 137.001 680.902 137.072 682.225 137.143L682.252 136.644C683.605 136.717 684.952 136.791 686.293 136.865L686.266 137.364C687.623 137.439 688.976 137.515 690.322 137.591L690.35 137.092C691.697 137.168 693.039 137.245 694.374 137.322L694.345 137.821C695.681 137.899 697.01 137.977 698.334 138.056L698.364 137.556C699.707 137.636 701.044 137.716 702.375 137.797L702.344 138.296C703.706 138.379 705.061 138.463 706.411 138.547L706.442 138.048C707.791 138.132 709.134 138.216 710.471 138.302L710.439 138.801C711.776 138.886 713.106 138.972 714.43 139.058L714.463 138.559C715.801 138.647 717.132 138.735 718.457 138.823L718.423 139.322C719.788 139.413 721.145 139.505 722.495 139.598L722.529 139.099C723.88 139.192 725.224 139.285 726.56 139.379L726.525 139.878C727.861 139.971 729.19 140.066 730.512 140.161L730.548 139.662C731.887 139.759 733.219 139.856 734.543 139.953L734.506 140.452C735.871 140.553 737.228 140.654 738.577 140.756L738.615 140.258C739.964 140.36 741.305 140.463 742.638 140.566L742.6 141.064C743.933 141.168 745.257 141.272 746.574 141.377L746.613 140.878C747.962 140.986 749.302 141.094 750.634 141.202L750.593 141.701C751.956 141.812 753.309 141.924 754.653 142.036L754.695 141.538C756.039 141.651 757.374 141.764 758.7 141.878L758.657 142.377C759.983 142.491 761.299 142.605 762.606 142.721L762.65 142.223C764.018 142.344 765.376 142.466 766.724 142.588L766.679 143.086C768.033 143.209 769.378 143.333 770.711 143.458L770.758 142.96C772.092 143.084 773.416 143.21 774.728 143.336L774.68 143.834C776.027 143.963 777.363 144.093 778.687 144.224L778.736 143.727C780.101 143.862 781.454 143.998 782.795 144.135L782.744 144.632C784.084 144.769 785.412 144.906 786.727 145.045L786.78 144.547C788.113 144.688 789.434 144.829 790.741 144.97L790.687 145.467C792.06 145.616 793.418 145.766 794.761 145.917L794.817 145.42C796.161 145.57 797.491 145.722 798.806 145.874L798.749 146.371C800.078 146.525 801.392 146.68 802.691 146.836L802.75 146.339C804.126 146.504 805.486 146.67 806.828 146.837L806.766 147.334C808.108 147.5 809.432 147.668 810.74 147.837L810.804 147.341C812.143 147.514 813.464 147.688 814.767 147.863L814.7 148.359C816.071 148.543 817.422 148.728 818.753 148.914L818.822 148.419C820.153 148.605 821.464 148.793 822.755 148.981L822.682 149.476C824.046 149.675 825.386 149.876 826.702 150.077L826.778 149.583C828.133 149.79 829.463 149.999 830.768 150.209L830.689 150.702C832.022 150.917 833.328 151.132 834.608 151.349L834.692 150.856C836.069 151.089 837.416 151.324 838.731 151.56L838.643 152.052C839.958 152.288 841.242 152.525 842.494 152.764L842.588 152.273C843.982 152.539 845.337 152.806 846.652 153.075L846.552 153.565C847.868 153.834 849.145 154.105 850.381 154.378L850.488 153.889C851.884 154.197 853.229 154.507 854.521 154.819L854.404 155.305C855.745 155.628 857.029 155.954 858.254 156.281L858.383 155.798C859.747 156.162 861.04 156.529 862.26 156.898L862.115 157.377C863.496 157.794 864.781 158.214 865.971 158.637L866.138 158.166C867.515 158.655 868.766 159.147 869.888 159.644L869.685 160.101C871.059 160.708 872.228 161.317 873.191 161.926L873.458 161.503Z" stroke="#CCCCCC" stroke-dasharray="4 4"/>
</g>
</svg>
