<svg width="12" height="13" viewBox="0 0 12 13" fill="none" xmlns="http://www.w3.org/2000/svg">
<g id="u:external-link-alt">
<path id="Vector" d="M9 5.91C8.86739 5.91 8.74021 5.96268 8.64645 6.05645C8.55268 6.15021 8.5 6.27739 8.5 6.41V10C8.5 10.1326 8.44732 10.2598 8.35355 10.3536C8.25979 10.4473 8.13261 10.5 8 10.5H2.5C2.36739 10.5 2.24021 10.4473 2.14645 10.3536C2.05268 10.2598 2 10.1326 2 10V4.5C2 4.36739 2.05268 4.24021 2.14645 4.14645C2.24021 4.05268 2.36739 4 2.5 4H6.09C6.22261 4 6.34979 3.94732 6.44355 3.85355C6.53732 3.75979 6.59 3.63261 6.59 3.5C6.59 3.36739 6.53732 3.24021 6.44355 3.14645C6.34979 3.05268 6.22261 3 6.09 3H2.5C2.10218 3 1.72064 3.15804 1.43934 3.43934C1.15804 3.72064 1 4.10218 1 4.5V10C1 10.3978 1.15804 10.7794 1.43934 11.0607C1.72064 11.342 2.10218 11.5 2.5 11.5H8C8.39782 11.5 8.77936 11.342 9.06066 11.0607C9.34196 10.7794 9.5 10.3978 9.5 10V6.41C9.5 6.27739 9.44732 6.15021 9.35355 6.05645C9.25979 5.96268 9.13261 5.91 9 5.91ZM10.96 1.81C10.9093 1.68783 10.8122 1.59074 10.69 1.54C10.6299 1.51438 10.5653 1.50079 10.5 1.5H7.5C7.36739 1.5 7.24021 1.55268 7.14645 1.64645C7.05268 1.74021 7 1.86739 7 2C7 2.13261 7.05268 2.25979 7.14645 2.35355C7.24021 2.44732 7.36739 2.5 7.5 2.5H9.295L4.145 7.645C4.09814 7.69148 4.06094 7.74678 4.03555 7.80771C4.01017 7.86864 3.9971 7.93399 3.9971 8C3.9971 8.06601 4.01017 8.13136 4.03555 8.19229C4.06094 8.25322 4.09814 8.30852 4.145 8.355C4.19148 8.40186 4.24678 8.43906 4.30771 8.46445C4.36864 8.48983 4.43399 8.5029 4.5 8.5029C4.56601 8.5029 4.63136 8.48983 4.69229 8.46445C4.75322 8.43906 4.80852 8.40186 4.855 8.355L10 3.205V5C10 5.13261 10.0527 5.25979 10.1464 5.35355C10.2402 5.44732 10.3674 5.5 10.5 5.5C10.6326 5.5 10.7598 5.44732 10.8536 5.35355C10.9473 5.25979 11 5.13261 11 5V2C10.9992 1.93466 10.9856 1.87011 10.96 1.81Z" fill="#F1F1F1"/>
</g>
</svg>
