<svg width="64" height="64" viewBox="0 0 64 64" fill="none" xmlns="http://www.w3.org/2000/svg">
<g id="container" clip-path="url(#clip0_527_2119)">
<path id="Subtract" fill-rule="evenodd" clip-rule="evenodd" d="M0 31.8413C0 49.6013 14.4 64.0013 32 64.0013C49.6 64.0013 63.84 49.7613 64 32.3213C64 14.4013 49.76 0.161321 32.16 0.00132057C14.4 -0.158679 0.16 14.2413 0 31.8413ZM34.08 33.2813L35.04 28.1613L43.52 29.4413L44.16 27.0413L35.36 25.7613C35.8839 24.1148 36.3378 22.4682 36.7872 20.8381C37.2985 18.9832 37.8039 17.1496 38.4 15.3613C38.88 14.2413 39.68 13.1213 40.48 12.3213C41.6 11.2013 43.04 11.3613 44 12.6413C44.24 12.8813 44.44 13.1213 44.64 13.3613C44.84 13.6013 45.04 13.8413 45.28 14.0813C45.92 14.7213 46.72 14.8813 47.36 14.4013C47.84 13.9213 47.84 13.1213 47.84 12.4813C47.84 12.1613 47.52 11.8413 47.36 11.6813C46.4 10.5613 44.96 10.0813 43.52 10.0813C40.16 9.9213 37.92 11.5213 36 14.0813C34.08 16.6413 33.28 19.5213 32.48 22.4013C32.2936 22.8674 32.1615 23.3334 32.0204 23.8311C31.9193 24.1877 31.8136 24.5606 31.68 24.9613L22.24 23.6813L21.92 26.2413L31.04 27.6813L29.92 32.6413L21.12 31.3613L20.8 33.7613L29.28 35.0413V35.6813C28.614 38.8783 27.837 41.9645 27.0415 45.1244C26.8815 45.7599 26.7208 46.3983 26.56 47.0413C26.08 48.8013 25.28 50.5613 23.84 51.8413C22.56 52.8013 21.28 52.6413 20.32 51.3613C20 50.7213 19.52 50.0813 19.04 49.6013C18.56 49.4413 17.76 49.2813 17.44 49.4413C16.96 49.7613 16.64 50.5613 16.64 51.2013C16.64 51.6813 17.12 52.3213 17.6 52.6413C19.04 53.7613 20.96 53.9213 22.72 53.6013C25.76 53.1213 28 51.2013 29.28 48.4813C30.24 46.4013 31.04 44.1613 31.84 41.9213C32.3267 40.7532 32.6358 39.4666 32.9473 38.1697C33.1478 37.3349 33.3494 36.4958 33.6 35.6813L42.56 36.9613L43.2 34.5613L34.08 33.2813Z" fill="white"/>
</g>
<defs>
<clipPath id="clip0_527_2119">
<rect width="64" height="64" fill="white"/>
</clipPath>
</defs>
</svg>
