<svg width="83" height="32" viewBox="0 0 83 32" fill="none" xmlns="http://www.w3.org/2000/svg">
<path d="M13.1862 10.2417L8.32167 17.6472L12.0255 16.8583C12.0986 16.9791 12.1717 17.0998 12.2448 17.2206L0.682827 31.338H0.263346L5.01826 22.1687L1.52417 22.9124C1.41215 22.7479 1.40262 22.736 1.2906 22.5715L6.00499 15.2971L2.46324 16.0503C2.35122 15.8715 2.3536 15.8715 2.24158 15.6904L13.7964 1.58008H14.2206L9.53006 10.6302L12.9526 9.90087C13.067 10.0653 13.0742 10.0772 13.1862 10.2417Z" fill="white"/>
<path d="M28.5941 26.0654L32.5632 7.35742H35.9762L32.007 26.0654H28.5941Z" fill="white"/>
<path d="M36.0309 20.6806C36.0309 16.4081 39.6714 12.7676 44.0956 12.7676C48.3428 12.7676 50.8709 16.3575 49.5057 20.7564H39.3933C39.5197 22.425 40.6826 23.3856 42.3006 23.3856C43.8175 23.3856 45.1068 22.7031 45.9916 21.5654L48.6967 22.8295C47.3821 24.7761 44.9046 26.3183 42.1236 26.3183C38.559 26.3183 36.0309 24.1188 36.0309 20.6806ZM39.9242 18.1525H46.4973C46.3961 16.8378 45.3343 15.7002 43.7669 15.7002C42.2248 15.7002 40.7079 16.6356 39.9242 18.1525Z" fill="white"/>
<path d="M51.7693 20.6806C51.7693 16.4081 55.4098 12.7676 59.834 12.7676C64.0812 12.7676 66.6094 16.3575 65.2442 20.7564H55.1317C55.2581 22.425 56.4211 23.3856 58.0391 23.3856C59.5559 23.3856 60.8453 22.7031 61.7301 21.5654L64.4352 22.8295C63.1206 24.7761 60.643 26.3183 57.8621 26.3183C54.2975 26.3183 51.7693 24.1188 51.7693 20.6806ZM55.6626 18.1525H62.2357C62.1346 16.8378 61.0728 15.7002 59.5054 15.7002C57.9632 15.7002 56.4463 16.6356 55.6626 18.1525Z" fill="white"/>
<path d="M71.0172 22.88L70.3346 26.0654H66.9216L70.8908 7.35742H74.3037L72.0537 17.8491L77.3627 13.0204H82.065L75.7447 18.6581L80.1437 26.0654H76.1998L73.1661 20.9587L71.0172 22.88Z" fill="white"/>
<path d="M19.3125 26.0654L21.4361 16.0288H18.8069L19.4642 13.0204H22.0935L22.2199 12.4136C22.953 8.77316 24.6974 7.35742 28.5401 7.35742H30.0823L29.425 10.3659H27.9081C26.4924 10.3659 25.9615 10.8209 25.6581 12.2114L25.5064 13.0204H28.8688L28.2368 16.0288H24.8491L22.7255 26.0654H19.3125Z" fill="white"/>
</svg>
