<svg width="26" height="26" viewBox="0 0 26 26" fill="none" xmlns="http://www.w3.org/2000/svg">
<path d="M0 13C0 5.8203 5.8203 0 13 0C20.1797 0 26 5.8203 26 13C26 20.1797 20.1797 26 13 26C5.8203 26 0 20.1797 0 13Z" fill="#313131"/>
<path d="M15.5108 15.6216C15.6859 15.0084 15.8017 14.296 15.8458 13.612C15.8468 13.5942 15.8441 13.5763 15.8379 13.5595C15.8317 13.5427 15.8221 13.5274 15.8097 13.5145C15.7973 13.5016 15.7824 13.4913 15.7659 13.4844C15.7494 13.4775 15.7316 13.474 15.7137 13.4743H13.6088C13.5915 13.4741 13.5744 13.4774 13.5585 13.4838C13.5425 13.4903 13.5279 13.4998 13.5156 13.5119C13.5033 13.524 13.4935 13.5383 13.4868 13.5542C13.4801 13.5701 13.4765 13.5871 13.4764 13.6043V15.2424C13.4767 15.2755 13.4896 15.3073 13.5123 15.3313C13.535 15.3554 13.566 15.37 13.599 15.3722C14.1922 15.4201 14.7783 15.5333 15.3467 15.7096C15.3801 15.7196 15.4162 15.716 15.447 15.6995C15.4777 15.683 15.5007 15.655 15.5108 15.6216Z" fill="#B4B4B4"/>
<path d="M15.0022 16.5942C14.5512 16.4625 14.0892 16.3724 13.6218 16.3249C13.6037 16.3229 13.5855 16.3247 13.5681 16.3301C13.5508 16.3355 13.5348 16.3445 13.5211 16.3564C13.5074 16.3684 13.4964 16.3831 13.4887 16.3995C13.481 16.416 13.4768 16.4338 13.4764 16.452V18.3846C13.4771 18.4076 13.4838 18.4301 13.4958 18.4497C13.5079 18.4694 13.5249 18.4856 13.5451 18.4966C13.5654 18.5077 13.5881 18.5133 13.6112 18.5129C13.6343 18.5124 13.6568 18.506 13.6766 18.4942C14.1476 18.2196 14.5357 17.7583 14.8864 17.1484C14.9439 17.0489 15.0312 16.8774 15.084 16.7725C15.0922 16.7556 15.0965 16.7372 15.0967 16.7184C15.0969 16.6997 15.093 16.6811 15.0852 16.6641C15.0773 16.647 15.0659 16.6319 15.0515 16.6198C15.0372 16.6077 15.0203 16.599 15.0022 16.5942Z" fill="#B4B4B4"/>
<path d="M12.3868 16.3301C11.92 16.3745 11.4583 16.462 11.0076 16.5914C10.9294 16.6139 10.8965 16.7217 10.9321 16.7925C10.9851 16.898 11.0506 17.0327 11.1066 17.1335C11.4916 17.8148 11.9016 18.2443 12.3282 18.494C12.348 18.5058 12.3705 18.5123 12.3936 18.5127C12.4167 18.5132 12.4394 18.5076 12.4597 18.4965C12.4799 18.4854 12.4969 18.4692 12.5089 18.4496C12.521 18.4299 12.5277 18.4075 12.5284 18.3844V16.451C12.5283 16.4333 12.5244 16.4159 12.5169 16.3999C12.5094 16.3839 12.4986 16.3697 12.4852 16.3582C12.4718 16.3468 12.4561 16.3383 12.4391 16.3335C12.4221 16.3286 12.4043 16.3275 12.3868 16.3301Z" fill="#B4B4B4"/>
<path d="M12.396 13.4743H10.2911C10.2732 13.4741 10.2555 13.4775 10.239 13.4844C10.2225 13.4913 10.2076 13.5015 10.1952 13.5144C10.1828 13.5273 10.1732 13.5425 10.167 13.5593C10.1607 13.576 10.158 13.5939 10.1589 13.6117C10.2028 14.2948 10.318 15.0087 10.4925 15.6213C10.4974 15.6381 10.5057 15.6537 10.5167 15.6673C10.5277 15.6808 10.5413 15.6921 10.5567 15.7003C10.5721 15.7086 10.589 15.7137 10.6064 15.7154C10.6238 15.7171 10.6414 15.7153 10.6581 15.7102C11.2265 15.5339 11.8126 15.421 12.4058 15.3737C12.4389 15.3715 12.4699 15.3569 12.4927 15.3329C12.5155 15.3088 12.5284 15.2771 12.5287 15.2439V13.6046C12.5286 13.5873 12.5251 13.5702 12.5184 13.5543C12.5116 13.5384 12.5018 13.524 12.4895 13.5119C12.4771 13.4998 12.4625 13.4902 12.4465 13.4838C12.4305 13.4773 12.4133 13.4741 12.396 13.4743Z" fill="#B4B4B4"/>
<path d="M13.6224 9.67633C14.0895 9.63257 14.5509 9.54186 14.9998 9.40559C15.0179 9.40071 15.0346 9.39194 15.0488 9.37989C15.0631 9.36785 15.0745 9.35281 15.0823 9.33585C15.0901 9.3189 15.0941 9.30044 15.094 9.28177C15.0938 9.26311 15.0896 9.2447 15.0816 9.22785C15.0286 9.1221 14.9551 8.97073 14.8988 8.86972C14.5348 8.21803 14.1245 7.76332 13.6772 7.50709C13.6574 7.49536 13.6348 7.48898 13.6118 7.48859C13.5888 7.4882 13.5661 7.49381 13.5459 7.50487C13.5257 7.51593 13.5087 7.53205 13.4966 7.55166C13.4845 7.57126 13.4777 7.59368 13.4769 7.61669V9.54896C13.4774 9.56713 13.4816 9.58501 13.4893 9.60148C13.497 9.61794 13.508 9.63263 13.5217 9.6446C13.5354 9.65658 13.5514 9.66558 13.5687 9.67105C13.586 9.67651 13.6043 9.67831 13.6224 9.67633Z" fill="#B4B4B4"/>
<path d="M13.6088 12.5268H15.7137C15.7315 12.5271 15.7491 12.5238 15.7655 12.517C15.7819 12.5103 15.7967 12.5002 15.8091 12.4875C15.8215 12.4748 15.8311 12.4597 15.8374 12.4431C15.8438 12.4266 15.8466 12.4089 15.8458 12.3912C15.802 11.7167 15.6897 10.9752 15.5153 10.3703C15.5102 10.3537 15.5018 10.3382 15.4907 10.3248C15.4796 10.3114 15.466 10.3003 15.4506 10.2922C15.4352 10.2841 15.4184 10.2791 15.4011 10.2775C15.3837 10.2759 15.3663 10.2778 15.3497 10.2829C14.7868 10.453 14.2006 10.5919 13.5993 10.6384C13.5664 10.6403 13.5355 10.6545 13.5127 10.6782C13.4899 10.702 13.4769 10.7335 13.4764 10.7664V12.3989C13.477 12.4334 13.4913 12.4662 13.5161 12.4902C13.5409 12.5142 13.5742 12.5274 13.6088 12.5268Z" fill="#B4B4B4"/>
<path d="M12.3282 7.50752C11.8714 7.76139 11.4641 8.2312 11.0997 8.88111C11.0432 8.98213 10.9756 9.12135 10.922 9.22681C10.914 9.24367 10.9099 9.26206 10.9098 9.28071C10.9097 9.29936 10.9136 9.3178 10.9214 9.33474C10.9292 9.35168 10.9406 9.36671 10.9549 9.37877C10.9691 9.39083 10.9858 9.39963 11.0038 9.40454C11.4525 9.54332 11.9146 9.63437 12.3824 9.67618C12.4004 9.67815 12.4187 9.67636 12.436 9.67092C12.4533 9.66547 12.4693 9.65649 12.483 9.64455C12.4967 9.63261 12.5077 9.61796 12.5154 9.60153C12.5231 9.5851 12.5274 9.56725 12.5278 9.5491V7.61713C12.5269 7.59423 12.5201 7.57197 12.508 7.5525C12.4959 7.53302 12.479 7.51699 12.4589 7.50597C12.4389 7.49494 12.4163 7.48929 12.3934 7.48956C12.3704 7.48984 12.348 7.49602 12.3282 7.50752Z" fill="#B4B4B4"/>
<path d="M12.4055 10.6382C11.8042 10.5923 11.2174 10.4534 10.6551 10.2828C10.6385 10.2776 10.621 10.2758 10.6037 10.2774C10.5864 10.279 10.5696 10.284 10.5542 10.2921C10.5388 10.3002 10.5252 10.3113 10.5141 10.3247C10.503 10.3381 10.4946 10.3535 10.4895 10.3702C10.3151 10.9751 10.2028 11.7165 10.1589 12.391C10.1582 12.4087 10.161 12.4264 10.1674 12.443C10.1737 12.4596 10.1833 12.4747 10.1957 12.4874C10.2081 12.5001 10.2229 12.5101 10.2393 12.5169C10.2557 12.5236 10.2733 12.527 10.2911 12.5267H12.396C12.4132 12.5269 12.4302 12.5238 12.4461 12.5175C12.4621 12.5112 12.4766 12.5018 12.4889 12.4899C12.5012 12.4779 12.511 12.4637 12.5178 12.4479C12.5246 12.4322 12.5282 12.4153 12.5284 12.3981V10.7662C12.5279 10.7333 12.5149 10.7018 12.4921 10.6781C12.4693 10.6543 12.4384 10.6401 12.4055 10.6382Z" fill="#B4B4B4"/>
<path d="M17.6922 8.30842C17.0772 7.68728 16.3454 7.1938 15.5391 6.8563C14.7327 6.51881 13.8677 6.34397 12.9935 6.34182C12.1194 6.33967 11.2535 6.51025 10.4455 6.84377C9.6375 7.17729 8.90336 7.66717 8.28527 8.28527C7.66717 8.90336 7.17729 9.6375 6.84377 10.4455C6.51025 11.2535 6.33967 12.1194 6.34182 12.9935C6.34397 13.8677 6.51881 14.7327 6.8563 15.5391C7.1938 16.3454 7.68728 17.0772 8.30842 17.6922C8.92347 18.3133 9.65518 18.8068 10.4615 19.1443C11.2679 19.4818 12.133 19.6567 13.0071 19.6588C13.8812 19.661 14.7471 19.4904 15.5551 19.1569C16.3631 18.8233 17.0973 18.3335 17.7154 17.7154C18.3335 17.0973 18.8233 16.3631 19.1569 15.5551C19.4904 14.7471 19.661 13.8812 19.6588 13.0071C19.6567 12.133 19.4818 11.2679 19.1443 10.4615C18.8068 9.65518 18.3133 8.92347 17.6922 8.30842ZM10.6483 18.1798C10.5148 17.9924 10.3914 17.798 10.2786 17.5974C10.2194 17.4881 10.1352 17.3231 10.0792 17.2085C10.0664 17.1813 10.048 17.1571 10.0253 17.1374C10.0026 17.1177 9.97598 17.103 9.94723 17.0942C9.91848 17.0853 9.88821 17.0826 9.85835 17.0862C9.82849 17.0898 9.79971 17.0995 9.77384 17.1149C9.64646 17.1863 9.47761 17.2843 9.35527 17.3646C9.09872 17.1696 8.86456 16.9467 8.65707 16.7001C8.94401 16.4976 9.24505 16.3159 9.55789 16.1563C9.61299 16.1267 9.63995 16.0929 9.62247 16.0325C9.39326 15.2391 9.25326 14.4227 9.20509 13.5984C9.20365 13.5654 9.18966 13.5343 9.16597 13.5113C9.14228 13.4883 9.1107 13.4753 9.07771 13.4749H7.39694C7.38265 13.475 7.36878 13.47 7.3579 13.4608C7.34701 13.4515 7.33983 13.4386 7.33769 13.4245C7.31908 13.2839 7.31076 13.1421 7.31281 13.0003C7.31078 12.8588 7.3193 12.7173 7.33828 12.577C7.34043 12.5629 7.3476 12.55 7.35849 12.5407C7.36938 12.5315 7.38324 12.5265 7.39753 12.5266H9.0783C9.14614 12.5266 9.20183 12.4875 9.20538 12.4191C9.25292 11.5982 9.39202 10.7852 9.6201 9.99512C9.62859 9.96628 9.62676 9.93538 9.61492 9.90775C9.60308 9.88012 9.58197 9.85748 9.55523 9.84375C9.2491 9.68689 8.9538 9.50975 8.67129 9.31351C8.87767 9.06699 9.10721 8.84082 9.35676 8.63812C9.47761 8.7175 9.63521 8.80726 9.7614 8.87835C9.78921 8.89416 9.81996 8.90409 9.85177 8.90753C9.88357 8.91097 9.91574 8.90784 9.94629 8.89835C9.97683 8.88885 10.0051 8.87318 10.0293 8.85232C10.0536 8.83145 10.0733 8.80583 10.0872 8.77704C10.1429 8.66241 10.2057 8.53473 10.2668 8.42513C10.3801 8.22211 10.5041 8.02524 10.6382 7.83535C11.3768 7.48738 12.1839 7.30885 13.0003 7.31281C13.8576 7.31281 14.6562 7.52017 15.3858 7.85964C15.5146 8.04051 15.6333 8.22841 15.7413 8.42246C15.818 8.5605 15.8995 8.72965 15.9682 8.87628C15.9756 8.89189 15.986 8.90584 15.999 8.91727C16.0119 8.92869 16.0271 8.93736 16.0435 8.94274C16.0599 8.94812 16.0772 8.95009 16.0944 8.94855C16.1116 8.947 16.1284 8.94197 16.1435 8.93375C16.3029 8.84755 16.4756 8.74831 16.6276 8.64848C16.8778 8.85318 17.108 9.08133 17.3148 9.3298C17.04 9.52036 16.7524 9.69169 16.454 9.84256C16.4272 9.85631 16.4061 9.87901 16.3943 9.90672C16.3825 9.93442 16.3808 9.96539 16.3894 9.99423C16.6212 10.7789 16.7589 11.5883 16.7997 12.4055C16.8013 12.4383 16.8154 12.4692 16.8391 12.4919C16.8628 12.5146 16.8942 12.5273 16.9271 12.5275L18.6043 12.5255C18.6186 12.5253 18.6324 12.5303 18.6433 12.5396C18.6542 12.5488 18.6614 12.5617 18.6635 12.5758C18.6981 12.8574 18.6981 13.1421 18.6635 13.4236C18.6615 13.4378 18.6544 13.4509 18.6435 13.4602C18.6326 13.4696 18.6187 13.4747 18.6043 13.4746H16.9256C16.8926 13.4749 16.8609 13.4879 16.8372 13.5109C16.8135 13.5339 16.7996 13.5651 16.7982 13.5981C16.7521 14.4137 16.6142 15.2216 16.3873 16.0064C16.3788 16.0356 16.3805 16.0668 16.3923 16.0948C16.4042 16.1229 16.4253 16.1459 16.4522 16.1601C16.6003 16.2369 16.7653 16.3225 16.9075 16.4096C17.0497 16.4966 17.1904 16.5897 17.3261 16.6862C17.1208 16.9335 16.8927 17.161 16.6448 17.3655C16.5725 17.3178 16.4866 17.2636 16.4125 17.2191C16.3616 17.1895 16.2677 17.1371 16.2155 17.1078C16.1024 17.0444 15.9821 17.0918 15.9255 17.2085C15.8689 17.3252 15.7824 17.4925 15.722 17.601C15.6107 17.8003 15.4885 17.9934 15.3562 18.1795C14.6269 18.521 13.8576 18.6878 13.0003 18.6878C12.143 18.6878 11.3779 18.521 10.6483 18.1798Z" fill="#B4B4B4"/>
</svg>
