<svg width="113" height="112" viewBox="0 0 113 112" fill="none" xmlns="http://www.w3.org/2000/svg">
<path d="M100.518 55.7529H72.5795V63.7719H91.7376C88.9438 75.8004 80.163 85.8241 68.5883 89.8336L22.6886 43.7244C27.4782 29.6912 41.0485 19.6674 56.6144 19.6674C68.5883 19.6674 79.3647 25.6817 86.1499 34.9035L92.1368 29.6912C84.1542 18.8655 71.3822 11.6484 56.6144 11.6484C35.8598 11.6484 18.2982 26.4836 13.9078 46.1301L66.5926 99.0555C85.7507 94.2441 100.518 76.6023 100.518 55.7529ZM12.7104 56.1539C12.7104 67.3805 17.1008 78.2061 25.4825 86.626C33.8642 95.046 45.0398 99.4564 55.8162 99.4564L12.7104 56.1539Z" fill="white"/>
<path d="M56.1665 0C25.3665 0 0.166504 25.2 0.166504 56C0.166504 86.8 25.3665 112 56.1665 112C86.9665 112 112.167 86.8 112.167 56C112.167 25.2 86.9665 0 56.1665 0ZM24.9665 87.2C16.5665 78.8 12.1665 67.6 12.1665 56.8L55.7665 100C44.5665 99.6 33.3665 95.6 24.9665 87.2ZM65.7665 98.8L13.3665 46.4C17.7665 26.8 35.3665 12 56.1665 12C70.9665 12 83.7665 19.2 91.7665 30L85.7665 35.2C78.9665 26 68.1665 20 56.1665 20C40.5665 20 27.3665 30 22.1665 44L68.1665 90C79.7665 86 88.5665 76 91.3665 64H72.1665V56H100.167C100.167 76.8 85.3665 94.4 65.7665 98.8Z" fill="#663399"/>
</svg>
