<svg width="26" height="26" viewBox="0 0 26 26" fill="none" xmlns="http://www.w3.org/2000/svg">
<path d="M13 0.75C6.23516 0.75 0.75 6.37734 0.75 13.3117C0.75 18.8625 4.26094 23.5656 9.12812 25.2281C9.19639 25.243 9.26608 25.2503 9.33594 25.25C9.78984 25.25 9.96484 24.9164 9.96484 24.6266C9.96484 24.3258 9.95391 23.5383 9.94844 22.4883C9.54323 22.5833 9.12869 22.6328 8.7125 22.6359C6.35547 22.6359 5.81953 20.8039 5.81953 20.8039C5.26172 19.3547 4.45781 18.9664 4.45781 18.9664C3.39141 18.2172 4.45234 18.1953 4.53437 18.1953H4.53984C5.77031 18.3047 6.41563 19.4969 6.41563 19.4969C7.02813 20.5687 7.84844 20.8695 8.58125 20.8695C9.0658 20.8598 9.54286 20.748 9.98125 20.5414C10.0906 19.732 10.4078 19.1797 10.7578 18.8625C8.03984 18.5453 5.17969 17.468 5.17969 12.6555C5.17969 11.2828 5.65547 10.1617 6.4375 9.28672C6.31172 8.96953 5.89062 7.68984 6.55781 5.96172C6.64731 5.9403 6.73929 5.93111 6.83125 5.93438C7.27422 5.93438 8.275 6.10391 9.92656 7.25234C11.9333 6.69087 14.0557 6.69087 16.0625 7.25234C17.7141 6.10391 18.7148 5.93438 19.1578 5.93438C19.2498 5.93111 19.3418 5.9403 19.4313 5.96172C20.0984 7.68984 19.6773 8.96953 19.5516 9.28672C20.3336 10.1672 20.8094 11.2883 20.8094 12.6555C20.8094 17.4789 17.9438 18.5398 15.2148 18.8516C15.6523 19.2398 16.0461 20.0055 16.0461 21.1758C16.0461 22.8547 16.0297 24.2109 16.0297 24.6211C16.0297 24.9164 16.1992 25.25 16.6531 25.25C16.7266 25.2503 16.7999 25.243 16.8719 25.2281C21.7445 23.5656 25.25 18.857 25.25 13.3117C25.25 6.37734 19.7648 0.75 13 0.75Z" fill="#CCCCCC"/>
</svg>
