<svg width="64" height="64" viewBox="0 0 64 64" fill="none" xmlns="http://www.w3.org/2000/svg">
<g id="container">
<path id="Vector" d="M18.8112 36.4372C20.6504 36.4372 22.4448 35.8241 23.8953 34.7026L12.2317 23.0391C9.42053 26.6727 10.0934 31.9064 13.7271 34.7176C15.1925 35.8241 16.9719 36.4372 18.8112 36.4372Z" fill="white"/>
<path id="Vector_2" d="M53.5027 28.1115C53.5027 26.2722 52.8896 24.4778 51.7681 23.0273L40.1046 34.6909C43.7383 37.5021 48.9569 36.8292 51.7681 33.1956C52.8896 31.7451 53.5027 29.9507 53.5027 28.1115Z" fill="white"/>
<path id="Vector_3" d="M59.3793 15.4141L54.2205 20.5729C58.3775 25.5524 57.7195 32.9692 52.7401 37.1262C48.3738 40.7748 42.0336 40.7748 37.6672 37.1262L31.9999 42.7935L26.3476 37.1412C21.3682 41.2982 13.9514 40.6403 9.79438 35.6608C6.14578 31.2945 6.14578 24.9543 9.79438 20.5879L7.14765 17.9412L4.63551 15.4141C1.6 20.4085 0 26.1505 0 31.9973C0 49.672 14.3252 63.9973 31.9999 63.9973C49.6747 63.9973 63.9999 49.672 63.9999 31.9973C64.0148 26.1505 62.3999 20.4085 59.3793 15.4141Z" fill="white"/>
<path id="Vector_4" d="M55.1476 9.91189C42.9607 -2.87317 22.714 -3.35167 9.929 8.83526C9.55516 9.19414 9.19629 9.55302 8.85236 9.91189C8.05984 10.7493 7.31218 11.6166 6.60938 12.5287L32 37.9344L57.3906 12.5287C56.7027 11.6166 55.9401 10.7493 55.1476 9.91189ZM32 4.18478C39.4766 4.18478 46.4448 7.07077 51.6785 12.3343L32 32.0129L12.3215 12.3343C17.5552 7.07077 24.5234 4.18478 32 4.18478Z" fill="white"/>
</g>
</svg>
