<svg width="27" height="22" viewBox="0 0 27 22" fill="none" xmlns="http://www.w3.org/2000/svg">
<path d="M25.48 0.290044C25.1904 0.0959874 24.8485 -0.00512621 24.5 0.000200111V0.000200111C20.8026 0.0166064 18.0409 0.476528 16.065 1.42208C15.4277 1.71986 14.8334 2.1021 14.298 2.55848C14.2044 2.64027 14.1294 2.74115 14.078 2.85434C14.0266 2.96753 14 3.09041 14 3.21473V21.6515C14 21.6939 14.0124 21.7353 14.0359 21.7705C14.0593 21.8058 14.0926 21.8334 14.1316 21.8498C14.1706 21.8662 14.2136 21.8707 14.2552 21.8628C14.2968 21.8549 14.3351 21.8348 14.3653 21.8052C15.7691 20.4107 18.2328 19.2447 24.5022 19.2453C24.9663 19.2453 25.4114 19.0609 25.7396 18.7327C26.0678 18.4045 26.2522 17.9594 26.2522 17.4953V1.74528C26.2528 1.45796 26.1827 1.17491 26.048 0.921114C25.9134 0.667316 25.7183 0.45058 25.48 0.290044Z" fill="#CCCCCC"/>
<path d="M10.185 1.42252C8.20914 0.479162 5.44742 0.0170529 1.75 0.000646609C1.4013 -0.00409092 1.05944 0.0975904 0.770003 0.292131C0.532434 0.45271 0.337963 0.669205 0.203697 0.922577C0.0694302 1.17595 -0.000518635 1.45843 2.89508e-06 1.74518V17.3913C2.89508e-06 18.4489 0.752503 19.2468 1.75 19.2468C5.63664 19.2468 9.53531 19.6099 11.8705 21.8171C11.9024 21.8475 11.9426 21.8677 11.9859 21.8754C12.0293 21.8831 12.074 21.8779 12.1144 21.8605C12.1549 21.843 12.1893 21.814 12.2134 21.7771C12.2375 21.7403 12.2502 21.6971 12.25 21.6531V3.21737C12.2501 3.09298 12.2235 2.97003 12.172 2.85681C12.1205 2.7436 12.0452 2.64276 11.9514 2.56112C11.4165 2.10384 10.8224 1.72085 10.185 1.42252V1.42252Z" fill="#CCCCCC"/>
</svg>
