<svg width="26" height="26" viewBox="0 0 26 26" fill="none" xmlns="http://www.w3.org/2000/svg">
<path d="M0 13C0 5.8203 5.8203 0 13 0C20.1797 0 26 5.8203 26 13C26 20.1797 20.1797 26 13 26C5.8203 26 0 20.1797 0 13Z" fill="#313131"/>
<path d="M17.7402 6.83887H8.26107C7.75826 6.83887 7.27605 7.03861 6.92051 7.39414C6.56497 7.74968 6.36523 8.23189 6.36523 8.7347V17.266C6.36523 17.7688 6.56497 18.251 6.92051 18.6065C7.27605 18.962 7.75826 19.1618 8.26107 19.1618H17.7402C18.243 19.1618 18.7253 18.962 19.0808 18.6065C19.4363 18.251 19.6361 17.7688 19.6361 17.266V8.7347C19.6361 8.23189 19.4363 7.74968 19.0808 7.39414C18.7253 7.03861 18.243 6.83887 17.7402 6.83887ZM18.4512 9.68262H7.55013C7.48728 9.68262 7.427 9.65765 7.38256 9.61321C7.33812 9.56877 7.31315 9.50849 7.31315 9.44564V8.7347C7.31385 8.48351 7.41395 8.24282 7.59157 8.0652C7.76918 7.88758 8.00988 7.78749 8.26107 7.78678H17.7402C17.9914 7.78749 18.2321 7.88758 18.4097 8.0652C18.5874 8.24282 18.6874 8.48351 18.6882 8.7347V9.44564C18.6882 9.50849 18.6632 9.56877 18.6187 9.61321C18.5743 9.65765 18.514 9.68262 18.4512 9.68262Z" fill="#B4B4B4"/>
</svg>
