<svg width="1080" height="720" viewBox="0 0 1080 720" fill="none" xmlns="http://www.w3.org/2000/svg">
<rect width="1080" height="720" fill="url(#paint0_radial_603_517)"/>
<g clip-path="url(#clip0_603_517)">
<path fill-rule="evenodd" clip-rule="evenodd" d="M795.553 286.551L843.501 314.017C846.308 315.624 848.64 317.945 850.262 320.743C851.884 323.541 852.738 326.719 852.738 329.953V390.704C852.738 393.761 851.918 396.762 850.363 399.395C848.807 402.027 846.574 404.193 843.896 405.668L792.265 434.107C789.564 435.595 786.525 436.361 783.441 436.332C780.358 436.303 777.334 435.479 774.661 433.941L729.284 407.821C725.576 405.687 722.495 402.612 720.354 398.908C718.212 395.204 717.084 391.001 717.084 386.722V335.244C717.084 330.516 718.311 325.868 720.644 321.755C722.978 317.642 726.339 314.205 730.398 311.779L772.259 286.766C775.773 284.666 779.783 283.539 783.877 283.502C787.971 283.464 792.001 284.516 795.553 286.551Z" fill="#EBB951" stroke="#FCD804" stroke-width="11.532"/>
<path fill-rule="evenodd" clip-rule="evenodd" d="M630.201 285.747L680.305 314.269C682.993 315.799 685.228 318.013 686.782 320.687C688.337 323.361 689.155 326.398 689.155 329.491V389.073C689.156 392.497 688.241 395.86 686.507 398.812C684.772 401.765 682.28 404.201 679.289 405.867L629.18 433.774C626.332 435.361 623.119 436.179 619.859 436.148C616.598 436.118 613.402 435.239 610.584 433.599L565.387 407.289C561.771 405.184 558.77 402.168 556.684 398.54C554.598 394.913 553.5 390.802 553.5 386.617V335.825C553.5 330.792 554.809 325.844 557.297 321.469C559.785 317.093 563.367 313.439 567.693 310.865L609.576 285.943C612.69 284.09 616.24 283.095 619.864 283.061C623.488 283.026 627.056 283.953 630.205 285.747H630.201Z" fill="#33BA91" stroke="#00A88A" stroke-width="11.532"/>
<path fill-rule="evenodd" clip-rule="evenodd" d="M466.699 284.956L516.769 314.384C519.322 315.885 521.441 318.023 522.918 320.589C524.395 323.155 525.18 326.061 525.196 329.021L525.508 388.249C525.528 391.92 524.562 395.53 522.711 398.7C520.86 401.871 518.191 404.486 514.984 406.273L465.811 433.655C462.897 435.277 459.612 436.114 456.277 436.083C452.943 436.051 449.674 435.153 446.791 433.475L401.59 407.165C398.039 405.098 395.092 402.136 393.044 398.573C390.996 395.011 389.918 390.974 389.917 386.865V334.309C389.917 329.723 391.089 325.213 393.322 321.207C395.555 317.201 398.774 313.832 402.675 311.42L445.087 285.196C448.327 283.193 452.052 282.113 455.86 282.07C459.668 282.028 463.416 283.026 466.699 284.956Z" fill="#0594CB" stroke="#0083C0" stroke-width="11.532"/>
<path fill-rule="evenodd" clip-rule="evenodd" d="M304.632 286.306L353.498 314.726C356.341 316.38 358.7 318.75 360.34 321.601C361.98 324.453 362.843 327.684 362.843 330.973V389.244C362.842 392.88 361.875 396.45 360.04 399.589C358.205 402.728 355.568 405.322 352.4 407.106L303.902 434.415C300.738 436.196 297.166 437.123 293.536 437.106C289.905 437.089 286.342 436.128 283.195 434.317L238.533 408.609C235.085 406.624 232.221 403.766 230.229 400.322C228.238 396.878 227.189 392.97 227.188 388.992V333.694C227.188 329.688 228.212 325.749 230.163 322.25C232.114 318.752 234.928 315.81 238.336 313.705L282.243 286.601C285.599 284.53 289.454 283.408 293.397 283.357C297.34 283.305 301.223 284.324 304.632 286.306Z" fill="#FF4088" stroke="#C9177E" stroke-width="11.532"/>
<path fill-rule="evenodd" clip-rule="evenodd" d="M785.092 314.077C810.202 314.077 830.588 334.463 830.588 359.568C830.588 384.682 810.202 405.064 785.092 405.064C759.987 405.064 739.596 384.678 739.596 359.568C739.596 334.463 759.987 314.077 785.092 314.077ZM785.092 330.978C800.874 330.978 813.683 343.791 813.683 359.568C813.68 367.15 810.666 374.42 805.305 379.781C799.944 385.142 792.674 388.156 785.092 388.159C769.31 388.159 756.501 375.35 756.501 359.568C756.505 351.987 759.517 344.718 764.878 339.357C770.238 333.996 777.507 330.982 785.088 330.978H785.092ZM663.878 358.872C663.878 379.023 660.06 384.896 652.427 393.289C644.795 401.681 634.673 405.064 622.06 405.064C610.528 405.064 601.238 400.972 593.183 393.861C584.265 385.981 577.773 373.77 577.773 360.141C577.773 346.742 582.779 335.163 591.65 326.54C599.432 318.993 611.015 314.077 622.957 314.077C637.38 314.077 652.355 320.902 661.585 334.377L648.033 345.832C642.288 335.142 633.964 331.541 622.056 331.2C608.888 330.824 594.392 343.385 595.468 360.136C596.066 369.507 600.444 385.614 621.505 388.569C632.567 390.12 645.15 378.31 645.15 371.895H624.362V355.878H663.87V358.859L663.878 358.872ZM423.586 318.446H441.649V366.355C441.649 373.958 441.858 378.882 442.277 381.137C442.998 384.759 444.331 387.275 447.047 389.466C449.768 391.657 452.942 392.281 457.657 392.281C462.44 392.281 464.046 391.538 466.481 389.462C468.911 387.39 470.376 385.421 470.872 382.402C471.363 379.382 472.183 374.372 472.183 367.376V318.446H490.241V364.907C490.241 375.525 489.784 383.029 488.87 387.412C487.956 391.798 486.273 395.497 483.822 398.516C481.37 401.532 478.09 403.937 473.985 405.726C469.876 407.516 464.52 408.408 457.905 408.408C449.918 408.408 443.865 407.435 439.744 405.483C435.618 403.531 432.355 400.998 429.963 397.88C427.567 394.762 425.991 391.495 425.231 388.074C424.129 383.008 423.573 375.525 423.573 365.629V318.446H423.586ZM261.109 404.099V315.593H279.625V347.831H310.342V315.593H328.913V404.099H310.342V365.398H279.625V404.099H261.109Z" fill="white"/>
</g>
<defs>
<radialGradient id="paint0_radial_603_517" cx="0" cy="0" r="1" gradientUnits="userSpaceOnUse" gradientTransform="translate(540 360) rotate(90) scale(360 540)">
<stop stop-color="#0B1E28"/>
<stop offset="1" stop-color="#061218"/>
</radialGradient>
<clipPath id="clip0_603_517">
<rect width="637.675" height="167" fill="white" transform="translate(221 276)"/>
</clipPath>
</defs>
</svg>
