<svg width="28" height="28" viewBox="0 0 28 28" fill="none" xmlns="http://www.w3.org/2000/svg">
<path d="M22.6621 5.34504C21.5266 4.19833 20.1758 3.28728 18.6871 2.66422C17.1985 2.04115 15.6014 1.71836 13.9877 1.71439C12.3739 1.71042 10.7753 2.02534 9.28358 2.64107C7.79189 3.2568 6.43657 4.16119 5.29546 5.3023C4.15436 6.4434 3.24996 7.79873 2.63423 9.29041C2.01851 10.7821 1.70358 12.3807 1.70756 13.9945C1.71153 15.6083 2.03432 17.2053 2.65738 18.694C3.28044 20.1826 4.1915 21.5335 5.33821 22.6689C6.47368 23.8157 7.82454 24.7267 9.31317 25.3498C10.8018 25.9728 12.3989 26.2956 14.0126 26.2996C15.6264 26.3036 17.2251 25.9886 18.7167 25.3729C20.2084 24.7572 21.5638 23.8528 22.7049 22.7117C23.846 21.5706 24.7504 20.2153 25.3661 18.7236C25.9818 17.2319 26.2967 15.6332 26.2928 14.0195C26.2888 12.4057 25.966 10.8086 25.3429 9.32001C24.7199 7.83137 23.8088 6.48052 22.6621 5.34504V5.34504ZM3.50016 14.007C3.49977 13.0777 3.62298 12.1525 3.86656 11.2557C4.26797 12.1197 4.85094 12.8662 5.24742 13.7527C5.75985 14.8924 7.13578 14.5763 7.74336 15.5749C8.28258 16.4614 7.70672 17.5825 8.11031 18.51C8.40344 19.1832 9.09469 19.3303 9.57156 19.8225C10.0588 20.319 10.0484 20.9993 10.1228 21.6468C10.2067 22.4076 10.3429 23.1617 10.5302 23.9038C10.5302 23.9093 10.5302 23.9153 10.5346 23.9207C6.44235 22.4836 3.50016 18.5827 3.50016 14.007ZM14.0002 24.507C13.4138 24.5068 12.8284 24.4578 12.2502 24.3604C12.2562 24.2122 12.2589 24.0739 12.2737 23.9776C12.4066 23.1081 12.8419 22.2577 13.4292 21.6069C14.0095 20.9649 14.8046 20.5307 15.2946 19.8022C15.7748 19.0913 15.9186 18.1343 15.7206 17.3036C15.4291 16.0764 13.7617 15.6668 12.8627 15.0012C12.3459 14.6184 11.8859 14.0267 11.2073 13.9786C10.8945 13.9567 10.6325 14.0239 10.3224 13.9441C10.038 13.8703 9.81492 13.7171 9.51195 13.7571C8.94594 13.8314 8.58883 14.4363 7.9807 14.3543C7.40375 14.2772 6.8093 13.6018 6.67805 13.0522C6.50961 12.3456 7.06852 12.1164 7.66735 12.0536C7.91727 12.0273 8.19781 11.9989 8.43789 12.0907C8.75399 12.2078 8.90328 12.5173 9.18711 12.6737C9.71922 12.9657 9.82695 12.4993 9.74547 12.0268C9.62352 11.3191 9.48133 11.0309 10.1124 10.5436C10.5499 10.2079 10.924 9.96504 10.854 9.36184C10.8124 9.00746 10.6183 8.84723 10.7993 8.49449C10.9366 8.22598 11.3134 7.98371 11.5589 7.82348C12.1927 7.41004 14.2741 7.44067 13.4238 6.28348C13.1738 5.94387 12.7128 5.33684 12.2753 5.25371C11.7284 5.15035 11.4856 5.76067 11.1045 6.02973C10.7107 6.30809 9.94399 6.62418 9.54969 6.19379C9.01922 5.61465 9.90133 5.42488 10.0966 5.0202C10.1868 4.83153 10.0966 4.56957 9.94453 4.32293C10.1418 4.23981 10.3423 4.1627 10.5461 4.0916C10.6738 4.18594 10.8253 4.24276 10.9836 4.25567C11.3495 4.27973 11.6945 4.08176 12.0139 4.33113C12.3683 4.60457 12.6237 4.9502 13.094 5.03551C13.549 5.11809 14.0308 4.85285 14.1434 4.38692C14.2118 4.10363 14.1434 3.80449 14.0778 3.51192C16.1231 3.52368 18.1199 4.13622 19.82 5.2734C19.7106 5.23184 19.5799 5.23676 19.4186 5.31168C19.0866 5.4659 18.6163 5.85856 18.5775 6.24793C18.5332 6.68981 19.1851 6.75215 19.4946 6.75215C19.9595 6.75215 20.4303 6.54434 20.2805 6.00731C20.2154 5.77434 20.1268 5.53207 19.9841 5.38551C20.3272 5.6236 20.6559 5.88181 20.9684 6.15879C20.9635 6.16371 20.9586 6.16809 20.9537 6.17356C20.6387 6.50168 20.2728 6.76145 20.0573 7.16067C19.9053 7.44176 19.7341 7.5752 19.4263 7.64793C19.2567 7.68785 19.0631 7.70262 18.9209 7.81637C18.525 8.12809 18.7503 8.87731 19.1255 9.10207C19.5996 9.3859 20.3029 9.25246 20.6606 8.84723C20.94 8.53004 21.1046 7.97934 21.6072 7.97988C21.8285 7.97942 22.041 8.06606 22.1989 8.22106C22.4067 8.43653 22.3657 8.63777 22.41 8.90684C22.4882 9.38481 22.9098 9.12559 23.1663 8.88442C23.3533 9.21715 23.522 9.55981 23.6716 9.9109C23.3895 10.3172 23.1652 10.7602 22.4866 10.2866C22.0802 10.0028 21.8303 9.59098 21.3201 9.46301C20.8744 9.35363 20.4177 9.46738 19.9775 9.5434C19.4771 9.63035 18.8838 9.66863 18.5042 10.0476C18.1373 10.4129 17.9431 10.9018 17.5527 11.2688C16.7974 11.9797 16.4786 12.7557 16.9675 13.7609C17.4378 14.7272 18.4216 15.2517 19.4831 15.1828C20.526 15.1133 21.6094 14.5085 21.5793 16.0239C21.5684 16.5604 21.6805 16.9317 21.8451 17.4299C21.9977 17.8893 21.9873 18.3344 22.0223 18.8086C22.0555 19.3638 22.1424 19.9145 22.2815 20.453C21.3013 21.7151 20.0456 22.7364 18.6103 23.439C17.175 24.1416 15.5982 24.5069 14.0002 24.507Z" fill="#B4B4B4"/>
</svg>
