<svg width="64" height="64" viewBox="0 0 64 64" fill="none" xmlns="http://www.w3.org/2000/svg">
<path d="M32.2151 41.1908C31.5969 41.1908 16.924 41.0625 5.70378 29.8402C5.46617 29.6026 5.23486 29.365 5.00777 29.1232C2.65901 26.642 1.54246 23.6939 1.78007 20.5966C1.98824 17.8651 3.24568 15.2157 5.32318 13.1382C7.40068 11.0607 10.048 9.80325 12.7816 9.59508C15.6434 9.3764 18.3791 10.3142 20.7362 12.3118C20.9907 9.23341 22.2628 6.63653 24.4392 4.7672C26.5188 2.98198 29.2818 2 32.2172 2C35.1526 2 37.9177 2.98198 39.9952 4.7672C42.1736 6.63653 43.4437 9.23341 43.7002 12.3118C46.0574 10.3142 48.793 9.3764 51.6549 9.59508C54.3863 9.80325 57.0358 11.0607 59.1112 13.1382C61.1887 15.2157 62.4461 17.863 62.6543 20.5966C62.8898 23.6939 61.7732 26.642 59.4266 29.1232C59.1995 29.3629 58.9661 29.6026 58.7306 29.8402C47.5062 41.0625 32.8354 41.1908 32.2151 41.1908ZM13.589 11.8976C11.0447 11.8976 8.65602 13.0793 6.95701 14.7783C3.90173 17.8336 2.51603 23.1283 6.68786 27.5377C6.90023 27.7627 7.11681 27.9856 7.3397 28.2085C17.8912 38.76 32.0742 38.882 32.2172 38.882C32.3581 38.882 46.5683 38.7327 57.0946 28.2085C57.3175 27.9856 57.5341 27.7627 57.7465 27.5377C61.9183 23.1304 60.5305 17.8336 57.4752 14.7804C54.42 11.7252 49.1253 10.3395 44.7179 14.5092C44.4929 14.7216 44.2701 14.9381 44.0472 15.161C43.8747 15.3334 43.7107 15.508 43.5467 15.6825L41.343 18.006L41.4293 14.8141C41.4356 14.5723 41.444 14.3283 41.444 14.0823C41.444 13.769 41.4398 13.4578 41.4314 13.1466C41.2631 7.08021 36.5383 4.31511 32.2193 4.31511C27.9003 4.31511 23.1733 7.07811 23.0072 13.1466C22.9988 13.4557 22.9946 13.7669 22.9946 14.0823C22.9946 14.322 23.0009 14.5596 23.0072 14.7951L23.0913 18.006L20.896 15.6888C20.7299 15.5122 20.5617 15.3356 20.3893 15.161C20.1664 14.9381 19.9435 14.7216 19.7185 14.5092C17.7567 12.6525 15.6224 11.8976 13.589 11.8976Z" fill="white"/>
<path d="M62.2674 58.2191C58.1313 60.12 53.4065 60.6162 48.9361 59.6111C44.6002 58.6355 40.7985 56.3771 37.8778 53.0611C38.1638 53.2588 38.4581 53.4501 38.7609 53.633C41.259 55.1386 44.0346 55.8956 46.8102 55.8956C49.2767 55.8956 51.7453 55.2984 54.0205 54.0956C54.1824 54.0115 54.3422 53.9232 54.502 53.8328L53.3581 51.8226C53.2193 51.9025 53.0806 51.9782 52.9397 52.0518C48.8288 54.2239 43.9757 54.0767 39.9553 51.6544C35.8402 49.1752 33.3821 44.8373 33.3821 40.0515V39.1599H33.3611H31.0691H31.0481V40.0515C31.0481 44.8373 28.59 49.1752 24.4749 51.6544C20.4545 54.0767 15.6014 54.226 11.4905 52.0518C11.3497 51.9782 11.2109 51.9025 11.0721 51.8226L9.92822 53.8328C10.088 53.9232 10.2478 54.0115 10.4097 54.0956C12.6849 55.2984 15.1514 55.8956 17.62 55.8956C20.3956 55.8956 23.1691 55.1386 25.6693 53.633C25.9721 53.4522 26.2665 53.2609 26.5524 53.0611C23.6317 56.3771 19.83 58.6355 15.4942 59.6111C11.0237 60.6183 6.2989 60.1221 2.16281 58.2191L1 60.2335C4.09102 61.6886 7.48484 62.433 10.8934 62.433C12.605 62.433 14.3187 62.2459 16.0009 61.8674C21.1863 60.7003 25.6882 57.8827 29.0147 53.7235C29.7928 52.752 30.4698 51.709 31.046 50.6177V62.433H33.359V50.5778C33.9415 51.6838 34.6248 52.7415 35.4113 53.7235C38.7399 57.8827 43.2398 60.6982 48.4251 61.8674C50.1073 62.2459 51.821 62.433 53.5327 62.433C56.9412 62.433 60.335 61.6886 63.426 60.2335L62.2674 58.2191Z" fill="white"/>
<path d="M30.7109 28.9399H29.0287C29.0287 26.4356 26.5916 24.3959 23.5952 24.3959C20.5988 24.3959 18.1618 26.4335 18.1618 28.9399H16.4796C16.4796 25.5083 19.6715 22.7137 23.5952 22.7137C27.5189 22.7137 30.7109 25.5062 30.7109 28.9399Z" fill="white"/>
<path d="M25.5296 28.9767C26.8664 28.9767 27.9501 27.893 27.9501 26.5562C27.9501 25.2194 26.8664 24.1357 25.5296 24.1357C24.1928 24.1357 23.1091 25.2194 23.1091 26.5562C23.1091 27.893 24.1928 28.9767 25.5296 28.9767Z" fill="white"/>
<path d="M47.9658 28.9399H46.2836C46.2836 26.4356 43.8465 24.3959 40.8501 24.3959C37.8537 24.3959 35.4167 26.4335 35.4167 28.9399H33.7345C33.7345 25.5083 36.9264 22.7137 40.8501 22.7137C44.7738 22.7137 47.9658 25.5062 47.9658 28.9399Z" fill="white"/>
<path d="M42.7879 28.9767C44.1247 28.9767 45.2084 27.893 45.2084 26.5562C45.2084 25.2194 44.1247 24.1357 42.7879 24.1357C41.4511 24.1357 40.3675 25.2194 40.3675 26.5562C40.3675 27.893 41.4511 28.9767 42.7879 28.9767Z" fill="white"/>
<path d="M32.1874 35.1242C30.2046 35.1242 28.3668 34.1044 27.5089 32.5295L28.9871 31.7241C29.5569 32.7671 30.8122 33.4421 32.1895 33.4421C33.5668 33.4421 34.8243 32.7671 35.392 31.7241L36.8702 32.5295C36.0081 34.1044 34.1703 35.1242 32.1874 35.1242Z" fill="white"/>
</svg>
