<svg width="32" height="32" viewBox="0 0 32 32" fill="none" xmlns="http://www.w3.org/2000/svg">
<g id="lens">
<g id="lens_2">
<path id="Vector" d="M16.1082 20.5954C15.7991 20.5954 8.46263 20.5313 2.85253 14.9201C2.73372 14.8013 2.61807 14.6825 2.50453 14.5616C1.33015 13.321 0.771871 11.847 0.890676 10.2983C0.994761 8.93257 1.62348 7.60785 2.66223 6.5691C3.70098 5.53035 5.02465 4.90163 6.39143 4.79754C7.82234 4.6882 9.19017 5.15711 10.3688 6.15591C10.496 4.61671 11.1321 3.31827 12.2202 2.3836C13.26 1.49099 14.6415 1 16.1092 1C17.5769 1 18.9595 1.49099 19.9982 2.3836C21.0875 3.31827 21.7225 4.61671 21.8507 6.15591C23.0293 5.15711 24.3972 4.6882 25.8281 4.79754C27.1938 4.90163 28.5185 5.53035 29.5562 6.5691C30.595 7.60785 31.2237 8.93152 31.3278 10.2983C31.4455 11.847 30.8873 13.321 29.7139 14.5616C29.6004 14.6815 29.4837 14.8013 29.3659 14.9201C23.7537 20.5313 16.4183 20.5954 16.1082 20.5954ZM6.79516 5.94879C5.523 5.94879 4.32865 6.53966 3.47914 7.38916C1.95151 8.9168 1.25865 11.5641 3.34457 13.7689C3.45076 13.8814 3.55905 13.9928 3.67049 14.1043C8.94626 19.38 16.0377 19.441 16.1092 19.441C16.1797 19.441 23.2848 19.3663 28.548 14.1043C28.6594 13.9928 28.7677 13.8814 28.8739 13.7689C30.9598 11.5652 30.2659 8.9168 28.7383 7.39022C27.2106 5.86258 24.5633 5.16973 22.3596 7.25459C22.2471 7.36078 22.1357 7.46907 22.0242 7.58051C21.938 7.66672 21.856 7.75399 21.774 7.84125L20.6722 9.00301L20.7153 7.40704C20.7184 7.28613 20.7226 7.16417 20.7226 7.04116C20.7226 6.88451 20.7205 6.7289 20.7163 6.5733C20.6322 3.5401 18.2698 2.15756 16.1103 2.15756C13.9508 2.15756 11.5873 3.53905 11.5042 6.5733C11.5 6.72785 11.4979 6.88346 11.4979 7.04116C11.4979 7.16102 11.5011 7.27982 11.5042 7.39757L11.5463 9.00301L10.4487 7.84441C10.3656 7.75609 10.2815 7.66778 10.1953 7.58051C10.0838 7.46907 9.97239 7.36078 9.8599 7.25459C8.87897 6.32623 7.81183 5.94879 6.79516 5.94879Z" fill="#ADFF2D"/>
<path id="Vector_2" d="M31.1337 29.1097C29.0657 30.0601 26.7032 30.3082 24.468 29.8057C22.3001 29.3178 20.3992 28.1887 18.9389 26.5307C19.0819 26.6295 19.2291 26.7252 19.3805 26.8166C20.6295 27.5694 22.0173 27.9479 23.4051 27.9479C24.6384 27.9479 25.8727 27.6493 27.0102 27.0479C27.0912 27.0059 27.1711 26.9617 27.251 26.9165L26.6791 25.9114C26.6097 25.9514 26.5403 25.9892 26.4698 26.026C24.4144 27.1121 21.9879 27.0385 19.9776 25.8273C17.9201 24.5877 16.6911 22.4188 16.6911 20.0259V19.5801H16.6806H15.5346H15.524V20.0259C15.524 22.4188 14.295 24.5877 12.2375 25.8273C10.2273 27.0385 7.8007 27.1131 5.74527 26.026C5.67483 25.9892 5.60544 25.9514 5.53605 25.9114L4.96411 26.9165C5.04401 26.9617 5.12392 27.0059 5.20487 27.0479C6.34245 27.6493 7.57571 27.9479 8.81001 27.9479C10.1978 27.9479 11.5846 27.5694 12.8347 26.8166C12.986 26.7262 13.1332 26.6306 13.2762 26.5307C11.8159 28.1887 9.915 29.3178 7.74708 29.8057C5.51187 30.3093 3.14945 30.0612 1.08141 29.1097L0.5 30.1169C2.04551 30.8444 3.74242 31.2166 5.44669 31.2166C6.3025 31.2166 7.15937 31.123 8.00046 30.9338C10.5931 30.3503 12.8441 28.9415 14.5074 26.8619C14.8964 26.3761 15.2349 25.8546 15.523 25.309V31.2166H16.6795V25.289C16.9707 25.842 17.3124 26.3709 17.7056 26.8619C19.37 28.9415 21.6199 30.3492 24.2126 30.9338C25.0536 31.123 25.9105 31.2166 26.7663 31.2166C28.4706 31.2166 30.1675 30.8444 31.713 30.1169L31.1337 29.1097Z" fill="#ADFF2D"/>
<path id="Vector_3" d="M15.3559 14.4695H14.5148C14.5148 13.2174 13.2963 12.1975 11.7981 12.1975C10.2999 12.1975 9.08133 13.2163 9.08133 14.4695H8.24023C8.24023 12.7537 9.83621 11.3564 11.7981 11.3564C13.7599 11.3564 15.3559 12.7527 15.3559 14.4695Z" fill="#ADFF2D"/>
<path id="Vector_4" d="M12.7649 14.4879C13.4333 14.4879 13.9752 13.946 13.9752 13.2776C13.9752 12.6092 13.4333 12.0674 12.7649 12.0674C12.0965 12.0674 11.5547 12.6092 11.5547 13.2776C11.5547 13.946 12.0965 14.4879 12.7649 14.4879Z" fill="#ADFF2D"/>
<path id="Vector_5" d="M23.9828 14.4695H23.1418C23.1418 13.2174 21.9232 12.1975 20.425 12.1975C18.9268 12.1975 17.7083 13.2163 17.7083 14.4695H16.8672C16.8672 12.7537 18.4632 11.3564 20.425 11.3564C22.3869 11.3564 23.9828 12.7527 23.9828 14.4695Z" fill="#ADFF2D"/>
<path id="Vector_6" d="M21.3938 14.4879C22.0622 14.4879 22.6041 13.946 22.6041 13.2776C22.6041 12.6092 22.0622 12.0674 21.3938 12.0674C20.7254 12.0674 20.1836 12.6092 20.1836 13.2776C20.1836 13.946 20.7254 14.4879 21.3938 14.4879Z" fill="#ADFF2D"/>
<path id="Vector_7" d="M16.0932 17.5624C15.1018 17.5624 14.1829 17.0525 13.7539 16.265L14.493 15.8623C14.7779 16.3838 15.4056 16.7213 16.0943 16.7213C16.7829 16.7213 17.4116 16.3838 17.6955 15.8623L18.4346 16.265C18.0035 17.0525 17.0846 17.5624 16.0932 17.5624Z" fill="#ADFF2D"/>
</g>
</g>
</svg>
