<svg width="64" height="64" viewBox="0 0 64 64" fill="none" xmlns="http://www.w3.org/2000/svg">
<g id="container">
<path id="Vector" d="M53.6556 49.5902C53.6556 50.3457 53.1444 50.8902 52.4111 50.8902C51.6556 50.8902 51.1667 50.3124 51.1667 49.5902C51.1667 48.868 51.6556 48.2902 52.4111 48.2902C53.1444 48.2902 53.6556 48.868 53.6556 49.5902ZM19.1222 48.2902C18.3333 48.2902 17.8778 48.868 17.8778 49.5902C17.8778 50.3124 18.3333 50.8902 19.1222 50.8902C19.8444 50.8902 20.3333 50.3457 20.3333 49.5902C20.3222 48.868 19.8444 48.2902 19.1222 48.2902ZM32.1778 48.2569C31.5778 48.2569 31.2111 48.6457 31.1222 49.2235H33.2444C33.1444 48.5902 32.7556 48.2569 32.1778 48.2569ZM44.1556 48.2902C43.4 48.2902 42.9444 48.868 42.9444 49.5902C42.9444 50.3124 43.4 50.8902 44.1556 50.8902C44.9111 50.8902 45.4 50.3457 45.4 49.5902C45.4 48.868 44.9111 48.2902 44.1556 48.2902ZM55.9222 51.1902C55.9222 51.2235 55.9556 51.2457 55.9556 51.3124C55.9556 51.3457 55.9222 51.368 55.9222 51.4346C55.8889 51.468 55.8889 51.4902 55.8667 51.5235C55.8333 51.5569 55.8111 51.5791 55.7444 51.5791C55.7111 51.6124 55.6889 51.6124 55.6222 51.6124C55.5889 51.6124 55.5667 51.6124 55.5 51.5791C55.4667 51.5791 55.4444 51.5457 55.4111 51.5235C55.3778 51.4902 55.3556 51.468 55.3556 51.4346C55.3222 51.3791 55.3222 51.3457 55.3222 51.3124C55.3222 51.2569 55.3222 51.2235 55.3556 51.1902C55.3556 51.1346 55.3889 51.1013 55.4111 51.068C55.4444 51.0346 55.4667 51.0346 55.5 51.0124C55.5556 50.9791 55.5889 50.9791 55.6222 50.9791C55.6778 50.9791 55.7111 50.9791 55.7444 51.0124C55.8 51.0457 55.8333 51.0457 55.8667 51.068C55.9 51.0902 55.8889 51.1346 55.9222 51.1902ZM55.6778 51.3457C55.7333 51.3457 55.7333 51.3124 55.7667 51.3124C55.8 51.2791 55.8 51.2569 55.8 51.2235C55.8 51.1902 55.8 51.168 55.7667 51.1346C55.7333 51.1346 55.7111 51.1013 55.6444 51.1013H55.4667V51.4902H55.5556V51.3346H55.5889L55.7111 51.4902H55.8L55.6778 51.3457ZM64 13.0013V52.1124C64 55.0569 61.6111 57.4457 58.6667 57.4457H5.33333C2.38889 57.4457 0 55.0569 0 52.1124V13.0013C0 10.0569 2.38889 7.66797 5.33333 7.66797H58.6667C61.6111 7.66797 64 10.0569 64 13.0013ZM7.11111 28.5124C7.11111 37.0124 14.0111 43.9013 22.5 43.9013C25.5222 43.9013 28.4889 42.9902 31 41.3346C22.9 34.7457 22.9556 22.3124 31 15.7235C28.4889 14.0569 25.5222 13.1569 22.5 13.1569C14.0111 13.1457 7.11111 20.0457 7.11111 28.5124ZM32 40.6013C39.8333 34.4902 39.8 22.5791 32 16.4346C24.2 22.5791 24.1667 34.5013 32 40.6013ZM16.1889 49.0791C16.1889 48.1124 15.5556 47.4791 14.5556 47.4457C14.0444 47.4457 13.5 47.6013 13.1333 48.168C12.8667 47.7124 12.4111 47.4457 11.7778 47.4457C11.3556 47.4457 10.9333 47.6013 10.6 48.0457V47.5569H9.68889V51.6346H10.6C10.6 49.5346 10.3222 48.2791 11.6 48.2791C12.7333 48.2791 12.5111 49.4124 12.5111 51.6346H13.3889C13.3889 49.6013 13.1111 48.2791 14.3889 48.2791C15.5222 48.2791 15.3 49.3902 15.3 51.6346H16.2111V49.0791H16.1889ZM21.1778 47.5569H20.3V48.0457C20 47.6791 19.5778 47.4457 19 47.4457C17.8556 47.4457 16.9778 48.3569 16.9778 49.5902C16.9778 50.8346 17.8556 51.7346 19 51.7346C19.5778 51.7346 20 51.5235 20.3 51.1346V51.6457H21.1778V47.5569ZM25.6778 50.4013C25.6778 48.7346 23.1333 49.4902 23.1333 48.7124C23.1333 48.0791 24.4556 48.1791 25.1889 48.5902L25.5556 47.868C24.5111 47.1902 22.2 47.2013 22.2 48.7791C22.2 50.368 24.7444 49.7013 24.7444 50.4457C24.7444 51.1457 23.2444 51.0902 22.4444 50.5346L22.0556 51.2346C23.3 52.0791 25.6778 51.9013 25.6778 50.4013ZM29.6111 51.4346L29.3667 50.6791C28.9444 50.9124 28.0111 51.168 28.0111 50.2235V48.3791H29.4667V47.5569H28.0111V46.3124H27.1V47.5569H26.2556V48.368H27.1V50.2235C27.1 52.1791 29.0222 51.8235 29.6111 51.4346ZM31.0889 49.9457H34.1444C34.1444 48.1457 33.3222 47.4346 32.2111 47.4346C31.0333 47.4346 30.1889 48.3124 30.1889 49.5791C30.1889 51.8569 32.7 52.2346 33.9444 51.1569L33.5222 50.4902C32.6556 51.2013 31.3444 51.1346 31.0889 49.9457ZM37.6556 47.5569C37.1444 47.3346 36.3667 47.3569 35.9667 48.0457V47.5569H35.0556V51.6346H35.9667V49.3346C35.9667 48.0457 37.0222 48.2124 37.3889 48.4013L37.6556 47.5569ZM38.8333 49.5902C38.8333 48.3235 40.1222 47.9124 41.1333 48.6569L41.5556 47.9346C40.2667 46.9235 37.9222 47.4791 37.9222 49.6013C37.9222 51.8013 40.4111 52.2457 41.5556 51.268L41.1333 50.5457C40.1111 51.268 38.8333 50.8346 38.8333 49.5902ZM46.2444 47.5569H45.3333V48.0457C44.4111 46.8235 42.0111 47.5124 42.0111 49.5902C42.0111 51.7235 44.5 52.3346 45.3333 51.1346V51.6457H46.2444V47.5569ZM49.9889 47.5569C49.7222 47.4235 48.7667 47.2346 48.3 48.0457V47.5569H47.4222V51.6346H48.3V49.3346C48.3 48.1124 49.3 48.1902 49.7222 48.4013L49.9889 47.5569ZM54.4667 45.9013H53.5889V48.0457C52.6778 46.8346 50.2667 47.4791 50.2667 49.5902C50.2667 51.7457 52.7667 52.3235 53.5889 51.1346V51.6457H54.4667V45.9013ZM55.3111 37.5569V38.068H55.4V37.5569H55.6111V37.468H55.1V37.5569H55.3111ZM56.0444 51.3124C56.0444 51.2569 56.0444 51.1902 56.0111 51.1346C55.9778 51.1013 55.9556 51.0457 55.9222 51.0124C55.8889 50.9791 55.8333 50.9569 55.8 50.9235C55.7444 50.9235 55.6778 50.8902 55.6222 50.8902C55.5889 50.8902 55.5333 50.9235 55.4667 50.9235C55.4111 50.9569 55.3778 50.9791 55.3444 51.0124C55.2889 51.0457 55.2556 51.1013 55.2556 51.1346C55.2222 51.1902 55.2222 51.2569 55.2222 51.3124C55.2222 51.3457 55.2222 51.4013 55.2556 51.468C55.2556 51.5013 55.2889 51.5569 55.3444 51.5902C55.3778 51.6235 55.4 51.6457 55.4667 51.6791C55.5222 51.7124 55.5889 51.7124 55.6222 51.7124C55.6778 51.7124 55.7444 51.7124 55.8 51.6791C55.8333 51.6457 55.8889 51.6235 55.9222 51.5902C55.9556 51.5569 55.9778 51.5013 56.0111 51.468C56.0444 51.4013 56.0444 51.3457 56.0444 51.3124ZM56.4 37.4569H56.2444L56.0667 37.8457L55.8889 37.4569H55.7333V38.0569H55.8222V37.6013L56 37.9902H56.1222L56.2778 37.6013V38.0569H56.4V37.4569ZM56.8889 28.5124C56.8889 20.0457 49.9889 13.1457 41.5 13.1457C38.4778 13.1457 35.5111 14.0569 33 15.7124C41.0111 22.3013 41.1333 34.768 33 41.3235C35.5111 42.9902 38.5 43.8902 41.5 43.8902C49.9889 43.9013 56.8889 37.0124 56.8889 28.5124Z" fill="white"/>
</g>
</svg>
