<svg width="24" height="24" viewBox="0 0 24 24" fill="none" xmlns="http://www.w3.org/2000/svg">
<path d="M22.1172 16.3859L22.1139 16.3832C21.5709 15.8812 20.8681 15.763 20.3552 15.6766L20.3174 15.6701C19.8225 15.5886 19.7443 15.5334 19.5201 15.3327C19.3866 15.214 19.2275 15.0237 19.2275 14.7891C19.2275 14.5545 19.3866 14.3641 19.5195 14.2455L21.1755 12.776C22.593 11.5231 23.3739 9.84148 23.3739 8.04063C23.3739 6.23977 22.5946 4.55813 21.1755 3.30469C19.2127 1.57711 16.527 0.625 13.6084 0.625C10.2347 0.625 6.85938 1.90305 4.34375 4.13102C1.94461 6.25125 0.625 9.09172 0.625 12.1285C0.625 15.1653 1.94625 18.0058 4.34375 20.1255C5.5332 21.1777 6.94086 21.9947 8.52844 22.5547C10.0554 23.0903 11.661 23.3675 13.2791 23.375H13.3781C16.7141 23.375 19.8909 22.2501 22.0948 20.2906C22.6252 19.8225 22.9233 19.1515 22.9337 18.4006C22.9452 17.6257 22.64 16.8721 22.1172 16.3859ZM4.125 9.375C4.125 9.02888 4.22764 8.69054 4.41993 8.40275C4.61222 8.11497 4.88553 7.89066 5.2053 7.75821C5.52507 7.62576 5.87694 7.5911 6.21641 7.65863C6.55587 7.72615 6.86769 7.89282 7.11244 8.13756C7.35718 8.38231 7.52385 8.69413 7.59137 9.03359C7.6589 9.37306 7.62424 9.72493 7.49179 10.0447C7.35934 10.3645 7.13503 10.6378 6.84725 10.8301C6.55946 11.0224 6.22112 11.125 5.875 11.125C5.41087 11.125 4.96575 10.9406 4.63756 10.6124C4.30937 10.2842 4.125 9.83913 4.125 9.375ZM6.3125 16.7578C5.96638 16.7578 5.62804 16.6552 5.34025 16.4629C5.05247 16.2706 4.82816 15.9973 4.69571 15.6775C4.56326 15.3577 4.5286 15.0059 4.59613 14.6664C4.66365 14.3269 4.83032 14.0151 5.07506 13.7704C5.31981 13.5256 5.63163 13.359 5.97109 13.2914C6.31056 13.2239 6.66243 13.2586 6.9822 13.391C7.30197 13.5235 7.57528 13.7478 7.76757 14.0356C7.95986 14.3233 8.0625 14.6617 8.0625 15.0078C8.0625 15.4719 7.87813 15.9171 7.54994 16.2452C7.22175 16.5734 6.77663 16.7578 6.3125 16.7578ZM8.5 5.875C8.5 5.52888 8.60264 5.19054 8.79493 4.90275C8.98722 4.61497 9.26053 4.39066 9.5803 4.25821C9.90007 4.12576 10.2519 4.0911 10.5914 4.15863C10.9309 4.22615 11.2427 4.39282 11.4874 4.63756C11.7322 4.8823 11.8989 5.19413 11.9664 5.53359C12.0339 5.87306 11.9992 6.22493 11.8668 6.5447C11.7343 6.86447 11.51 7.13778 11.2222 7.33007C10.9345 7.52236 10.5961 7.625 10.25 7.625C9.78587 7.625 9.34075 7.44063 9.01256 7.11244C8.68437 6.78425 8.5 6.33913 8.5 5.875ZM12 20.6953C11.4808 20.6953 10.9733 20.5414 10.5416 20.2529C10.1099 19.9645 9.7735 19.5545 9.57482 19.0749C9.37614 18.5952 9.32415 18.0674 9.42544 17.5582C9.52672 17.049 9.77673 16.5813 10.1438 16.2142C10.511 15.847 10.9787 15.597 11.4879 15.4958C11.9971 15.3945 12.5249 15.4464 13.0045 15.6451C13.4842 15.8438 13.8942 16.1803 14.1826 16.6119C14.471 17.0436 14.625 17.5511 14.625 18.0703C14.625 18.7665 14.3484 19.4342 13.8562 19.9265C13.3639 20.4188 12.6962 20.6953 12 20.6953V20.6953ZM15.9375 7.625C15.5914 7.625 15.253 7.52236 14.9653 7.33007C14.6775 7.13778 14.4532 6.86447 14.3207 6.5447C14.1883 6.22493 14.1536 5.87306 14.2211 5.53359C14.2886 5.19413 14.4553 4.8823 14.7001 4.63756C14.9448 4.39282 15.2566 4.22615 15.5961 4.15863C15.9356 4.0911 16.2874 4.12576 16.6072 4.25821C16.927 4.39066 17.2003 4.61497 17.3926 4.90275C17.5849 5.19054 17.6875 5.52888 17.6875 5.875C17.6875 6.33913 17.5031 6.78425 17.1749 7.11244C16.8467 7.44063 16.4016 7.625 15.9375 7.625Z" fill="#CCCCCC"/>
</svg>
