<svg width="64" height="64" viewBox="0 0 64 64" fill="none" xmlns="http://www.w3.org/2000/svg">
<path d="M63.8625 28.6993C62.2655 11.3735 46.6731 -1.44104 29.1055 0.130396C11.5345 1.70516 -1.46144 17.0799 0.132242 34.4057C0.652213 40.0489 2.69487 45.4224 6.03755 49.9902C5.79782 51.0989 5.72012 52.2642 5.82817 53.4527C6.11179 56.539 7.59747 59.329 10.0116 61.3099C12.1455 63.0645 14.7759 64 17.5209 64C17.8822 64 18.2434 63.9834 18.6047 63.9501C20.5631 63.7736 22.4032 63.1344 24.0003 62.099C26.6035 62.7615 29.2675 63.1011 31.9619 63.1011C32.9377 63.1011 33.9169 63.0578 34.896 62.9679C43.408 62.2055 51.1062 58.2203 56.5794 51.7481C62.0526 45.2759 64.639 37.0892 63.8658 28.696L63.8625 28.6993ZM18.4021 61.7527C15.8698 61.9791 13.3982 61.22 11.4466 59.6153C9.49165 58.0106 8.28971 55.75 8.06011 53.253C7.58403 48.0992 11.4534 43.5247 16.6801 43.0553C19.2124 42.8289 21.684 43.588 23.6356 45.1927C25.5905 46.7974 26.7925 49.058 27.0221 51.555C27.2517 54.052 26.4819 56.4891 24.8544 58.4134C23.227 60.3411 20.9344 61.5263 18.4021 61.7527ZM29.1055 50.2932C28.6125 47.6331 27.2045 45.246 25.0706 43.4948C22.6564 41.5105 19.604 40.5749 16.4775 40.8546C16.0892 40.8879 15.7078 40.9445 15.333 41.0144C13.9419 38.6406 13.1045 36.0404 12.8513 33.2671C12.3853 28.2232 13.9418 23.3025 17.2304 19.4138C20.5191 15.5252 25.1449 13.1314 30.2602 12.6719C35.3755 12.2125 40.3624 13.7473 44.3095 16.9901C48.2566 20.2328 50.6842 24.794 51.1468 29.8379C51.6127 34.8785 50.0561 39.7992 46.7675 43.6878C43.4788 47.5765 38.8532 49.9703 33.7379 50.4297C32.1813 50.5695 30.6283 50.523 29.1055 50.2932ZM54.8574 50.3365C49.7691 56.3559 42.6078 60.0614 34.6934 60.7706C31.8066 61.0303 28.9366 60.8771 26.1341 60.3211C26.2861 60.1613 26.4346 59.9982 26.5797 59.8251C28.3321 57.7542 29.2776 55.204 29.3046 52.5439C30.1893 52.6537 31.0806 52.7136 31.9787 52.7136C32.6338 52.7136 33.2887 52.6837 33.9438 52.6271C39.6533 52.1144 44.8194 49.4442 48.493 45.0995C52.1631 40.758 53.902 35.2647 53.382 29.6348C52.8621 24.0049 50.1507 18.9078 45.7478 15.2888C41.3415 11.6698 35.7739 9.95856 30.0643 10.4679C24.3548 10.9807 19.1855 13.6541 15.5153 17.9955C11.8451 22.337 10.1095 27.8303 10.6261 33.4635C10.8928 36.3767 11.737 39.1267 13.1348 41.6503C10.3999 42.7423 8.20529 44.8132 6.94925 47.3834C4.37978 43.4348 2.80296 38.9203 2.37078 34.2026C0.885148 18.0887 12.9727 3.78931 29.3147 2.32774C45.6567 0.866167 60.1551 12.7818 61.6373 28.8957C62.3565 36.6996 59.9492 44.3138 54.8609 50.3332L54.8574 50.3365Z" fill="#FFE629"/>
</svg>
