<svg width="41" height="40" viewBox="0 0 41 40" fill="none" xmlns="http://www.w3.org/2000/svg">
<mask id="mask0_108_2047" style="mask-type:alpha" maskUnits="userSpaceOnUse" x="0" y="0" width="41" height="40">
<path d="M27.1827 27.017C22.9618 31.2378 18.331 34.1914 14.287 35.5776C10.185 36.9836 6.96772 36.7 5.21764 34.9499C3.46755 33.1999 3.18395 29.9826 4.59 25.8806C5.97618 21.8366 8.92977 17.2058 13.1506 12.9849C17.3715 8.76408 22.0023 5.81049 26.0463 4.42431C30.1483 3.01826 33.3655 3.30187 35.1156 5.05195C36.8657 6.80204 37.1493 10.0193 35.7433 14.1213C34.3571 18.1653 31.4035 22.7961 27.1827 27.017Z" stroke="#F1F1F1" stroke-width="1.66667"/>
<path d="M25.7158 20.0009C25.7158 23.5031 25.0192 26.6328 23.9311 28.8559C22.816 31.134 21.4337 32.2085 20.1662 32.2085C18.8986 32.2085 17.5163 31.134 16.4012 28.8559C15.3131 26.6328 14.6165 23.5031 14.6165 20.0009C14.6165 16.4986 15.3131 13.369 16.4012 11.1459C17.5163 8.86779 18.8986 7.79329 20.1662 7.79329C21.4337 7.79329 22.816 8.86779 23.9311 11.1459C25.0192 13.369 25.7158 16.4986 25.7158 20.0009Z" stroke="#F1F1F1" stroke-width="1.66667"/>
<path d="M27.1833 12.9843C31.4042 17.2052 34.3578 21.836 35.744 25.88C37.15 29.982 36.8664 33.1993 35.1163 34.9494C33.3662 36.6994 30.149 36.983 26.047 35.577C22.003 34.1908 17.3722 31.2372 13.1513 27.0164C8.93047 22.7955 5.97687 18.1647 4.59069 14.1207C3.18465 10.0187 3.46825 6.80145 5.21833 5.05136C6.96842 3.30128 10.1857 3.01767 14.2877 4.42372C18.3317 5.8099 22.9625 8.76349 27.1833 12.9843Z" stroke="#F1F1F1" stroke-width="1.66667"/>
</mask>
<g mask="url(#mask0_108_2047)">
<rect x="0.166687" width="40" height="40.0035" fill="url(#paint0_linear_108_2047)"/>
</g>
<defs>
<linearGradient id="paint0_linear_108_2047" x1="40.1667" y1="40.0035" x2="-6.40251" y2="10.2987" gradientUnits="userSpaceOnUse">
<stop offset="0.0727574" stop-color="#FFE702"/>
<stop offset="0.333333" stop-color="#FF3DCF"/>
<stop offset="0.661458" stop-color="#14BCDF"/>
<stop offset="0.854167" stop-color="#49F0A1"/>
<stop offset="1" stop-color="#49E34B"/>
</linearGradient>
</defs>
</svg>
