<svg width="28" height="28" viewBox="0 0 28 28" fill="none" xmlns="http://www.w3.org/2000/svg">
<path d="M22.75 2.625H5.25C4.32174 2.625 3.4315 2.99375 2.77513 3.65013C2.11875 4.3065 1.75 5.19674 1.75 6.125V21.875C1.75 22.8033 2.11875 23.6935 2.77513 24.3499C3.4315 25.0063 4.32174 25.375 5.25 25.375H22.75C23.6783 25.375 24.5685 25.0063 25.2249 24.3499C25.8813 23.6935 26.25 22.8033 26.25 21.875V6.125C26.25 5.19674 25.8813 4.3065 25.2249 3.65013C24.5685 2.99375 23.6783 2.625 22.75 2.625ZM24.0625 7.875H3.9375C3.82147 7.875 3.71019 7.82891 3.62814 7.74686C3.54609 7.66481 3.5 7.55353 3.5 7.4375V6.125C3.5013 5.66127 3.68609 5.21691 4.014 4.889C4.34191 4.56109 4.78627 4.3763 5.25 4.375H22.75C23.2137 4.3763 23.6581 4.56109 23.986 4.889C24.3139 5.21691 24.4987 5.66127 24.5 6.125V7.4375C24.5 7.55353 24.4539 7.66481 24.3719 7.74686C24.2898 7.82891 24.1785 7.875 24.0625 7.875Z" fill="#B4B4B4"/>
</svg>
