<svg width="1080" height="720" viewBox="0 0 1080 720" fill="none" xmlns="http://www.w3.org/2000/svg">
<rect width="1080" height="720" fill="url(#paint0_radial_603_552)"/>
<g clip-path="url(#clip0_603_552)">
<path d="M642.134 298.052H749.854V317.934H707.122V422.532H685.755V317.934H642.134V298.052Z" fill="white"/>
<path d="M464.975 298.052V317.934H378.63V349.919H448.068V369.801H378.63V402.65H464.975V422.532H357.264V317.934H357.255V298.052H464.975Z" fill="white"/>
<path d="M518.763 298.104H490.801L590.952 422.584H618.995L568.913 360.387L618.915 298.199L590.952 298.242L554.914 343.001L518.763 298.104Z" fill="white"/>
<path d="M547.455 387.021L533.453 369.611L490.721 422.679H518.762L547.455 387.021Z" fill="white"/>
<path fill-rule="evenodd" clip-rule="evenodd" d="M358.013 422.532L257.727 298H231.02V422.48H252.385V324.608L331.172 422.532H358.013Z" fill="white"/>
<path d="M754.657 421.772C753.092 421.772 751.761 421.23 750.646 420.146C749.532 419.061 748.981 417.749 748.995 416.194C748.981 414.682 749.532 413.384 750.646 412.3C751.761 411.215 753.092 410.673 754.657 410.673C756.162 410.673 757.479 411.215 758.593 412.3C759.723 413.384 760.287 414.682 760.302 416.194C760.287 417.221 760.026 418.163 759.505 419.004C758.97 419.86 758.29 420.531 757.435 421.016C756.595 421.515 755.669 421.772 754.657 421.772Z" fill="white"/>
<path d="M791.123 369.332H800.591V405.809C800.577 409.161 799.852 412.028 798.434 414.439C797.001 416.85 795.017 418.69 792.47 419.989C789.936 421.272 786.968 421.929 783.595 421.929C780.511 421.929 777.747 421.372 775.285 420.288C772.824 419.204 770.87 417.578 769.437 415.438C767.988 413.298 767.279 410.63 767.279 407.435H776.762C776.777 408.833 777.095 410.045 777.703 411.058C778.31 412.071 779.15 412.841 780.222 413.384C781.307 413.926 782.553 414.197 783.956 414.197C785.477 414.197 786.78 413.883 787.836 413.241C788.893 412.613 789.704 411.672 790.269 410.416C790.818 409.175 791.109 407.635 791.123 405.809V369.332Z" fill="white"/>
<path d="M839.548 383.597C839.317 381.386 838.303 379.66 836.537 378.433C834.756 377.192 832.455 376.579 829.631 376.579C827.649 376.579 825.941 376.878 824.522 377.463C823.103 378.062 822.003 378.861 821.249 379.874C820.497 380.887 820.121 382.043 820.091 383.341C820.091 384.425 820.351 385.366 820.858 386.151C821.365 386.95 822.045 387.62 822.929 388.162C823.797 388.719 824.767 389.175 825.825 389.546C826.895 389.917 827.967 390.231 829.038 390.488L833.974 391.7C835.958 392.157 837.884 392.77 839.722 393.555C841.56 394.325 843.225 395.309 844.687 396.493C846.15 397.678 847.308 399.104 848.162 400.773C849.016 402.442 849.451 404.396 849.451 406.65C849.451 409.689 848.669 412.357 847.09 414.668C845.512 416.964 843.24 418.762 840.257 420.06C837.289 421.344 833.699 422 829.472 422C825.39 422 821.828 421.372 818.832 420.117C815.821 418.876 813.475 417.05 811.781 414.653C810.088 412.257 809.176 409.332 809.045 405.894H818.427C818.557 407.692 819.136 409.19 820.121 410.402C821.119 411.601 822.422 412.485 824.015 413.084C825.622 413.669 827.416 413.969 829.4 413.969C831.471 413.969 833.294 413.655 834.872 413.041C836.435 412.428 837.666 411.572 838.55 410.459C839.447 409.361 839.896 408.063 839.91 406.579C839.896 405.224 839.49 404.097 838.708 403.212C837.912 402.328 836.812 401.586 835.407 400.987C833.99 400.388 832.339 399.846 830.457 399.375L824.464 397.863C820.135 396.764 816.704 395.095 814.198 392.856C811.681 390.616 810.435 387.649 810.435 383.926C810.435 380.873 811.274 378.191 812.969 375.894C814.647 373.597 816.95 371.814 819.86 370.545C822.784 369.261 826.085 368.633 829.761 368.633C833.497 368.633 836.768 369.261 839.592 370.545C842.414 371.814 844.63 373.583 846.236 375.837C847.843 378.091 848.683 380.673 848.727 383.597H839.548Z" fill="white"/>
</g>
<defs>
<radialGradient id="paint0_radial_603_552" cx="0" cy="0" r="1" gradientUnits="userSpaceOnUse" gradientTransform="translate(540 360) rotate(90) scale(613.5 920.25)">
<stop stop-color="#222222"/>
<stop offset="1"/>
</radialGradient>
<clipPath id="clip0_603_552">
<rect width="718.471" height="124" fill="white" transform="translate(181 298)"/>
</clipPath>
</defs>
</svg>
