<svg width="113" height="112" viewBox="0 0 113 112" fill="none" xmlns="http://www.w3.org/2000/svg">
<g clip-path="url(#clip0_1_3298)">
<path d="M53.1692 0.0877288C52.9286 0.109602 52.1631 0.186157 51.4741 0.240839C35.5834 1.67351 20.6989 10.2477 11.2717 23.4261C6.02225 30.7535 2.66477 39.0652 1.39614 47.869C0.947749 50.9421 0.893066 51.8499 0.893066 56.0166C0.893066 60.1834 0.947749 61.0912 1.39614 64.1643C4.43647 85.1732 19.3866 102.825 39.6627 109.365C43.2936 110.535 47.1214 111.333 51.4741 111.814C53.1692 112 60.4966 112 62.1918 111.814C69.7051 110.983 76.0701 109.124 82.3476 105.92C83.31 105.427 83.4959 105.296 83.3647 105.187C83.2772 105.121 79.176 99.6202 74.2547 92.9709L65.3087 80.8861L54.0988 64.2955C47.9307 55.1745 42.8562 47.7159 42.8124 47.7159C42.7687 47.705 42.7249 55.0761 42.703 64.0768C42.6702 79.8362 42.6593 80.4705 42.4624 80.8423C42.1781 81.3782 41.9594 81.597 41.5 81.8376C41.1501 82.0125 40.8439 82.0454 39.1925 82.0454H37.3004L36.7974 81.7282C36.4693 81.5204 36.2287 81.247 36.0646 80.9298L35.835 80.4377L35.8568 58.5102L35.8896 36.5717L36.2287 36.1451C36.4037 35.9155 36.7755 35.6202 37.038 35.478C37.4864 35.2593 37.6614 35.2374 39.5534 35.2374C41.7844 35.2374 42.1562 35.3249 42.7359 35.9592C42.8999 36.1342 48.9696 45.2771 56.2314 56.2901C63.4932 67.303 73.4235 82.3406 78.3011 89.7227L87.1596 103.142L87.608 102.846C91.578 100.265 95.7775 96.5908 99.1022 92.7631C106.178 84.6373 110.739 74.7289 112.27 64.1643C112.718 61.0912 112.773 60.1834 112.773 56.0166C112.773 51.8499 112.718 50.9421 112.27 47.869C109.229 26.8601 94.2793 9.20871 74.0031 2.66873C70.4269 1.50947 66.621 0.711105 62.3558 0.229902C61.3059 0.120538 54.0769 0.000237383 53.1692 0.0877288ZM76.0701 33.925C76.5951 34.1875 77.0216 34.6906 77.1747 35.2155C77.2622 35.4999 77.284 41.5806 77.2622 55.2839L77.2294 74.9476L73.7625 69.6325L70.2847 64.3174V50.0235C70.2847 40.7822 70.3285 35.5874 70.3941 35.3358C70.5691 34.7234 70.9519 34.2422 71.4768 33.9579C71.9252 33.7282 72.0892 33.7063 73.8063 33.7063C75.4249 33.7063 75.7092 33.7282 76.0701 33.925Z" fill="white"/>
<path d="M86.6127 103.382C86.2299 103.623 86.1096 103.787 86.4487 103.601C86.6893 103.459 87.083 103.163 87.0174 103.152C86.9846 103.152 86.7986 103.262 86.6127 103.382ZM85.8581 103.874C85.6613 104.027 85.6612 104.038 85.9018 103.918C86.0331 103.852 86.1425 103.776 86.1425 103.754C86.1425 103.666 86.0878 103.688 85.8581 103.874ZM85.3113 104.202C85.1144 104.355 85.1144 104.366 85.355 104.246C85.4863 104.18 85.5956 104.104 85.5956 104.082C85.5956 103.994 85.541 104.016 85.3113 104.202ZM84.7645 104.53C84.5676 104.683 84.5676 104.694 84.8082 104.574C84.9394 104.508 85.0488 104.432 85.0488 104.41C85.0488 104.323 84.9941 104.344 84.7645 104.53ZM83.9333 104.968C83.5177 105.187 83.5396 105.274 83.9552 105.066C84.1411 104.968 84.2833 104.869 84.2833 104.847C84.2833 104.771 84.2723 104.782 83.9333 104.968Z" fill="white"/>
</g>
<defs>
<clipPath id="clip0_1_3298">
<rect width="112" height="112" fill="white" transform="translate(0.833008)"/>
</clipPath>
</defs>
</svg>
