<svg width="40" height="40" viewBox="0 0 40 40" fill="none" xmlns="http://www.w3.org/2000/svg">
<mask id="mask0_54_3963" style="mask-type:alpha" maskUnits="userSpaceOnUse" x="0" y="0" width="40" height="40">
<path d="M1.47382 34.4876V34.4876C5.40594 34.4876 8.96069 32.147 10.5145 28.5349L11.8937 25.3286C13.2845 22.0954 16.4663 20.0003 19.9859 20V20" stroke="#F1F1F1" stroke-width="1.66667"/>
<path d="M38.4985 34.4876V34.4876C34.5664 34.4876 31.0117 32.147 29.4579 28.5349L28.0786 25.3286C26.6878 22.0954 23.5061 20.0003 19.9865 20V20" stroke="#F1F1F1" stroke-width="1.66667"/>
<path d="M1.47382 5.51245V5.51245C5.40594 5.51245 8.96069 7.85301 10.5145 11.4651L11.8937 14.6714C13.2845 17.9046 16.4663 19.9997 19.9859 20V20" stroke="#F1F1F1" stroke-width="1.66667"/>
<path d="M38.4985 5.51245V5.51245C34.5664 5.51245 31.0117 7.85301 29.4579 11.4651L28.0786 14.6714C26.6878 17.9046 23.5061 19.9997 19.9865 20V20" stroke="#F1F1F1" stroke-width="1.66667"/>
<path d="M1.47382 27.1159H3.22435C6.23004 27.1159 9.08959 25.8191 11.0699 23.558V23.558C13.05 21.2969 15.9094 20.0002 18.915 20L19.9859 20" stroke="#F1F1F1" stroke-width="1.66667"/>
<path d="M38.4985 27.1159H36.748C33.7423 27.1159 30.8828 25.8191 28.9025 23.558V23.558C26.9223 21.2969 24.0629 20.0002 21.0574 20L19.9865 20" stroke="#F1F1F1" stroke-width="1.66667"/>
<path d="M1.47382 12.8841H3.22435C6.23004 12.8841 9.08959 14.1809 11.0699 16.442V16.442C13.05 18.7031 15.9094 19.9998 18.915 20L19.9859 20" stroke="#F1F1F1" stroke-width="1.66667"/>
<path d="M38.4985 12.8841H36.748C33.7423 12.8841 30.8828 14.1809 28.9025 16.442V16.442C26.9223 18.7031 24.0629 19.9998 21.0574 20L19.9865 20" stroke="#F1F1F1" stroke-width="1.66667"/>
<path d="M1.40869 20H38.5916" stroke="#F1F1F1" stroke-width="1.66667"/>
</mask>
<g mask="url(#mask0_54_3963)">
<rect width="40" height="40.0035" fill="url(#paint0_linear_54_3963)"/>
</g>
<defs>
<linearGradient id="paint0_linear_54_3963" x1="40" y1="40.0035" x2="-6.5692" y2="10.2987" gradientUnits="userSpaceOnUse">
<stop offset="0.0727574" stop-color="#FFE702"/>
<stop offset="0.333333" stop-color="#FF3DCF"/>
<stop offset="0.661458" stop-color="#14BCDF"/>
<stop offset="0.854167" stop-color="#49F0A1"/>
<stop offset="1" stop-color="#49E34B"/>
</linearGradient>
</defs>
</svg>
