<svg width="113" height="76" viewBox="0 0 113 76" fill="none" xmlns="http://www.w3.org/2000/svg">
<path d="M63.553 75.3337H104.993C106.315 75.3337 107.581 74.8691 108.726 74.2137C109.872 73.5584 111.052 72.7355 111.713 71.6002C112.374 70.4652 112.834 69.1772 112.833 67.8667C112.832 66.556 112.375 65.2685 111.713 64.134L83.713 15.9737C83.0521 14.8387 82.2446 14.0156 81.0998 13.3602C79.9547 12.7051 78.3151 12.2402 76.993 12.2402C75.6709 12.2402 74.4046 12.7051 73.2598 13.3602C72.1147 14.0156 71.3072 14.8387 70.6463 15.9737L63.553 28.2937L49.3663 4.39945C48.7048 3.26465 47.8984 2.06884 46.753 1.41375C45.6077 0.758389 44.3421 0.666992 43.0198 0.666992C41.6974 0.666992 40.4316 0.758389 39.2863 1.41375C38.1412 2.06884 36.9612 3.26465 36.2998 4.39945L1.57969 64.134C0.91775 65.2685 0.833592 66.556 0.833011 67.8667C0.83243 69.1772 0.918754 70.4649 1.57969 71.6002C2.24062 72.7353 3.42114 73.5584 4.56634 74.2137C5.71156 74.8691 6.97724 75.3337 8.29969 75.3337H34.433C44.788 75.3337 52.325 70.6886 57.5798 61.8937L70.273 39.867L76.993 28.2937L97.5263 63.387H70.273L63.553 75.3337ZM34.0598 63.387H15.7663L43.0198 16.347L56.833 39.867L47.6831 55.8175C44.1937 61.5239 40.215 63.387 34.0598 63.387Z" fill="#00DC82"/>
</svg>
