<svg width="64" height="64" viewBox="0 0 64 64" fill="none" xmlns="http://www.w3.org/2000/svg">
<path d="M32.2163 62.4327C48.9043 62.4327 62.4327 48.9043 62.4327 32.2163C62.4327 15.5283 48.9043 2 32.2163 2C15.5283 2 2 15.5283 2 32.2163C2 48.9043 15.5283 62.4327 32.2163 62.4327Z" fill="white"/>
<path d="M23.409 40.2466C21.6098 40.2466 20.1358 39.8232 18.9867 38.9766C17.8527 38.1148 17.2858 36.8902 17.2858 35.3026C17.2858 34.97 17.3236 34.5617 17.3991 34.0779C17.5958 32.9894 17.8755 31.6815 18.2383 30.1545C19.2664 25.9967 21.9199 23.9178 26.1986 23.9178C27.3628 23.9178 28.406 24.1144 29.3283 24.5074C30.2506 24.8854 30.9763 25.46 31.5055 26.2311C32.0346 26.987 32.2993 27.8942 32.2993 28.9525C32.2993 29.27 32.2615 29.6707 32.1858 30.1545C31.9591 31.5001 31.6869 32.808 31.3694 34.0779C30.8402 36.1493 29.9255 37.699 28.6252 38.7271C27.325 39.7401 25.5863 40.2466 23.409 40.2466ZM23.7266 36.9808C24.5733 36.9808 25.2914 36.7314 25.8811 36.2325C26.4859 35.7335 26.9168 34.97 27.1738 33.9419C27.5215 32.5207 27.7862 31.2808 27.9676 30.2225C28.028 29.905 28.0583 29.58 28.0583 29.2473C28.0583 27.8715 27.3401 27.1835 25.9038 27.1835C25.057 27.1835 24.3314 27.433 23.7266 27.9319C23.137 28.431 22.7136 29.1945 22.4566 30.2225C22.1844 31.2355 21.9122 32.4754 21.6402 33.9419C21.5796 34.2442 21.5494 34.5617 21.5494 34.8943C21.5494 36.2854 22.2752 36.9808 23.7266 36.9808Z" fill="black"/>
<path d="M33.3408 40.0196C33.1745 40.0196 33.0459 39.9666 32.9552 39.8608C32.8796 39.7398 32.8569 39.6038 32.8872 39.4526L36.0169 24.7113C36.0471 24.545 36.1302 24.4089 36.2663 24.303C36.4024 24.1972 36.546 24.1443 36.6972 24.1443H42.7298C44.408 24.1443 45.7536 24.492 46.7666 25.1875C47.7948 25.8831 48.3089 26.8884 48.3089 28.2038C48.3089 28.5817 48.2635 28.9749 48.1728 29.3831C47.7948 31.1218 47.0313 32.407 45.8822 33.2386C44.7483 34.0701 43.1909 34.4859 41.2103 34.4859H38.1487L37.1055 39.4526C37.0751 39.6189 36.992 39.7549 36.856 39.8608C36.7199 39.9666 36.5762 40.0196 36.4251 40.0196H33.3408ZM41.3691 31.3562C42.004 31.3562 42.5559 31.1823 43.0246 30.8345C43.5084 30.4868 43.826 29.9879 43.9772 29.3377C44.0225 29.0807 44.0452 28.8539 44.0452 28.6574C44.0452 28.2189 43.9167 27.8863 43.6597 27.6595C43.4026 27.4176 42.9642 27.2967 42.3443 27.2967H39.6227L38.761 31.3562H41.3691Z" fill="black"/>
</svg>
