<svg width="64" height="51" viewBox="0 0 64 51" fill="none" xmlns="http://www.w3.org/2000/svg">
<path d="M53.6556 42.5892C53.6556 43.3448 53.1444 43.8892 52.4111 43.8892C51.6556 43.8892 51.1667 43.3114 51.1667 42.5892C51.1667 41.867 51.6556 41.2892 52.4111 41.2892C53.1444 41.2892 53.6556 41.867 53.6556 42.5892ZM19.1222 41.2892C18.3333 41.2892 17.8778 41.867 17.8778 42.5892C17.8778 43.3114 18.3333 43.8892 19.1222 43.8892C19.8444 43.8892 20.3333 43.3448 20.3333 42.5892C20.3222 41.867 19.8444 41.2892 19.1222 41.2892ZM32.1778 41.2559C31.5778 41.2559 31.2111 41.6448 31.1222 42.2225H33.2444C33.1444 41.5892 32.7556 41.2559 32.1778 41.2559ZM44.1556 41.2892C43.4 41.2892 42.9444 41.867 42.9444 42.5892C42.9444 43.3114 43.4 43.8892 44.1556 43.8892C44.9111 43.8892 45.4 43.3448 45.4 42.5892C45.4 41.867 44.9111 41.2892 44.1556 41.2892ZM55.9222 44.1892C55.9222 44.2225 55.9556 44.2448 55.9556 44.3114C55.9556 44.3448 55.9222 44.367 55.9222 44.4337C55.8889 44.467 55.8889 44.4892 55.8667 44.5225C55.8333 44.5559 55.8111 44.5781 55.7444 44.5781C55.7111 44.6114 55.6889 44.6114 55.6222 44.6114C55.5889 44.6114 55.5667 44.6114 55.5 44.5781C55.4667 44.5781 55.4444 44.5448 55.4111 44.5225C55.3778 44.4892 55.3556 44.467 55.3556 44.4337C55.3222 44.3781 55.3222 44.3448 55.3222 44.3114C55.3222 44.2559 55.3222 44.2225 55.3556 44.1892C55.3556 44.1337 55.3889 44.1003 55.4111 44.067C55.4444 44.0337 55.4667 44.0337 55.5 44.0114C55.5556 43.9781 55.5889 43.9781 55.6222 43.9781C55.6778 43.9781 55.7111 43.9781 55.7444 44.0114C55.8 44.0448 55.8333 44.0448 55.8667 44.067C55.9 44.0892 55.8889 44.1337 55.9222 44.1892ZM55.6778 44.3448C55.7333 44.3448 55.7333 44.3114 55.7667 44.3114C55.8 44.2781 55.8 44.2559 55.8 44.2225C55.8 44.1892 55.8 44.167 55.7667 44.1337C55.7333 44.1337 55.7111 44.1003 55.6444 44.1003H55.4667V44.4892H55.5556V44.3337H55.5889L55.7111 44.4892H55.8L55.6778 44.3448ZM64 6.00033V45.1114C64 48.0559 61.6111 50.4448 58.6667 50.4448H5.33333C2.38889 50.4448 0 48.0559 0 45.1114V6.00033C0 3.05588 2.38889 0.666992 5.33333 0.666992H58.6667C61.6111 0.666992 64 3.05588 64 6.00033ZM7.11111 21.5114C7.11111 30.0114 14.0111 36.9003 22.5 36.9003C25.5222 36.9003 28.4889 35.9892 31 34.3337C22.9 27.7448 22.9556 15.3114 31 8.72255C28.4889 7.05588 25.5222 6.15588 22.5 6.15588C14.0111 6.14477 7.11111 13.0448 7.11111 21.5114ZM32 33.6003C39.8333 27.4892 39.8 15.5781 32 9.43366C24.2 15.5781 24.1667 27.5003 32 33.6003ZM16.1889 42.0781C16.1889 41.1114 15.5556 40.4781 14.5556 40.4448C14.0444 40.4448 13.5 40.6003 13.1333 41.167C12.8667 40.7114 12.4111 40.4448 11.7778 40.4448C11.3556 40.4448 10.9333 40.6003 10.6 41.0448V40.5559H9.68889V44.6337H10.6C10.6 42.5337 10.3222 41.2781 11.6 41.2781C12.7333 41.2781 12.5111 42.4114 12.5111 44.6337H13.3889C13.3889 42.6003 13.1111 41.2781 14.3889 41.2781C15.5222 41.2781 15.3 42.3892 15.3 44.6337H16.2111V42.0781H16.1889ZM21.1778 40.5559H20.3V41.0448C20 40.6781 19.5778 40.4448 19 40.4448C17.8556 40.4448 16.9778 41.3559 16.9778 42.5892C16.9778 43.8337 17.8556 44.7337 19 44.7337C19.5778 44.7337 20 44.5225 20.3 44.1337V44.6448H21.1778V40.5559ZM25.6778 43.4003C25.6778 41.7337 23.1333 42.4892 23.1333 41.7114C23.1333 41.0781 24.4556 41.1781 25.1889 41.5892L25.5556 40.867C24.5111 40.1892 22.2 40.2003 22.2 41.7781C22.2 43.367 24.7444 42.7003 24.7444 43.4448C24.7444 44.1448 23.2444 44.0892 22.4444 43.5337L22.0556 44.2337C23.3 45.0781 25.6778 44.9003 25.6778 43.4003ZM29.6111 44.4337L29.3667 43.6781C28.9444 43.9114 28.0111 44.167 28.0111 43.2225V41.3781H29.4667V40.5559H28.0111V39.3114H27.1V40.5559H26.2556V41.367H27.1V43.2225C27.1 45.1781 29.0222 44.8225 29.6111 44.4337ZM31.0889 42.9448H34.1444C34.1444 41.1448 33.3222 40.4337 32.2111 40.4337C31.0333 40.4337 30.1889 41.3114 30.1889 42.5781C30.1889 44.8559 32.7 45.2337 33.9444 44.1559L33.5222 43.4892C32.6556 44.2003 31.3444 44.1337 31.0889 42.9448ZM37.6556 40.5559C37.1444 40.3337 36.3667 40.3559 35.9667 41.0448V40.5559H35.0556V44.6337H35.9667V42.3337C35.9667 41.0448 37.0222 41.2114 37.3889 41.4003L37.6556 40.5559ZM38.8333 42.5892C38.8333 41.3225 40.1222 40.9114 41.1333 41.6559L41.5556 40.9337C40.2667 39.9225 37.9222 40.4781 37.9222 42.6003C37.9222 44.8003 40.4111 45.2448 41.5556 44.267L41.1333 43.5448C40.1111 44.267 38.8333 43.8337 38.8333 42.5892ZM46.2444 40.5559H45.3333V41.0448C44.4111 39.8225 42.0111 40.5114 42.0111 42.5892C42.0111 44.7225 44.5 45.3337 45.3333 44.1337V44.6448H46.2444V40.5559ZM49.9889 40.5559C49.7222 40.4225 48.7667 40.2337 48.3 41.0448V40.5559H47.4222V44.6337H48.3V42.3337C48.3 41.1114 49.3 41.1892 49.7222 41.4003L49.9889 40.5559ZM54.4667 38.9003H53.5889V41.0448C52.6778 39.8337 50.2667 40.4781 50.2667 42.5892C50.2667 44.7448 52.7667 45.3225 53.5889 44.1337V44.6448H54.4667V38.9003ZM55.3111 30.5559V31.067H55.4V30.5559H55.6111V30.467H55.1V30.5559H55.3111ZM56.0444 44.3114C56.0444 44.2559 56.0444 44.1892 56.0111 44.1337C55.9778 44.1003 55.9556 44.0448 55.9222 44.0114C55.8889 43.9781 55.8333 43.9559 55.8 43.9225C55.7444 43.9225 55.6778 43.8892 55.6222 43.8892C55.5889 43.8892 55.5333 43.9225 55.4667 43.9225C55.4111 43.9559 55.3778 43.9781 55.3444 44.0114C55.2889 44.0448 55.2556 44.1003 55.2556 44.1337C55.2222 44.1892 55.2222 44.2559 55.2222 44.3114C55.2222 44.3448 55.2222 44.4003 55.2556 44.467C55.2556 44.5003 55.2889 44.5559 55.3444 44.5892C55.3778 44.6225 55.4 44.6448 55.4667 44.6781C55.5222 44.7114 55.5889 44.7114 55.6222 44.7114C55.6778 44.7114 55.7444 44.7114 55.8 44.6781C55.8333 44.6448 55.8889 44.6225 55.9222 44.5892C55.9556 44.5559 55.9778 44.5003 56.0111 44.467C56.0444 44.4003 56.0444 44.3448 56.0444 44.3114ZM56.4 30.4559H56.2444L56.0667 30.8448L55.8889 30.4559H55.7333V31.0559H55.8222V30.6003L56 30.9892H56.1222L56.2778 30.6003V31.0559H56.4V30.4559ZM56.8889 21.5114C56.8889 13.0448 49.9889 6.14477 41.5 6.14477C38.4778 6.14477 35.5111 7.05588 33 8.71144C41.0111 15.3003 41.1333 27.767 33 34.3225C35.5111 35.9892 38.5 36.8892 41.5 36.8892C49.9889 36.9003 56.8889 30.0114 56.8889 21.5114Z" fill="white"/>
</svg>
