<svg width="64" height="64" viewBox="0 0 64 64" fill="none" xmlns="http://www.w3.org/2000/svg">
<path fill-rule="evenodd" clip-rule="evenodd" d="M64 32C64 49.7334 49.7334 64 32 64C14.2666 64 0 49.7334 0 32C0 14.2666 14.2666 0 32 0C49.7334 0 64 14.2666 64 32ZM32.4 30.1335C38 30.8 40.8 32.4 40.8 37.0666C40.8 40.6666 38.1335 43.4666 34.1335 44.1335V47.3335C34 48 33.6 48.4 33.0666 48.4H31.0666C30.4 48.2666 30 47.8666 30 47.3335V44.1335C25.6 43.4666 23.4666 41.0666 22.9335 37.7335V37.6C22.9335 37.0666 23.3335 36.6666 23.8666 36.6666H26.1335C26.5335 36.6666 26.9335 36.9335 27.0666 37.4666C27.4666 39.4666 28.6666 40.9335 32.1335 40.9335C34.6666 40.9335 36.5335 39.4669 36.5335 37.3335C36.5335 35.2 35.3335 34.4 31.6 33.7335C26 33.0666 23.3335 31.3335 23.3335 26.9335C23.3335 23.6 25.8666 20.9335 29.8666 20.4V17.3335C30 16.6666 30.4 16.2666 30.9335 16.2666H32.9335C33.6 16.4 34 16.8 34 17.3335V20.5335C37.0666 20.8 39.4666 23.0666 40 26V26.1335C40 26.6666 39.6 27.0666 39.0666 27.0666H36.9335C36.5335 27.0666 36.1335 26.8 36 26.4C35.3335 24.4 34 23.6 31.6 23.6C28.9335 23.6 27.6 24.7997 27.6 26.6666C27.6 28.5335 28.4 29.6 32.4 30.1335Z" fill="white"/>
</svg>
