<svg width="64" height="56" viewBox="0 0 64 56" fill="none" xmlns="http://www.w3.org/2000/svg">
<path fill-rule="evenodd" clip-rule="evenodd" d="M0.0479773 24.7859L11.7178 0.273445C11.756 0.190886 11.8173 0.121143 11.8942 0.0726297C11.9712 0.0241164 12.0605 -0.00109516 12.1515 3.64904e-05H51.8523C51.9428 -0.000201943 52.0315 0.0256319 52.1077 0.0744504C52.184 0.123269 52.2445 0.193007 52.2822 0.275331L63.952 24.7878C63.9964 24.879 64.0105 24.982 63.9922 25.0817C63.9739 25.1815 63.9241 25.2727 63.8502 25.3422L32.3328 55.5416C32.2433 55.6274 32.124 55.6753 32 55.6753C31.876 55.6753 31.7567 55.6274 31.6672 55.5416L0.149798 25.3403C0.0758906 25.2708 0.0261386 25.1796 0.00781828 25.0798C-0.0105021 24.9801 0.00357023 24.8771 0.0479773 24.7859ZM32.0461 27.3877C34.6539 27.3877 35.8229 27.3179 36.0492 27.301L36.0416 27.2991C44.0421 26.9446 50.01 25.5493 50.01 23.8824C50.01 22.2156 44.0402 20.8202 36.0416 20.4639V25.9132C35.8172 25.9339 34.5709 26.0376 32.0819 26.0376C30.0078 26.0376 28.5069 25.949 27.9827 25.9113V20.4601C19.9671 20.8183 13.9842 22.2118 13.9842 23.8824C13.9842 25.553 19.9671 26.9484 27.9827 27.301C28.4993 27.3255 29.972 27.3877 32.0461 27.3877ZM36.0492 19.8983V19.9001L36.0473 19.8982C36.0479 19.8982 36.0485 19.8982 36.0492 19.8983ZM36.0492 15.0221V19.8983C45.1047 20.317 51.9088 22.112 51.9088 24.2633C51.9088 26.4147 45.0981 28.2098 36.0473 28.6265V44.2636H27.9808V28.6322C18.9093 28.2136 12.0873 26.4185 12.0873 24.2652C12.0873 22.1119 18.9093 20.3149 27.9808 19.8982V15.0221H16.8201V7.5835H47.2118V15.0221H36.0492Z" fill="white"/>
</svg>
