<svg width="64" height="51" viewBox="0 0 64 51" fill="none" xmlns="http://www.w3.org/2000/svg">
<path d="M52.2333 22.7001C52.2333 22.7001 53.0778 26.8334 53.2667 27.7001H49.5556C49.9222 26.7112 51.3333 22.8668 51.3333 22.8668C51.3111 22.9001 51.7 21.8557 51.9222 21.2112L52.2333 22.7001ZM64 5.889V45.0001C64 47.9446 61.6111 50.3334 58.6667 50.3334H5.33333C2.38889 50.3334 0 47.9446 0 45.0001V5.889C0 2.94455 2.38889 0.555664 5.33333 0.555664H58.6667C61.6111 0.555664 64 2.94455 64 5.889ZM16.9444 33.8001L23.9667 16.5557H19.2444L14.8778 28.3334L14.4 25.9446L12.8444 18.0112C12.5889 16.9112 11.8 16.6001 10.8222 16.5557H3.63333L3.55556 16.9001C5.31111 17.3446 6.87778 17.989 8.24444 18.8001L12.2222 33.8001H16.9444ZM27.4333 33.8223L30.2333 16.5557H25.7667L22.9778 33.8223H27.4333ZM42.9778 28.1779C43 26.2112 41.8 24.7112 39.2333 23.4779C37.6667 22.689 36.7111 22.1557 36.7111 21.3446C36.7333 20.6112 37.5222 19.8557 39.2778 19.8557C40.7333 19.8223 41.8 20.1668 42.6 20.5112L43 20.7001L43.6111 16.9668C42.7333 16.6223 41.3333 16.2334 39.6111 16.2334C35.2 16.2334 32.1 18.589 32.0778 21.9446C32.0444 24.4223 34.3 25.8001 35.9889 26.6334C37.7111 27.4779 38.3 28.0334 38.3 28.7779C38.2778 29.9334 36.9 30.4668 35.6222 30.4668C33.8444 30.4668 32.8889 30.189 31.4333 29.5446L30.8444 29.2668L30.2222 33.1446C31.2667 33.6223 33.2 34.0446 35.2 34.0668C39.8889 34.0779 42.9444 31.7557 42.9778 28.1779ZM58.6667 33.8223L55.0667 16.5557H51.6111C50.5444 16.5557 49.7333 16.8668 49.2778 17.989L42.6444 33.8223H47.3333C47.3333 33.8223 48.1 31.689 48.2667 31.2334H54C54.1333 31.8446 54.5333 33.8223 54.5333 33.8223H58.6667Z" fill="white"/>
</svg>
