<svg width="64" height="50" viewBox="0 0 64 50" fill="none" xmlns="http://www.w3.org/2000/svg">
<path d="M38.4185 29.998H36.7031V31.5465H38.4185C38.9154 31.5465 39.3248 31.2016 39.3248 30.7724C39.3248 30.3433 38.9154 29.998 38.4185 29.998Z" fill="white"/>
<path d="M28.3386 35.1133V29.4297L26.2812 32.2656L28.3386 35.1133Z" fill="white"/>
<path d="M32.0121 16.1416H30.2969V17.6905H32.0121C32.5103 17.6905 32.9198 17.3446 32.9198 16.9164C32.9198 16.4873 32.5103 16.1416 32.0121 16.1416Z" fill="white"/>
<path d="M31.7141 29.9824H30V31.5309H31.7141C32.2121 31.5309 32.6215 31.1858 32.6215 30.7567C32.6215 30.3293 32.2121 29.9824 31.7141 29.9824Z" fill="white"/>
<path d="M8.29492 18.6447H9.90987L9.10271 16.2109L8.29492 18.6447Z" fill="white"/>
<path d="M18.8809 30.0244V31.2818H22.2874V33.1364H18.8809V34.5199H22.3762L24.0135 32.2661L22.3762 30.0244H18.8809Z" fill="white"/>
<path d="M60.5819 0H3.78761C1.69579 0 0 2.11973 0 4.73451V45.2655C0 47.8803 1.69579 50 3.78761 50H60.5819C62.6737 50 64.3695 47.8803 64.3695 45.2655V4.73451C64.3695 2.11973 62.6737 0 60.5819 0ZM40.3082 14.2054L42.3547 14.2752V16.1139L40.6741 16.141C40.6741 16.141 39.5784 16.141 39.445 17.9255C39.4295 18.1303 39.4224 18.3187 39.4235 18.4935C39.4295 21.2558 41.3417 20.3982 41.4042 20.3726L43.4616 14.2751H45.784L48.2724 21.6864V14.2751H50.6178L53.2177 19.6541V14.2751H54.8886V22.4463H52.5985L49.9659 16.9848V22.4463H48.5388H48.2722H46.7143L46.1274 20.732H43.0965L42.5203 22.4463H40.9935H40.7174H39.9204C39.9204 22.4463 37.6865 22.0457 37.6865 18.5889C37.6866 14.0531 40.2205 14.2332 40.3082 14.2054ZM35.4529 14.2754H37.1225V22.4742H35.4529V14.2754ZM22.5974 14.2754H27.7756V16.1831H24.2683V17.4411H27.6868V19.2942H24.2683V20.6775H27.7756V22.4464H22.5974V14.2754ZM14.4671 16.8328V22.4464H13.0183H12.7967H11.1926L10.6177 20.7322H7.58679L7.00041 22.4464H5.18618L7.94033 14.2752H10.2749L12.7967 21.7832V14.2752H15.4184L17.244 19.3497L19.059 14.2752H21.6805V22.4464H19.9977V16.8056L17.9187 22.4464H16.5582L14.4671 16.8328ZM31.6238 33.6613H29.9985V36.2887H28.3613H26.9113L25.1541 33.8683L23.3825 36.2887H22.3765H17.2103V28.103H22.3765H23.2504L25.1542 30.7027L27.0676 28.1165H28.3398V28.103H32.3658C32.3658 28.103 34.4677 27.8121 34.4677 30.5076C34.4676 32.9142 33.77 33.6613 31.6238 33.6613ZM34.6438 20.4284V22.4464H33.0186V20.8568C33.0186 20.8568 32.9513 19.6121 31.9119 19.6121H30.2962V22.4464H28.6374V14.2752H32.6644C32.6644 14.2752 34.7662 13.9571 34.7662 16.6668C34.7662 18.0773 33.8371 18.5746 33.8371 18.5746C33.8371 18.5746 34.6438 19.0457 34.6438 20.4284ZM41.0392 34.2824V36.302H39.4234V34.7116C39.4234 34.7116 39.3563 33.4679 38.3168 33.4679H36.7022V36.302H35.0421V28.1302H39.0691C39.0691 28.1302 41.171 27.8122 41.171 30.5226C41.171 31.9329 40.242 32.4312 40.242 32.4312C40.242 32.4312 41.0392 32.9007 41.0392 34.2824ZM47.0337 30.0242H43.5274V31.2816H46.9458V33.1363H43.5274V34.5197H47.0337V36.2887H41.8578V28.1302H47.0337V30.0242ZM50.9406 36.2854C50.8158 36.2854 50.74 36.275 50.74 36.275H47.7859V34.3934H50.3753C50.3753 34.3934 51.3044 34.5317 51.3044 33.7454C51.3044 33.0101 49.9 33.0671 49.9 33.0671C49.9 33.0671 47.6098 33.3164 47.6098 30.6335C47.6098 27.9644 49.6779 28.1165 49.6779 28.1165H52.8646V30.0244H50.2986C50.2986 30.0244 49.4127 29.8025 49.4127 30.6067C49.4127 31.2818 50.6178 31.1858 50.6178 31.1858C50.6178 31.1858 53.1515 30.9518 53.1515 33.4122C53.1515 36.0514 51.5191 36.2854 50.9406 36.2854ZM56.7923 36.2854C56.6673 36.2854 56.5916 36.275 56.5916 36.275H53.6377V34.3934H56.216C56.216 34.3934 57.156 34.5317 57.156 33.7454C57.156 33.0101 55.7518 33.0671 55.7518 33.0671C55.7518 33.0671 53.4613 33.3164 53.4613 30.6335C53.4613 27.9644 55.5294 28.1165 55.5294 28.1165H58.7055V30.0244H56.149C56.149 30.0244 55.2641 29.8025 55.2641 30.6067C55.2641 31.2818 56.4706 31.1858 56.4706 31.1858C56.4706 31.1858 59.0031 30.9518 59.0031 33.4122C59.0031 36.0514 57.3708 36.2854 56.7923 36.2854Z" fill="white"/>
<path d="M44.6233 16.2109L43.8047 18.6447H45.419L44.6233 16.2109Z" fill="white"/>
</svg>
