<svg width="64" height="50" viewBox="0 0 64 50" fill="none" xmlns="http://www.w3.org/2000/svg">
<path d="M62.3524 0H1.64759C0.736544 0 0 0.889271 0 1.98618V48.0125C0 49.1094 0.736544 50 1.64759 50H62.3524C63.2635 50 64 49.1107 64 48.0138V1.98618C64 0.889271 63.2635 0 62.3524 0ZM55.4572 18.1898C55.7677 18.1898 56.0261 18.5053 56.0261 18.8851C56.0261 19.2675 55.7677 19.5804 55.4572 19.5804C55.1365 19.5804 54.8782 19.2703 54.8782 18.8851C54.8782 18.4985 55.1331 18.1898 55.4572 18.1898ZM49.9581 18.3701H52.136C53.8323 18.3701 54.8023 19.3509 54.8023 21.0502C54.8023 22.4408 54.1915 23.3519 53.0856 23.6237L55.4572 27.4472H53.6499L51.6181 23.8H51.4278V27.4472H49.9603H49.9581V18.3701ZM44.8215 18.3701H48.9847V19.9082H46.289V21.9231H48.8873V23.4598H46.289V25.9104H48.9847V27.4472H44.8215V18.3701ZM38.5258 18.3673L40.5326 24.4638L42.5666 18.3673H44.1564L40.9031 27.6767H40.1167L36.9212 18.3687L38.5258 18.3673ZM29.6839 21.0611C30.2901 19.3277 31.7156 18.1119 33.3734 18.1119C35.5864 18.1119 37.379 20.2729 37.379 22.938C37.379 23.2727 37.3518 23.5992 37.2975 23.9133C37.2861 23.983 37.268 24.0527 37.2544 24.1237C37.2351 24.207 37.2215 24.2917 37.1977 24.3751C36.6946 26.3394 35.1705 27.7668 33.3734 27.7668C31.1626 27.7668 29.37 25.6058 29.37 22.9407C29.37 22.2741 29.4799 21.6403 29.6839 21.0611ZM27.0844 18.1679C27.7156 18.1679 28.247 18.3305 28.8907 18.7252V20.807C28.2822 20.0872 27.7507 19.7853 27.0493 19.7853C25.6725 19.7853 24.5904 21.1608 24.5904 22.9025C24.5904 24.7398 25.6385 26.0334 27.1173 26.0334C27.7824 26.0334 28.3026 25.7465 28.8895 25.0376V27.1194C28.2232 27.5018 27.6816 27.6494 27.0482 27.6494C24.8125 27.6494 23.0754 25.5812 23.0754 22.9148C23.0754 20.277 24.8589 18.1652 27.0844 18.1679ZM13.3473 26.3995C12.6232 27.1235 11.8006 27.4486 10.6629 27.4486H8.51785V18.3714H10.6708C13.0516 18.3714 14.7116 20.2374 14.7116 22.9162C14.7116 24.2507 14.2051 25.5389 13.3473 26.3995ZM16.8567 27.4458H15.3892V18.3687H16.8567V27.4458ZM20.0159 27.6671C18.8997 27.6671 18.0884 27.1358 17.4108 25.9378L18.3603 24.8354C18.6969 25.6236 19.2635 26.047 19.9626 26.047C20.6176 26.047 21.1025 25.5006 21.1025 24.7657C21.1025 24.3846 20.9564 24.0568 20.6618 23.8259C20.5144 23.7166 20.2221 23.5541 19.6465 23.3096C18.2674 22.7113 17.796 22.0706 17.796 20.8207C17.796 19.3358 18.8091 18.2212 20.1416 18.2212C20.9666 18.2212 21.7212 18.5613 22.3547 19.2266L21.5864 20.4409C21.2034 19.9232 20.8408 19.7047 20.4023 19.7047C19.7688 19.7047 19.3065 20.1391 19.3065 20.7114C19.3065 21.1991 19.566 21.4614 20.4487 21.8534C22.1167 22.5883 22.613 23.2413 22.613 24.6824C22.613 26.4418 21.5422 27.663 20.0159 27.6671ZM62.8499 48.6217H22.885C48.7365 43.2478 62.8499 31.242 62.8499 31.242V48.6217Z" fill="white"/>
</svg>
