<svg width="64" height="64" viewBox="0 0 64 64" fill="none" xmlns="http://www.w3.org/2000/svg">
<path d="M46.7091 21.8812C45.63 21.2644 44.2424 21.2644 43.0091 21.8812L34.3756 26.9693L28.5171 30.2073L20.0378 35.2954C18.9586 35.9121 17.5711 35.9121 16.3378 35.2954L9.70847 31.2866C8.62929 30.6698 7.85844 29.4363 7.85844 28.0486V20.3393C7.85844 19.1058 8.47512 17.8723 9.70847 17.1014L16.3378 13.2468C17.4169 12.63 18.8045 12.63 20.0378 13.2468L26.6671 17.2556C27.7463 17.8723 28.5171 19.1058 28.5171 20.4935V25.5817L34.3756 22.1896V16.9472C34.3756 15.7137 33.7589 14.4802 32.5256 13.7093L20.192 6.46256C19.1128 5.84581 17.7253 5.84581 16.4919 6.46256L3.85003 13.8635C2.61668 14.4802 2 15.7137 2 16.9472L2 31.4407C2 32.6742 2.61668 33.9077 3.85003 34.6787L16.3378 41.9254C17.4169 42.5422 18.8045 42.5422 20.0378 41.9254L28.5171 36.9915L34.3756 33.5994L42.8549 28.6654C43.9341 28.0486 45.3216 28.0486 46.555 28.6654L53.1843 32.5201C54.2635 33.1368 55.0343 34.3703 55.0343 35.758V43.4673C55.0343 44.7008 54.4176 45.9343 53.1843 46.7052L46.7091 50.5598C45.63 51.1766 44.2424 51.1766 43.0091 50.5598L36.3798 46.7052C35.3006 46.0884 34.5298 44.855 34.5298 43.4673V38.5333L28.6713 41.9254V47.0136C28.6713 48.2471 29.288 49.4805 30.5214 50.2515L43.0091 57.4982C44.0883 58.115 45.4758 58.115 46.7091 57.4982L59.1969 50.2515C60.2761 49.6347 61.0469 48.4012 61.0469 47.0136V32.3659C61.0469 31.1324 60.4302 29.8989 59.1969 29.128L46.7091 21.8812Z" fill="white"/>
</svg>
