<svg width="113" height="100" viewBox="0 0 113 100" fill="none" xmlns="http://www.w3.org/2000/svg">
<path d="M112.5 50.0117C112.5 42.5796 103.208 35.5362 88.9626 31.1684C92.25 16.6243 90.789 5.05304 84.3511 1.3484C82.8672 0.479415 81.1322 0.0677896 79.2374 0.0677896V5.16738C80.2875 5.16738 81.1322 5.37319 81.8399 5.76195C84.9447 7.54566 86.2916 14.3375 85.2415 23.0731C84.9903 25.2227 84.5794 27.4867 84.0772 29.7963C79.6026 28.6987 74.7172 27.8525 69.5806 27.3037C66.4987 23.0731 63.3026 19.2313 60.0837 15.8697C67.526 8.94062 74.5117 5.14451 79.2602 5.14451V0.0449219C72.9822 0.0449219 64.7637 4.52707 56.4539 12.3022C48.144 4.57281 39.9255 0.136395 33.6475 0.136395V5.23598C38.3731 5.23598 45.3817 9.00922 52.824 15.8925C49.6279 19.2541 46.4318 23.0731 43.3956 27.3037C38.2362 27.8525 33.3507 28.6987 28.8762 29.8192C28.3511 27.5324 27.963 25.3142 27.6891 23.1875C26.6161 14.4518 27.9402 7.66 31.0221 5.85342C31.707 5.4418 32.5974 5.25885 33.6475 5.25885V0.159262C31.7298 0.159262 29.9948 0.570888 28.4881 1.43988C22.0731 5.14451 20.6349 16.6929 23.9451 31.1913C9.74533 35.582 0.499512 42.6025 0.499512 50.0117C0.499512 57.4439 9.79099 64.4873 24.0364 68.8551C20.749 83.3992 22.2101 94.9705 28.6479 98.6751C30.1318 99.5441 31.8668 99.9557 33.7845 99.9557C40.0625 99.9557 48.281 95.4736 56.5908 87.6984C64.9007 95.4278 73.1192 99.8642 79.3972 99.8642C81.3148 99.8642 83.0499 99.4526 84.5566 98.5836C90.9716 94.879 92.4098 83.3306 89.0996 68.8322C103.254 64.4644 112.5 57.421 112.5 50.0117ZM82.7759 34.7587C81.9312 37.7087 80.8811 40.7502 79.694 43.7916C78.758 41.9622 77.7763 40.1327 76.7033 38.3033C75.6532 36.4738 74.5346 34.6901 73.4159 32.9521C76.6577 33.4324 79.7853 34.0269 82.7759 34.7587ZM72.3201 59.1133C70.5395 62.2005 68.7131 65.1276 66.8183 67.8489C63.4168 68.1462 59.9696 68.3062 56.4995 68.3062C53.0523 68.3062 49.6051 68.1462 46.2264 67.8717C44.3316 65.1504 42.4824 62.2462 40.7017 59.1819C38.9667 56.1861 37.3915 53.1447 35.9532 50.0803C37.3687 47.016 38.9667 43.9517 40.6789 40.956C42.4596 37.8688 44.2859 34.9417 46.1807 32.2204C49.5823 31.9231 53.0295 31.763 56.4995 31.763C59.9467 31.763 63.3939 31.9231 66.7726 32.1975C68.6675 34.9188 70.5166 37.823 72.2973 40.8874C74.0323 43.8831 75.6075 46.9246 77.0458 49.9889C75.6075 53.0532 74.0323 56.1175 72.3201 59.1133ZM79.694 56.1404C80.9267 59.2047 81.9769 62.2691 82.8444 65.2419C79.8538 65.9737 76.7033 66.5911 73.4388 67.0714C74.5574 65.3105 75.676 63.5039 76.7262 61.6516C77.7763 59.8222 78.758 57.9698 79.694 56.1404ZM56.5452 80.5407C54.4221 78.3453 52.2989 75.8985 50.1987 73.2229C52.2533 73.3144 54.3536 73.383 56.4767 73.383C58.6226 73.383 60.7457 73.3372 62.8232 73.2229C60.7686 75.8985 58.6455 78.3453 56.5452 80.5407ZM39.5603 67.0714C36.3185 66.5911 33.1909 65.9966 30.2003 65.2648C31.045 62.3148 32.0951 59.2733 33.2822 56.2319C34.2182 58.0613 35.1999 59.8908 36.2729 61.7202C37.3458 63.5497 38.4416 65.3334 39.5603 67.0714ZM56.431 19.4828C58.5541 21.6782 60.6773 24.125 62.7775 26.8006C60.7229 26.7091 58.6226 26.6405 56.4995 26.6405C54.3536 26.6405 52.2305 26.6863 50.153 26.8006C52.2076 24.125 54.3307 21.6782 56.431 19.4828ZM39.5374 32.9521C38.4188 34.713 37.3002 36.5196 36.25 38.3719C35.1999 40.2013 34.2182 42.0308 33.2822 43.8602C32.0494 40.7959 30.9993 37.7316 30.1318 34.7587C33.1224 34.0498 36.2729 33.4324 39.5374 32.9521ZM18.877 61.583C10.7955 58.1299 5.56759 53.602 5.56759 50.0117C5.56759 46.4215 10.7955 41.8707 18.877 38.4405C20.8403 37.5944 22.9863 36.8397 25.2007 36.1308C26.502 40.613 28.2141 45.2781 30.3373 50.0575C28.237 54.8141 26.5476 59.4563 25.2692 63.9156C23.0091 63.2066 20.8632 62.4291 18.877 61.583ZM31.1591 94.2616C28.0543 92.4778 26.7074 85.686 27.7576 76.9504C28.0087 74.8008 28.4196 72.5368 28.9219 70.2272C33.3964 71.3248 38.2818 72.171 43.4184 72.7198C46.5003 76.9504 49.6964 80.7922 52.9153 84.1538C45.473 91.0829 38.4873 94.879 33.7388 94.879C32.7115 94.8561 31.844 94.6503 31.1591 94.2616ZM85.31 76.836C86.3829 85.5717 85.0588 92.3635 81.9769 94.1701C81.292 94.5817 80.4017 94.7646 79.3515 94.7646C74.6259 94.7646 67.6173 90.9914 60.175 84.1081C63.3711 80.7465 66.5672 76.9275 69.6035 72.6969C74.7629 72.1481 79.6483 71.302 84.1228 70.1814C84.6479 72.4911 85.0588 74.7093 85.31 76.836ZM94.0992 61.583C92.1359 62.4291 89.9899 63.1838 87.7755 63.8927C86.4742 59.4105 84.762 54.7454 82.6389 49.966C84.7392 45.2094 86.4286 40.5672 87.707 36.1079C89.9671 36.8168 92.113 37.5944 94.122 38.4405C102.204 41.8936 107.431 46.4215 107.431 50.0117C107.409 53.602 102.181 58.1528 94.0992 61.583Z" fill="#61DAFB"/>
<path d="M56.4788 60.462C62.2408 60.462 66.9118 55.783 66.9118 50.0113C66.9118 44.2395 62.2408 39.5605 56.4788 39.5605C50.7169 39.5605 46.0459 44.2395 46.0459 50.0113C46.0459 55.783 50.7169 60.462 56.4788 60.462Z" fill="#61DAFB"/>
</svg>
