<svg width="1080" height="720" viewBox="0 0 1080 720" fill="none" xmlns="http://www.w3.org/2000/svg">
<rect width="1080" height="720" fill="url(#paint0_radial_603_597)"/>
<path d="M322.656 382.04C334.941 382.04 344.9 372.081 344.9 359.796C344.9 347.512 334.941 337.553 322.656 337.553C310.371 337.553 300.413 347.512 300.413 359.796C300.413 372.081 310.371 382.04 322.656 382.04Z" fill="#00D8FF"/>
<path fill-rule="evenodd" clip-rule="evenodd" d="M322.657 314.57C352.522 314.57 380.266 318.856 401.185 326.057C426.389 334.734 441.886 347.887 441.886 359.796C441.886 372.207 425.463 386.179 398.397 395.147C377.934 401.927 351.007 405.466 322.657 405.466C293.591 405.466 266.067 402.144 245.374 395.073C219.194 386.124 203.425 371.971 203.425 359.796C203.425 347.983 218.221 334.933 243.071 326.269C264.068 318.948 292.496 314.57 322.653 314.57H322.657Z" stroke="#00D8FF" stroke-width="10.6414"/>
<path fill-rule="evenodd" clip-rule="evenodd" d="M283.286 337.314C298.206 311.443 315.778 289.55 332.467 275.026C352.575 257.527 371.71 250.674 382.026 256.623C392.778 262.823 396.677 284.031 390.924 311.957C386.579 333.07 376.188 358.163 362.026 382.722C347.504 407.901 330.877 430.085 314.415 444.474C293.585 462.683 273.446 469.273 262.9 463.191C252.666 457.294 248.753 437.953 253.662 412.098C257.81 390.252 268.22 363.438 283.281 337.313L283.286 337.314Z" stroke="#00D8FF" stroke-width="10.6414"/>
<path fill-rule="evenodd" clip-rule="evenodd" d="M283.323 382.788C268.361 356.946 258.174 330.784 253.922 309.072C248.803 282.912 252.422 262.91 262.729 256.944C273.47 250.726 293.791 257.939 315.112 276.87C331.232 291.183 347.784 312.713 361.988 337.248C376.551 362.403 387.466 387.888 391.712 409.336C397.084 436.477 392.736 457.215 382.2 463.314C371.976 469.233 353.268 462.967 333.32 445.8C316.465 431.297 298.433 408.887 283.323 382.788V382.788Z" stroke="#00D8FF" stroke-width="10.6414"/>
<path fill-rule="evenodd" clip-rule="evenodd" d="M569.568 416.627L542.304 375.437C556.083 374.221 568.499 364.237 568.499 345.997C568.499 327.437 555.328 315.559 536.851 315.559H496.275V416.551H508.845V376.423H528.985L554.726 416.551L569.568 416.627ZM535.347 365.447H508.851V326.835H535.347C547.315 326.835 555.488 334.707 555.488 346.067C555.488 357.427 547.308 365.459 535.347 365.459V365.447ZM616.358 418.439C628.326 418.439 638.163 414.503 645.433 407.239L639.981 399.815C634.221 405.722 625.747 409.05 617.421 409.05C601.677 409.05 591.981 397.543 591.072 383.77H650.272V380.89C650.272 358.938 637.248 341.671 615.136 341.671C594.24 341.671 579.104 358.784 579.104 379.981C579.104 402.848 594.701 418.381 616.352 418.381L616.358 418.439ZM639.078 375.431H591.078C591.686 364.231 599.398 351.047 615.001 351.047C631.661 351.047 638.925 364.525 639.078 375.431ZM725.696 416.621V366.349C725.696 348.634 712.832 341.664 697.382 341.664C685.414 341.664 676.032 345.6 668.16 353.779L673.459 361.651C679.968 354.688 687.091 351.507 695.872 351.507C706.47 351.507 714.348 357.107 714.348 366.951V380.122C708.441 373.306 700.115 370.125 690.118 370.125C677.702 370.125 664.518 377.85 664.518 394.202C664.518 410.099 677.689 418.432 690.118 418.432C699.961 418.432 708.294 414.951 714.348 408.288V416.608L725.696 416.621ZM694.208 410.259C683.609 410.259 676.185 403.603 676.185 394.362C676.185 384.973 683.609 378.311 694.208 378.311C702.233 378.311 709.952 381.338 714.348 387.399V401.178C709.958 407.232 702.233 410.259 694.208 410.259ZM780.608 418.439C793.933 418.439 801.805 412.986 807.411 405.722L799.84 398.759C794.995 405.267 788.787 408.295 781.28 408.295C765.683 408.295 756 396.179 756 379.981C756 363.783 765.689 351.821 781.28 351.821C788.851 351.821 795.059 354.701 799.84 361.357L807.411 354.394C801.811 347.123 793.933 341.677 780.608 341.677C758.803 341.677 744.115 358.336 744.115 379.987C744.115 401.792 758.803 418.387 780.608 418.387V418.439ZM841.792 418.439C848.448 418.439 852.544 416.467 855.424 413.747L852.096 405.267C850.579 406.931 847.616 408.295 844.371 408.295C839.379 408.295 836.947 404.359 836.947 398.906V353.479H851.795V343.488H836.947V323.501H825.587V343.488H813.472V353.485H825.587V401.338C825.587 412.243 831.04 418.451 841.792 418.451V418.439Z" fill="#00D8FF"/>
<defs>
<radialGradient id="paint0_radial_603_597" cx="0" cy="0" r="1" gradientUnits="userSpaceOnUse" gradientTransform="translate(540 360) rotate(90) scale(360 540)">
<stop stop-color="#1C1F25"/>
<stop offset="1" stop-color="#181B20"/>
</radialGradient>
</defs>
</svg>
