<svg width="40" height="40" viewBox="0 0 40 40" fill="none" xmlns="http://www.w3.org/2000/svg">
<mask id="mask0_110_2921" style="mask-type:alpha" maskUnits="userSpaceOnUse" x="0" y="0" width="41" height="40">
<path d="M40.0002 11.2988C30.9506 11.2988 25.1715 12.1809 18.5979 14.8209C8.27916 18.9649 6.91131 20.0355 0.000182826 20.0355" stroke="#F1F1F1" stroke-width="1.66667"/>
<path d="M40.0002 28.7725C30.9506 28.7725 25.1715 27.8904 18.5979 25.2504C8.27916 21.1063 6.91131 20.0358 0.000182826 20.0358" stroke="#F1F1F1" stroke-width="1.66667"/>
<path d="M40.0002 3.36914C30.9506 3.36915 25.1715 4.25188 18.5979 6.89398C8.27916 11.0413 6.91131 12.1127 0.000182826 12.1127" stroke="#F1F1F1" stroke-width="1.66667"/>
<path d="M40.0002 36.7021C30.9506 36.7021 25.1715 35.7638 18.5979 32.9553C8.27916 28.5467 6.91131 27.4078 0.000182826 27.4078" stroke="#F1F1F1" stroke-width="1.66667"/>
</mask>
<g mask="url(#mask0_110_2921)">
<rect width="40" height="40.0035" fill="url(#paint0_linear_110_2921)"/>
</g>
<defs>
<linearGradient id="paint0_linear_110_2921" x1="40" y1="40.0035" x2="-6.5692" y2="10.2987" gradientUnits="userSpaceOnUse">
<stop offset="0.0727574" stop-color="#FFE702"/>
<stop offset="0.333333" stop-color="#FF3DCF"/>
<stop offset="0.661458" stop-color="#14BCDF"/>
<stop offset="0.854167" stop-color="#49F0A1"/>
<stop offset="1" stop-color="#49E34B"/>
</linearGradient>
</defs>
</svg>
