<svg width="64" height="64" viewBox="0 0 64 64" fill="none" xmlns="http://www.w3.org/2000/svg">
<path d="M2.33076 19.0351L11.7228 9.72837C12.1942 9.26134 12.8315 9 13.4982 9H60.8762C61.875 9 62.3756 10.1978 61.6698 10.8972L52.2094 20.2716C51.7381 20.7386 51.0983 21.0024 50.4291 21L3.12198 20.9322C2.12319 20.9322 1.62501 19.7344 2.33076 19.0351Z" fill="white"/>
<path d="M2.33076 27.9649L11.7228 37.2716C12.1942 37.7387 12.8315 38 13.4982 38H60.8762C61.875 38 62.3756 36.8022 61.6698 36.1028L52.2094 26.7284C51.7381 26.2614 51.0983 25.9976 50.4291 26L3.12198 26.0678C2.12319 26.0678 1.62501 27.2656 2.33076 27.9649Z" fill="white"/>
<path d="M2.33076 54.0351L11.7228 44.7284C12.1942 44.2613 12.8315 44 13.4982 44H60.8762C61.875 44 62.3756 45.1978 61.6698 45.8972L52.2094 55.2716C51.7381 55.7386 51.0983 56.0024 50.4291 56L3.12198 55.9322C2.12319 55.9322 1.62501 54.7344 2.33076 54.0351Z" fill="white"/>
</svg>
