<svg width="59" height="59" viewBox="0 0 59 59" fill="none" xmlns="http://www.w3.org/2000/svg">
<path d="M59 29.4992C59 22.1755 56.3165 15.4658 51.8782 10.3009C51.8506 10.2231 51.8146 10.1453 51.7649 10.0733C51.6709 9.9378 51.5465 9.83979 51.411 9.77062C46.0082 3.77567 38.1874 0 29.4986 0C13.2321 0 0 13.2321 0 29.4963C0 33.1019 0.663208 36.6931 1.94828 40.0393C3.20848 43.3193 5.05186 46.3427 7.34012 48.9453C9.65048 51.5739 12.4057 53.7701 15.4374 55.4187C18.9389 57.3238 22.7831 58.4767 26.7129 58.8629C30.9744 59.2808 35.2993 58.739 39.3535 57.2979C43.0125 55.998 46.4255 53.9545 49.3384 51.3029C50.0983 50.6112 50.8224 49.8791 51.5078 49.1125C51.6432 49.0462 51.7648 48.9482 51.8588 48.8127C51.9113 48.7378 51.9472 48.6571 51.9748 48.5735C56.3496 43.4259 58.9945 36.7652 58.9945 29.4963L59 29.4992ZM50.911 46.9191C48.479 45.1696 45.8784 43.7574 43.1535 42.7025C44.3335 39.3649 45.0631 35.8429 45.2842 32.2372C45.6241 26.6862 44.7702 21.236 42.8771 16.2267C45.6656 15.1718 48.3297 13.748 50.8169 11.9697C54.7688 16.7369 57.1455 22.85 57.1455 29.5021C57.1455 36.1541 54.8049 42.1693 50.911 46.9191ZM31.2534 57.0068C30.9798 57.0241 30.7035 57.0385 30.4272 57.0471V42.3163C33.959 42.2846 37.4135 42.8149 40.705 43.8726C38.6046 48.9193 35.3822 53.4415 31.2534 57.0068ZM28.5203 57.0731C24.4993 53.6202 21.3293 49.2652 19.2152 44.3972C22.1999 43.2703 25.3394 42.5901 28.5728 42.3826V57.0471C28.5479 57.0587 28.5452 57.0615 28.5203 57.0731ZM25.3892 56.7589C19.6188 55.8971 14.4232 53.2513 10.3938 49.4036C12.613 47.6541 14.9897 46.2159 17.488 45.1062C19.3672 49.4583 22.0424 53.43 25.3892 56.7618V56.7589ZM30.4272 2.01753C34.7633 5.5338 38.1431 10.0156 40.3788 15.0479C37.1841 16.0394 33.8429 16.5322 30.4299 16.5034V2.02042L30.4272 2.01753ZM28.5728 2.59685V16.4342C25.4583 16.2354 22.4349 15.5984 19.5497 14.5464C21.6583 9.98965 24.7121 5.89984 28.5728 2.59685ZM17.8141 13.8518C15.2357 12.7393 12.7844 11.2809 10.5017 9.49682C14.7189 5.51364 20.1908 2.83895 26.2541 2.12705C22.6808 5.45598 19.8288 9.44782 17.8141 13.8518ZM28.5728 18.3682V40.4486C25.1239 40.6676 21.7301 41.4113 18.505 42.6391C17.2559 39.2957 16.4876 35.7478 16.2638 32.1104C15.9266 26.6199 16.822 21.2302 18.7842 16.3132C21.9098 17.4689 25.1902 18.1635 28.5728 18.3682ZM30.7228 40.3823C30.6233 40.3823 30.5267 40.3823 30.4272 40.3852V18.4345C30.5267 18.4345 30.6233 18.4373 30.7228 18.4373C34.2879 18.4373 37.7811 17.8926 41.114 16.8377C42.9352 21.6135 43.7587 26.8159 43.4354 32.1133C43.2253 35.546 42.5289 38.9009 41.4014 42.077C37.9828 40.9587 34.3929 40.3852 30.7228 40.3852V40.3823ZM49.5401 10.5344C47.2187 12.1628 44.7425 13.4684 42.153 14.4397C40.1466 9.85131 37.2394 5.68944 33.5611 2.23658C39.8095 3.156 45.3837 6.17077 49.5429 10.5344H49.5401ZM9.15305 10.8601C11.6154 12.8171 14.2657 14.4081 17.057 15.6186C15.0008 20.7921 14.0612 26.4585 14.4149 32.2344C14.6498 36.0734 15.4596 39.8203 16.7806 43.3481C14.0363 44.5615 11.4357 46.1352 9.05346 48.0345C4.58197 43.1348 1.85436 36.6297 1.85436 29.4992C1.85436 22.3686 4.62352 15.7713 9.15305 10.8601ZM34.4455 56.6234C37.8806 53.1648 40.6027 49.0289 42.4654 44.4981C44.9803 45.4723 47.3873 46.7635 49.6424 48.3602C45.6683 52.5769 40.3843 55.5512 34.4426 56.6263L34.4455 56.6234Z" fill="#FFE629"/>
</svg>
