<svg width="64" height="64" viewBox="0 0 64 64" fill="none" xmlns="http://www.w3.org/2000/svg">
<path d="M60.1007 31.522C60.1007 47.2744 47.3186 60.0439 31.5508 60.0439C15.7829 60.0439 3 47.2744 3 31.522C3 15.7696 15.7829 3 31.5508 3C47.3186 3 60.1007 15.7696 60.1007 31.522Z" fill="#3C3C3C"/>
<path d="M44.8366 23.8948L44.1106 21.6541C43.9631 21.1984 43.603 20.8438 43.1452 20.7039L40.8913 20.0115C40.5793 19.9163 40.5768 19.4766 40.8862 19.3763L43.13 18.6511C43.5853 18.5036 43.9403 18.144 44.0811 17.6865L44.7734 15.4349C44.8687 15.124 45.3088 15.1207 45.4092 15.4307L46.1351 17.6714C46.2827 18.1263 46.6428 18.4809 47.1006 18.6216L49.3545 19.3132C49.6665 19.4092 49.6698 19.8481 49.3595 19.9483L47.1158 20.6736C46.6605 20.821 46.3055 21.1816 46.1647 21.639L45.4724 23.8898C45.3771 24.2015 44.937 24.2048 44.8366 23.8948Z" fill="#FAFAFA"/>
<path d="M5.59702 31.07C6.27579 29.7416 7.61817 28.7408 9.01282 28.1082C10.4218 27.4823 11.9708 27.0982 13.4919 26.9735C16.5628 26.6964 19.5545 27.2094 22.2797 28.0964C23.6837 28.5142 24.94 29.0946 26.2377 29.6809C26.8684 29.9842 27.4612 30.3278 28.0717 30.6597L29.7581 31.6361C31.6098 32.7699 33.4049 33.774 35.0913 34.554C36.782 35.3273 38.3098 35.8505 39.75 36.1175C41.1902 36.3879 42.654 36.3845 44.4543 35.9718C46.2402 35.5683 48.2495 34.6981 50.3499 33.5819C52.463 32.465 54.63 31.0953 57.1023 29.7567C56.8544 32.5542 56.0618 35.1774 54.8239 37.7104C53.5558 40.2131 51.7918 42.6543 49.22 44.6314C46.6972 46.6244 43.2325 48.0135 39.7053 48.2224C36.1765 48.4608 32.8198 47.6841 29.9638 46.5158C27.097 45.3305 24.6196 43.773 22.4239 42.0537C21.8177 41.5786 21.4922 41.309 21.0445 40.9308L19.794 39.8366C18.9516 39.1778 18.1354 38.3902 17.3015 37.7374C15.6379 36.3483 13.9919 34.9567 12.1875 33.7504C11.2777 33.1372 10.3392 32.5686 9.27506 32.0648C8.74637 31.8214 8.1848 31.5948 7.58191 31.4162C6.96469 31.2149 6.33735 31.0953 5.59702 31.07Z" fill="#B4B4B4"/>
<path d="M5.59702 31.0705C5.94357 28.1921 7.28679 25.4923 9.43948 23.1943C11.5812 20.9182 14.927 19.1636 18.6396 18.9311C20.4719 18.8089 22.332 19.0128 24.042 19.4862C25.7445 19.9579 27.3398 20.6453 28.7775 21.4548C29.4959 21.8617 30.1679 22.3065 30.8374 22.7554L32.6216 24.1049L35.4067 26.3002C37.2145 27.7381 38.9397 29.0682 40.5342 30.1667C42.1439 31.2668 43.5149 32.0704 44.8244 32.5413C46.1221 33.0552 47.7613 33.1866 49.9283 32.6424C51.0042 32.3947 52.1265 31.9424 53.3239 31.4521C54.5145 30.9501 55.7506 30.3511 57.1023 29.7573C56.9395 31.2045 56.6453 32.6458 56.0862 33.9927C55.5491 35.3582 54.8416 36.6942 53.8526 37.9401C53.3466 38.5466 52.8045 39.1565 52.1721 39.7192C51.5397 40.2684 50.839 40.7898 50.0649 41.2473C48.521 42.141 46.6896 42.7939 44.8109 43.0263C42.9323 43.2622 41.046 43.1443 39.3284 42.7804C37.6016 42.4266 36.0281 41.8563 34.5837 41.1976C31.705 39.8599 29.2969 38.1785 27.1678 36.3985C26.0986 35.5098 25.096 34.5815 24.1466 33.6389L23.0251 32.5144C22.687 32.1884 22.3455 31.8607 22.0074 31.5608C20.6448 30.357 19.38 29.4372 17.987 28.8635C16.6042 28.2629 14.8343 28.0161 12.663 28.4221C10.5002 28.8239 8.12746 29.7581 5.59702 31.0705Z" fill="#FAFAFA"/>
<path d="M17.0077 45.9142C17.0077 46.766 16.3162 47.4568 15.4636 47.4568C14.6111 47.4568 13.9204 46.766 13.9204 45.9142C13.9204 45.0625 14.6111 44.3717 15.4636 44.3717C16.3162 44.3717 17.0077 45.0625 17.0077 45.9142Z" fill="#FAFAFA"/>
<path d="M17.0077 45.9142C17.0077 46.766 16.3162 47.4568 15.4636 47.4568C14.6111 47.4568 13.9204 46.766 13.9204 45.9142C13.9204 45.0625 14.6111 44.3717 15.4636 44.3717C16.3162 44.3717 17.0077 45.0625 17.0077 45.9142Z" fill="#FAFAFA"/>
</svg>
