<svg width="28" height="24" viewBox="0 0 28 24" fill="none" xmlns="http://www.w3.org/2000/svg">
<path d="M23.2803 4.46734C20.8654 2.06683 17.612 0.69879 14.2073 0.652114C10.8025 0.605437 7.51292 1.88378 5.03308 4.21719C2.55324 6.5506 1.0773 9.75643 0.916923 13.1577C0.756548 16.559 1.92429 19.8895 4.17357 22.4459L4.18342 22.4568C4.20146 22.4759 4.21842 22.4956 4.2381 22.5142C4.27857 22.5602 4.32451 22.6121 4.37865 22.6663C4.59098 22.8919 4.8476 23.0714 5.13246 23.1933C5.41732 23.3152 5.72428 23.377 6.03413 23.3749C6.34398 23.3727 6.65005 23.3066 6.93319 23.1808C7.21632 23.0549 7.47042 22.8719 7.67959 22.6433C8.4844 21.7686 9.46192 21.0704 10.5504 20.5928C11.6388 20.1152 12.8145 19.8686 14.0031 19.8686C15.1917 19.8686 16.3674 20.1152 17.4558 20.5928C18.5443 21.0704 19.5218 21.7686 20.3266 22.6433C20.5373 22.8731 20.7935 23.0567 21.0788 23.1823C21.3642 23.308 21.6725 23.373 21.9843 23.3734C22.2961 23.3737 22.6046 23.3092 22.8901 23.1841C23.1757 23.059 23.4322 22.876 23.6434 22.6466L23.819 22.4552L23.8288 22.4442C26.045 19.9416 27.2225 16.6875 27.1209 13.3462C27.0193 10.0049 25.6462 6.82841 23.2819 4.46516L23.2803 4.46734ZM13.1248 5.00055C13.1248 4.76848 13.217 4.54592 13.3811 4.38183C13.5452 4.21774 13.7678 4.12555 13.9998 4.12555C14.2319 4.12555 14.4544 4.21774 14.6185 4.38183C14.7826 4.54592 14.8748 4.76848 14.8748 5.00055V6.75055C14.8748 6.98261 14.7826 7.20517 14.6185 7.36927C14.4544 7.53336 14.2319 7.62555 13.9998 7.62555C13.7678 7.62555 13.5452 7.53336 13.3811 7.36927C13.217 7.20517 13.1248 6.98261 13.1248 6.75055V5.00055ZM6.99982 14.6255H5.24982C5.01776 14.6255 4.7952 14.5334 4.6311 14.3693C4.46701 14.2052 4.37482 13.9826 4.37482 13.7505C4.37482 13.5185 4.46701 13.2959 4.6311 13.1318C4.7952 12.9677 5.01776 12.8755 5.24982 12.8755H6.99982C7.23189 12.8755 7.45445 12.9677 7.61854 13.1318C7.78263 13.2959 7.87482 13.5185 7.87482 13.7505C7.87482 13.9826 7.78263 14.2052 7.61854 14.3693C7.45445 14.5334 7.23189 14.6255 6.99982 14.6255V14.6255ZM9.66857 9.4193C9.50449 9.58327 9.28202 9.67538 9.05006 9.67538C8.81809 9.67538 8.59562 9.58327 8.43154 9.4193L7.19396 8.18227C7.02985 8.01815 6.93765 7.79557 6.93765 7.56348C6.93765 7.33139 7.02985 7.1088 7.19396 6.94469C7.35808 6.78058 7.58066 6.68838 7.81275 6.68838C8.04484 6.68838 8.26743 6.78058 8.43154 6.94469L9.66857 8.18227C9.83254 8.34634 9.92465 8.56882 9.92465 8.80078C9.92465 9.03275 9.83254 9.25522 9.66857 9.4193V9.4193ZM17.8334 10.6826L15.2358 14.8115C15.1295 14.9588 15.0002 15.088 14.8529 15.1943C14.4974 15.4424 14.0583 15.5402 13.6311 15.4665C13.2038 15.3929 12.8229 15.1537 12.5709 14.8009C12.3189 14.4481 12.2162 14.0102 12.2851 13.5821C12.354 13.1541 12.5889 12.7705 12.9389 12.5146L17.0678 9.91695C17.1616 9.85153 17.2733 9.81645 17.3877 9.81645C17.5021 9.81645 17.6138 9.85153 17.7076 9.91695C17.8255 10.0021 17.9049 10.1304 17.9285 10.2738C17.952 10.4173 17.9179 10.5642 17.8334 10.6826V10.6826ZM19.5681 9.4193C19.4027 9.57647 19.1824 9.66279 18.9542 9.65987C18.7261 9.65695 18.5081 9.56501 18.3467 9.40366C18.1854 9.24231 18.0934 9.02431 18.0905 8.79614C18.0876 8.56798 18.1739 8.3477 18.3311 8.18227L19.5681 6.94469C19.7322 6.78058 19.9548 6.68838 20.1869 6.68838C20.419 6.68838 20.6416 6.78058 20.8057 6.94469C20.9698 7.1088 21.062 7.33139 21.062 7.56348C21.062 7.79557 20.9698 8.01815 20.8057 8.18227L19.5681 9.4193ZM22.7498 14.6255H20.9998C20.7678 14.6255 20.5452 14.5334 20.3811 14.3693C20.217 14.2052 20.1248 13.9826 20.1248 13.7505C20.1248 13.5185 20.217 13.2959 20.3811 13.1318C20.5452 12.9677 20.7678 12.8755 20.9998 12.8755H22.7498C22.9819 12.8755 23.2044 12.9677 23.3685 13.1318C23.5326 13.2959 23.6248 13.5185 23.6248 13.7505C23.6248 13.9826 23.5326 14.2052 23.3685 14.3693C23.2044 14.5334 22.9819 14.6255 22.7498 14.6255Z" fill="#CCCCCC"/>
</svg>
