<svg width="26" height="26" viewBox="0 0 26 26" fill="none" xmlns="http://www.w3.org/2000/svg">
<path d="M0 13C0 5.8203 5.8203 0 13 0C20.1797 0 26 5.8203 26 13C26 20.1797 20.1797 26 13 26C5.8203 26 0 20.1797 0 13Z" fill="#313131"/>
<g clip-path="url(#clip0_13030_68721)">
<path d="M20.1094 9.91927C20.1094 9.47932 19.9346 9.05738 19.6235 8.74629C19.3124 8.43519 18.8905 8.26042 18.4505 8.26042H11.9369C11.7966 8.26087 11.6594 8.21963 11.5426 8.14193L10.7191 7.59125C10.4464 7.4089 10.1256 7.31186 9.79752 7.3125H7.54948C7.10952 7.3125 6.68759 7.48727 6.37649 7.79837C6.0654 8.10947 5.89062 8.5314 5.89062 8.97136V10.3932C5.89062 10.4561 5.91559 10.5164 5.96003 10.5608C6.00448 10.6052 6.06475 10.6302 6.1276 10.6302H19.8724C19.9352 10.6302 19.9955 10.6052 20.04 10.5608C20.0844 10.5164 20.1094 10.4561 20.1094 10.3932V9.91927Z" fill="#B4B4B4"/>
<path d="M5.89062 17.0287C5.89062 17.4687 6.0654 17.8906 6.37649 18.2017C6.68759 18.5128 7.10952 18.6876 7.54948 18.6876H18.4505C18.8905 18.6876 19.3124 18.5128 19.6235 18.2017C19.9346 17.8906 20.1094 17.4687 20.1094 17.0287V11.8152C20.1094 11.7523 20.0844 11.692 20.04 11.6476C19.9955 11.6032 19.9352 11.5782 19.8724 11.5782H6.1276C6.06475 11.5782 6.00448 11.6032 5.96003 11.6476C5.91559 11.692 5.89062 11.7523 5.89062 11.8152V17.0287Z" fill="#B4B4B4"/>
</g>
<defs>
<clipPath id="clip0_13030_68721">
<rect width="15.1667" height="15.1667" fill="white" transform="translate(5.41699 5.41699)"/>
</clipPath>
</defs>
</svg>
