<svg width="26" height="26" viewBox="0 0 26 26" fill="none" xmlns="http://www.w3.org/2000/svg">
<path d="M21.6621 4.33772C20.5266 3.19101 19.1758 2.27995 17.6871 1.65689C16.1985 1.03383 14.6014 0.71104 12.9877 0.707068C11.3739 0.703096 9.77526 1.01802 8.28358 1.63375C6.79189 2.24947 5.43657 3.15387 4.29546 4.29497C3.15436 5.43608 2.24996 6.79141 1.63423 8.28309C1.01851 9.77477 0.703585 11.3734 0.707557 12.9872C0.711529 14.6009 1.03432 16.198 1.65738 17.6867C2.28044 19.1753 3.1915 20.5262 4.33821 21.6616C5.47368 22.8083 6.82454 23.7194 8.31317 24.3425C9.80181 24.9655 11.3989 25.2883 13.0126 25.2923C14.6264 25.2962 16.2251 24.9813 17.7167 24.3656C19.2084 23.7499 20.5638 22.8455 21.7049 21.7044C22.846 20.5633 23.7504 19.2079 24.3661 17.7163C24.9818 16.2246 25.2967 14.6259 25.2928 13.0122C25.2888 11.3984 24.966 9.80132 24.3429 8.31269C23.7199 6.82405 22.8088 5.47319 21.6621 4.33772V4.33772ZM9.50727 13.2283C9.46085 12.5181 9.63205 11.8106 9.99802 11.2002C10.364 10.5898 10.9074 10.1055 11.5556 9.81185C12.2039 9.51819 12.9263 9.42914 13.6265 9.55658C14.3267 9.68402 14.9714 10.0219 15.4747 10.5251C15.9779 11.0284 16.3158 11.6731 16.4432 12.3733C16.5707 13.0735 16.4816 13.7959 16.188 14.4442C15.8943 15.0925 15.41 15.6358 14.7996 16.0018C14.1892 16.3678 13.4817 16.539 12.7716 16.4926C11.9243 16.4364 11.1263 16.0744 10.5258 15.474C9.92541 14.8736 9.56346 14.0755 9.50727 13.2283V13.2283ZM22.6323 9.58389L17.362 9.90326C17.326 9.90516 17.29 9.89824 17.2572 9.88308C17.2244 9.86793 17.1958 9.84501 17.1739 9.81631C16.89 9.44434 16.5577 9.112 16.1857 8.82811C16.157 8.80619 16.1341 8.7776 16.1189 8.74481C16.1038 8.71203 16.0969 8.67605 16.0988 8.63998L16.4181 3.36975C16.4201 3.3354 16.4301 3.30199 16.4474 3.27225C16.4647 3.2425 16.4887 3.21725 16.5176 3.19855C16.5465 3.17985 16.5794 3.16822 16.6136 3.16462C16.6478 3.16101 16.6824 3.16553 16.7145 3.17779C18.1059 3.7078 19.3694 4.52617 20.422 5.57916C21.4746 6.63215 22.2925 7.89593 22.822 9.28748C22.8343 9.31962 22.8388 9.35421 22.8352 9.38842C22.8316 9.42264 22.82 9.45552 22.8013 9.4844C22.7826 9.51328 22.7573 9.53733 22.7276 9.55462C22.6978 9.57191 22.6644 9.58194 22.6301 9.58389H22.6323ZM9.58438 3.36975L9.90375 8.63998C9.90565 8.67605 9.89872 8.71203 9.88357 8.74481C9.86842 8.7776 9.8455 8.80619 9.8168 8.82811C9.44483 9.112 9.11249 9.44434 8.8286 9.81631C8.80667 9.84501 8.77808 9.86793 8.7453 9.88308C8.71252 9.89824 8.67654 9.90516 8.64047 9.90326L3.37024 9.58389C3.33589 9.58194 3.30248 9.57191 3.27274 9.55462C3.24299 9.53733 3.21774 9.51328 3.19904 9.4844C3.18034 9.45552 3.16871 9.42264 3.16511 9.38842C3.1615 9.35421 3.16601 9.31962 3.17828 9.28748C3.70803 7.89572 4.52628 6.6318 5.57929 5.5788C6.63229 4.5258 7.89621 3.70754 9.28797 3.17779C9.32011 3.16553 9.3547 3.16101 9.38891 3.16462C9.42313 3.16822 9.45601 3.17985 9.48489 3.19855C9.51376 3.21725 9.53782 3.2425 9.55511 3.27225C9.5724 3.30199 9.58242 3.3354 9.58438 3.36975ZM3.37024 16.4155L8.64047 16.0961C8.67654 16.0942 8.71252 16.1011 8.7453 16.1163C8.77808 16.1314 8.80667 16.1543 8.8286 16.183C9.11249 16.555 9.44483 16.8873 9.8168 17.1712C9.8455 17.1932 9.86842 17.2217 9.88357 17.2545C9.89872 17.2873 9.90565 17.3233 9.90375 17.3594L9.58438 22.6296C9.58242 22.6639 9.5724 22.6973 9.55511 22.7271C9.53782 22.7568 9.51376 22.7821 9.48489 22.8008C9.45601 22.8195 9.42313 22.8311 9.38891 22.8347C9.3547 22.8383 9.32011 22.8338 9.28797 22.8215C7.89621 22.2918 6.63229 21.4735 5.57929 20.4205C4.52628 19.3675 3.70803 18.1036 3.17828 16.7119C3.16601 16.6797 3.1615 16.6451 3.16511 16.6109C3.16871 16.5767 3.18034 16.5438 3.19904 16.5149C3.21774 16.4861 3.24299 16.462 3.27274 16.4447C3.30248 16.4274 3.33589 16.4174 3.37024 16.4155ZM16.4159 22.6296L16.0966 17.3594C16.0947 17.3233 16.1016 17.2873 16.1167 17.2545C16.1319 17.2217 16.1548 17.1932 16.1835 17.1712C16.5555 16.8873 16.8878 16.555 17.1717 16.183C17.1936 16.1543 17.2222 16.1314 17.255 16.1163C17.2878 16.1011 17.3238 16.0942 17.3598 16.0961L22.6301 16.4155C22.6644 16.4174 22.6978 16.4274 22.7276 16.4447C22.7573 16.462 22.7826 16.4861 22.8013 16.5149C22.82 16.5438 22.8316 16.5767 22.8352 16.6109C22.8388 16.6451 22.8343 16.6797 22.822 16.7119C22.2923 18.1036 21.474 19.3675 20.421 20.4205C19.368 21.4735 18.1041 22.2918 16.7123 22.8215C16.6802 22.8338 16.6456 22.8383 16.6114 22.8347C16.5772 22.8311 16.5443 22.8195 16.5154 22.8008C16.4866 22.7821 16.4625 22.7568 16.4452 22.7271C16.4279 22.6973 16.4179 22.6639 16.4159 22.6296Z" fill="#CCCCCC"/>
</svg>
