<svg width="28" height="28" viewBox="0 0 28 28" fill="none" xmlns="http://www.w3.org/2000/svg">
<path d="M11.1562 13.125H3.71875C3.19661 13.125 2.69585 12.9176 2.32663 12.5484C1.95742 12.1792 1.75 11.6784 1.75 11.1562V3.71875C1.75 3.19661 1.95742 2.69585 2.32663 2.32663C2.69585 1.95742 3.19661 1.75 3.71875 1.75H11.1562C11.6784 1.75 12.1792 1.95742 12.5484 2.32663C12.9176 2.69585 13.125 3.19661 13.125 3.71875V11.1562C13.125 11.6784 12.9176 12.1792 12.5484 12.5484C12.1792 12.9176 11.6784 13.125 11.1562 13.125Z" fill="#B4B4B4"/>
<path d="M24.2812 13.125H16.8437C16.3216 13.125 15.8208 12.9176 15.4516 12.5484C15.0824 12.1792 14.875 11.6784 14.875 11.1562V3.71875C14.875 3.19661 15.0824 2.69585 15.4516 2.32663C15.8208 1.95742 16.3216 1.75 16.8437 1.75H24.2812C24.8034 1.75 25.3042 1.95742 25.6734 2.32663C26.0426 2.69585 26.25 3.19661 26.25 3.71875V11.1562C26.25 11.6784 26.0426 12.1792 25.6734 12.5484C25.3042 12.9176 24.8034 13.125 24.2812 13.125Z" fill="#B4B4B4"/>
<path d="M11.1562 26.25H3.71875C3.19661 26.25 2.69585 26.0426 2.32663 25.6734C1.95742 25.3042 1.75 24.8034 1.75 24.2812V16.8437C1.75 16.3216 1.95742 15.8208 2.32663 15.4516C2.69585 15.0824 3.19661 14.875 3.71875 14.875H11.1562C11.6784 14.875 12.1792 15.0824 12.5484 15.4516C12.9176 15.8208 13.125 16.3216 13.125 16.8437V24.2812C13.125 24.8034 12.9176 25.3042 12.5484 25.6734C12.1792 26.0426 11.6784 26.25 11.1562 26.25Z" fill="#B4B4B4"/>
<path d="M24.2812 26.25H16.8437C16.3216 26.25 15.8208 26.0426 15.4516 25.6734C15.0824 25.3042 14.875 24.8034 14.875 24.2812V16.8437C14.875 16.3216 15.0824 15.8208 15.4516 15.4516C15.8208 15.0824 16.3216 14.875 16.8437 14.875H24.2812C24.8034 14.875 25.3042 15.0824 25.6734 15.4516C26.0426 15.8208 26.25 16.3216 26.25 16.8437V24.2812C26.25 24.8034 26.0426 25.3042 25.6734 25.6734C25.3042 26.0426 24.8034 26.25 24.2812 26.25Z" fill="#B4B4B4"/>
</svg>
