<svg width="64" height="64" viewBox="0 0 64 64" fill="none" xmlns="http://www.w3.org/2000/svg">
<g id="container">
<path id="Subtract" fill-rule="evenodd" clip-rule="evenodd" d="M64 32C64 49.6731 49.6731 64 32 64C14.3269 64 0 49.6731 0 32C0 14.3269 14.3269 0 32 0C49.6731 0 64 14.3269 64 32ZM23.0001 27.6001C23.0001 32.3334 26.8001 36.1334 31.5334 36.1334C36.2667 36.1334 40.0667 32.3334 40.0667 27.6001C40.0667 22.8667 36.2667 19.0667 31.5334 19.0667C26.8001 19.0667 23.0001 22.8667 23.0001 27.6001ZM44.3334 27.6001C44.3334 20.5334 38.6001 14.8 31.5334 14.8C24.4667 14.8 18.7334 20.5334 18.7334 27.6001C18.7334 34.6667 24.4667 40.4001 31.5334 40.4001C38.6001 40.4001 44.3334 34.6667 44.3334 27.6001ZM43.7334 44.0667C44.6001 43.2667 44.6001 41.9334 43.7334 41.0667C42.9334 40.2001 41.5334 40.2001 40.7334 41.0667L32.2001 49.6001C31.3334 50.4001 31.3334 51.7334 32.2001 52.6C33.0001 53.4667 34.3334 53.4667 35.2001 52.6L43.7334 44.0667ZM46.5334 19.0667C47.7334 19.0667 48.6667 18.1334 48.6667 16.9334C48.6667 15.7334 47.6667 14.8 46.5334 14.8C45.3334 14.8 44.4001 15.7334 44.4001 16.9334C44.4001 18.1334 45.3334 19.0667 46.5334 19.0667Z" fill="white"/>
</g>
</svg>
