<svg width="64" height="64" viewBox="0 0 64 64" fill="none" xmlns="http://www.w3.org/2000/svg">
<mask id="mask0_165_2046" style="mask-type:alpha" maskUnits="userSpaceOnUse" x="0" y="0" width="64" height="64">
<circle cx="45.8865" cy="45.887" r="12.7802" stroke="#F1F1F1" stroke-width="2.66667"/>
<path d="M58.6667 18.2945C58.6667 25.4688 52.9288 31.2556 45.8865 31.2556C38.8441 31.2556 33.1063 25.4688 33.1063 18.2945C33.1063 11.1202 38.8441 5.33333 45.8865 5.33333C52.9288 5.33333 58.6667 11.1202 58.6667 18.2945Z" stroke="#F1F1F1" stroke-width="2.66667"/>
<path d="M31.2556 18.1135C31.2556 25.1559 25.4688 30.8938 18.2945 30.8938C11.1202 30.8938 5.33333 25.1559 5.33333 18.1135C5.33333 11.0712 11.1202 5.33333 18.2945 5.33333C25.4688 5.33333 31.2556 11.0712 31.2556 18.1135Z" stroke="#F1F1F1" stroke-width="2.66667"/>
<circle cx="18.1135" cy="45.887" r="12.7802" stroke="#F1F1F1" stroke-width="2.66667"/>
</mask>
<g mask="url(#mask0_165_2046)">
<rect width="64" height="64" fill="url(#paint0_linear_165_2046)"/>
</g>
<defs>
<linearGradient id="paint0_linear_165_2046" x1="64" y1="64" x2="-10.5069" y2="16.4706" gradientUnits="userSpaceOnUse">
<stop offset="0.0727574" stop-color="#FFE702"/>
<stop offset="0.333333" stop-color="#FF3DCF"/>
<stop offset="0.661458" stop-color="#14BCDF"/>
<stop offset="0.854167" stop-color="#49F0A1"/>
<stop offset="1" stop-color="#49E34B"/>
</linearGradient>
</defs>
</svg>
