<svg width="56" height="64" viewBox="0 0 56 64" fill="none" xmlns="http://www.w3.org/2000/svg">
<g clip-path="url(#clip0_612_25)">
<path d="M21.7956 14.5636C21.1021 14.4646 21.069 14.4315 21.3993 14.3985C22.0267 14.2994 23.4798 14.4315 24.5035 14.6627C26.8812 15.2241 29.0278 16.6772 31.3064 19.22L31.9008 19.9135L32.7594 19.7814C36.4251 19.187 40.1898 19.6493 43.327 21.1023C44.1857 21.4986 45.5396 22.2912 45.7048 22.4893C45.7708 22.5554 45.8699 22.9847 45.9359 23.414C46.1671 24.9661 46.068 26.1219 45.5727 27.0136C45.3085 27.5089 45.3085 27.641 45.4736 28.0703C45.6057 28.4006 46.002 28.6317 46.3652 28.6317C47.1578 28.6317 47.9834 27.3768 48.3797 25.6266L48.5448 24.9331L48.842 25.2633C50.5262 27.1457 51.8472 29.7545 52.0453 31.6039L52.1114 32.0992L51.8141 31.6699C51.3188 30.9104 50.8565 30.415 50.229 29.9857C49.1062 29.2262 47.9173 28.995 44.7801 28.8299C41.9401 28.6648 40.3219 28.4336 38.7367 27.9052C36.0288 27.0136 34.6418 25.8578 31.4385 21.5977C30.0185 19.7153 29.1268 18.6916 28.2352 17.833C26.2868 15.9506 24.3384 14.9599 21.7956 14.5636Z" fill="white"/>
<path d="M46.3986 18.7574C46.4647 17.5025 46.6298 16.6769 46.993 15.9174C47.1251 15.6201 47.2572 15.356 47.2902 15.356C47.3233 15.356 47.2572 15.5871 47.1582 15.8513C46.894 16.5778 46.8609 17.6016 47.0261 18.7574C47.2572 20.2435 47.3563 20.4416 48.9414 22.0598C49.668 22.8193 50.5266 23.777 50.8568 24.1733L51.4182 24.8998L50.8568 24.3714C50.1633 23.711 48.5782 22.4561 48.2149 22.2909C47.9837 22.1588 47.9507 22.1588 47.7856 22.324C47.6535 22.4561 47.6205 22.6542 47.6205 23.6119C47.5875 25.098 47.3893 26.0226 46.894 26.9803C46.6298 27.4757 46.5967 27.3766 46.8279 26.8152C46.993 26.3859 47.0261 26.1877 47.0261 24.7677C47.0261 21.8947 46.6958 21.2012 44.6814 20.0453C44.186 19.7481 43.3274 19.3188 42.832 19.0876C42.3037 18.8565 41.9074 18.6583 41.9404 18.6583C42.0064 18.5923 43.9548 19.1537 44.7144 19.4839C45.8702 19.9463 46.0684 19.9793 46.2005 19.9463C46.2995 19.8472 46.3656 19.583 46.3986 18.7574Z" fill="white"/>
<path d="M23.15 23.6779C21.763 21.7625 20.8713 18.7904 21.0695 16.5778L21.1355 15.8843L21.4658 15.9503C22.0602 16.0494 23.0839 16.4457 23.5793 16.7429C24.9002 17.5355 25.4947 18.6252 26.0561 21.3332C26.2212 22.1258 26.4523 23.0504 26.5514 23.3476C26.7165 23.843 27.344 24.9988 27.8724 25.7254C28.2356 26.2537 28.0045 26.5179 27.1789 26.4519C25.924 26.3198 24.2398 25.1639 23.15 23.6779Z" fill="white"/>
<path d="M44.7146 38.0434C38.1759 35.4015 35.8643 33.1229 35.8643 29.2591C35.8643 28.6977 35.8973 28.2354 35.8973 28.2354C35.9303 28.2354 36.1615 28.4335 36.4587 28.6647C37.7796 29.7214 39.2657 30.1838 43.3937 30.7782C45.8044 31.1414 47.1914 31.4056 48.4463 31.8349C52.4422 33.1559 54.919 35.8638 55.5134 39.5295C55.6785 40.5862 55.5794 42.6007 55.3152 43.6574C55.0841 44.483 54.4236 46.0021 54.2585 46.0351C54.2255 46.0351 54.1594 45.87 54.1594 45.6058C54.0934 44.2188 53.3999 42.8979 52.244 41.8742C50.857 40.6853 49.0738 39.7937 44.7146 38.0434Z" fill="white"/>
<path d="M40.0909 39.1333C40.0248 38.638 39.8597 38.0105 39.7606 37.7463L39.5955 37.251L39.8927 37.6142C40.322 38.1096 40.6523 38.704 40.9495 39.5296C41.1806 40.1571 41.1806 40.3552 41.1806 41.3789C41.1806 42.3697 41.1476 42.6008 40.9495 43.1622C40.6192 44.0539 40.223 44.6813 39.5625 45.3748C38.3736 46.5967 36.8215 47.2572 34.6089 47.5544C34.2126 47.5874 33.0898 47.6865 32.0991 47.7525C29.6223 47.8846 27.9711 48.1488 26.4851 48.6772C26.2869 48.7432 26.0888 48.8093 26.0558 48.7763C25.9897 48.7102 27.0135 48.1158 27.8391 47.7195C28.9949 47.1581 30.1837 46.8609 32.7926 46.3986C34.0805 46.2004 35.4015 45.9362 35.7317 45.8041C39.0011 44.7804 40.6192 42.2376 40.0909 39.1333Z" fill="white"/>
<path d="M43.0959 44.4501C42.2373 42.5678 42.0392 40.7845 42.5015 39.1003C42.5676 38.9351 42.6336 38.77 42.6997 38.77C42.7657 38.77 42.9638 38.8691 43.162 39.0012C43.5583 39.2654 44.3839 39.7277 46.4974 40.8835C49.1723 42.3366 50.6914 43.4594 51.7482 44.7473C52.6728 45.8701 53.2342 47.158 53.4984 48.7432C53.6635 49.6348 53.5645 51.7814 53.3333 52.673C52.6068 55.48 50.9556 57.7256 48.5449 59.0136C48.1816 59.2117 47.8844 59.3438 47.8514 59.3438C47.8183 59.3438 47.9504 59.0136 48.1486 58.6173C48.9411 56.9331 49.0402 55.3149 48.4458 53.4986C48.0825 52.3758 47.323 51.0218 45.8039 48.7432C43.9876 46.1013 43.5583 45.4078 43.0959 44.4501Z" fill="white"/>
<path d="M18.4933 54.5551C20.9371 52.5076 23.9422 51.0546 26.7162 50.5923C27.9051 50.3941 29.8865 50.4602 30.9763 50.7574C32.7265 51.2197 34.3117 52.2104 35.1373 53.4323C35.9298 54.6212 36.2931 55.6449 36.6564 57.9235C36.7885 58.8152 36.9536 59.7398 36.9866 59.938C37.2508 61.1268 37.7792 62.0515 38.4396 62.5469C39.4634 63.3064 41.2467 63.3394 42.9969 62.679C43.2941 62.5799 43.5583 62.4808 43.5583 62.5138C43.6244 62.5799 42.7327 63.1743 42.1383 63.4715C41.3127 63.9008 40.6522 64.0329 39.7606 64.0329C38.1754 64.0329 36.8215 63.2073 35.7317 61.5561C35.5005 61.2259 35.0382 60.2682 34.6419 59.3766C33.4861 56.7017 32.8917 55.9091 31.5377 55.0174C30.3488 54.2579 28.8297 54.0928 27.6739 54.6542C26.1548 55.3807 25.7585 57.3291 26.8153 58.518C27.2446 59.0133 28.0372 59.4096 28.6976 59.5087C29.9195 59.6738 30.9763 58.7161 30.9763 57.4942C30.9763 56.7017 30.6791 56.2393 29.8865 55.8761C28.8297 55.4137 27.6739 55.9421 27.7069 56.9658C27.7069 57.3952 27.9051 57.6593 28.3344 57.8575C28.5986 57.9896 28.5986 57.9896 28.4004 57.9566C27.4427 57.7584 27.2116 56.5696 27.9711 55.81C28.8958 54.8854 30.8442 55.2816 31.5047 56.5696C31.7688 57.0979 31.8019 58.1547 31.5707 58.8152C31.0093 60.2682 29.4242 61.0278 27.806 60.5985C26.7162 60.3012 26.2539 60.004 24.9329 58.6501C22.6213 56.2724 21.7296 55.81 18.4273 55.3147L17.7998 55.2156L18.4933 54.5551Z" fill="white"/>
<path fill-rule="evenodd" clip-rule="evenodd" d="M1.12232 1.42002C8.81685 10.7657 20.6724 25.2962 21.2668 26.0888C21.7622 26.7492 21.564 27.3767 20.7384 27.839C20.2761 28.1032 19.3184 28.3674 18.8561 28.3674C18.3277 28.3674 17.7002 28.1032 17.2709 27.6739C16.9737 27.3767 15.6858 25.4943 12.7797 20.9701C10.5671 17.5026 8.68476 14.6295 8.65173 14.5965C8.51964 14.5304 8.51964 14.5304 12.5485 21.7296C15.0914 26.2539 15.917 27.872 15.917 28.0702C15.917 28.4995 15.7849 28.7307 15.2565 29.3251C14.3648 30.3158 13.9686 31.4386 13.6713 33.7833C13.3411 36.3922 12.4495 38.2415 9.90664 41.3787C8.42057 43.2281 8.1894 43.5583 7.82614 44.3179C7.36381 45.2425 7.23171 45.7709 7.16567 46.9598C7.09962 48.2147 7.23171 49.0072 7.59498 50.1961C7.92521 51.2528 8.28847 51.9463 9.18011 53.3003C9.93966 54.4892 10.402 55.3808 10.402 55.711C10.402 55.9752 10.468 55.9752 11.6569 55.711C14.4969 55.0506 16.8416 53.9278 18.1295 52.5408C18.9221 51.6821 19.1203 51.2198 19.1203 50.031C19.1203 49.2714 19.0872 49.1063 18.8891 48.644C18.5589 47.9174 17.9314 47.323 16.5774 46.3983C14.7941 45.1765 14.0346 44.1858 13.8365 42.8648C13.6713 41.742 13.8695 40.9825 14.8602 38.902C15.8839 36.7554 16.1481 35.8638 16.3132 33.6842C16.4123 32.2972 16.5774 31.7358 16.9737 31.3065C17.403 30.8442 17.7663 30.6791 18.79 30.547C20.4742 30.3158 21.564 29.8865 22.4226 29.0609C23.1822 28.3674 23.5124 27.6739 23.5454 26.6502L23.5785 25.8906L23.1492 25.4283C21.597 23.645 0.098587 0 -0.000484214 0C-0.0335079 0 0.494872 0.627451 1.12232 1.42002ZM11.2606 48.3798C11.6239 47.7523 11.4257 46.9598 10.8313 46.5635C10.2699 46.2002 9.41128 46.3653 9.41128 46.8607C9.41128 46.9928 9.47733 47.1249 9.67547 47.1909C9.97268 47.356 10.0057 47.5212 9.77454 47.8844C9.54338 48.2477 9.54338 48.5779 9.84059 48.8091C10.3029 49.1723 10.9304 48.9742 11.2606 48.3798Z" fill="white"/>
<path fill-rule="evenodd" clip-rule="evenodd" d="M24.6358 31.0094C23.8432 31.2406 23.0836 32.0992 22.8525 32.9578C22.7204 33.4862 22.7864 34.4439 23.0176 34.7411C23.3809 35.2034 23.7111 35.3355 24.6358 35.3355C26.4521 35.3355 28.0042 34.543 28.1693 33.5853C28.3344 32.7927 27.6409 31.7029 26.6832 31.2076C26.1879 30.9434 25.1641 30.8443 24.6358 31.0094ZM26.7493 32.6606C27.0135 32.2643 26.9144 31.835 26.419 31.5378C25.5274 30.9764 24.1734 31.4387 24.1734 32.2974C24.1734 32.7267 24.8669 33.189 25.5274 33.189C25.9567 33.189 26.5511 32.9248 26.7493 32.6606Z" fill="white"/>
</g>
<defs>
<clipPath id="clip0_612_25">
<rect width="55.5789" height="64" fill="white"/>
</clipPath>
</defs>
</svg>
