<svg width="64" height="64" viewBox="0 0 64 64" fill="none" xmlns="http://www.w3.org/2000/svg">
<g id="container">
<path id="Subtract" fill-rule="evenodd" clip-rule="evenodd" d="M0.0479773 28.7859L11.7178 4.27344C11.756 4.19089 11.8173 4.12114 11.8942 4.07263C11.9712 4.02412 12.0605 3.9989 12.1515 4.00004H51.8523C51.9428 3.9998 52.0315 4.02563 52.1077 4.07445C52.184 4.12327 52.2445 4.19301 52.2822 4.27533L63.952 28.7878C63.9964 28.879 64.0105 28.982 63.9922 29.0817C63.9739 29.1815 63.9241 29.2727 63.8502 29.3422L32.3328 59.5416C32.2433 59.6274 32.124 59.6753 32 59.6753C31.876 59.6753 31.7567 59.6274 31.6672 59.5416L0.149798 29.3403C0.0758906 29.2708 0.0261386 29.1796 0.00781828 29.0798C-0.0105021 28.9801 0.00357023 28.8771 0.0479773 28.7859ZM32.0461 31.3877C34.6539 31.3877 35.8229 31.3179 36.0492 31.301L36.0416 31.2991C44.0421 30.9446 50.01 29.5493 50.01 27.8824C50.01 26.2156 44.0402 24.8202 36.0416 24.4639V29.9132C35.8172 29.9339 34.5709 30.0376 32.0819 30.0376C30.0078 30.0376 28.5069 29.949 27.9827 29.9113V24.4601C19.9671 24.8183 13.9842 26.2118 13.9842 27.8824C13.9842 29.553 19.9671 30.9484 27.9827 31.301C28.4993 31.3255 29.972 31.3877 32.0461 31.3877ZM36.0492 23.8983V23.9001L36.0473 23.8982C36.0479 23.8982 36.0485 23.8982 36.0492 23.8983ZM36.0492 19.0221V23.8983C45.1047 24.317 51.9088 26.112 51.9088 28.2633C51.9088 30.4147 45.0981 32.2098 36.0473 32.6265V48.2636H27.9808V32.6322C18.9093 32.2136 12.0873 30.4185 12.0873 28.2652C12.0873 26.1119 18.9093 24.3149 27.9808 23.8982V19.0221H16.8201V11.5835H47.2118V19.0221H36.0492Z" fill="white"/>
</g>
</svg>
