<svg width="64" height="64" viewBox="0 0 64 64" fill="none" xmlns="http://www.w3.org/2000/svg">
<g id="container">
<path id="Vector" d="M52.2333 29.6991C52.2333 29.6991 53.0778 33.8325 53.2667 34.6991H49.5556C49.9222 33.7102 51.3333 29.8658 51.3333 29.8658C51.3111 29.8991 51.7 28.8547 51.9222 28.2102L52.2333 29.6991ZM64 12.888V51.9991C64 54.9436 61.6111 57.3325 58.6667 57.3325H5.33333C2.38889 57.3325 0 54.9436 0 51.9991V12.888C0 9.94358 2.38889 7.55469 5.33333 7.55469H58.6667C61.6111 7.55469 64 9.94358 64 12.888ZM16.9444 40.7991L23.9667 23.5547H19.2444L14.8778 35.3325L14.4 32.9436L12.8444 25.0102C12.5889 23.9102 11.8 23.5991 10.8222 23.5547H3.63333L3.55556 23.8991C5.31111 24.3436 6.87778 24.988 8.24444 25.7991L12.2222 40.7991H16.9444ZM27.4333 40.8214L30.2333 23.5547H25.7667L22.9778 40.8214H27.4333ZM42.9778 35.1769C43 33.2102 41.8 31.7102 39.2333 30.4769C37.6667 29.688 36.7111 29.1547 36.7111 28.3436C36.7333 27.6102 37.5222 26.8547 39.2778 26.8547C40.7333 26.8214 41.8 27.1658 42.6 27.5102L43 27.6991L43.6111 23.9658C42.7333 23.6214 41.3333 23.2325 39.6111 23.2325C35.2 23.2325 32.1 25.588 32.0778 28.9436C32.0444 31.4214 34.3 32.7991 35.9889 33.6325C37.7111 34.4769 38.3 35.0325 38.3 35.7769C38.2778 36.9325 36.9 37.4658 35.6222 37.4658C33.8444 37.4658 32.8889 37.188 31.4333 36.5436L30.8444 36.2658L30.2222 40.1436C31.2667 40.6214 33.2 41.0436 35.2 41.0658C39.8889 41.0769 42.9444 38.7547 42.9778 35.1769ZM58.6667 40.8214L55.0667 23.5547H51.6111C50.5444 23.5547 49.7333 23.8658 49.2778 24.988L42.6444 40.8214H47.3333C47.3333 40.8214 48.1 38.688 48.2667 38.2325H54C54.1333 38.8436 54.5333 40.8214 54.5333 40.8214H58.6667Z" fill="white"/>
</g>
</svg>
