<svg width="1080" height="720" viewBox="0 0 1080 720" fill="none" xmlns="http://www.w3.org/2000/svg">
<rect width="1080" height="720" fill="url(#paint0_radial_603_625)"/>
<path fill-rule="evenodd" clip-rule="evenodd" d="M377.913 254.043H426.826L303.319 466.875L179 254.043H229.025L303.319 382.172L377.913 254.043Z" fill="#41B883"/>
<path fill-rule="evenodd" clip-rule="evenodd" d="M331.686 254H378.206L303.252 382.396L228.9 254H274.693L303.252 303.43L331.686 254Z" fill="#35495E"/>
<path d="M481.553 306.945L511.765 395.357H512.984L543.197 306.945H560.901L521.836 415.499H502.913L463.849 306.945H481.553ZM626.878 381.735V334.083H642.78V415.499H627.196V401.399H626.348C624.475 405.746 621.472 409.368 617.337 412.265C613.238 415.128 608.132 416.559 602.019 416.559C596.789 416.559 592.16 415.41 588.132 413.113C584.139 410.781 580.994 407.336 578.697 402.778C576.435 398.219 575.305 392.583 575.305 385.869V334.083H591.153V383.961C591.153 389.509 592.69 393.926 595.764 397.212C598.839 400.498 602.832 402.141 607.744 402.141C610.712 402.141 613.662 401.399 616.595 399.915C619.564 398.431 622.019 396.187 623.963 393.184C625.942 390.18 626.914 386.364 626.878 381.735ZM699.163 417.142C691.142 417.142 684.234 415.428 678.439 412C672.679 408.537 668.226 403.679 665.081 397.424C661.972 391.134 660.417 383.767 660.417 375.321C660.417 366.982 661.972 359.632 665.081 353.271C668.226 346.911 672.608 341.946 678.227 338.377C683.88 334.808 690.488 333.023 698.05 333.023C702.644 333.023 707.096 333.783 711.408 335.303C715.719 336.822 719.588 339.207 723.016 342.458C726.443 345.709 729.146 349.932 731.125 355.126C733.104 360.285 734.094 366.558 734.094 373.943V379.561H669.375V367.688H718.563C718.563 363.519 717.715 359.826 716.019 356.61C714.323 353.359 711.938 350.798 708.863 348.925C705.824 347.052 702.255 346.116 698.156 346.116C693.704 346.116 689.817 347.211 686.495 349.402C683.209 351.557 680.665 354.384 678.863 357.883C677.096 361.346 676.212 365.109 676.212 369.173V378.448C676.212 383.89 677.166 388.519 679.075 392.336C681.018 396.152 683.721 399.067 687.184 401.081C690.647 403.06 694.693 404.05 699.322 404.05C702.326 404.05 705.065 403.626 707.538 402.778C710.012 401.894 712.15 400.587 713.952 398.855C715.754 397.124 717.132 394.986 718.086 392.442L733.086 395.145C731.885 399.562 729.729 403.431 726.62 406.753C723.546 410.039 719.676 412.601 715.012 414.439C710.383 416.241 705.1 417.142 699.163 417.142ZM762.12 416.506C759.222 416.506 756.731 415.481 754.646 413.432C752.561 411.347 751.519 408.838 751.519 405.905C751.519 403.007 752.561 400.534 754.646 398.484C756.731 396.399 759.222 395.357 762.12 395.357C765.017 395.357 767.509 396.399 769.593 398.484C771.678 400.534 772.721 403.007 772.721 405.905C772.721 407.848 772.226 409.633 771.237 411.258C770.282 412.848 769.01 414.121 767.42 415.075C765.83 416.029 764.063 416.506 762.12 416.506ZM793.949 334.083H809.798V420.799C809.798 426.241 808.808 430.835 806.829 434.58C804.886 438.326 801.988 441.171 798.136 443.114C794.32 445.058 789.603 446.029 783.984 446.029C783.419 446.029 782.889 446.029 782.394 446.029C781.864 446.029 781.316 446.012 780.751 445.976V432.354C781.246 432.354 781.687 432.354 782.076 432.354C782.429 432.354 782.836 432.354 783.295 432.354C787.041 432.354 789.744 431.347 791.405 429.333C793.101 427.354 793.949 424.474 793.949 420.693V334.083ZM801.794 321.521C799.038 321.521 796.67 320.603 794.691 318.765C792.748 316.892 791.776 314.666 791.776 312.086C791.776 309.472 792.748 307.245 794.691 305.408C796.67 303.535 799.038 302.599 801.794 302.599C804.55 302.599 806.9 303.535 808.843 305.408C810.822 307.245 811.812 309.472 811.812 312.086C811.812 314.666 810.822 316.892 808.843 318.765C806.9 320.603 804.55 321.521 801.794 321.521ZM892.127 353.96L877.763 356.504C877.162 354.667 876.208 352.918 874.901 351.257C873.628 349.596 871.897 348.236 869.706 347.176C867.515 346.116 864.777 345.585 861.49 345.585C857.003 345.585 853.257 346.593 850.253 348.607C847.25 350.586 845.748 353.147 845.748 356.292C845.748 359.013 846.755 361.204 848.769 362.865C850.783 364.526 854.034 365.886 858.522 366.946L871.455 369.915C878.947 371.646 884.53 374.314 888.205 377.918C891.88 381.523 893.717 386.205 893.717 391.965C893.717 396.841 892.304 401.187 889.477 405.004C886.685 408.785 882.781 411.753 877.763 413.909C872.78 416.064 867.003 417.142 860.43 417.142C851.313 417.142 843.875 415.198 838.115 411.311C832.355 407.389 828.822 401.823 827.514 394.615L842.833 392.283C843.787 396.276 845.748 399.297 848.716 401.346C851.685 403.361 855.554 404.368 860.324 404.368C865.519 404.368 869.671 403.29 872.78 401.134C875.89 398.944 877.445 396.276 877.445 393.131C877.445 390.586 876.491 388.449 874.583 386.717C872.71 384.986 869.83 383.678 865.943 382.795L852.162 379.774C844.564 378.042 838.946 375.286 835.306 371.505C831.702 367.724 829.9 362.936 829.9 357.14C829.9 352.335 831.242 348.13 833.928 344.525C836.613 340.921 840.324 338.112 845.059 336.098C849.794 334.048 855.218 333.023 861.331 333.023C870.13 333.023 877.056 334.932 882.109 338.748C887.162 342.529 890.502 347.6 892.127 353.96Z" fill="white"/>
<defs>
<radialGradient id="paint0_radial_603_625" cx="0" cy="0" r="1" gradientUnits="userSpaceOnUse" gradientTransform="translate(540 360) rotate(90) scale(613.5 920.25)">
<stop stop-color="#1F1F1F"/>
<stop offset="1" stop-color="#111111"/>
</radialGradient>
</defs>
</svg>
