<svg width="1350" height="440" viewBox="0 0 1350 440" fill="none" xmlns="http://www.w3.org/2000/svg">
<g clip-path="url(#clip0_936_41524)">
<rect width="1350" height="440" rx="32" fill="white"/>
<g clip-path="url(#clip1_936_41524)">
<rect width="2294" height="1290.38" transform="translate(-472 -426)" fill="#111111"/>
<rect x="-25.2965" y="-28.5816" width="82.4406" height="82.4406" fill="#111111"/>
<rect x="-25.2965" y="-28.5816" width="82.4406" height="82.4406" stroke="#222222" stroke-width="2.68828"/>
<rect x="57.143" y="-28.5816" width="82.4406" height="82.4406" fill="#111111"/>
<rect x="57.143" y="-28.5816" width="82.4406" height="82.4406" stroke="#222222" stroke-width="2.68828"/>
<path d="M61.9824 -24.5488L61.9824 49.827" stroke="#222222" stroke-width="2.68828" stroke-linecap="square"/>
<path d="M67.1797 -24.5488L67.1797 49.827" stroke="#222222" stroke-width="2.68828" stroke-linecap="square"/>
<path d="M72.377 -24.5488L72.3769 49.827" stroke="#222222" stroke-width="2.68828" stroke-linecap="square"/>
<path d="M77.5742 -24.5488L77.5742 49.827" stroke="#222222" stroke-width="2.68828" stroke-linecap="square"/>
<path d="M82.7715 -24.5488L82.7715 49.827" stroke="#222222" stroke-width="2.68828" stroke-linecap="square"/>
<path d="M87.9688 -24.5488L87.9687 49.827" stroke="#222222" stroke-width="2.68828" stroke-linecap="square"/>
<path d="M93.166 -24.5488L93.166 49.827" stroke="#222222" stroke-width="2.68828" stroke-linecap="square"/>
<path d="M98.3633 -24.5488L98.3633 49.827" stroke="#222222" stroke-width="2.68828" stroke-linecap="square"/>
<path d="M103.561 -24.5488L103.561 49.827" stroke="#222222" stroke-width="2.68828" stroke-linecap="square"/>
<path d="M108.758 -24.5488L108.758 49.827" stroke="#222222" stroke-width="2.68828" stroke-linecap="square"/>
<path d="M113.955 -24.5488L113.955 49.827" stroke="#222222" stroke-width="2.68828" stroke-linecap="square"/>
<path d="M119.152 -24.5488L119.152 49.827" stroke="#222222" stroke-width="2.68828" stroke-linecap="square"/>
<path d="M124.35 -24.5488L124.35 49.827" stroke="#222222" stroke-width="2.68828" stroke-linecap="square"/>
<path d="M129.547 -24.5488L129.547 49.827" stroke="#222222" stroke-width="2.68828" stroke-linecap="square"/>
<path d="M134.744 -24.5488L134.744 49.827" stroke="#222222" stroke-width="2.68828" stroke-linecap="square"/>
<rect x="139.584" y="-28.5816" width="82.4406" height="82.4406" fill="#111111"/>
<rect x="139.584" y="-28.5816" width="82.4406" height="82.4406" stroke="#222222" stroke-width="2.68828"/>
<path d="M194.58 -1.23534L183.306 15.289L191.89 13.5286C192.06 13.7981 192.229 14.0675 192.398 14.337L165.601 45.8381H164.629L175.649 25.3781L167.551 27.0374C167.292 26.6704 167.269 26.6439 167.01 26.2769L177.936 10.045L169.728 11.7257C169.468 11.3268 169.474 11.3268 169.214 10.9226L195.995 -20.5625H196.978L186.107 -0.368434L194.039 -1.99587C194.304 -1.6289 194.321 -1.60231 194.58 -1.23534Z" fill="#3A3A3A"/>
<rect x="222.024" y="-28.5816" width="82.4406" height="82.4406" fill="#111111"/>
<rect x="222.024" y="-28.5816" width="82.4406" height="82.4406" stroke="#222222" stroke-width="2.68828"/>
<path d="M226.863 -24.5488L226.863 49.827" stroke="#222222" stroke-width="2.68828" stroke-linecap="square"/>
<path d="M232.061 -24.5488L232.061 49.827" stroke="#222222" stroke-width="2.68828" stroke-linecap="square"/>
<path d="M237.258 -24.5488L237.258 49.827" stroke="#222222" stroke-width="2.68828" stroke-linecap="square"/>
<path d="M242.455 -24.5488L242.455 49.827" stroke="#222222" stroke-width="2.68828" stroke-linecap="square"/>
<path d="M247.652 -24.5488L247.652 49.827" stroke="#222222" stroke-width="2.68828" stroke-linecap="square"/>
<path d="M252.85 -24.5488L252.85 49.827" stroke="#222222" stroke-width="2.68828" stroke-linecap="square"/>
<path d="M258.047 -24.5488L258.047 49.827" stroke="#222222" stroke-width="2.68828" stroke-linecap="square"/>
<path d="M263.244 -24.5488L263.244 49.827" stroke="#222222" stroke-width="2.68828" stroke-linecap="square"/>
<path d="M268.441 -24.5488L268.441 49.827" stroke="#222222" stroke-width="2.68828" stroke-linecap="square"/>
<path d="M273.639 -24.5488L273.639 49.827" stroke="#222222" stroke-width="2.68828" stroke-linecap="square"/>
<path d="M278.836 -24.5488L278.836 49.827" stroke="#222222" stroke-width="2.68828" stroke-linecap="square"/>
<path d="M284.033 -24.5488L284.033 49.827" stroke="#222222" stroke-width="2.68828" stroke-linecap="square"/>
<path d="M289.23 -24.5488L289.23 49.827" stroke="#222222" stroke-width="2.68828" stroke-linecap="square"/>
<path d="M294.428 -24.5488L294.428 49.827" stroke="#222222" stroke-width="2.68828" stroke-linecap="square"/>
<path d="M299.625 -24.5488L299.625 49.827" stroke="#222222" stroke-width="2.68828" stroke-linecap="square"/>
<rect x="304.465" y="-28.5816" width="82.4406" height="82.4406" fill="#111111"/>
<rect x="304.465" y="-28.5816" width="82.4406" height="82.4406" stroke="#222222" stroke-width="2.68828"/>
<rect x="386.907" y="-28.5816" width="82.4406" height="82.4406" fill="#111111"/>
<rect x="386.907" y="-28.5816" width="82.4406" height="82.4406" stroke="#222222" stroke-width="2.68828"/>
<rect x="469.346" y="-28.5816" width="82.4406" height="82.4406" fill="#111111"/>
<rect x="469.346" y="-28.5816" width="82.4406" height="82.4406" stroke="#222222" stroke-width="2.68828"/>
<rect x="551.787" y="-28.5816" width="82.4406" height="82.4406" fill="#111111"/>
<rect x="551.787" y="-28.5816" width="82.4406" height="82.4406" stroke="#222222" stroke-width="2.68828"/>
<rect x="634.227" y="-28.5816" width="82.4406" height="82.4406" fill="#111111"/>
<rect x="634.227" y="-28.5816" width="82.4406" height="82.4406" stroke="#222222" stroke-width="2.68828"/>
<rect x="716.668" y="-28.5816" width="82.4406" height="82.4406" fill="#111111"/>
<rect x="716.668" y="-28.5816" width="82.4406" height="82.4406" stroke="#222222" stroke-width="2.68828"/>
<rect x="799.11" y="-28.5816" width="82.4406" height="82.4406" fill="#111111"/>
<rect x="799.11" y="-28.5816" width="82.4406" height="82.4406" stroke="#222222" stroke-width="2.68828"/>
<rect x="881.549" y="-28.5816" width="82.4406" height="82.4406" fill="#111111"/>
<rect x="881.549" y="-28.5816" width="82.4406" height="82.4406" stroke="#222222" stroke-width="2.68828"/>
<rect x="963.991" y="-28.5816" width="82.4406" height="82.4406" fill="#111111"/>
<rect x="963.991" y="-28.5816" width="82.4406" height="82.4406" stroke="#222222" stroke-width="2.68828"/>
<rect x="1046.43" y="-28.5816" width="82.4406" height="82.4406" fill="#111111"/>
<rect x="1046.43" y="-28.5816" width="82.4406" height="82.4406" stroke="#222222" stroke-width="2.68828"/>
<path d="M1051.27 -24.5488L1051.27 49.827" stroke="#222222" stroke-width="2.68828" stroke-linecap="square"/>
<path d="M1056.47 -24.5488L1056.47 49.827" stroke="#222222" stroke-width="2.68828" stroke-linecap="square"/>
<path d="M1061.66 -24.5488L1061.66 49.827" stroke="#222222" stroke-width="2.68828" stroke-linecap="square"/>
<path d="M1066.86 -24.5488L1066.86 49.827" stroke="#222222" stroke-width="2.68828" stroke-linecap="square"/>
<path d="M1072.06 -24.5488L1072.06 49.827" stroke="#222222" stroke-width="2.68828" stroke-linecap="square"/>
<path d="M1077.26 -24.5488L1077.26 49.827" stroke="#222222" stroke-width="2.68828" stroke-linecap="square"/>
<path d="M1082.45 -24.5488L1082.45 49.827" stroke="#222222" stroke-width="2.68828" stroke-linecap="square"/>
<path d="M1087.65 -24.5488L1087.65 49.827" stroke="#222222" stroke-width="2.68828" stroke-linecap="square"/>
<path d="M1092.85 -24.5488L1092.85 49.827" stroke="#222222" stroke-width="2.68828" stroke-linecap="square"/>
<path d="M1098.04 -24.5488L1098.04 49.827" stroke="#222222" stroke-width="2.68828" stroke-linecap="square"/>
<path d="M1103.24 -24.5488L1103.24 49.827" stroke="#222222" stroke-width="2.68828" stroke-linecap="square"/>
<path d="M1108.44 -24.5488L1108.44 49.827" stroke="#222222" stroke-width="2.68828" stroke-linecap="square"/>
<path d="M1113.64 -24.5488L1113.64 49.827" stroke="#222222" stroke-width="2.68828" stroke-linecap="square"/>
<path d="M1118.83 -24.5488L1118.83 49.827" stroke="#222222" stroke-width="2.68828" stroke-linecap="square"/>
<path d="M1124.03 -24.5488L1124.03 49.827" stroke="#222222" stroke-width="2.68828" stroke-linecap="square"/>
<rect x="1128.87" y="-28.5816" width="82.4406" height="82.4406" fill="#111111"/>
<rect x="1128.87" y="-28.5816" width="82.4406" height="82.4406" stroke="#222222" stroke-width="2.68828"/>
<path d="M1183.87 -1.23534L1172.59 15.289L1181.18 13.5286C1181.35 13.7981 1181.52 14.0675 1181.69 14.337L1154.89 45.8381H1153.92L1164.94 25.3781L1156.84 27.0374C1156.58 26.6704 1156.56 26.6439 1156.3 26.2769L1167.22 10.045L1159.01 11.7257C1158.76 11.3268 1158.76 11.3268 1158.5 10.9226L1185.28 -20.5625H1186.26L1175.39 -0.368434L1183.33 -1.99587C1183.59 -1.6289 1183.61 -1.60231 1183.87 -1.23534Z" fill="#3A3A3A"/>
<rect x="1211.31" y="-28.5816" width="82.4406" height="82.4406" fill="#111111"/>
<rect x="1211.31" y="-28.5816" width="82.4406" height="82.4406" stroke="#222222" stroke-width="2.68828"/>
<path d="M1216.15 -24.5488L1216.15 49.827" stroke="#222222" stroke-width="2.68828" stroke-linecap="square"/>
<path d="M1221.35 -24.5488L1221.35 49.827" stroke="#222222" stroke-width="2.68828" stroke-linecap="square"/>
<path d="M1226.55 -24.5488L1226.55 49.827" stroke="#222222" stroke-width="2.68828" stroke-linecap="square"/>
<path d="M1231.74 -24.5488L1231.74 49.827" stroke="#222222" stroke-width="2.68828" stroke-linecap="square"/>
<path d="M1236.94 -24.5488L1236.94 49.827" stroke="#222222" stroke-width="2.68828" stroke-linecap="square"/>
<path d="M1242.14 -24.5488L1242.14 49.827" stroke="#222222" stroke-width="2.68828" stroke-linecap="square"/>
<path d="M1247.34 -24.5488L1247.34 49.827" stroke="#222222" stroke-width="2.68828" stroke-linecap="square"/>
<path d="M1252.53 -24.5488L1252.53 49.827" stroke="#222222" stroke-width="2.68828" stroke-linecap="square"/>
<path d="M1257.73 -24.5488L1257.73 49.827" stroke="#222222" stroke-width="2.68828" stroke-linecap="square"/>
<path d="M1262.93 -24.5488L1262.93 49.827" stroke="#222222" stroke-width="2.68828" stroke-linecap="square"/>
<path d="M1268.12 -24.5488L1268.12 49.827" stroke="#222222" stroke-width="2.68828" stroke-linecap="square"/>
<path d="M1273.32 -24.5488L1273.32 49.827" stroke="#222222" stroke-width="2.68828" stroke-linecap="square"/>
<path d="M1278.52 -24.5488L1278.52 49.827" stroke="#222222" stroke-width="2.68828" stroke-linecap="square"/>
<path d="M1283.72 -24.5488L1283.72 49.827" stroke="#222222" stroke-width="2.68828" stroke-linecap="square"/>
<path d="M1288.91 -24.5488L1288.91 49.827" stroke="#222222" stroke-width="2.68828" stroke-linecap="square"/>
<rect x="1293.75" y="-28.5816" width="82.4406" height="82.4406" fill="#111111"/>
<rect x="1293.75" y="-28.5816" width="82.4406" height="82.4406" stroke="#222222" stroke-width="2.68828"/>
<rect x="-25.2965" y="53.8598" width="82.4406" height="82.4406" fill="#111111"/>
<rect x="-25.2965" y="53.8598" width="82.4406" height="82.4406" stroke="#222222" stroke-width="2.68828"/>
<rect x="57.143" y="53.8598" width="82.4406" height="82.4406" fill="#111111"/>
<rect x="57.143" y="53.8598" width="82.4406" height="82.4406" stroke="#222222" stroke-width="2.68828"/>
<rect x="139.584" y="53.8598" width="82.4406" height="82.4406" fill="#111111"/>
<rect x="139.584" y="53.8598" width="82.4406" height="82.4406" stroke="#222222" stroke-width="2.68828"/>
<path d="M144.424 57.8926L144.424 132.268" stroke="#222222" stroke-width="2.68828" stroke-linecap="square"/>
<path d="M149.621 57.8926L149.621 132.268" stroke="#222222" stroke-width="2.68828" stroke-linecap="square"/>
<path d="M154.818 57.8926L154.818 132.268" stroke="#222222" stroke-width="2.68828" stroke-linecap="square"/>
<path d="M160.016 57.8926L160.016 132.268" stroke="#222222" stroke-width="2.68828" stroke-linecap="square"/>
<path d="M165.213 57.8926L165.213 132.268" stroke="#222222" stroke-width="2.68828" stroke-linecap="square"/>
<path d="M170.41 57.8926L170.41 132.268" stroke="#222222" stroke-width="2.68828" stroke-linecap="square"/>
<path d="M175.607 57.8926L175.607 132.268" stroke="#222222" stroke-width="2.68828" stroke-linecap="square"/>
<path d="M180.805 57.8926L180.805 132.268" stroke="#222222" stroke-width="2.68828" stroke-linecap="square"/>
<path d="M186.002 57.8926L186.002 132.268" stroke="#222222" stroke-width="2.68828" stroke-linecap="square"/>
<path d="M191.199 57.8926L191.199 132.268" stroke="#222222" stroke-width="2.68828" stroke-linecap="square"/>
<path d="M196.396 57.8926L196.396 132.268" stroke="#222222" stroke-width="2.68828" stroke-linecap="square"/>
<path d="M201.594 57.8926L201.594 132.268" stroke="#222222" stroke-width="2.68828" stroke-linecap="square"/>
<path d="M206.791 57.8926L206.791 132.268" stroke="#222222" stroke-width="2.68828" stroke-linecap="square"/>
<path d="M211.988 57.8926L211.988 132.268" stroke="#222222" stroke-width="2.68828" stroke-linecap="square"/>
<path d="M217.186 57.8926L217.186 132.268" stroke="#222222" stroke-width="2.68828" stroke-linecap="square"/>
<rect x="222.024" y="53.8598" width="82.4406" height="82.4406" fill="#111111"/>
<rect x="222.024" y="53.8598" width="82.4406" height="82.4406" stroke="#222222" stroke-width="2.68828"/>
<rect x="304.465" y="53.8598" width="82.4406" height="82.4406" fill="#111111"/>
<rect x="304.465" y="53.8598" width="82.4406" height="82.4406" stroke="#222222" stroke-width="2.68828"/>
<rect x="386.907" y="53.8598" width="82.4406" height="82.4406" fill="#111111"/>
<rect x="386.907" y="53.8598" width="82.4406" height="82.4406" stroke="#222222" stroke-width="2.68828"/>
<rect x="469.346" y="53.8598" width="82.4406" height="82.4406" fill="#111111"/>
<rect x="469.346" y="53.8598" width="82.4406" height="82.4406" stroke="#222222" stroke-width="2.68828"/>
<rect x="551.787" y="53.8598" width="82.4406" height="82.4406" fill="#111111"/>
<rect x="551.787" y="53.8598" width="82.4406" height="82.4406" stroke="#222222" stroke-width="2.68828"/>
<rect x="634.227" y="53.8598" width="82.4406" height="82.4406" fill="#111111"/>
<rect x="634.227" y="53.8598" width="82.4406" height="82.4406" stroke="#222222" stroke-width="2.68828"/>
<rect x="716.668" y="53.8598" width="82.4406" height="82.4406" fill="#111111"/>
<rect x="716.668" y="53.8598" width="82.4406" height="82.4406" stroke="#222222" stroke-width="2.68828"/>
<rect x="799.11" y="53.8598" width="82.4406" height="82.4406" fill="#111111"/>
<rect x="799.11" y="53.8598" width="82.4406" height="82.4406" stroke="#222222" stroke-width="2.68828"/>
<rect x="881.549" y="53.8598" width="82.4406" height="82.4406" fill="#111111"/>
<rect x="881.549" y="53.8598" width="82.4406" height="82.4406" stroke="#222222" stroke-width="2.68828"/>
<rect x="963.991" y="53.8598" width="82.4406" height="82.4406" fill="#111111"/>
<rect x="963.991" y="53.8598" width="82.4406" height="82.4406" stroke="#222222" stroke-width="2.68828"/>
<rect x="1046.43" y="53.8598" width="82.4406" height="82.4406" fill="#111111"/>
<rect x="1046.43" y="53.8598" width="82.4406" height="82.4406" stroke="#222222" stroke-width="2.68828"/>
<rect x="1128.87" y="53.8598" width="82.4406" height="82.4406" fill="#111111"/>
<rect x="1128.87" y="53.8598" width="82.4406" height="82.4406" stroke="#222222" stroke-width="2.68828"/>
<path d="M1133.71 57.8926L1133.71 132.268" stroke="#222222" stroke-width="2.68828" stroke-linecap="square"/>
<path d="M1138.91 57.8926L1138.91 132.268" stroke="#222222" stroke-width="2.68828" stroke-linecap="square"/>
<path d="M1144.11 57.8926L1144.11 132.268" stroke="#222222" stroke-width="2.68828" stroke-linecap="square"/>
<path d="M1149.3 57.8926L1149.3 132.268" stroke="#222222" stroke-width="2.68828" stroke-linecap="square"/>
<path d="M1154.5 57.8926L1154.5 132.268" stroke="#222222" stroke-width="2.68828" stroke-linecap="square"/>
<path d="M1159.7 57.8926L1159.7 132.268" stroke="#222222" stroke-width="2.68828" stroke-linecap="square"/>
<path d="M1164.89 57.8926L1164.89 132.268" stroke="#222222" stroke-width="2.68828" stroke-linecap="square"/>
<path d="M1170.09 57.8926L1170.09 132.268" stroke="#222222" stroke-width="2.68828" stroke-linecap="square"/>
<path d="M1175.29 57.8926L1175.29 132.268" stroke="#222222" stroke-width="2.68828" stroke-linecap="square"/>
<path d="M1180.49 57.8926L1180.49 132.268" stroke="#222222" stroke-width="2.68828" stroke-linecap="square"/>
<path d="M1185.68 57.8926L1185.68 132.268" stroke="#222222" stroke-width="2.68828" stroke-linecap="square"/>
<path d="M1190.88 57.8926L1190.88 132.268" stroke="#222222" stroke-width="2.68828" stroke-linecap="square"/>
<path d="M1196.08 57.8926L1196.08 132.268" stroke="#222222" stroke-width="2.68828" stroke-linecap="square"/>
<path d="M1201.28 57.8926L1201.28 132.268" stroke="#222222" stroke-width="2.68828" stroke-linecap="square"/>
<path d="M1206.47 57.8926L1206.47 132.268" stroke="#222222" stroke-width="2.68828" stroke-linecap="square"/>
<rect x="1211.31" y="53.8598" width="82.4406" height="82.4406" fill="#111111"/>
<rect x="1211.31" y="53.8598" width="82.4406" height="82.4406" stroke="#222222" stroke-width="2.68828"/>
<rect x="1293.75" y="53.8598" width="82.4406" height="82.4406" fill="#111111"/>
<rect x="1293.75" y="53.8598" width="82.4406" height="82.4406" stroke="#222222" stroke-width="2.68828"/>
<rect x="-25.2965" y="136.299" width="82.4406" height="82.4406" fill="#111111"/>
<rect x="-25.2965" y="136.299" width="82.4406" height="82.4406" stroke="#222222" stroke-width="2.68828"/>
<rect x="57.143" y="136.299" width="82.4406" height="82.4406" fill="#111111"/>
<rect x="57.143" y="136.299" width="82.4406" height="82.4406" stroke="#222222" stroke-width="2.68828"/>
<rect x="139.584" y="136.299" width="82.4406" height="82.4406" fill="#111111"/>
<rect x="139.584" y="136.299" width="82.4406" height="82.4406" stroke="#222222" stroke-width="2.68828"/>
<rect x="222.024" y="136.299" width="82.4406" height="82.4406" fill="#111111"/>
<rect x="222.024" y="136.299" width="82.4406" height="82.4406" stroke="#222222" stroke-width="2.68828"/>
<mask id="path-133-inside-1_936_41524" fill="white">
<path d="M303.121 134.955H388.25V220.084H303.121V134.955Z"/>
</mask>
<path d="M303.121 134.955H388.25V220.084H303.121V134.955Z" fill="black"/>
<path d="M303.121 134.955V132.267H300.433V134.955H303.121ZM303.121 137.643H388.25V132.267H303.121V137.643ZM305.809 220.084V134.955H300.433V220.084H305.809Z" fill="#222222" mask="url(#path-133-inside-1_936_41524)"/>
<mask id="path-135-inside-2_936_41524" fill="white">
<path d="M385.562 134.955H470.691V220.084H385.562V134.955Z"/>
</mask>
<path d="M385.562 134.955H470.691V220.084H385.562V134.955Z" fill="black"/>
<path d="M385.562 137.643H470.691V132.267H385.562V137.643Z" fill="#222222" mask="url(#path-135-inside-2_936_41524)"/>
<mask id="path-137-inside-3_936_41524" fill="white">
<path d="M468.002 134.955H553.131V220.084H468.002V134.955Z"/>
</mask>
<path d="M468.002 134.955H553.131V220.084H468.002V134.955Z" fill="black"/>
<path d="M468.002 137.643H553.131V132.267H468.002V137.643Z" fill="#222222" mask="url(#path-137-inside-3_936_41524)"/>
<mask id="path-139-inside-4_936_41524" fill="white">
<path d="M550.443 134.955H635.572V220.084H550.443V134.955Z"/>
</mask>
<path d="M550.443 134.955H635.572V220.084H550.443V134.955Z" fill="black"/>
<path d="M550.443 137.643H635.572V132.267H550.443V137.643Z" fill="#222222" mask="url(#path-139-inside-4_936_41524)"/>
<mask id="path-141-inside-5_936_41524" fill="white">
<path d="M632.883 134.955H718.012V220.084H632.883V134.955Z"/>
</mask>
<path d="M632.883 134.955H718.012V220.084H632.883V134.955Z" fill="black"/>
<path d="M632.883 137.643H718.012V132.267H632.883V137.643Z" fill="#222222" mask="url(#path-141-inside-5_936_41524)"/>
<mask id="path-143-inside-6_936_41524" fill="white">
<path d="M715.324 134.955H800.453V220.084H715.324V134.955Z"/>
</mask>
<path d="M715.324 134.955H800.453V220.084H715.324V134.955Z" fill="black"/>
<path d="M715.324 137.643H800.453V132.267H715.324V137.643Z" fill="#222222" mask="url(#path-143-inside-6_936_41524)"/>
<mask id="path-145-inside-7_936_41524" fill="white">
<path d="M797.766 134.955H882.895V220.084H797.766V134.955Z"/>
</mask>
<path d="M797.766 134.955H882.895V220.084H797.766V134.955Z" fill="black"/>
<path d="M797.766 137.643H882.895V132.267H797.766V137.643Z" fill="#222222" mask="url(#path-145-inside-7_936_41524)"/>
<mask id="path-147-inside-8_936_41524" fill="white">
<path d="M880.205 134.955H965.334V220.084H880.205V134.955Z"/>
</mask>
<path d="M880.205 134.955H965.334V220.084H880.205V134.955Z" fill="black"/>
<path d="M880.205 137.643H965.334V132.267H880.205V137.643Z" fill="#222222" mask="url(#path-147-inside-8_936_41524)"/>
<mask id="path-149-inside-9_936_41524" fill="white">
<path d="M962.646 134.955H1047.78V220.084H962.646V134.955Z"/>
</mask>
<path d="M962.646 134.955H1047.78V220.084H962.646V134.955Z" fill="black"/>
<path d="M962.646 137.643H1047.78V132.267H962.646V137.643Z" fill="#222222" mask="url(#path-149-inside-9_936_41524)"/>
<rect x="1046.43" y="136.299" width="82.4406" height="82.4406" fill="#111111"/>
<rect x="1046.43" y="136.299" width="82.4406" height="82.4406" stroke="#222222" stroke-width="2.68828"/>
<rect x="1128.87" y="136.299" width="82.4406" height="82.4406" fill="#111111"/>
<rect x="1128.87" y="136.299" width="82.4406" height="82.4406" stroke="#222222" stroke-width="2.68828"/>
<rect x="1211.31" y="136.299" width="82.4406" height="82.4406" fill="#111111"/>
<rect x="1211.31" y="136.299" width="82.4406" height="82.4406" stroke="#222222" stroke-width="2.68828"/>
<rect x="1293.75" y="136.299" width="82.4406" height="82.4406" fill="#111111"/>
<rect x="1293.75" y="136.299" width="82.4406" height="82.4406" stroke="#222222" stroke-width="2.68828"/>
<rect x="-25.2965" y="218.741" width="82.4406" height="82.4406" fill="#111111"/>
<rect x="-25.2965" y="218.741" width="82.4406" height="82.4406" stroke="#222222" stroke-width="2.68828"/>
<rect x="57.143" y="218.741" width="82.4406" height="82.4406" fill="#111111"/>
<rect x="57.143" y="218.741" width="82.4406" height="82.4406" stroke="#222222" stroke-width="2.68828"/>
<rect x="139.584" y="218.741" width="82.4406" height="82.4406" fill="#111111"/>
<rect x="139.584" y="218.741" width="82.4406" height="82.4406" stroke="#222222" stroke-width="2.68828"/>
<rect x="222.024" y="218.741" width="82.4406" height="82.4406" fill="#111111"/>
<rect x="222.024" y="218.741" width="82.4406" height="82.4406" stroke="#222222" stroke-width="2.68828"/>
<mask id="path-159-inside-10_936_41524" fill="white">
<path d="M303.121 217.396H388.25V302.525H303.121V217.396Z"/>
</mask>
<path d="M303.121 217.396H388.25V302.525H303.121V217.396Z" fill="black"/>
<path d="M303.121 302.525H300.433V305.214H303.121V302.525ZM388.25 299.837H303.121V305.214H388.25V299.837ZM305.809 302.525V217.396H300.433V302.525H305.809Z" fill="#222222" mask="url(#path-159-inside-10_936_41524)"/>
<mask id="path-161-inside-11_936_41524" fill="white">
<path d="M385.562 217.396H470.691V302.525H385.562V217.396Z"/>
</mask>
<path d="M385.562 217.396H470.691V302.525H385.562V217.396Z" fill="black"/>
<path d="M470.691 299.837H385.562V305.214H470.691V299.837Z" fill="#222222" mask="url(#path-161-inside-11_936_41524)"/>
<mask id="path-163-inside-12_936_41524" fill="white">
<path d="M468.002 217.396H553.131V302.525H468.002V217.396Z"/>
</mask>
<path d="M468.002 217.396H553.131V302.525H468.002V217.396Z" fill="black"/>
<path d="M553.131 299.837H468.002V305.214H553.131V299.837Z" fill="#222222" mask="url(#path-163-inside-12_936_41524)"/>
<mask id="path-165-inside-13_936_41524" fill="white">
<path d="M550.443 217.396H635.572V302.525H550.443V217.396Z"/>
</mask>
<path d="M550.443 217.396H635.572V302.525H550.443V217.396Z" fill="black"/>
<path d="M635.572 299.837H550.443V305.214H635.572V299.837Z" fill="#222222" mask="url(#path-165-inside-13_936_41524)"/>
<mask id="path-167-inside-14_936_41524" fill="white">
<path d="M632.883 217.396H718.012V302.525H632.883V217.396Z"/>
</mask>
<path d="M632.883 217.396H718.012V302.525H632.883V217.396Z" fill="black"/>
<path d="M718.012 299.837H632.883V305.214H718.012V299.837Z" fill="#222222" mask="url(#path-167-inside-14_936_41524)"/>
<mask id="path-169-inside-15_936_41524" fill="white">
<path d="M715.324 217.396H800.453V302.525H715.324V217.396Z"/>
</mask>
<path d="M715.324 217.396H800.453V302.525H715.324V217.396Z" fill="black"/>
<path d="M800.453 299.837H715.324V305.214H800.453V299.837Z" fill="#222222" mask="url(#path-169-inside-15_936_41524)"/>
<mask id="path-171-inside-16_936_41524" fill="white">
<path d="M797.766 217.396H882.895V302.525H797.766V217.396Z"/>
</mask>
<path d="M797.766 217.396H882.895V302.525H797.766V217.396Z" fill="black"/>
<path d="M882.895 299.837H797.766V305.214H882.895V299.837Z" fill="#222222" mask="url(#path-171-inside-16_936_41524)"/>
<mask id="path-173-inside-17_936_41524" fill="white">
<path d="M880.205 217.396H965.334V302.525H880.205V217.396Z"/>
</mask>
<path d="M880.205 217.396H965.334V302.525H880.205V217.396Z" fill="black"/>
<path d="M965.334 299.837H880.205V305.214H965.334V299.837Z" fill="#222222" mask="url(#path-173-inside-17_936_41524)"/>
<mask id="path-175-inside-18_936_41524" fill="white">
<path d="M962.646 217.396H1047.78V302.525H962.646V217.396Z"/>
</mask>
<path d="M962.646 217.396H1047.78V302.525H962.646V217.396Z" fill="black"/>
<path d="M1047.78 299.837H962.646V305.214H1047.78V299.837Z" fill="#222222" mask="url(#path-175-inside-18_936_41524)"/>
<rect x="1046.43" y="218.741" width="82.4406" height="82.4406" fill="#111111"/>
<rect x="1046.43" y="218.741" width="82.4406" height="82.4406" stroke="#222222" stroke-width="2.68828"/>
<rect x="1128.87" y="218.741" width="82.4406" height="82.4406" fill="#111111"/>
<rect x="1128.87" y="218.741" width="82.4406" height="82.4406" stroke="#222222" stroke-width="2.68828"/>
<rect x="1211.31" y="218.741" width="82.4406" height="82.4406" fill="#111111"/>
<rect x="1211.31" y="218.741" width="82.4406" height="82.4406" stroke="#222222" stroke-width="2.68828"/>
<rect x="1293.75" y="218.741" width="82.4406" height="82.4406" fill="#111111"/>
<rect x="1293.75" y="218.741" width="82.4406" height="82.4406" stroke="#222222" stroke-width="2.68828"/>
<rect x="-25.2965" y="301.18" width="82.4406" height="82.4406" fill="#111111"/>
<rect x="-25.2965" y="301.18" width="82.4406" height="82.4406" stroke="#222222" stroke-width="2.68828"/>
<rect x="57.143" y="301.18" width="82.4406" height="82.4406" fill="#111111"/>
<rect x="57.143" y="301.18" width="82.4406" height="82.4406" stroke="#222222" stroke-width="2.68828"/>
<rect x="139.584" y="301.18" width="82.4406" height="82.4406" fill="#111111"/>
<rect x="139.584" y="301.18" width="82.4406" height="82.4406" stroke="#222222" stroke-width="2.68828"/>
<path d="M144.424 305.213L144.424 379.589" stroke="#222222" stroke-width="2.68828" stroke-linecap="square"/>
<path d="M149.621 305.213L149.621 379.589" stroke="#222222" stroke-width="2.68828" stroke-linecap="square"/>
<path d="M154.818 305.213L154.818 379.589" stroke="#222222" stroke-width="2.68828" stroke-linecap="square"/>
<path d="M160.016 305.213L160.016 379.589" stroke="#222222" stroke-width="2.68828" stroke-linecap="square"/>
<path d="M165.213 305.213L165.213 379.589" stroke="#222222" stroke-width="2.68828" stroke-linecap="square"/>
<path d="M170.41 305.213L170.41 379.589" stroke="#222222" stroke-width="2.68828" stroke-linecap="square"/>
<path d="M175.607 305.213L175.607 379.589" stroke="#222222" stroke-width="2.68828" stroke-linecap="square"/>
<path d="M180.805 305.213L180.805 379.589" stroke="#222222" stroke-width="2.68828" stroke-linecap="square"/>
<path d="M186.002 305.213L186.002 379.589" stroke="#222222" stroke-width="2.68828" stroke-linecap="square"/>
<path d="M191.199 305.213L191.199 379.589" stroke="#222222" stroke-width="2.68828" stroke-linecap="square"/>
<path d="M196.396 305.213L196.396 379.589" stroke="#222222" stroke-width="2.68828" stroke-linecap="square"/>
<path d="M201.594 305.213L201.594 379.589" stroke="#222222" stroke-width="2.68828" stroke-linecap="square"/>
<path d="M206.791 305.213L206.791 379.589" stroke="#222222" stroke-width="2.68828" stroke-linecap="square"/>
<path d="M211.988 305.213L211.988 379.589" stroke="#222222" stroke-width="2.68828" stroke-linecap="square"/>
<path d="M217.186 305.213L217.186 379.589" stroke="#222222" stroke-width="2.68828" stroke-linecap="square"/>
<rect x="222.024" y="301.18" width="82.4406" height="82.4406" fill="#111111"/>
<rect x="222.024" y="301.18" width="82.4406" height="82.4406" stroke="#222222" stroke-width="2.68828"/>
<rect x="304.465" y="301.18" width="82.4406" height="82.4406" fill="#111111"/>
<rect x="304.465" y="301.18" width="82.4406" height="82.4406" stroke="#222222" stroke-width="2.68828"/>
<rect x="386.907" y="301.18" width="82.4406" height="82.4406" fill="#111111"/>
<rect x="386.907" y="301.18" width="82.4406" height="82.4406" stroke="#222222" stroke-width="2.68828"/>
<rect x="469.346" y="301.18" width="82.4406" height="82.4406" fill="#111111"/>
<rect x="469.346" y="301.18" width="82.4406" height="82.4406" stroke="#222222" stroke-width="2.68828"/>
<rect x="551.787" y="301.18" width="82.4406" height="82.4406" fill="#111111"/>
<rect x="551.787" y="301.18" width="82.4406" height="82.4406" stroke="#222222" stroke-width="2.68828"/>
<rect x="634.227" y="301.18" width="82.4406" height="82.4406" fill="#111111"/>
<rect x="634.227" y="301.18" width="82.4406" height="82.4406" stroke="#222222" stroke-width="2.68828"/>
<rect x="716.668" y="301.18" width="82.4406" height="82.4406" fill="#111111"/>
<rect x="716.668" y="301.18" width="82.4406" height="82.4406" stroke="#222222" stroke-width="2.68828"/>
<rect x="799.11" y="301.18" width="82.4406" height="82.4406" fill="#111111"/>
<rect x="799.11" y="301.18" width="82.4406" height="82.4406" stroke="#222222" stroke-width="2.68828"/>
<rect x="881.549" y="301.18" width="82.4406" height="82.4406" fill="#111111"/>
<rect x="881.549" y="301.18" width="82.4406" height="82.4406" stroke="#222222" stroke-width="2.68828"/>
<rect x="963.991" y="301.18" width="82.4406" height="82.4406" fill="#111111"/>
<rect x="963.991" y="301.18" width="82.4406" height="82.4406" stroke="#222222" stroke-width="2.68828"/>
<rect x="1046.43" y="301.18" width="82.4406" height="82.4406" fill="#111111"/>
<rect x="1046.43" y="301.18" width="82.4406" height="82.4406" stroke="#222222" stroke-width="2.68828"/>
<rect x="1128.87" y="301.18" width="82.4406" height="82.4406" fill="#111111"/>
<rect x="1128.87" y="301.18" width="82.4406" height="82.4406" stroke="#222222" stroke-width="2.68828"/>
<path d="M1133.71 305.213L1133.71 379.589" stroke="#222222" stroke-width="2.68828" stroke-linecap="square"/>
<path d="M1138.91 305.213L1138.91 379.589" stroke="#222222" stroke-width="2.68828" stroke-linecap="square"/>
<path d="M1144.11 305.213L1144.11 379.589" stroke="#222222" stroke-width="2.68828" stroke-linecap="square"/>
<path d="M1149.3 305.213L1149.3 379.589" stroke="#222222" stroke-width="2.68828" stroke-linecap="square"/>
<path d="M1154.5 305.213L1154.5 379.589" stroke="#222222" stroke-width="2.68828" stroke-linecap="square"/>
<path d="M1159.7 305.213L1159.7 379.589" stroke="#222222" stroke-width="2.68828" stroke-linecap="square"/>
<path d="M1164.89 305.213L1164.89 379.589" stroke="#222222" stroke-width="2.68828" stroke-linecap="square"/>
<path d="M1170.09 305.213L1170.09 379.589" stroke="#222222" stroke-width="2.68828" stroke-linecap="square"/>
<path d="M1175.29 305.213L1175.29 379.589" stroke="#222222" stroke-width="2.68828" stroke-linecap="square"/>
<path d="M1180.49 305.213L1180.49 379.589" stroke="#222222" stroke-width="2.68828" stroke-linecap="square"/>
<path d="M1185.68 305.213L1185.68 379.589" stroke="#222222" stroke-width="2.68828" stroke-linecap="square"/>
<path d="M1190.88 305.213L1190.88 379.589" stroke="#222222" stroke-width="2.68828" stroke-linecap="square"/>
<path d="M1196.08 305.213L1196.08 379.589" stroke="#222222" stroke-width="2.68828" stroke-linecap="square"/>
<path d="M1201.28 305.213L1201.28 379.589" stroke="#222222" stroke-width="2.68828" stroke-linecap="square"/>
<path d="M1206.47 305.213L1206.47 379.589" stroke="#222222" stroke-width="2.68828" stroke-linecap="square"/>
<rect x="1211.31" y="301.18" width="82.4406" height="82.4406" fill="#111111"/>
<rect x="1211.31" y="301.18" width="82.4406" height="82.4406" stroke="#222222" stroke-width="2.68828"/>
<rect x="1293.75" y="301.18" width="82.4406" height="82.4406" fill="#111111"/>
<rect x="1293.75" y="301.18" width="82.4406" height="82.4406" stroke="#222222" stroke-width="2.68828"/>
<rect x="-25.2965" y="383.621" width="82.4406" height="82.4406" fill="#111111"/>
<rect x="-25.2965" y="383.621" width="82.4406" height="82.4406" stroke="#222222" stroke-width="2.68828"/>
<rect x="57.143" y="383.621" width="82.4406" height="82.4406" fill="#111111"/>
<rect x="57.143" y="383.621" width="82.4406" height="82.4406" stroke="#222222" stroke-width="2.68828"/>
<path d="M61.9824 387.654L61.9824 462.03" stroke="#222222" stroke-width="2.68828" stroke-linecap="square"/>
<path d="M67.1797 387.654L67.1797 462.03" stroke="#222222" stroke-width="2.68828" stroke-linecap="square"/>
<path d="M72.377 387.654L72.3769 462.03" stroke="#222222" stroke-width="2.68828" stroke-linecap="square"/>
<path d="M77.5742 387.654L77.5742 462.03" stroke="#222222" stroke-width="2.68828" stroke-linecap="square"/>
<path d="M82.7715 387.654L82.7715 462.03" stroke="#222222" stroke-width="2.68828" stroke-linecap="square"/>
<path d="M87.9688 387.654L87.9687 462.03" stroke="#222222" stroke-width="2.68828" stroke-linecap="square"/>
<path d="M93.166 387.654L93.166 462.03" stroke="#222222" stroke-width="2.68828" stroke-linecap="square"/>
<path d="M98.3633 387.654L98.3633 462.03" stroke="#222222" stroke-width="2.68828" stroke-linecap="square"/>
<path d="M103.561 387.654L103.561 462.03" stroke="#222222" stroke-width="2.68828" stroke-linecap="square"/>
<path d="M108.758 387.654L108.758 462.03" stroke="#222222" stroke-width="2.68828" stroke-linecap="square"/>
<path d="M113.955 387.654L113.955 462.03" stroke="#222222" stroke-width="2.68828" stroke-linecap="square"/>
<path d="M119.152 387.654L119.152 462.03" stroke="#222222" stroke-width="2.68828" stroke-linecap="square"/>
<path d="M124.35 387.654L124.35 462.03" stroke="#222222" stroke-width="2.68828" stroke-linecap="square"/>
<path d="M129.547 387.654L129.547 462.03" stroke="#222222" stroke-width="2.68828" stroke-linecap="square"/>
<path d="M134.744 387.654L134.744 462.03" stroke="#222222" stroke-width="2.68828" stroke-linecap="square"/>
<rect x="139.584" y="383.621" width="82.4406" height="82.4406" fill="#111111"/>
<rect x="139.584" y="383.621" width="82.4406" height="82.4406" stroke="#222222" stroke-width="2.68828"/>
<path d="M194.58 410.968L183.306 427.492L191.89 425.732C192.06 426.001 192.229 426.271 192.398 426.54L165.601 458.041H164.629L175.649 437.581L167.551 439.241C167.292 438.874 167.269 438.847 167.01 438.48L177.936 422.248L169.728 423.929C169.468 423.53 169.474 423.53 169.214 423.126L195.995 391.641H196.978L186.107 411.835L194.039 410.207C194.304 410.574 194.321 410.601 194.58 410.968Z" fill="#3A3A3A"/>
<rect x="222.024" y="383.621" width="82.4406" height="82.4406" fill="#111111"/>
<rect x="222.024" y="383.621" width="82.4406" height="82.4406" stroke="#222222" stroke-width="2.68828"/>
<path d="M226.863 387.654L226.863 462.03" stroke="#222222" stroke-width="2.68828" stroke-linecap="square"/>
<path d="M232.061 387.654L232.061 462.03" stroke="#222222" stroke-width="2.68828" stroke-linecap="square"/>
<path d="M237.258 387.654L237.258 462.03" stroke="#222222" stroke-width="2.68828" stroke-linecap="square"/>
<path d="M242.455 387.654L242.455 462.03" stroke="#222222" stroke-width="2.68828" stroke-linecap="square"/>
<path d="M247.652 387.654L247.652 462.03" stroke="#222222" stroke-width="2.68828" stroke-linecap="square"/>
<path d="M252.85 387.654L252.85 462.03" stroke="#222222" stroke-width="2.68828" stroke-linecap="square"/>
<path d="M258.047 387.654L258.047 462.03" stroke="#222222" stroke-width="2.68828" stroke-linecap="square"/>
<path d="M263.244 387.654L263.244 462.03" stroke="#222222" stroke-width="2.68828" stroke-linecap="square"/>
<path d="M268.441 387.654L268.441 462.03" stroke="#222222" stroke-width="2.68828" stroke-linecap="square"/>
<path d="M273.639 387.654L273.639 462.03" stroke="#222222" stroke-width="2.68828" stroke-linecap="square"/>
<path d="M278.836 387.654L278.836 462.03" stroke="#222222" stroke-width="2.68828" stroke-linecap="square"/>
<path d="M284.033 387.654L284.033 462.03" stroke="#222222" stroke-width="2.68828" stroke-linecap="square"/>
<path d="M289.23 387.654L289.23 462.03" stroke="#222222" stroke-width="2.68828" stroke-linecap="square"/>
<path d="M294.428 387.654L294.428 462.03" stroke="#222222" stroke-width="2.68828" stroke-linecap="square"/>
<path d="M299.625 387.654L299.625 462.03" stroke="#222222" stroke-width="2.68828" stroke-linecap="square"/>
<rect x="304.465" y="383.621" width="82.4406" height="82.4406" fill="#111111"/>
<rect x="304.465" y="383.621" width="82.4406" height="82.4406" stroke="#222222" stroke-width="2.68828"/>
<rect x="386.907" y="383.621" width="82.4406" height="82.4406" fill="#111111"/>
<rect x="386.907" y="383.621" width="82.4406" height="82.4406" stroke="#222222" stroke-width="2.68828"/>
<rect x="469.346" y="383.621" width="82.4406" height="82.4406" fill="#111111"/>
<rect x="469.346" y="383.621" width="82.4406" height="82.4406" stroke="#222222" stroke-width="2.68828"/>
<rect x="551.787" y="383.621" width="82.4406" height="82.4406" fill="#111111"/>
<rect x="551.787" y="383.621" width="82.4406" height="82.4406" stroke="#222222" stroke-width="2.68828"/>
<rect x="634.227" y="383.621" width="82.4406" height="82.4406" fill="#111111"/>
<rect x="634.227" y="383.621" width="82.4406" height="82.4406" stroke="#222222" stroke-width="2.68828"/>
<rect x="716.668" y="383.621" width="82.4406" height="82.4406" fill="#111111"/>
<rect x="716.668" y="383.621" width="82.4406" height="82.4406" stroke="#222222" stroke-width="2.68828"/>
<rect x="799.11" y="383.621" width="82.4406" height="82.4406" fill="#111111"/>
<rect x="799.11" y="383.621" width="82.4406" height="82.4406" stroke="#222222" stroke-width="2.68828"/>
<rect x="881.549" y="383.621" width="82.4406" height="82.4406" fill="#111111"/>
<rect x="881.549" y="383.621" width="82.4406" height="82.4406" stroke="#222222" stroke-width="2.68828"/>
<rect x="963.991" y="383.621" width="82.4406" height="82.4406" fill="#111111"/>
<rect x="963.991" y="383.621" width="82.4406" height="82.4406" stroke="#222222" stroke-width="2.68828"/>
<rect x="1046.43" y="383.621" width="82.4406" height="82.4406" fill="#111111"/>
<rect x="1046.43" y="383.621" width="82.4406" height="82.4406" stroke="#222222" stroke-width="2.68828"/>
<path d="M1051.27 387.654L1051.27 462.03" stroke="#222222" stroke-width="2.68828" stroke-linecap="square"/>
<path d="M1056.47 387.654L1056.47 462.03" stroke="#222222" stroke-width="2.68828" stroke-linecap="square"/>
<path d="M1061.66 387.654L1061.66 462.03" stroke="#222222" stroke-width="2.68828" stroke-linecap="square"/>
<path d="M1066.86 387.654L1066.86 462.03" stroke="#222222" stroke-width="2.68828" stroke-linecap="square"/>
<path d="M1072.06 387.654L1072.06 462.03" stroke="#222222" stroke-width="2.68828" stroke-linecap="square"/>
<path d="M1077.26 387.654L1077.26 462.03" stroke="#222222" stroke-width="2.68828" stroke-linecap="square"/>
<path d="M1082.45 387.654L1082.45 462.03" stroke="#222222" stroke-width="2.68828" stroke-linecap="square"/>
<path d="M1087.65 387.654L1087.65 462.03" stroke="#222222" stroke-width="2.68828" stroke-linecap="square"/>
<path d="M1092.85 387.654L1092.85 462.03" stroke="#222222" stroke-width="2.68828" stroke-linecap="square"/>
<path d="M1098.04 387.654L1098.04 462.03" stroke="#222222" stroke-width="2.68828" stroke-linecap="square"/>
<path d="M1103.24 387.654L1103.24 462.03" stroke="#222222" stroke-width="2.68828" stroke-linecap="square"/>
<path d="M1108.44 387.654L1108.44 462.03" stroke="#222222" stroke-width="2.68828" stroke-linecap="square"/>
<path d="M1113.64 387.654L1113.64 462.03" stroke="#222222" stroke-width="2.68828" stroke-linecap="square"/>
<path d="M1118.83 387.654L1118.83 462.03" stroke="#222222" stroke-width="2.68828" stroke-linecap="square"/>
<path d="M1124.03 387.654L1124.03 462.03" stroke="#222222" stroke-width="2.68828" stroke-linecap="square"/>
<rect x="1128.87" y="383.621" width="82.4406" height="82.4406" fill="#111111"/>
<rect x="1128.87" y="383.621" width="82.4406" height="82.4406" stroke="#222222" stroke-width="2.68828"/>
<path d="M1183.87 410.968L1172.59 427.492L1181.18 425.732C1181.35 426.001 1181.52 426.271 1181.69 426.54L1154.89 458.041H1153.92L1164.94 437.581L1156.84 439.241C1156.58 438.874 1156.56 438.847 1156.3 438.48L1167.22 422.248L1159.01 423.929C1158.76 423.53 1158.76 423.53 1158.5 423.126L1185.28 391.641H1186.26L1175.39 411.835L1183.33 410.207C1183.59 410.574 1183.61 410.601 1183.87 410.968Z" fill="#3A3A3A"/>
<rect x="1211.31" y="383.621" width="82.4406" height="82.4406" fill="#111111"/>
<rect x="1211.31" y="383.621" width="82.4406" height="82.4406" stroke="#222222" stroke-width="2.68828"/>
<path d="M1216.15 387.654L1216.15 462.03" stroke="#222222" stroke-width="2.68828" stroke-linecap="square"/>
<path d="M1221.35 387.654L1221.35 462.03" stroke="#222222" stroke-width="2.68828" stroke-linecap="square"/>
<path d="M1226.55 387.654L1226.55 462.03" stroke="#222222" stroke-width="2.68828" stroke-linecap="square"/>
<path d="M1231.74 387.654L1231.74 462.03" stroke="#222222" stroke-width="2.68828" stroke-linecap="square"/>
<path d="M1236.94 387.654L1236.94 462.03" stroke="#222222" stroke-width="2.68828" stroke-linecap="square"/>
<path d="M1242.14 387.654L1242.14 462.03" stroke="#222222" stroke-width="2.68828" stroke-linecap="square"/>
<path d="M1247.34 387.654L1247.34 462.03" stroke="#222222" stroke-width="2.68828" stroke-linecap="square"/>
<path d="M1252.53 387.654L1252.53 462.03" stroke="#222222" stroke-width="2.68828" stroke-linecap="square"/>
<path d="M1257.73 387.654L1257.73 462.03" stroke="#222222" stroke-width="2.68828" stroke-linecap="square"/>
<path d="M1262.93 387.654L1262.93 462.03" stroke="#222222" stroke-width="2.68828" stroke-linecap="square"/>
<path d="M1268.12 387.654L1268.12 462.03" stroke="#222222" stroke-width="2.68828" stroke-linecap="square"/>
<path d="M1273.32 387.654L1273.32 462.03" stroke="#222222" stroke-width="2.68828" stroke-linecap="square"/>
<path d="M1278.52 387.654L1278.52 462.03" stroke="#222222" stroke-width="2.68828" stroke-linecap="square"/>
<path d="M1283.72 387.654L1283.72 462.03" stroke="#222222" stroke-width="2.68828" stroke-linecap="square"/>
<path d="M1288.91 387.654L1288.91 462.03" stroke="#222222" stroke-width="2.68828" stroke-linecap="square"/>
<rect x="1293.75" y="383.621" width="82.4406" height="82.4406" fill="#111111"/>
<rect x="1293.75" y="383.621" width="82.4406" height="82.4406" stroke="#222222" stroke-width="2.68828"/>
<path d="M363.356 216.936C370.394 217.46 374.587 221.129 374.587 226.969C374.587 235.804 366.501 243.291 356.243 243.291H333.931L345.087 190.88H364.33C372.491 190.88 377.507 195.971 377.507 202.111C377.507 210.048 371.517 215.738 363.356 216.936ZM363.806 194.699H348.457L344.039 215.214H359.463C367.175 215.214 373.389 209.299 373.389 202.71C373.389 198.143 370.02 194.699 363.806 194.699ZM338.948 239.473H356.318C364.105 239.473 370.319 233.558 370.319 226.969C370.319 222.402 366.875 218.957 360.661 218.957H343.29L338.948 239.473ZM382.336 226.894L386.903 205.63H391.021L386.304 227.717C384.657 235.28 388.925 240.146 395.738 240.146C402.926 240.146 408.916 235.28 410.413 228.017L415.205 205.63H419.323L414.381 228.915C412.36 238.349 404.199 244.04 395.514 244.04C385.481 244.04 380.239 236.777 382.336 226.894ZM430.673 194.175C430.673 192.602 431.946 191.329 433.518 191.329C435.091 191.329 436.364 192.602 436.364 194.175C436.364 195.822 435.091 197.02 433.518 197.02C431.946 197.02 430.673 195.822 430.673 194.175ZM425.133 243.291H421.015L429.026 205.63H433.144L425.133 243.291ZM439.391 243.291H435.273L447.028 187.885H451.146L439.391 243.291ZM488.689 217.61L494.978 187.885H499.096L487.341 243.291H483.223L485.619 231.91C481.801 239.173 474.763 244.04 466.976 244.04C457.991 244.04 451.702 237.601 451.702 228.242C451.702 215.888 461.96 204.881 473.864 204.881C482.025 204.881 487.94 210.497 488.689 217.61ZM468.024 240.146C478.581 240.146 487.416 231.012 487.416 220.904C487.416 213.866 482.475 208.775 474.538 208.775C464.73 208.775 455.895 217.909 455.895 228.017C455.895 235.13 460.911 240.146 468.024 240.146ZM884.682 243.291H880.414L891.57 190.88H921.445L920.621 194.774H895.014L890.597 215.289H915.455L914.631 219.182H889.773L884.682 243.291ZM938.347 204.881C946.508 204.881 951.749 209.523 949.877 218.284L944.487 243.291H940.369L942.615 233.108C938.422 240.97 931.833 244.04 925.619 244.04C919.404 244.04 915.137 240.371 915.137 234.756C915.137 228.466 920.452 223.974 929.587 223.001L939.77 221.877C943.663 221.428 945.31 220.08 945.984 217.011C947.032 211.62 943.738 208.625 937.898 208.625C932.507 208.625 927.041 210.946 924.046 217.61L920.153 216.412C923.897 208.475 930.56 204.881 938.347 204.881ZM943.962 226.52L944.861 222.177C943.738 224.124 941.641 225.172 938.422 225.546L929.662 226.594C923.298 227.268 919.254 230.338 919.254 234.531C919.254 237.975 921.95 240.371 926.218 240.371C935.202 240.371 942.465 233.857 943.962 226.52ZM954.04 233.707L958.084 232.884C958.683 237.451 962.726 240.371 968.416 240.371C975.679 240.371 980.246 237.301 980.246 232.509C980.246 222.551 958.757 229.14 958.757 216.112C958.757 209.823 964.523 204.881 973.507 204.881C981.519 204.881 986.385 209.673 987.134 215.214L983.166 216.112C982.567 211.47 978.823 208.55 973.507 208.55C967.068 208.55 962.875 211.47 962.875 215.962C962.875 225.322 984.364 218.808 984.364 232.434C984.364 239.248 977.925 244.04 968.416 244.04C959.955 244.04 954.789 239.248 954.04 233.707ZM1001.36 209.449H992.529L993.353 205.63H1002.11L1005.18 191.404L1009.6 190.131L1006.23 205.63H1018.21L1017.46 209.449H1005.48L1000.91 230.937C999.567 237.077 1001.36 239.473 1007.5 239.473H1011.1L1010.27 243.291H1007.13C998.594 243.291 995.15 238.874 996.872 230.413L1001.36 209.449Z" fill="#EEEEEE"/>
<path d="M553.565 243.291H518.749L529.905 190.88H540.612L531.402 233.782H555.586L553.565 243.291ZM568.617 193.95C568.617 190.581 571.387 187.885 574.756 187.885C578.051 187.885 580.821 190.581 580.821 193.95C580.821 197.244 578.051 200.015 574.756 200.015C571.387 200.015 568.617 197.244 568.617 193.95ZM569.291 243.291H559.183L567.419 204.657H577.527L569.291 243.291ZM612.579 215.663L614.9 204.657H625.008L617.446 240.146C615.05 251.527 606.065 259.014 594.46 259.014C586.074 259.014 579.411 254.222 577.464 248.233L586.599 243.815C588.096 247.709 590.866 249.805 594.984 249.805C600.974 249.805 606.215 245.313 607.563 238.948L608.986 232.36C605.242 238.649 599.327 242.842 593.038 242.842C585.026 242.842 579.635 237.226 579.635 226.819C579.635 214.465 589.144 203.908 600.225 203.908C606.14 203.908 611.531 207.951 612.579 215.663ZM598.279 233.632C605.317 233.632 611.007 227.493 611.007 220.829C611.007 216.337 607.638 213.192 602.696 213.192C595.733 213.192 590.118 219.257 590.118 225.921C590.118 230.488 593.412 233.632 598.279 233.632ZM656.063 203.908C665.272 203.908 669.315 211.844 667.369 221.129L662.652 243.291H652.544L657.111 221.728C658.159 216.561 655.614 213.117 650.522 213.117C645.131 213.117 640.639 216.636 639.591 221.653L635.024 243.291H624.916L636.671 187.885H646.779L641.163 214.016C644.607 207.352 650.073 203.908 656.063 203.908ZM679.648 213.567H671.862L673.808 204.657H681.595L683.991 193.276L694.773 190.131L691.703 204.657H701.661L699.789 213.567H689.756L686.537 228.915C685.788 232.659 687.061 234.381 690.804 234.381H695.372L693.425 243.291H689.606C679.274 243.291 674.632 237.451 676.653 227.643L679.648 213.567ZM731.228 203.908C740.437 203.908 744.481 211.844 742.534 221.129L737.817 243.291H727.709L732.276 221.728C733.325 216.561 730.779 213.117 725.687 213.117C720.297 213.117 715.804 216.636 714.756 221.653L710.189 243.291H700.081L708.317 204.657H718.425L716.403 213.941C719.773 207.352 725.313 203.908 731.228 203.908ZM755.067 193.95C755.067 190.581 757.838 187.885 761.207 187.885C764.501 187.885 767.272 190.581 767.272 193.95C767.272 197.244 764.501 200.015 761.207 200.015C757.838 200.015 755.067 197.244 755.067 193.95ZM755.741 243.291H745.633L753.869 204.657H763.977L755.741 243.291ZM794.987 203.908C804.196 203.908 808.239 211.844 806.293 221.129L801.576 243.291H791.468L796.035 221.728C797.083 216.561 794.538 213.117 789.446 213.117C784.055 213.117 779.563 216.636 778.515 221.653L773.948 243.291H763.84L772.076 204.657H782.184L780.162 213.941C783.531 207.352 789.072 203.908 794.987 203.908ZM844.582 215.663L846.903 204.657H857.011L849.449 240.146C847.053 251.527 838.068 259.014 826.463 259.014C818.077 259.014 811.414 254.222 809.467 248.233L818.602 243.815C820.099 247.709 822.869 249.805 826.987 249.805C832.977 249.805 838.218 245.313 839.566 238.948L840.989 232.36C837.245 238.649 831.33 242.842 825.041 242.842C817.029 242.842 811.638 237.226 811.638 226.819C811.638 214.465 821.147 203.908 832.228 203.908C838.143 203.908 843.534 207.951 844.582 215.663ZM830.282 233.632C837.32 233.632 843.01 227.493 843.01 220.829C843.01 216.337 839.641 213.192 834.699 213.192C827.736 213.192 822.121 219.257 822.121 225.921C822.121 230.488 825.415 233.632 830.282 233.632Z" fill="#FFE629"/>
<mask id="path-308-inside-19_936_41524" fill="white">
<path d="M303.121 134.955H346.134V177.968H303.121V134.955Z"/>
</mask>
<path d="M303.121 134.955V134.059H302.225V134.955H303.121ZM303.121 135.851H346.134V134.059H303.121V135.851ZM304.017 177.968V134.955H302.225V177.968H304.017Z" fill="#FFE629" mask="url(#path-308-inside-19_936_41524)"/>
<mask id="path-310-inside-20_936_41524" fill="white">
<path d="M303.121 302.525H346.134V259.513H303.121V302.525Z"/>
</mask>
<path d="M303.121 302.525V303.421H302.225V302.525H303.121ZM303.121 301.629H346.134V303.421H303.121V301.629ZM304.017 259.513V302.525H302.225V259.513H304.017Z" fill="#FFE629" mask="url(#path-310-inside-20_936_41524)"/>
<mask id="path-312-inside-21_936_41524" fill="white">
<path d="M1047.78 134.955H1004.76V177.968H1047.78V134.955Z"/>
</mask>
<path d="M1047.78 134.955V134.059H1048.67V134.955H1047.78ZM1047.78 135.851H1004.76V134.059H1047.78V135.851ZM1046.88 177.968V134.955H1048.67V177.968H1046.88Z" fill="#FFE629" mask="url(#path-312-inside-21_936_41524)"/>
<mask id="path-314-inside-22_936_41524" fill="white">
<path d="M1047.78 302.525H1004.76V259.513H1047.78V302.525Z"/>
</mask>
<path d="M1047.78 302.525V303.421H1048.67V302.525H1047.78ZM1047.78 301.629H1004.76V303.421H1047.78V301.629ZM1046.88 259.513V302.525H1048.67V259.513H1046.88Z" fill="#FFE629" mask="url(#path-314-inside-22_936_41524)"/>
<mask id="path-316-inside-23_936_41524" fill="white">
<path d="M1316.6 301.179C1316.6 301.922 1316 302.523 1315.26 302.523L1274.94 302.523C1274.19 302.523 1273.59 301.922 1273.59 301.179V301.179C1273.59 300.437 1274.19 299.835 1274.94 299.835L1315.26 299.835C1316 299.835 1316.6 300.437 1316.6 301.179V301.179Z"/>
</mask>
<path d="M1316.6 301.179C1316.6 302.911 1315.2 304.316 1313.47 304.316L1276.73 304.316C1275 304.316 1273.59 302.911 1273.59 301.179V301.179C1273.59 301.027 1273.62 300.875 1273.67 300.731L1315.26 300.731L1316.53 300.731C1316.58 300.875 1316.6 301.027 1316.6 301.179V301.179ZM1273.59 299.835L1316.6 299.835L1273.59 299.835ZM1316.6 299.835L1316.6 302.523L1316.6 299.835ZM1273.59 302.523L1273.59 299.835L1273.59 302.523Z" fill="url(#paint0_linear_936_41524)" mask="url(#path-316-inside-23_936_41524)"/>
<mask id="path-318-inside-24_936_41524" fill="white">
<path d="M33.3965 136.299C33.3965 135.557 33.9983 134.955 34.7406 134.955H75.0648C75.8072 134.955 76.409 135.557 76.409 136.299V136.299C76.409 137.042 75.8072 137.643 75.0648 137.643H34.7406C33.9983 137.643 33.3965 137.042 33.3965 136.299V136.299Z"/>
</mask>
<path d="M33.3965 136.299C33.3965 134.567 34.8007 133.163 36.5328 133.163H73.2727C75.0048 133.163 76.409 134.567 76.409 136.299V136.299C76.409 136.452 76.383 136.603 76.3322 136.747L34.7406 136.747H33.473C33.4225 136.603 33.3965 136.452 33.3965 136.299V136.299ZM76.409 137.643H33.3965H76.409ZM33.3965 137.643V134.955V137.643ZM76.409 134.955V137.643V134.955Z" fill="url(#paint1_linear_936_41524)" mask="url(#path-318-inside-24_936_41524)"/>
</g>
</g>
<rect x="0.5" y="0.5" width="1349" height="439" rx="31.5" stroke="#FFE629"/>
<defs>
<linearGradient id="paint0_linear_936_41524" x1="1316.6" y1="301.179" x2="1273.59" y2="301.179" gradientUnits="userSpaceOnUse">
<stop stop-color="#998A19" stop-opacity="0"/>
<stop offset="1" stop-color="#FFE629"/>
</linearGradient>
<linearGradient id="paint1_linear_936_41524" x1="33.3965" y1="136.299" x2="76.409" y2="136.299" gradientUnits="userSpaceOnUse">
<stop stop-color="#998A19" stop-opacity="0"/>
<stop offset="1" stop-color="#FFE629"/>
</linearGradient>
<clipPath id="clip0_936_41524">
<rect width="1350" height="440" rx="32" fill="white"/>
</clipPath>
<clipPath id="clip1_936_41524">
<rect width="2294" height="1290.38" fill="white" transform="translate(-472 -426)"/>
</clipPath>
</defs>
</svg>
